<?xml version="1.0" encoding="utf-8"?><svg xmlns="http://www.w3.org/2000/svg" xmlns:xlink="http://www.w3.org/1999/xlink"><symbol id="american-express-logo" viewBox="0 0 512 175.1" xmlns="http://www.w3.org/2000/svg"><style>.ast0{fill:#b5b5b5}</style><path class="ast0" d="M199.3 137l21.1-22.6v46L199.3 137zm-66.9-16.9v10.4h30.1v11.7h-30.1v11.4H166l15.7-16.9-15-16.7-34.3.1zm372.8 8.6c4.7 4.8 6.8 10.8 6.8 18.8 0 17.3-11.6 27.6-31 27.6h-26.7c-3.9 0-7.3-2.4-8.7-5.8-5.2 3.7-12.1 5.8-20.6 5.8h-26.7c-1.5 0-2.9-.4-4.1-1-1.3.6-2.6 1-4.1 1h-45.8c-1.5 0-2.9-.4-4.2-1.1-1.3.7-2.7 1.1-4.2 1.1h-13.8c-5.2 0-9.5-4.2-9.5-9.5v-11.4c-.6 0-1.5-.1-2.8-.1h-5.2v11.5c0 5.2-4.2 9.5-9.5 9.5h-13.8c-5.2 0-9.5-4.2-9.5-9.5V151c-4.9 2.9-11.6 4.8-20.8 4.8h-7.6v9.8c0 5.2-4.2 9.5-9.5 9.5h-26.6c-2.7 0-5.3-1.1-7.1-3.2l-9.9-11.2-10.4 11.3c-1.8 1.9-4.3 3-6.9 3h-54.3c-5.2 0-9.5-4.2-9.5-9.5v-57.4c0-5.2 4.2-9.5 9.5-9.5h55.1c2.7 0 5.3 1.1 7 3.2l10 11.1 10.4-11.2c1.8-1.9 4.3-3 7-3H252c9.6 0 16.3 2.1 21.2 5.3 1.6-3.1 4.7-5.3 8.4-5.3h31.7c7.3 0 14.3.3 21 3.8.7.4 1.2.9 1.8 1.4 1.6-3.1 4.7-5.2 8.4-5.2H390c3.5 0 6.5 2 8.2 4.9 4.5-3.1 10.5-4.9 18-4.9h27.5c4.1 0 7.5 2.7 8.8 6.3 4.7-3.8 11.2-6.3 19.7-6.3h27.5c5.2 0 9.5 4.2 9.5 9.5v12.2c0 3.3-1.7 6.3-4.3 8l.3.3zM275 127.1c0-15.9-12.2-18.9-23.1-18.9h-43.8L190.7 127l-16.9-18.8h-55.1v57.4H173l17.6-19 16.9 19h26.6v-19.2h17.1c11.9-.1 23.8-3.4 23.8-19.3zm52 11.8c3.6-1.4 9.7-6.1 9.7-15.3 0-6.5-2.7-10.1-7-12.7-4.5-2.4-9.6-2.7-16.5-2.7h-31.7v57.4h13.8v-20.9h14.6c5 0 8.1.5 10 2.5 2.6 2.7 2.2 7.8 2.2 11.2v7.2h13.8v-11.4c-.1-5.1-.3-7.7-2.3-10.5-1.1-1.6-3.6-3.7-6.6-4.8zm63-30.7h-45.7v57.4H390v-11.9l-32.1-.1v-11.4h31.3v-11.7h-31.3v-10.4H390v-11.9zm56.5 39.2c0-5.9-1.4-9.4-4.1-12.2-3.1-3.1-8.2-4.4-15.6-4.6l-7.4-.2c-2.3 0-3.9-.1-5.3-.7-1.7-.7-3-2.1-3-4.3 0-1.8.6-3.2 2.1-4.1 1.4-.9 3-1 5.5-1h25.2v-12.2h-27.5c-14.4 0-19.6 8.7-19.6 17.1 0 18.1 16.1 17.3 28.9 17.7 2.4 0 3.8.4 4.9 1.3 1 .8 1.7 2.1 1.7 3.8 0 1.6-.7 2.9-1.6 3.8-1.2 1.1-3 1.4-5.6 1.4h-26.6v12.3H425c13.8.1 21.5-5.7 21.5-18.1zm56 0c0-5.9-1.4-9.4-4.1-12.2-3.1-3.1-8.2-4.4-15.7-4.6l-7.4-.2c-2.3 0-3.9-.1-5.3-.7-1.7-.7-3-2.1-3-4.3 0-1.8.6-3.2 2.1-4.1 1.4-.9 3-1 5.5-1h25.1v-12.2h-27.5c-14.4 0-19.6 8.7-19.6 17.1 0 18.1 16.1 17.3 28.9 17.7 2.4 0 3.8.4 4.9 1.3 1 .8 1.7 2.1 1.7 3.8 0 1.6-.7 2.9-1.6 3.8-1.1 1.1-3 1.4-5.6 1.4h-26.6v12.3H481c13.8.1 21.5-5.7 21.5-18.1zm-250.6-27.3H234v14.6h17.7c5.3 0 8.6-2.6 8.6-7.6s-3.4-7-8.4-7zM260 33c1.8-.9 2.8-3 2.8-5.5s-1.1-4.2-2.9-5.1c-1.6-.9-4.1-1-6.5-1h-16.9v12.7h16.7c2.7 0 4.9 0 6.8-1.1zm58.7 88.1c-1.7-1-4.1-1-6.5-1h-16.9V133H312c2.7 0 4.9-.1 6.8-1.2 1.8-1.1 2.8-3 2.8-5.5-.1-2.5-1.1-4.3-2.9-5.2zm50.6-101.9l-9.4 22.9h18.9l-9.5-22.9zM34.6 42.1h18.7l-9.4-22.9-9.3 22.9zm76.7 34.2c-3.7 0-7.1-2.2-8.7-5.6l-1.8-4.1v.2c0 5.2-4.2 9.5-9.5 9.5H63.5c-3.8 0-7.3-2.3-8.8-5.9l-2.9-6.9H36l-2.9 7c-1.5 3.5-4.9 5.8-8.7 5.8H9.5c-3.2 0-6.2-1.6-7.9-4.3-1.7-2.7-2.1-6-.8-8.9L25.3 5.7C26.8 2.3 30.2 0 34 0h20.4c3.8 0 7.2 2.3 8.7 5.7l5.1 12V9.5c0-5.2 4.2-9.5 9.5-9.5h22.4c3.7 0 7 2.1 8.6 5.5l9 19.5 8.1-19.2c1.5-3.5 4.9-5.8 8.7-5.8h22.9c1.9 0 3.6.7 5.1 1.7 1.5-1 3.2-1.7 5.1-1.7h45.8c1.8 0 3.3.6 4.7 1.5 1.4-.8 3-1.5 4.8-1.5h31.5c8.2 0 14.9.3 21.4 4 .7.4 1.1.9 1.7 1.3 1.6-3.1 4.7-5.3 8.4-5.3h14c4.7 0 8.5 3.5 9.2 8 6.1-5.3 14.5-8 25.7-8H348c2.1 0 4.1.7 5.7 1.9 1.6-1.2 3.6-1.9 5.7-1.9h20.5c3.8 0 7.2 2.3 8.7 5.7l5 11.8v-8c0-5.2 4.2-9.5 9.5-9.5H424c3.3 0 6.4 1.7 8.1 4.6l6.5 10.8V9.5c0-5.2 4.2-9.5 9.5-9.5h14c5.2 0 9.5 4.2 9.5 9.5v57.4c0 5.2-4.2 9.5-9.5 9.5h-19.4c-3.3 0-6.4-1.7-8.1-4.6l-8.4-13.9V67c0 5.2-4.2 9.5-9.5 9.5h-27.9c-3.8 0-7.3-2.3-8.7-5.8l-2.9-7h-15.8l-2.8 6.9c-1.4 3.6-4.9 5.9-8.7 5.9h-16.1c-6.1 0-17-1.1-24.8-7.6-.9 4.3-4.5 7.6-9.1 7.6h-14c-1.6 0-3-.5-4.3-1.1-1.3.7-2.7 1.1-4.2 1.1h-13.8c-5.2 0-9.4-4.2-9.5-9.4l-.1-7.2v-4.2c-.6 0-1.5-.1-2.7-.1H246V67c0 5.2-4.2 9.5-9.5 9.5h-13.7c-1.8 0-3.3-.6-4.8-1.5-1.4.8-3 1.5-4.7 1.5h-45.8c-1.9 0-3.6-.7-5.1-1.7-1.5 1-3.2 1.7-5.1 1.7h-14.1c-5.2 0-9.5-4.2-9.5-9.5v-.2l-1.8 4.1c-1.5 3.4-4.9 5.6-8.7 5.6l-11.9-.2zm195.3-37.7c0 10.4 2.5 17 7.4 21.9 4.8 4.9 13.2 6.3 19.8 6.3h16.1L355 54h28.5l5.3 12.8h27.9v-43l26 43.1h19.4V9.5h-14v40L424 9.5h-20.9v54.3L379.9 9.5h-20.5L340 54.6h-6.1c-3.6 0-7.4-.7-9.6-3-2.6-2.9-3.8-7.3-3.8-13.5 0-6 1.6-10.6 3.9-13 2.7-2.7 5.5-3.4 10.5-3.4h13V9.5h-13.2c-9.5 0-16.4 2.1-20.8 6.7-5.8 6.1-7.3 13.9-7.3 22.4zm28.5-7.4c-3.2 0-3.5.3-3.9.7-.1.2-1.1 2.2-1.1 6.2 0 3.9.6 5.8 1.1 6.7.5.1 1.4.3 2.7.3l6-13.9h-4.8zm-49.2 35.6h14V9.5h-14v57.3zm-63.1 0h13.7V46h14.7c4.9 0 8 .4 10 2.4 2.5 2.8 2.2 7.7 2.2 11.2l.1 7.2h13.8V55.6c0-5.1-.3-7.7-2.3-10.5-1.2-1.7-3.8-3.7-6.8-4.8 3.5-1.4 9.7-6.1 9.7-15.3 0-6.4-2.6-10.1-6.9-12.7-4.4-2.6-9.6-2.7-16.6-2.7h-31.5l-.1 57.2zm-55.2 0h45.8V55h-32.1V43.5h31.3V31.7h-31.3V21.4h32.1V9.5h-45.8v57.3zm-56.3 0h12l19.9-44.9.1 44.9h14.1V9.5h-22.9L118 48.4 100.1 9.5H77.7v54.3L54.3 9.5H34L9.4 66.8h14.9L29.7 54h28.5l5.3 12.8h27.9v-45l19.9 45z" id="aLayer_1_copy_27_"/></symbol></svg>