<svg id="Layer_1" xmlns="http://www.w3.org/2000/svg" viewBox="0 0 255.5 46.7"><style>.st0{fill:#140b01}.st1{fill:#a0cf67}.st2{fill:#fff}</style><path class="st0" d="M73.2 40.8V36c0-.1 0-.1-.1-.1 0 0-.1 0-.2.1l-3.8 4.5c-.2.3-.4.4-.8.4s-.7-.2-.7-.6v-5h.7V40c0 .1 0 .1.1.1s.1-.1.2-.1l3.8-4.5c.2-.2.4-.3.8-.3.6 0 .6.5.6.6v5h-.6zM83.4 40.8v-2.6h-4.5v2.6h-.7v-5.5h.7v2.4h4.5v-2.4h.7v5.5h-.7zM90.3 40.8v-5h-2.8v-.5h6.3v.5H91v5h-.7zM99.5 40.8c-.6 0-1.4-.1-2-.7-.6-.6-.6-1.3-.6-2.1s.1-1.7 1-2.3c.7-.4 1.6-.5 2.3-.5.5 0 1.3.1 1.9.3.3.1 1.2.6 1.2 1.8 0 .2 0 .5-.3.7-.2.1-.6.2-.8.2h-4.5c0 .3 0 .8.1 1.1.2.4.7 1 1.7 1h3.6v.5h-3.6zm2.7-3.1c.3 0 .3-.3.3-.4 0-.5-.3-.9-.5-1.1-.5-.5-1.3-.5-1.9-.5-.7 0-1.5 0-2.1.7-.3.4-.3.8-.4 1.3h4.6zM108 42.5h-.7v-6.6c0-.3.2-.5.4-.5.3-.2.6-.2.8-.2h1.9c.5 0 1.5.1 2.2.6.8.6.8 1.4.8 2 0 .7-.1 1.4-.6 2-.6.7-1.4.8-2.6.8H108v1.9zm2.4-2.2c.7 0 1.3-.2 1.7-.6.3-.4.4-.9.4-1.7 0-.8-.1-1.2-.3-1.5-.4-.6-1.1-.8-1.8-.8h-2.1c-.1 0-.2 0-.2.1-.1.1-.1.1-.1.2v4.3h2.4zM118 35.2v2.4h3.4c.3 0 .9 0 1.3.3.5.3.5.8.5 1.2 0 .3 0 1-.5 1.4-.4.3-.9.3-1.4.3H118c-.2 0-.4 0-.6-.1-.2-.1-.2-.3-.2-.5v-4.9h.8zm0 4.7v.3c.1.1.2.1.3.1h3.1c.2 0 .5 0 .8-.3.1-.1.2-.4.2-.9 0-.2 0-.6-.3-.8-.2-.2-.6-.2-.7-.2H118v1.8zM129.4 40.8c-.6 0-1.4-.1-2-.7-.6-.6-.6-1.3-.6-2.1s.1-1.7 1-2.3c.7-.4 1.6-.5 2.3-.5.5 0 1.3.1 1.9.3.3.1 1.2.6 1.2 1.8 0 .2 0 .5-.3.7-.2.1-.6.2-.8.2h-4.5c0 .3 0 .8.1 1.1.2.4.7 1 1.7 1h3.6v.5h-3.6zm2.8-3.1c.3 0 .3-.3.3-.4 0-.5-.3-.9-.5-1.1-.5-.5-1.3-.5-1.9-.5-.7 0-1.5 0-2.1.7-.3.4-.3.8-.4 1.3h4.6zM137.9 42.5h-.7v-6.6c0-.3.2-.5.4-.5.3-.2.6-.2.8-.2h1.9c.5 0 1.5.1 2.2.6.8.6.8 1.4.8 2 0 .7-.1 1.4-.6 2-.6.7-1.4.8-2.6.8H138v1.9zm2.4-2.2c.7 0 1.3-.2 1.7-.6.3-.4.4-.9.4-1.7 0-.8-.1-1.2-.3-1.5-.4-.6-1.1-.8-1.8-.8h-2.1c-.1 0-.2 0-.2.1-.1.1-.1.1-.1.2v4.3h2.4zM152.4 40.8v-2.6h-4.5v2.6h-.7v-5.5h.7v2.4h4.5v-2.4h.7v5.5h-.7zM158 35.2v2.4h3.4c.3 0 .9 0 1.3.3.5.3.5.8.5 1.2 0 .3 0 1-.5 1.4-.4.3-.9.3-1.4.3h-3.2c-.2 0-.4 0-.6-.1-.2-.1-.2-.3-.2-.5v-4.9h.7zm0 4.7v.3c.1.1.2.1.3.1h3.1c.2 0 .5 0 .8-.3.1-.1.2-.4.2-.9 0-.2 0-.6-.3-.8-.2-.2-.6-.2-.7-.2H158v1.8zm6.1-4.7h.7v5.5h-.7v-5.5zM171.3 40.8c-.6 0-1.4-.1-2-.7-.6-.6-.6-1.3-.6-2.1s.1-1.7 1-2.3c.7-.4 1.6-.5 2.3-.5.5 0 1.3.1 1.9.3.3.1 1.2.6 1.2 1.8 0 .2 0 .5-.3.7-.2.1-.6.2-.8.2h-4.5c0 .3 0 .8.1 1.1.2.4.7 1 1.7 1h3.6v.5h-3.6zm2.8-3.1c.3 0 .3-.3.3-.4 0-.5-.3-.9-.5-1.1-.5-.5-1.3-.5-1.9-.5-.7 0-1.5 0-2.1.7-.3.4-.3.8-.4 1.3h4.6zM185.9 42.5h-.7v-6.6c0-.3.2-.5.4-.5.3-.2.6-.2.8-.2h1.9c.5 0 1.5.1 2.2.6.8.6.8 1.4.8 2 0 .7-.1 1.4-.6 2-.6.7-1.4.8-2.6.8H186v1.9zm2.4-2.2c.7 0 1.3-.2 1.7-.6.3-.4.4-.9.4-1.7 0-.8-.1-1.2-.3-1.5-.4-.6-1.1-.8-1.8-.8h-2.1c-.1 0-.2 0-.2.1-.1.1-.1.1-.1.2v4.3h2.4zM197.5 40.8c-.6 0-1.4-.1-2-.7-.6-.6-.6-1.3-.6-2.1s.1-1.7 1-2.3c.7-.4 1.6-.5 2.3-.5.5 0 1.3.1 1.9.3.3.1 1.2.6 1.2 1.8 0 .2 0 .5-.3.7-.2.1-.6.2-.8.2h-4.5c0 .3 0 .8.1 1.1.2.4.7 1 1.7 1h3.6v.5h-3.6zm2.7-3.1c.3 0 .3-.3.3-.4 0-.5-.3-.9-.5-1.1-.5-.5-1.3-.5-1.9-.5-.7 0-1.5 0-2.1.7-.3.4-.3.8-.4 1.3h4.6zM210.4 35.2v5h3.3c.1 0 .3 0 .3-.1.1-.1.1-.2.1-.3v-4.7h.7V40c0 .2 0 .4-.2.6-.3.2-.7.2-1 .2h-7.2c-.3 0-.7 0-1-.2-.2-.1-.2-.4-.2-.6v-4.8h.7v4.7c0 .1 0 .2.1.3.1.1.2.1.3.1h3.3v-5h.8zM221.3 40.8c-.6 0-1.4-.1-2-.7-.6-.6-.6-1.3-.6-2.1s.1-1.7 1-2.3c.7-.4 1.6-.5 2.3-.5.5 0 1.3.1 1.9.3.3.1 1.2.6 1.2 1.8 0 .2 0 .5-.3.7-.2.1-.6.2-.8.2h-4.5c0 .3 0 .8.1 1.1.2.4.7 1 1.7 1h3.6v.5h-3.6zm2.7-3.1c.3 0 .3-.3.3-.4 0-.5-.3-.9-.5-1.1-.5-.5-1.3-.5-1.9-.5-.7 0-1.5 0-2.1.7-.3.4-.3.8-.4 1.3h4.6zM234.2 40.8v-2.6h-4.5v2.6h-.7v-5.5h.7v2.4h4.5v-2.4h.7v5.5h-.7zM244.7 40.8V36c0-.1 0-.1-.1-.1 0 0-.1 0-.2.1l-3.8 4.5c-.2.3-.4.4-.8.4s-.7-.2-.7-.6v-5h.7V40c0 .1 0 .1.1.1s.1-.1.2-.1l3.8-4.5c.2-.2.4-.3.8-.3.6 0 .6.5.6.6v5h-.6zM252.1 38.8l.1-.1c0-.1-.1-.1-.1-.1h-.8c-.5 0-1-.1-1.4-.5-.4-.4-.4-.9-.4-1.2 0-.4.1-.9.5-1.3.3-.2.7-.4 1.2-.4h3.1c.3 0 .6 0 .9.2.3.2.3.5.3.7v4.7h-.7v-4.6c0-.1 0-.2-.1-.3-.1-.1-.3-.1-.5-.1h-3c-.3 0-.5.1-.7.3-.2.2-.2.6-.2.8 0 .5.1.7.2.9.2.3.5.3.9.3h1.4c.2 0 .6 0 .6.3 0 .1 0 .2-.2.4l-2.8 2h-1l2.7-2z"/><g><path class="st0" d="M80.5 24.4c-.3.7-.8 1.4-2.2 1.4-1.4 0-1.9-.7-2.2-1.4l-4.4-11.1c0-.1-.1-.4-.3-.4-.2 0-.2.2-.2.3l.2 12.4h-3.8V10.7c0-1.7 1.4-2.5 3-2.5 1.4 0 2.4.5 2.9 1.8l4.3 11c.1.2.3.7.5.7s.4-.5.5-.7l4.3-10.9c.6-1.4 1.5-1.8 2.9-1.8 1.6 0 2.9.8 2.9 2.5v14.9h-3.8l.2-12.4c0-.2-.1-.3-.2-.3s-.2.3-.3.4l-4.3 11zM102.1 8.4c1.5 0 2.8.5 3.6 1.3.7.7 1.3 2.1 1.3 4.1v8.9c0 .6-.1 1.6-.7 2.2-.6.6-1.6.7-2.4.7h-8.2c-.9 0-2.1 0-3.1-.8-1.4-1.2-1.5-3.4-1.5-4.7 0-1.5.2-3 1.5-4.2 1.1-.9 2.2-1 3.1-1h7.5v-1.2c0-.5-.1-1.1-.5-1.6-.5-.6-1.3-.7-1.8-.7h-8.5v-3h9.7zm-5.2 9.4c-.3 0-1 0-1.4.6-.2.2-.5.6-.5 1.9 0 .5.1 1.4.5 1.9.3.3.7.5 1.2.5h5.3c.2 0 .6 0 .8-.2.3-.2.3-.5.3-.7v-4h-6.2zM115.8 25.6c-1.3 0-3.6-.3-5.1-2.1-1.4-1.7-1.6-3.8-1.6-6.3 0-2 0-5 1.9-7 .7-.7 2.2-1.8 5.3-1.8h7.4v2.9h-6.1c-2.6 0-3.8 1.3-4.2 2.7-.3.9-.3 2.7-.3 3.2 0 1 .1 2.7.6 3.6.8 1.7 2.7 1.8 4.3 1.8h6.2v2.9h-8.4zM131.3 25.6V11.3h-6.4V8.4h16.7v2.9h-6.5v14.3h-3.8zM148.9 25.6c-1.8 0-3.8-.2-5.3-2.2-1.1-1.6-1.2-4-1.2-6.3 0-3.2.2-5.6 2-7.2 1.9-1.6 4.8-1.6 6.4-1.6 2 0 4.1.1 5.7 1.1 2 1.3 2.4 3.4 2.4 5.6 0 .9-.1 1.9-.8 2.6-.5.5-1.2.6-1.8.6h-10c0 .7.1 1.8.2 2.4.5 1.8 2.1 2 3.5 2h8.4v2.9h-9.5zm5.3-10.2c.7 0 .8-.6.8-1 0-1.1-.6-1.9-1.1-2.3-.9-.7-2.2-.8-3.2-.8s-2.6 0-3.6 1.1c-.8.9-.7 1.8-.8 2.9h7.9zM164.9 31.1h-3.8v-20c0-1.1.6-1.8 1-2.1.6-.5 1.5-.6 2.1-.6h6c1.1 0 3.4.2 5.1 1.9 1.8 1.8 1.8 4.5 1.8 6.4 0 2.3-.1 4.7-1.4 6.5-1.6 2.3-4.3 2.5-6 2.5h-4.8v5.4zm4.3-8.4c1.9 0 2.8-.9 3.2-1.6.4-.5.7-1.6.7-4.1 0-2.3-.3-3.2-.5-3.7-.5-1.1-1.6-1.9-3.3-1.9h-3.7c-.2 0-.4.1-.5.2-.2.2-.3.4-.3.6v10.5h4.4zM185.6 23.6c.1.2.2.5.4.5s.3-.4.3-.5l3.7-14c.3-1.2 1-1.4 1.6-1.4.5 0 1.2.2 1.6 1.4l3.7 14c0 .1.1.5.3.5.2 0 .3-.3.4-.5l3.9-15.2h1.7L199 24.3c-.2.7-.6 1.4-1.7 1.4-1.3 0-1.6-1-1.8-1.5l-3.6-13.4c0-.2-.1-.6-.3-.6-.1 0-.2.4-.3.6l-3.6 13.4c-.1.5-.5 1.5-1.8 1.5-1.1 0-1.5-.7-1.7-1.4L180 8.4h1.7l3.9 15.2zM205.7 10.1c1.7-1.7 4.2-1.9 6.4-1.9s4.7.2 6.4 1.9c1.9 1.8 2.1 4.9 2.1 6.8 0 3.7-1 5.8-2.1 6.9-1.9 1.8-4.8 1.9-6.4 1.9-1.5 0-4.5-.1-6.4-1.9-1.1-1.1-2.1-3.2-2.1-6.9 0-1.9.3-4.9 2.1-6.8zm1.1 12.5c1.4 1.5 3.5 1.7 5.3 1.7s3.9-.2 5.3-1.7c1.4-1.6 1.4-4.1 1.4-5.5 0-1.5 0-4.2-1.4-5.7-1.3-1.5-3.7-1.6-5.3-1.6-1.6 0-4 .1-5.3 1.6-1.4 1.5-1.4 4.2-1.4 5.7 0 1.4 0 4 1.4 5.5zM224.7 10.1c1.7-1.7 4.2-1.9 6.4-1.9s4.7.2 6.4 1.9c1.9 1.8 2.1 4.9 2.1 6.8 0 3.7-1 5.8-2.1 6.9-1.9 1.8-4.8 1.9-6.4 1.9-1.5 0-4.5-.1-6.4-1.9-1.1-1.1-2.1-3.2-2.1-6.9-.1-1.9.2-4.9 2.1-6.8zm1 12.5c1.4 1.5 3.5 1.7 5.3 1.7s3.9-.2 5.3-1.7c1.4-1.6 1.4-4.1 1.4-5.5 0-1.5 0-4.2-1.4-5.7-1.3-1.5-3.7-1.6-5.3-1.6-1.6 0-4 .1-5.3 1.6-1.4 1.5-1.4 4.2-1.4 5.7 0 1.4 0 4 1.4 5.5zM255 25c-.5.6-1.3.6-1.9.6h-5.3c-1.7 0-4.3-.4-5.6-3.5-.7-1.7-.8-3.7-.8-5.6 0-1.9.1-3.8 1.3-5.6 1.6-2.3 3.9-2.6 5.8-2.6h5.2V2.9h1.7v20.2c.1.7 0 1.5-.4 1.9zm-6.8-15c-1.3 0-3.1.3-4.1 1.9-.6 1-.8 2.5-.8 4.9 0 3.1.3 4.1.5 4.6.9 2.4 3.1 2.7 4.4 2.7h4.3c.2 0 .8 0 1-.3.2-.2.3-.8.3-1.2V10h-5.6z"/></g><g><path class="st1" d="M60.7 26C50.3 46.1 19.7 51.6 0 42.5 17.2 25 41.6 22.2 60.7 26"/><path class="st0" d="M36.3 0c3.5 19.5-6.8 35.3-25.5 37.3C10.4 13.9 20.9 5.7 36.3 0"/><path class="st2" d="M11 30.8c.1-1.3.2-2.3.2-2.3L28.8 15l2.6 1.7-9.3 18.8L41 24.8s2.4-.2 5.5-.1c3.3 0 5.3.2 5.3.2L34.1 45.2s-2.6.6-4.7.9c-2.6.4-4.6.5-4.6.5L37.5 32 9.8 45.7c-.7-.1-1-.2-1.9-.4l-1.8-.6L20 36.8l5.2-15L1.1 42.9 0 42.5s2.8-2.9 5.5-4.9c1-.8 2.9-2.2 4.1-2.9l1.2-.8s0-1.4.2-3.1z"/></g></svg>