<svg id="Режим_изоляции" xmlns="http://www.w3.org/2000/svg" viewBox="0 0 40 40"><style>.st0{fill:#0b80e0}</style><path class="st0" d="M31.5 40c-1.3 0-2.5-.3-3.6-.8-.1-.1-.2-.1-.3-.1C16.2 33.3 6.8 23.8.9 12.5c0-.1-.1-.2-.1-.3C.3 11 0 9.8 0 8.5 0 3.7 4.2 0 7 0c.4 0 .6.2.7.3 0 0 .1.1.1.2l.2.1 6.6 8.5.2.2c0 .1.2.3.2.7 0 .2 0 .3-.1.5l-2.2 2.2c-.8.8-1.3 1.8-1.3 2.9 0 1 .4 2 1.1 2.8l.1.1c2.5 3.4 5.5 6.4 9 8.9l.1.1c.7.7 1.7 1.1 2.8 1.1 1 0 2.1-.4 2.8-1.2l.1-.1 2.2-2.3h.4c.4 0 .6.2.7.3l.2.2 8.5 6.6.2.1c.1.1.2.1.2.1.1.1.3.3.3.7v.2c-.3 2.7-3.9 6.8-8.6 6.8z"/></svg>