<svg xmlns="http://www.w3.org/2000/svg" viewBox="0 0 1554 719.46"><g data-name="Layer 2"><g data-name="Layer 1"><path d="M695.6 550c-1.6 2-2.81 4.19-4.23 6.32a65.5 65.5 0 0 0-3.58 6c-1.09 2.08-.37 5 1.23 6.68 3.34 3.56 5.93 5.36 9.56 8.63 1.46 1.32 2.16.07 2.46-1.41.23-1.17-.49-1.62-1-2.54a55.61 55.61 0 0 0-3.51-5.37c-1.28-1.68-1.61-1.55-3-3.13-.17-.19-.41-.4-.39-.66a1.31 1.31 0 0 1 .35-.68c4.26-5.34 9.14-6 12.76-14.65 0 0-.93-4.92-3.9-5.56-6.64.2-6.19.52-6.75 6.37z" fill="#1d1f24"/><path d="M466.5 628.72l447-53.5s-165.5 2.5-288 26-159 27.5-159 27.5z" fill="#e8ecf2"/><path d="M712.35 549.51c-1.09-1-5-.93-7.05-.07-3.57 1.51-6.63 4.46-9.59 5.61-.33.13-.49.47-.3.59 1.43.89 4.55-.74 6.82-1.66 1.26-.52 12.02-2.71 10.12-4.47z" fill="none" stroke="#1d1f24" stroke-linecap="round" stroke-miterlimit="10" stroke-width=".75"/><path d="M696.74 556.06l8.53-4.62a3.36 3.36 0 0 1 2-.43l4.53.07-12.06 4.81c-1.5.38-2.91.64-3 .17z" fill="#1d1f24"/><path d="M685.59 565.63s-1.07.92.12 1.58a27.59 27.59 0 0 0 2.82 1.43m-2.94-3.01l-20.36-.48s-1.07.92.12 1.58a27 27 0 0 0 2.82 1.44" fill="none" stroke="#1d1f24" stroke-linecap="round" stroke-miterlimit="10" stroke-width="1.4"/><path d="M701.32 582.28l-5.31-1-15.88-13.08s23.79-13 23.82-13.09-1.14-.52-2.71.34S678 568.31 678 568.31l-.13-1.8-2.54-.13v3.66l-4.23 8 1.75 1 2.47-1.16 1.56-5.62 16.48 15.27s6.11 4 9.33 3.81z" fill="#f9fafc"/><path d="M674.72 575.54l-1.86-1a5.22 5.22 0 0 0-3.47.18c-5 2-8.82 10.55-8.46 19.22s4.73 14.11 9.76 12.16 8.82-10.55 8.46-19.21c-.22-5.32-1.95-9.43-4.43-11.35zm-5.14 17.15c-.65.26-1.23-.46-1.27-1.59a2.66 2.66 0 0 1 1.1-2.51c.66-.25 1.23.46 1.28 1.59a2.64 2.64 0 0 1-1.11 2.51zm42.25-34.38c-6.43 2.49-11.35 13.05-11.44 24.09l1.11 8.91c2.07 7.36 6.81 11.34 12.08 9.31 6.78-2.63 11.89-14.23 11.4-25.91s-6.37-19.02-13.15-16.4zm1.34 38.48c-5.4 2.09-10.1-3.93-10.49-13.45s3.67-18.92 9.06-21a5.54 5.54 0 0 1 5.59.83c2.73 2.09 4.66 6.67 4.9 12.62.39 9.5-3.66 18.91-9.06 21zm-20.68-35.48l-8.85 4.86-.31-.84 8.85-4.86.31.84z" fill="#f9fafc"/><path d="M712.1 558.21c7.1-2.75 13.25 4.49 13.73 16.17s-4.88 23.38-12 26.13" fill="none" stroke="#1d1f24" stroke-linecap="round" stroke-miterlimit="10" stroke-width=".75"/><path d="M712.1 558.21c7-2.7 13 4.59 13.49 16.27s-4.78 23.34-11.74 26m-39.16-25.21c2.72 1.79 4.64 6 4.86 11.48.36 8.67-3.61 17.34-8.86 19.38m-1.3-31.39a5.74 5.74 0 0 1 3.61-.25" fill="none" stroke="#1d1f24" stroke-linecap="round" stroke-miterlimit="10" stroke-width=".75"/><path d="M722.5 575.67c.39 9.52-3.66 18.93-9.06 21s-10.1-3.93-10.49-13.45 3.67-18.92 9.06-21a5.46 5.46 0 0 1 3.16-.31m-40.45 13.63c2.47 1.92 4.21 6 4.43 11.37.36 8.66-3.43 17.27-8.46 19.22s-9.4-3.51-9.76-12.17 3.43-17.28 8.46-19.22a5.22 5.22 0 0 1 3.47-.18" fill="none" stroke="#1d1f24" stroke-linecap="round" stroke-miterlimit="10" stroke-width=".75"/><path d="M670.69 590.18a2.64 2.64 0 0 1-1.11 2.51c-.65.26-1.23-.46-1.27-1.59a2.66 2.66 0 0 1 1.1-2.51c.66-.25 1.23.46 1.28 1.59z" fill="#a9b5cc"/><path d="M700.79 591c-.76-.14-7-3.28-7-3.28s-1.21-1-3.24-3.25c-3.08-3.33-14.14-12.4-14.14-12.4m23.34 10.01l-3.74-.83s-10.08-8.3-15.47-12.92" fill="none" stroke="#1d1f24" stroke-linecap="round" stroke-linejoin="round" stroke-width=".75"/><path d="M702.17 556.38c-8.57 4.5-15 8.2-23.5 13l2.11-.8-.24-.25-1.78 1" fill="none" stroke="#1d1f24" stroke-linecap="round" stroke-miterlimit="10" stroke-width=".75"/><path d="M691.86 586.6a2.07 2.07 0 0 0-.81.08c-.14.05-.21.13-.17.24s.56.31.93.34c1.13.06 3.16.47 3.52-.36a24.73 24.73 0 0 0-3.47-.3z" fill="#f9fafc" stroke="#1d1f24" stroke-linecap="round" stroke-linejoin="round" stroke-width=".75"/><path d="M677.91 568.07l-.1-1.56h-2.49l-.05 3.18a3.2 3.2 0 0 1-.47 1.53c-.95 1.94-2.41 4.17-3.35 6.11m4.93-5.3l-2.36.92" fill="none" stroke="#a9b5cc" stroke-linecap="round" stroke-miterlimit="10" stroke-width=".75"/><path fill="none" stroke="#1d1f24" stroke-linecap="round" stroke-linejoin="round" stroke-width=".75" d="M674.95 575.72l-1.92 2.71 3.35-6.4"/><path d="M703.12 583.41a.79.79 0 0 1 .81.13 1.08 1.08 0 0 1 .22.62c.24 1.66.4 3.35.49 5.08 0 .15-.15.43-.35.42" fill="none" stroke="#1d1f24" stroke-linecap="round" stroke-miterlimit="10" stroke-width=".75"/><path d="M699.67 583.74a.34.34 0 0 0 0 .3 43.83 43.83 0 0 0 .65 4.64 1 1 0 0 0 .25.53" fill="none" stroke="#a9b5cc" stroke-linecap="round" stroke-miterlimit="10" stroke-width=".75"/><path fill="none" stroke="#1d1f24" stroke-linecap="round" stroke-linejoin="round" stroke-width=".75" d="M675.7 576.45l1.05-3.99"/><path fill="#1d1f24" d="M695.52 586.64l.09 2.04-1.85-1 1.76-1.04z"/><path d="M700.66 582.29c.09-11 5-21.59 11.44-24.08 6.78-2.62 12.67 4.72 13.15 16.4s-4.62 23.28-11.4 25.9c-5.28 2-10-1.94-12.08-9.3" fill="none" stroke="#1d1f24" stroke-linecap="round" stroke-miterlimit="10" stroke-width=".75"/><path fill="none" stroke="#fc5449" stroke-linecap="round" stroke-miterlimit="10" stroke-width="2" d="M708.45 553.44l-4.35.02"/><path d="M662.24 605l60-7.48s-5.11 5.14-5.36 5.14-56.74 6.92-56.74 6.92z" fill="#f9fafc"/><path d="M1405.5 321.72l-32.75 19.75 31.75-3.75s-114.83 70.17-192.83 112.17l7.33 2.22c10 5.77 15.73 12.87 18.16 21l155.34-6.37s47.5-29.5 99.5-7.5c17.82 6.59 40.61 15.87 59.78 15.54a2.57 2.57 0 0 0 1.87-.56c.67-.74.25-1.92-.24-2.78-3.57-6.33-13.87-14.32-18.87-19.56L1518.45 435l-13-13.62c-1.38-1.44-3.55-4.86-5.43-5.68l47.5 20.5-96.5-103c-17.38-9.58-32.66-13.71-45.52-11.48z" fill="#e8ecf2"/><path d="M172.49 538.72c-.28-1.94 1.54-3.72 3.48-4a8.19 8.19 0 0 1 5.53 1.66 47.11 47.11 0 0 1-.23-8.14 6.7 6.7 0 0 1 .72-3.1c1.08-1.83 3.64-2.34 5.66-1.66a11.6 11.6 0 0 1 4.93 3.92 41.14 41.14 0 0 1 6.85 12.05c-.28-3 3.53-5.1 6.43-4.23s4.85 3.55 6.31 6.2c.68 1.24 1.48 2.64 2.87 2.93 1.07.23 2.14-.31 3.24-.41s2.46.73 2.14 1.78a4 4 0 0 1 5.78 1.63" fill="none" stroke="#06d2b5" stroke-linecap="round" stroke-linejoin="round" stroke-width=".75"/><path d="M192.44 548.92a6.53 6.53 0 0 0-.06-2 116.46 116.46 0 0 0-3-14.67m16.07 12.15a18.8 18.8 0 0 0 1.62 4.79m-21.17-16.63a9.73 9.73 0 0 0 1.75 4.69c.74.87 1.77 1.44 2.53 2.3m4.48 1.84a10.22 10.22 0 0 1-2.32 3.17" fill="none" stroke="#06d2b5" stroke-linecap="round" stroke-linejoin="round" stroke-width=".75"/><path d="M997 478.54a3.32 3.32 0 0 0-3.31-3.32h-37V471a2.91 2.91 0 0 0-2.92-2.91h-19.5a2.91 2.91 0 0 0-2.92 2.91v9.75h-20.88a21 21 0 1 0-30.94 0h-10l-8.41 8.5-16.59-14L795 489.5v-5h-11.89a4 4 0 0 0-4-3.87h-23.28v-9.38h-5.7a7 7 0 1 0-5.59 0h-5.71v9.38h-24.16v-10.57H706v-29.67h-9v40.21h-7V476a4.25 4.25 0 0 0-4.25-4.25h-14.27l-6.4-25.16-6.39 25.16h-53.36a4.26 4.26 0 0 0-4.25 4.25v11h-16.33v-7.5h-16.83v-19.11a2.17 2.17 0 0 0-4.34 0V487h-16.75v4.55h-39.25v4.54H755v.33h106.1v-.33h89.18l1-.21h.39l1.61-.44 3.44-.75v-.18l40.33-11zM628.77 441h6.79a3.4 3.4 0 0 0 0-6.79h-6.79a3.4 3.4 0 0 0 0 6.79z" fill="#e8ecf2"/><path d="M628.77 450.06h6.79a3.4 3.4 0 0 0 0-6.79h-6.79a3.4 3.4 0 0 0 0 6.79zM171.63 262.08c-3.35-5.29-20.16-8.32-20.17-8.32-15.28-2.76-38.17.9-51.33 9a111.93 111.93 0 0 0-20.06 15.84c-3 3.06-9.38 8.56-6.53 13.28 4.24 7 33.37 7.85 41.23 9.28l27.79 5c-25.67 2.12-57.45-.65-78.89 14.94-18.11 13.16-38.25 29.44-53.06 46.17-4.34 4.9-15.16 13.11-8.49 19.51 5.76 5.53 25.16 2.87 32.34 2a501 501 0 0 1 54.87-3.72s9.57 10.32 16.52 14.46c6.09 3.63 44.3 6.43 56.6 7.47l115.34 40.66-114-33.52-84.66-9.34c-12.9-1.42-34.75.54-44.91 9.39 4.27 3.34 8.49 7.33 12.93 10.61q8.19 6 16.52 11.9Q79.7 448 96.21 458.5c16.83 10.7 33.41 21.88 52.41 28l85.8 27.64 46.83 15.08 10.25-8 102.5 27 170.5-.5-14-17.72-16.5-20.78L492.5 495l-26-31.5-24.5-13.2 21.25 7.7c-8.5-14.65-19.64-28.37-40.25-38.75l-42.33-3 47.92 33.34-37.92-13.67-38.34-47.33-118.58-86.12-41.9-8.47z" fill="#e8ecf2"/><path d="M1432 518c27.08-2.87 72.75 0 79.86 11.26-16.95-2.4-33.55-4.32-49.19-5-68.61.72-143 5.78-220.67 13.34z" fill="#a9b5cc"/><path d="M637.25 550C495 544.72 259.5 605.22 303 650.72l155.92-20s-71.42-56 178.33-80.72zm524.28 155.9c-1.4-.26-2.79-.55-4.18-.87-16.44-3.77-27.57-14.13-41.33-23.43-73-49.29-161-113.58-254.43-101.07 0 0 235.74-33 238.41-33s83.77-1.59 291.37 73.79c22.05 8 45 17.32 66.66 26.38 17.62 7.38 35.12 15.3 53 22.17 6.52 2.51 12.91 5 18.52 9.45 7.78 6.17 5 10-4 9.87a385.79 385.79 0 0 0-83 7.76c-17.92 3.66-35.65 8.61-53.88 10.22-24.85 2.2-42.9-1.86-67.68-4.86-17.89-2.17-35.92-3.79-53.92-2.89-24.07 1.19-35.2 4.67-59.15 7.28-15.36 1.7-31.14 2.07-46.39-.8z" fill="#e8ecf2"/><path d="M1009 566.26c39.66 1.64 78.57 10.58 116.08 23.25 52 17.57 101.73 41.65 150.13 67.4 36.41 19.37 72.18 39.94 107.6 61.08 2.41 1.43 7.64-1.92 10-.53-58.3-34.78-117.55-68.41-179.27-96.81-42.52-19.56-86.56-36.83-132.41-46.77a364.15 364.15 0 0 0-62.13-8.14c-3.32-.14-6.67.66-10 .52z" fill="#fff"/><path d="M595.33 549.89c-111.83 2.33-250.83 8.83-313.83 21.83-58.93 12.16-150.5 41-117 97.08" fill="none" stroke="#e8ecf2" stroke-linecap="round" stroke-miterlimit="10" stroke-width=".75"/><path d="M287.43 652.24c-13.93-11.52-6.43-52 183.57-89.52 0 0-208.67 46.84-168 88z" fill="#e8ecf2"/><path d="M126.67 659.91l-.54.13c-26.26 6.24-67-5.09-68.15-37.6-.3-8.91-28.55-25.89-16.54-31.12 8.05-3.51 17.14-3.1 25.46-6.68.86-.37 1.82-.88 2-1.8.29-1.31-1.14-2.32-2.39-2.79-3.76-1.43-7.85-1.71-11.86-2-7.11-.49-42.73-.51-36-15.37 1.67-3.7 5.57-5.84 9.39-7.2 6.79-2.41 14.05-3.15 21.23-3.74 25.27-2.11 51.57-2.44 76.87-2.45 16.89 0 32.53.58 49.42.57h67.26l77.39-.06 81.08-.1q39.17 0 78.33-.13 34.56-.07 69.13-.18c11.71 0 23.46.21 35.16-.15-128.8 3.94-247.21 8.15-326.8 25.18-11.68 2.51-23.29 5.4-34.71 8.91-24.62 7.56-52.32 17-69.28 37.56-6.36 7.7-9.09 17.71-12.73 26.88a22.86 22.86 0 0 1-3.88 7.15c-2.51 2.74-6.2 4.08-9.84 4.99z" fill="#e8ecf2"/><path d="M97 555.24l377.12-5.68-384.63-.26c-19.7 0-27.99 5.94 7.51 5.94z" fill="#a9b5cc"/><path d="M1000.69 581.66c3 1.35 5.18 1.85 13.34 4.75 24.49 8.71 67.28 22.65 93.7 33.18 50.22 20 65.75 24.77 80.17 26.35 10.26 1.13 42.08-.53 62.15-8 16.27-6 23.53-9.7 27-12.57 19-16-183-57.3-183-57.3-30.43-3.88-104.85 8.47-93.36 13.59z" fill="#1d1f24"/><path fill="#e8ecf2" d="M1148.17 449.89l14.7-20.33 60.13-3.96"/><path fill="none" stroke="#0ac5f6" stroke-linecap="round" stroke-miterlimit="10" stroke-width=".75" d="M1148.17 449.89l14.7-20.33 60.13-3.96"/><path d="M633.94 549.23c-82.33-.22-177.3 13.7-230 29.17-14.36 4.22-132.28 39.85-102.24 70.32" fill="none" stroke="#1d1f24" stroke-linecap="round" stroke-miterlimit="10" stroke-width=".75"/><path d="M640.29 549.72c-69.15-.09-139.32 7.2-206.78 22.49a507.81 507.81 0 0 0-51.77 14.7c-20.13 6.87-40.42 14.52-58.82 25.3-11.68 6.84-33.81 21.78-19.4 36.61.59.61 3.19-.77 3.75-.19-24.62-25.34 49.42-51.4 63.75-56.75 41.35-15.44 84.32-24.75 127.94-31.23 45.56-6.76 91.64-10.79 137.72-10.73 1.12 0 2.72-.2 3.61-.2z" fill="#fdb102"/><path d="M653.64 549.79c-43 .11-85.81 6.13-127.49 16.44-23.51 5.82-48.62 12.59-67.42 28.77-10.87 9.35-16 21.91-6.55 34.32.44.58 3.34-.74 3.75-.19-16.79-22.13 11.75-40.13 29.26-48.47 23.44-11.21 49.87-16.45 75.19-21.34 29.54-5.7 59.54-9.25 89.65-9.33 1.12 0 2.72-.19 3.61-.2z" fill="#fdb102"/><path d="M628.17 549.8c-53.85 1.85-107.5 10.22-159.93 22.43-28 6.52-58.9 13.78-82.41 31.15-5.73 4.23-11.62 9.67-13.74 16.71-2.24 7.39 1 14.31 5.78 19.89.51.59 3.26-.76 3.74-.2-40.39-47 115.84-73.51 135.87-77.17 35.45-6.48 71.42-11.38 107.46-12.62.76 0 3.39-.2 3.23-.19z" fill="#fff"/><path d="M664.89 549.3c-65.8 2.18-124.89 11.7-165.33 26.41-41.65 15.08-57.27 35.19-41.58 53.51" fill="none" stroke="#1d1f24" stroke-linecap="round" stroke-miterlimit="10" stroke-width=".75"/><path fill="none" stroke="#a9b5cc" stroke-linecap="round" stroke-miterlimit="10" stroke-width=".75" d="M717.6 549.3h261.07m-852.55 0h544.57"/><path fill="#f9fafc" d="M369.33 560.22l-2.83.13-1.01-37.67 2.62.02 1.22 37.52z"/><path fill="none" stroke="#e8ecf2" stroke-linecap="round" stroke-miterlimit="10" stroke-width=".75" d="M496.25 495.84h454.03"/><path d="M1219 452.11c-17.47-7.13-36.6-6.24-55.06-4.19-38.07 4.23-75.65 12.95-113 22.18-93.8 23.13-183.45 48.39-275.85 78" fill="none" stroke="#06d2b5" stroke-linecap="round" stroke-linejoin="round" stroke-width=".75"/><path d="M588.18 548.74c-2.39-1.34-4.39-3.74-9-9.18-2.85-3.35-31.21-9.6-34.08-13.26a714.888 714.888 0 0 1-14.14-18.67c-16.73-8.65-33-5.86-47.62-18.93-7.8-7-8.73-13.61-13.35-20.81-7.42-11.56-16.2-26-27.3-36.41-6.9-6.45-16.52-12.83-28.21-15.59A279.18 279.18 0 0 1 358 394.94c9.53 11.92 33.36 41.25 33.36 41.25s-21.13-28-33.36-41.25c-26.83-29.16-127.2-114.5-131.6-117.06-3.87-2.24-135.53-49.07-175.87-60.66" fill="none" stroke="#06d2b5" stroke-miterlimit="10" stroke-width=".75"/><path d="M1196.5 445.84c41.35-32.81 127.8-92 170.08-123 12.82-9.4 29.53-11.54 44.37-10.14 16.83 1.59 32.48 11.54 45.84 24.17s24.82 27.95 37 42.28a429.79 429.79 0 0 0 50.68 50.65" fill="none" stroke="#06d2b5" stroke-linecap="round" stroke-linejoin="round" stroke-width=".75"/><path d="M441.77 526.77l-26.87-.14c-1 0-1.76 1.08-1.76 2.43v7.29c0 1.35.8 2.44 1.77 2.44l26.94-.32c.91 0 1.63-1.05 1.62-2.35l-.07-7c.01-1.29-.73-2.34-1.63-2.35z" fill="#0ac5f6"/><path d="M741.51 597.87c-6.35-.33-12.76-.67-19 .42" fill="none" stroke="#e8ecf2" stroke-linecap="round" stroke-miterlimit="10" stroke-width=".75"/><path d="M164.49 668.8q517.29-69.54 1036.22-126c64.11-7 128.27-13.81 192.67-17.18 39.53-2.07 79.41-2.81 118.48 3.63m-664.11 53.47c71-10 146.25 21.5 292.75 135" fill="none" stroke="#1d1f24" stroke-linecap="round" stroke-miterlimit="10"/><path d="M881.34 580c29 1.55 57.1 9.95 83.67 21.4 38.41 16.56 74.21 38.91 108.72 62.37 24.92 16.94 49.23 34.75 73.23 53a13.49 13.49 0 0 0 8.85 2.73 1.85 1.85 0 0 0 1-3.32c-40.34-30.63-81.57-60.42-125.27-86.1-30.16-17.73-61.93-33.83-95.79-43.16a209.57 209.57 0 0 0-44.48-7.41c-3.32-.18-6.69.7-10 .52zm168.33-38.69c52 1.47 103.56 9.44 154.19 21.15 67.45 15.6 133.4 37.32 198.39 61 47.45 17.3 94.44 35.82 141.18 54.95 1.63.66 3.78 0 5.85-.45a.9.9 0 0 0 .15-1.71c-76.18-31.12-153.1-60.82-231.6-85.58-57.33-18.08-115.73-33.57-175.26-42.44a697.92 697.92 0 0 0-82.91-7.47c-3.33-.09-6.67.62-10 .53z" fill="#fdb102"/><path d="M1404.66 616.42c-47.07-15.6-95.4-30.5-140-42.68s-85.18-21.53-112.53-25.35m-786.85-25.93c.42 12.71.76 25.6 1.18 38.31" fill="none" stroke="#1d1f24" stroke-linecap="round" stroke-miterlimit="10" stroke-width=".75"/><path d="M368.07 522.56l1.25 38.12" fill="none" stroke="#a9b5cc" stroke-linecap="round" stroke-miterlimit="10" stroke-width=".75"/><path d="M428.5 540.07l.53 16.15" fill="none" stroke="#1d1f24" stroke-linecap="round" stroke-miterlimit="10" stroke-width=".75"/><path d="M414.79 511.12c1.32 0 2.82.12 3.67 1.13a4.41 4.41 0 0 1 .78 2.25 55.72 55.72 0 0 1 .21 8.86l-.67-.86a2.33 2.33 0 0 1 .74.85 5.37 5.37 0 0 1 .91-1.05" fill="none" stroke="#a9b5cc" stroke-linecap="round" stroke-linejoin="round" stroke-width=".75"/><path fill="#0ac5f6" d="M1047.253 436.407l8.323 8.322-8.323 8.323-8.323-8.323z"/><path fill="none" stroke="#1d1f24" stroke-linecap="round" stroke-miterlimit="10" stroke-width=".75" d="M1047.25 453.55v16.61"/><path d="M736.32 547.51c1.17-.09 2.36 0 3.53 0l8.3.08c3.46 0 6.92.21 10.37.25 2.32 0 4.64.18 7 .15a6.81 6.81 0 0 0 1.75-.19 1 1 0 0 0 .67-.47c.34-.71-1.25-1.49-1.68-1.77-1-.63-2-1.15-3-1.75q-2.52-1.54-5.15-2.89a11.64 11.64 0 0 0-5-1.64c-2.58-.14-5.2 0-7.79 0a10 10 0 0 0-2.56.25 9.46 9.46 0 0 0-2.17 1 25.24 25.24 0 0 1-2.24 1.4c-1.21.54-2.43 1-3.63 1.6a2.43 2.43 0 0 0-1.33 2.62c0 1.43 1.45 1.52 2.65 1.41a2.07 2.07 0 0 1 .28-.05z" fill="#e8ecf2"/><path d="M1194 515.71q11.18 1.9 22.41 4.43c5 1.13 10.16 2.5 14.38 5.5 3.55 2.51 6.25 6 8.76 9.56 8 11.34 18.63 49.11 20.92 62.78 1.21 7.26-1.79 14.5-8.42 17.6-11 5.15-26 8.87-43.67 11a128.84 128.84 0 0 1-45.69-2.82c-11.34-2.74-25.17-6.2-34.87-9-44.74-13-88.78-28.29-132.51-44.41-5.52-2-10.08-16.22-7.94-18.61 6.67-7.41 20.95-14.12 29.34-18.33 25.89-13 51.11-17.35 73.45-22 18.27-3.77 27.12-2.86 44.73-2a493.07 493.07 0 0 1 59.11 6.3z" fill="#f9fafc"/><path d="M1152.36 608.13l.06.18a20.21 20.21 0 0 0 2.19 4.66c1.39 2.49 2.34 5.31 5.28 6.24 2.68.85 5.89.68 7.95-1.23a2.23 2.23 0 0 0 .64-.91c.85-2.6-4.84-4.31-6.37-5.23a21.64 21.64 0 0 1-6.67-6.32c-.7-1-1.72-2.76-3-3.16-2.26-.75-.3 5.03-.08 5.77z" fill="#fdb102"/><path d="M408.85 502.18L324 499.54c-1.92-.06-3.49 1.91-3.52 4.39l-.11 13.45c0 2.49 1.53 4.54 3.45 4.57l85.09 1.12c1.67 0 3-1.84 3-4.15l-.05-12.47c.01-2.31-1.35-4.22-3.01-4.27z" fill="#06d2b5"/><path d="M1109.8 545.42c13.92.6 20.78 1 34.63-.38-1.28-1.43-3.93-1.1-9.08-1.88q-8.83-1.35-17.7-2.55-18-2.46-36.08-4.31-9.18-.94-18.38-1.74c-3.32-.28-14.23-3-16.69-.53-4.09 4.14 5.54 5.38 8.22 5.77 8.9 1.27 41.93 5.06 55.08 5.62z" fill="#1d1f24"/><path d="M1187.9 560.75c2.45 1.31 21.37 3.86 36.43.86 12.58-2.51 21.91-10.4 22.13-11.79.54-3.03-58.56 10.93-58.56 10.93zm19.41 33.85a110.8 110.8 0 0 0 24.25-3.13C1244.5 588.29 1249 585 1249 585c-10.38 3.27-24.79 6.45-41.69 9.6z" fill="#fdb102"/><path d="M1227.78 524.26c-13.69-5-78-16.75-123.65-14.23-16.54.92-63.7 11.64-88.78 24.21a.59.59 0 0 0 .31 1.11c22.05-1.09 122 12.12 154.38 12.68 23.31.41 53.66-4 61.91-8.39 10.47-5.57-.17-14.04-4.17-15.38z" fill="#0ac5f6"/><path d="M1078.23 521.86c-6.44.72-10.92 3.11-12.35 7.41-.93 2.78 2.15 6.53 4.18 9.83-22.22-2.17-38.51-3.46-54.4-3.75-.53 0-1-.88 0-1.22 9.34-5.14 18.45-8.51 28.48-11.66 5-1.58 10.09-3 15.17-4.26 23.62-6.32 47-10.28 70.35-8.39q6.83.36 13.62 1c4.54.41 9.07.9 13.58 1.44.91.11 4.47 0 3.75 1.51q-6.61-.66-13.22-1.21t-13.22-.83c-17.8-.83-55.57 10.03-55.94 10.13z" fill="#06d2b5"/><path d="M1143 552.56c-1-1.22-16.52.1-24.09.61-15.16 1-63.09 10.13-80.24 16.83 5.24 1.49 23.09 1.38 47.46.56 49.49-1.68 58.99-15.29 56.87-18z" fill="#e8ecf2"/><path d="M1140.5 554.26c-11.15 9-82 19.1-85 16.73 0 0 46-1.43 64.89-6.19 19.99-5.02 20.11-10.54 20.11-10.54z" fill="#fdb102"/><path d="M1165.74 531.46a35.23 35.23 0 0 1 3.73-.76c6.84-1 13.8-1 20.7-1.49 3.29-.25 6.57-.61 9.83-1.1.73-.11 5.09-.86 6.53-1.16 2.27-.45 4.52-1 6.75-1.54a30.34 30.34 0 0 0 4.28-1.34c4-1.68 7.61-1.3 11.62.75 3.42 1.73 7 4 7.61 7.95 1.13 7.36-10.27 9.19-15.46 10.45a173.22 173.22 0 0 1-18.43 2.93 230 230 0 0 1-28.25 2c-6.93 0-13.91-.5-20.88-.61-2.75 0-11.4-.78-6.85-5.39a41.67 41.67 0 0 1 18.82-10.69z" fill="#7974fd"/><path d="M1167 547.24c-2.14-3.66-4.47-7.29-7.74-9.88-3.89-3.08-8.83-4.47-13.7-5.61q-10.89-2.57-21.75-4.45a437.62 437.62 0 0 0-45.59-5.44q-6.13-.42-12.31-.69c-15.68-.15-30 .47-49.89 11.53" fill="none" stroke="#f9fafc" stroke-linecap="round" stroke-miterlimit="10"/><path d="M1260.31 602.83c-8.51 4.9-54.56 15.32-69.33 14.38-6.21-.39-16.23-2-30.82-5.22-20.07-4.39-44.37-6.89-83.66-18-13-3.65-34.62-10.77-44.83-14.33-33.42-11.63-39.3-17.61-44.33-28-1.34 3 1 15.28 7.93 18.61 5.89 2.83 40.12 15 76.49 26.79s76.83 23.46 90.89 26.64 30.25 5 45.69 2.82 39.53-8.21 43.67-11 7.55-5.95 8.3-12.69z" fill="#fdb102"/><path d="M1239.51 535.2c8 11.34 18.63 49.11 20.92 62.78 1.21 7.26-1.79 14.5-8.42 17.6-11 5.15-26 8.87-43.67 11a128.84 128.84 0 0 1-45.69-2.82c-11.34-2.74-25.17-6.2-34.87-9-44.74-13-88.78-28.29-132.51-44.41-5.52-2-9.94-16.1-7.94-18.61 4.38-5.49 16.43-11.31 24.82-15.52" fill="none" stroke="#1d1f24" stroke-linecap="round" stroke-miterlimit="10"/><ellipse cx="1134.66" cy="607.38" rx="16.37" ry="23.39" transform="rotate(-30.72 1134.727 607.391)" fill="#fdb102"/><ellipse cx="1136.82" cy="604.55" rx="14.1" ry="20.32" transform="rotate(-30.72 1136.876 604.556)" fill="#f9fafc"/><ellipse cx="1015.37" cy="570.66" rx="10.92" ry="16.62" transform="rotate(-26.96 1015.362 570.654)" fill="#fdb102"/><path d="M1027.47 575.58c-.25 6-4.9 12.35-10.19 11.31" fill="none" stroke="#1d1f24" stroke-linecap="round" stroke-miterlimit="10"/><ellipse cx="1017.92" cy="568.85" rx="9.73" ry="14.8" transform="rotate(-26.96 1017.915 568.84)" fill="#f9fafc"/><path d="M1023 574.24c-.47 3.12-2.07 5.51-4.46 6.14" fill="none" stroke="#a9b5cc" stroke-linecap="round" stroke-miterlimit="10" stroke-width=".75"/><path d="M1027.09 572.28c-1.46.85 1.58 6.92 2 7.68 1 2.1 3.37 2.51 5.56 2.91.55.11 3.82 1 4 0 0-.22-.1-.71-.31-.79a12 12 0 0 1-3.33-1.69 17.75 17.75 0 0 1-4.78-4.8c-.72-1.19-1.26-2.81-2.61-3.32a.51.51 0 0 0-.32 0 .35.35 0 0 0-.21.01z" fill="#fdb102"/><path d="M1025.68 567.23c-1.62-5.59-5.27-11-11.14-12.69-4.8-1.35-8.19 2.37-9.69 6.48-2.9 7.94.22 19.39 7.45 24.06" fill="none" stroke="#1d1f24" stroke-linecap="round" stroke-miterlimit="10"/><path d="M1237.16 473.09c34.33-.67 135.59 1.88 135.59 1.88s18.92-9.08 54.58-21.41l-115.66 2z" fill="#a9b5cc"/><path fill="none" stroke="#1d1f24" stroke-linecap="round" stroke-miterlimit="10" stroke-width=".75" d="M1382.29 424.69v45.74m5.25-53.49v45.74m-124.96-3.85v14.27m4.67-14.27v14.27"/><path d="M1508.75 51.71c-16.57 1-32.92 4.83-49.31 7.69-4.51.79-11 0-11-4.65 0-5.53 10-6.59 10.12-12.11.07-4-5.06-5.62-9-5.87-33.52-2.08-61 10.22-90.63 24q-3 1.38-5.75 3c-9.21 5.44-17.24 13.08-23.89 21.41-31.89 34-73.75 53-114.19 72.78a903.38 903.38 0 0 1-8.36 4.13c-23.54 11.46-47.31 22-69.37 35.87q-3.68 2.31-7.29 4.74c-13.07 7.48-28 14.48-33 30.48a6.47 6.47 0 0 0 .82 5.35 9.18 9.18 0 0 0 4.39 3.06c7.16 2.39 14.86 1.86 22.15-.24a69 69 0 0 0 11.9-4.88c14.33-5.62 28.73-11.18 43.11-16.89 2.73-1.46 4.43-2.25 6.24-3.1q30-14.29 61.11-25.55a508.7 508.7 0 0 1 7.91-2.8c10.8-2.95 22.76-7.95 33.72-4.95 2.49 1 3 4 3.1 7.55-1.11 7.45.89 15.45 6.87 18.45 7.47 3.34 16.33 4.59 24.25 1.64a28 28 0 0 0 4.92-2.42c18.45-8.88 36.64-20.4 56-27 3.06-1 5.64-1.74 8.4-2.52 12.54-3.53 25.26-6.45 38-9.21 8.64-1.88 16.46-2.91 23.94-7.71 8.34-5.35 14.58-12.19 21.46-19.24a135.34 135.34 0 0 1 41.46-28.94c7.13-3.2 14.57-5.79 21.23-9.88s12.64-10 14.86-17.48c1.9-6.41 1.71-19-3.12-24.31-9.8-10.77-25.93-11.11-39.4-10.48zM896.69 286.1c-2.69-5.88.31-9.88 4.31-11.88 29.25-17.33 57.62-33.2 85.14-49.76q3.18-1.91 6.34-3.83c27.58-14.36 50.17-37.59 78.63-50.46 2-.92 4.09-1.79 6.19-2.59 7.7-2.36 15.7-8.36 24.7-5.36 8 2 5 12 0 17-1 .88-2 1.7-3.13 2.5-15.87 11.5-34.87 16.5-48.87 31.5-2.5 2.5-4.25 5.75-6.2 8.94-.65 1.06-1.32 2.11-2.06 3.13s-1.49 2.11-2.29 3.1-1.63 1.93-2.49 2.84a428.69 428.69 0 0 1-59.58 39.32c-1.16.61-2.45 1.23-3.74 1.83-22 10.29-45.73 16.57-70.44 17.08-3.05-.74-5.2-1.91-6.51-3.36zm219.31-1.27c-4.93 2.94-9.79 5.9-14.62 9-3.71 2.41-13.53 9.81-4 11.41 8.82 1.48 17.81-7.67 24.92-11.52 10.79-5.85 20.89-11.63 32.48-16.2 12.56-5 25.32-9.49 37.37-15.65 1.63-.83 3.54-2.52 2.66-4.13-.62-1.15-2.21-1.24-3.52-1.15a98.61 98.61 0 0 0-29.16 6.77c-15.61 6.13-31.53 12.8-46.13 21.47zm-615.84 34.02c-29.16 4.37-59.16 4.37-87.86-1.07-2.17-.5-4.33-1-6.47-1.67s-4.25-1.31-6.34-2.06a8.14 8.14 0 0 1-3.49-6.83c0-3 1.44-4.5 3.79-5.1 3.07.49 6.13.92 9.19 1.31s6.12.71 9.24 1C482 309.22 547 295.22 609.06 280.3q4.94-1.08 9.94-2.08c3 0 6 2 6 4a14 14 0 0 1-2.33 7.8 22.66 22.66 0 0 1-5.78 5.82c-32.89 16.38-71.89 22.38-109 21.78-3.11.51-5.61.91-7.73 1.23zm-96.09 25.64c-22-1.65-44.07-6.27-63.07-18.27-3.33-2.5-1.67-6.16 2-4 26 12 53 14 81.05 14.09 8.32 0 11.45 1.79 9.32 4.79-2.61 3.69-16.12 4.37-29.3 3.39zM86.63 133.62c2.53 2.14 5 4.19 7.36 6 38 32.56 84 52.56 127.66 77.8 2.72 2.32 5.12 4.55 7.64 6.9 10.21 10.38 19.36 21.27 32.59 28.33q4.13 2.28 8.46 4.24c20.2 9.19 43.46 13.7 64.19 21.27 3.26.86 6.38 1.56 9.5 2.22 9 1.7 18.11 3.1 27.25 4.4q3.87.69 7.77 1.43c5.19 1 10.43 2 15.91 3 3.72.58 7.22 1.09 10.73 1.49 2.46.3 4.93.54 7.4.7s4.94.25 7.43.24c10.48-.42 31.48-2.42 26.48-12.42-2-5-7.75-6-14.51-6.32-3.37-.17-7-.16-10.58-.4a163.55 163.55 0 0 1-41.92-9c-3.37-1.2-6.72-2.5-10-3.88a191.87 191.87 0 0 1-29-15.41 8.59 8.59 0 0 1-3.16-6.26c-.16-2.27.53-4.3 1.93-4.84 10.23-4.9 20.23 5.1 30.23 3.1 10-1 3-11-2-15-13.13-8.75-26.64-14.76-40-20.73l-8.49-3.58c-24.56-13.38-50.75-25.4-76.4-38.4L234 154c-30-17.77-61-33.77-86-58.94-3-2.81-6-5.6-8.82-8.33-10.6-10.27-19.55-19.73-27.72-27.47-2.85-2.6-5.61-5-8.49-7.23-16-9.81-40-21.81-55.23-5.19A23.1 23.1 0 0 0 42 57.22c-6 23.25 4.87 42 20.3 56.8q3.86 3.69 8.08 7.1c2.81 2.27 5.82 4.57 9.13 7q3.15 2.51 7.12 5.5z" fill="#fff"/><path d="M300.34 143.3c2.55 2.55 8.3 4 20.93 7.86l72-33.93-1.59-1.43c-26.51 8.74-57.68 17.99-91.34 27.5z" fill="#e8ecf2"/><path d="M188.72 147c1.85 2.36 59.17.33 110.8-3.19l22.41 7.19c-45.29 3.45-88 3.18-127.39-2 0 0 6.52 11.41 6.17 12.31-.81 2.09-12.53-13.49-11.99-14.31z" fill="#e8ecf2"/><path d="M298.05 139.36s-15-8.05-20.5-14.35c-7.84-9-27-51-27-51l-2.95-1.61s18.93 40.85 21.4 45.6a101.29 101.29 0 0 0 9.19 13.83c1.33 1.42 14.93 10.26 24 13 .01-.09-3.55-.9-4.14-5.47z" fill="#e8ecf2"/><path d="M321.27 151.16a60.52 60.52 0 0 0 6.48-2.91c26-12.13 40.27-19.11 65.19-30.93M299.7 139s59.69-14.48 90.9-24.58m-69.33 36.74c-44 3.06-82.37 2.81-126.34-1.88m-6.86-2.68c35.8-1.92 68.42-4.12 104.22-6m-20.57-31.84c7.91 2.06 16.58 4.12 24.16 8.26a51.62 51.62 0 0 1 13.68 10.83 43 43 0 0 1 4.65 6.08m3.41 16.13c-17.52-5.65-31.43-11.39-39.76-18.77m113.99-17.14c1.75.71 3.06 1.11 4.81 1.82" fill="none" stroke="#0ac5f6" stroke-linecap="round" stroke-miterlimit="10" stroke-width=".75"/><path d="M390.43 112.82c-3.35-6.87-8.29-16-11.48-23.26a.19.19 0 0 1 .32-.2c4.89 5.54 10 13.77 13.68 19.9a126.29 126.29 0 0 1 9.44 18.36.8.8 0 0 1 .05.69c-.24.39-.84.1-1.16-.22-3.86-3.74-6.41-7.83-9.26-12.38m-197.09 33.57c2.31 4.08 3.71 6.76 5.83 11.32a.72.72 0 0 1-1.13.84c-5.28-4.48-10.57-12.66-12.94-17.51q-4.58-9.39-8.82-18.94a.5.5 0 0 1 .84-.52c6.37 7.49 9.58 13.13 14.47 21.75m63.49-68.8c-.39-.8-.77-1.61-1.16-2.41-.9-1.85-1.79-3.7-2.86-5.44a23 23 0 0 0-7-7.57 80.81 80.81 0 0 0-7.75-4.59 1.93 1.93 0 0 0-1.6-.33c1.66 3.43 3.56 6.85 5.07 10.32a5.46 5.46 0 0 0 1.41 2.21 6.81 6.81 0 0 0 2.25.8c1.83.62 3 2.75 3.88 4.65l17.09 36.6a112.63 112.63 0 0 0 11.83 19.63c.25.38 1.09-2.67-.28-7.06-1-3.11-2.47-6-3.65-9.06-.2-.51-.34-1.2-.09-1.52a.34.34 0 0 0 0-.36c-1.38-3.03-15.81-33.19-17.14-35.87zm64.78 57.47a6.4 6.4 0 0 0 1.76 2.07 32.54 32.54 0 0 0 3.17 2.53q4 2.73 7.79 5.84m-51.39-3.41a6.09 6.09 0 0 0 2.36 2.79 30.76 30.76 0 0 0 4.8 2.84q5.12 2.63 10.42 4.9" fill="none" stroke="#0ac5f6" stroke-linecap="round" stroke-miterlimit="10" stroke-width=".75"/><path d="M243.27 69.55a14.31 14.31 0 0 1 3.81 2c2.92 1.93 5.93 3.78 9.08 4.55m42.31 63.26c-.7 2.64 1.54 4.32 4 5.43m-25.75-30.99l1.91.72" fill="none" stroke="#0ac5f6" stroke-linecap="round" stroke-miterlimit="10" stroke-width=".75"/><path d="M899.25 548.1c49.67-15.22 100.72-42.48 142.62-74.71l-19.44 4.76a460.59 460.59 0 0 1-142.56 70" fill="#e8ecf2"/><path d="M730.82 498.72l128.68 18.57" fill="none" stroke="#fdb102" stroke-linecap="round" stroke-miterlimit="10" stroke-width=".75"/><path fill="none" stroke="#e8ecf2" stroke-linecap="round" stroke-miterlimit="10" stroke-width=".75" d="M632.17 451.56v22.33m32.91-34.5v15.92"/><path fill="none" stroke="#fff" stroke-linecap="round" stroke-miterlimit="10" stroke-width=".75" d="M684.71 476.02h-15.92m15.92 3.5h-15.92"/><path fill="none" stroke="#e8ecf2" stroke-linecap="round" stroke-miterlimit="10" stroke-width=".75" d="M728 468.22v12m32.5-1.5v3.54"/><path d="M707.3 477.68l6.37-.3m-7-2.38a55.92 55.92 0 0 1 8-.37" fill="none" stroke="#fff" stroke-linecap="round" stroke-miterlimit="10" stroke-width=".75"/><path d="M1189.57 652.14a628.42 628.42 0 0 1 64.51 37.42m24.13-66.56a1076.75 1076.75 0 0 1 126.32 52.9" fill="none" stroke="#a9b5cc" stroke-linecap="round" stroke-miterlimit="10" stroke-width=".75"/><path d="M295.43 643c-21.44-23.73-49.79-40.45-79.65-51.9M363 589.59a96.64 96.64 0 0 0-30.66-25.4m85.35-7.29c3.68 3.39 6.38 7.61 9.4 12.27 1.31 2 1 0 2.32 2m41.92-17.24a15.09 15.09 0 0 1 5.59 7.75m37.93-9.35a6.3 6.3 0 0 1 2.25 3.5" fill="none" stroke="#e8ecf2" stroke-linecap="round" stroke-miterlimit="10" stroke-width=".75"/><path d="M421.79 586.79c12.87-2.1 27.44-6.23 22.49-13.78-2.13-3.26-7.36-4.44-10.92-5.35a64.63 64.63 0 0 0-15.42-2c-8.55-.08-19.23.91-26.46 5.88-3.58 2.46-5.46 6-4.33 10.36.62 2.39 2.07 5.51 4.44 6.44 3.73 1.46 9.62.59 13.58.35 2.06-.13 9.05-.69 16.62-1.9z" fill="#f9fafc"/><path fill="#1d1f24" d="M365.54 529.17l2.77-5.02-.06-1.66-2.97-.14.26 6.82z"/><path d="M1456 452.85c-19.69-4.08-39.69 3.72-58.29 11.37-26.47 10.88-53 21.79-78.06 35.62" fill="none" stroke="#1d1f24" stroke-linecap="round" stroke-miterlimit="10" stroke-width=".75"/><path d="M176.93 142.06c-41.52-17.12-79.81-43.91-111.25-77.82M817 461.72v20.5m43.75-6.68v9.84M981 462.72v13.5M384.45 109.15C350.17 80.77 319.26 43.26 294.82.38" fill="none" stroke="#e8ecf2" stroke-linecap="round" stroke-miterlimit="10" stroke-width=".75"/><path d="M405.13 575a1.8 1.8 0 0 1 1.33 0 .8.8 0 0 1 .47.61c0 .69-.86 1.24-1.36 1.53-2.38 1.39-6.27 3.27-9.09 3.24a21.83 21.83 0 0 1-6.44-1.56c-.65-.22-1.9-.7-1.47-1.59.32-.64 1.11-.6 1.72-.51a20.16 20.16 0 0 1 3.06.87 7.53 7.53 0 0 0 3.71.49 21.77 21.77 0 0 0 4-1.23 40.47 40.47 0 0 1 4.07-1.85z" fill="#fc5449"/><path d="M390.37 587.6c-4.75 1.5-5.62 6.37 13.13 3.75s35-7.63 38.5-10.38c0 0-20.93 7.08-39.25 8.25-11.75.78-12.38-1.62-12.38-1.62z" fill="#1d1f24"/><path fill="none" stroke="#fff" stroke-linecap="round" stroke-miterlimit="10" stroke-width=".75" d="M699.33 447.71v1"/><path fill="none" stroke="#fff" stroke-linecap="round" stroke-miterlimit="10" stroke-width=".75" stroke-dasharray="4.03 1.61 4.84 4.03" d="M699.33 453.55v12.49"/><path fill="none" stroke="#fff" stroke-linecap="round" stroke-miterlimit="10" stroke-width=".75" d="M699.33 468.06v1m48.25 21.08h-2.5"/><path fill="none" stroke="#fff" stroke-linecap="round" stroke-miterlimit="10" stroke-width=".75" stroke-dasharray="2.65 3.41 1.89 1.89 1.14 2.65" d="M743.95 490.14h-18"/><path fill="none" stroke="#fff" stroke-linecap="round" stroke-miterlimit="10" stroke-width=".75" d="M725 490.14h-2.5m-81.5-14h-2.5"/><path fill="none" stroke="#fff" stroke-linecap="round" stroke-miterlimit="10" stroke-width=".75" stroke-dasharray="3.59 4.61 2.56 2.56 1.54 3.59" d="M636.96 476.14h-24.35"/><path fill="none" stroke="#fff" stroke-linecap="round" stroke-miterlimit="10" stroke-width=".75" d="M611.33 476.14h-2.5M827 487.64h-2.5"/><path fill="none" stroke="#fff" stroke-linecap="round" stroke-miterlimit="10" stroke-width=".75" stroke-dasharray="1.73 2.23 1.24 1.24 0.74 1.73" d="M823.76 487.64h-11.77"/><path fill="none" stroke="#fff" stroke-linecap="round" stroke-miterlimit="10" stroke-width=".75" d="M811.37 487.64h-2.5m39.46-3.42h-2.5"/><path fill="none" stroke="#fff" stroke-linecap="round" stroke-miterlimit="10" stroke-width=".75" stroke-dasharray="2.47 3.18 1.77 1.77 1.06 2.47" d="M844.77 484.22H828"/><path fill="none" stroke="#fff" stroke-linecap="round" stroke-miterlimit="10" stroke-width=".75" d="M827.12 484.22h-2.5m111.8-15.75v1"/><path fill="none" stroke="#fff" stroke-linecap="round" stroke-miterlimit="10" stroke-width=".75" stroke-dasharray="4.62 1.85 5.54 4.62" d="M936.42 475.01v14.31"/><path fill="none" stroke="#fff" stroke-linecap="round" stroke-miterlimit="10" stroke-width=".75" d="M936.42 491.63v1"/><path d="M1145.21 592.47a24.71 24.71 0 0 0-4.59-3.7c-5.12-3.22-11.6-4.71-17-1.89-6.7 3.51-7.9 13.07-6.35 20.25m1.51 4.56c3.86 8.77 13.9 19.11 23.88 17.39l.36-.07a12.22 12.22 0 0 0 10.1-9.78 26.39 26.39 0 0 0-.38-11.81" fill="none" stroke="#1d1f24" stroke-linecap="round" stroke-miterlimit="10"/><path d="M1143.28 552.06c-3 4.21-7.21 6.92-12 9.16-5.8 2.71-12.14 4-18.43 5a341.58 341.58 0 0 1-71.36 4.41c-5.93-.25-5.18-9.29-4.59-13.33 1-7.07 4-13 7.64-18.78" fill="none" stroke="#1d1f24" stroke-linecap="round" stroke-miterlimit="10" stroke-width=".75"/><path d="M1189.48 559c14.31-.27 50.85-7.69 57.48-12.23" fill="none" stroke="#fc5449" stroke-linecap="round" stroke-miterlimit="10" stroke-width="5"/><path d="M1126.78 577.61l-9.19 9.45m-106.1-38.19l-3.9 3.63" fill="none" stroke="#fdb102" stroke-linecap="round" stroke-miterlimit="10" stroke-width=".75"/><path d="M1024.54 583.87c1.3-3.07 2.57-5.39 2.17-10.31-.1-1.29.71-1.85 1.25-.07a24.94 24.94 0 0 1 .5 9c-.75 5.96-3.92 1.38-3.92 1.38zm126.95 39.37c2.31-4.71 2.06-12.26.89-15.11-.67-1.65.79-2.06 1.86.28a34.85 34.85 0 0 1 2.36 12.29c.07 8.23-5.11 2.54-5.11 2.54z" fill="#1d1f24"/><path d="M1216.76 251.16c-.14-3.72-9.6-1.33-11.07-.79a4.85 4.85 0 0 0-3 2c-.75 1.39.13 2.55 1.43 3.12 2.5 1.08 5.19.41 7.6-.59 1.49-.62 4.57-1.22 4.94-3.1a2.81 2.81 0 0 0 .1-.64z" fill="#fff"/><path d="M1177.5 456.72l-44.5 7.55 18.41 8.58-124.72 23 80.64-9.62 7.84 3.34 122-13.42s1.58-18.54-17.16-21.92-42.51 2.49-42.51 2.49z" fill="#e8ecf2"/><path fill="#fafbfc" d="M1358.66 458.56h-130.61l52.57-68.16 130.95-8.85-52.91 77.01z"/><path fill="#06d2b5" d="M1369.5 412.31l-93.75 3.76 11.25-14.22 93.13-4.54-10.63 15z"/><path fill="#06d2b5" d="M1300 429.07l-35.1.76 10.85-13.76 35.13-1.47-10.88 14.47z"/><path fill="#0ac5f6" d="M1347.75 442.89l-93.75 1.6 11.25-13.96 93.13-2.39-10.63 14.75zm-25.83 7.8h-38.35l-5.93 7.87h-35.26l11.62-14.07 73.25-1.15-5.33 7.35z"/><path d="M1401.66 396.32l-131 6.45 7.9-9.83a7.64 7.64 0 0 1 5.31-2.81l126.79-10.49a1.26 1.26 0 0 1 1.14 2z" fill="#e8ecf2"/><path fill="none" stroke="#fafbfc" stroke-linecap="round" stroke-miterlimit="10" stroke-width=".75" d="M1287 401.85l-44.61 56.71m28.44-14.49l-11.21 14.49m39.11-50.57l-16.52 21.36m12.22 6.96l-16.79 22.25m38.75-51.34l-16.46 21.8m7.58 14.63l-11.02 14.91"/><path fill="none" stroke="#e8ecf2" stroke-miterlimit="10" stroke-width=".75" d="M1329.29 414.18l-10.74 14.53"/><path fill="none" stroke="#fafbfc" stroke-linecap="round" stroke-miterlimit="10" stroke-width=".75" d="M1327.25 443.34l-11.02 15.22"/><path fill="none" stroke="#e8ecf2" stroke-miterlimit="10" stroke-width=".75" d="M1348.87 413.47l-10.7 14.78"/><path fill="none" stroke="#fafbfc" stroke-linecap="round" stroke-miterlimit="10" stroke-width=".75" d="M1314.58 387.31l-10.54 13.62m-6.71-12.54l-10.54 13.63m45.98-16.25l-10.5 13.91m29.52-15.5l-22.5 30m25.65-8.34l-4.94 6.53m21.37-28.9l-10.7 14.78m30.87-16.69l-10.7 14.78"/><path fill="none" stroke="#e8ecf2" stroke-miterlimit="10" stroke-width=".75" d="M1369.5 412.31l-32.57 46.25m32.56-46.19l20.76-.83"/><path fill="none" stroke="#fafbfc" stroke-linecap="round" stroke-miterlimit="10" stroke-width=".75" d="M1276.25 416.14l93.24-3.77"/><path fill="none" stroke="#e8ecf2" stroke-miterlimit="10" stroke-width=".75" d="M1260.75 416.77l15.5-.63"/><path fill="none" stroke="#fafbfc" stroke-linecap="round" stroke-miterlimit="10" stroke-width=".75" d="M1271.96 402.68l128.66-6.33"/><path fill="none" stroke="#e8ecf2" stroke-miterlimit="10" stroke-width=".75" d="M1358.5 427.96l20.69-.42"/><path fill="none" stroke="#fafbfc" stroke-linecap="round" stroke-miterlimit="10" stroke-width=".75" d="M1264.98 429.87l93.52-1.91"/><path fill="none" stroke="#e8ecf2" stroke-miterlimit="10" stroke-width=".75" d="M1249.96 430.18l15.02-.31m82.88 13.16l20.76-.24"/><path fill="none" stroke="#fafbfc" stroke-linecap="round" stroke-miterlimit="10" stroke-width=".75" d="M1254.31 444.12l93.55-1.09m-99.2 7.93l73.26-.27m-62.03-14.38l93.31-.98"/><path fill="none" stroke="#e8ecf2" stroke-miterlimit="10" stroke-width=".75" d="M1238.71 444.31l15.6-.19"/><path fill="none" stroke="#fafbfc" stroke-linecap="round" stroke-miterlimit="10" stroke-width=".75" d="M1282.21 408.72l92.73-4.09m-104.11 18.28l34.55-1.11"/><path fill="none" stroke="#1d1f24" stroke-linecap="round" stroke-miterlimit="10" stroke-width=".75" d="M1237.16 473.09l135.59 1.88M1235.68 473a3 3 0 0 0-.58 3.68l99.73 4"/><path fill="#1d1f24" d="M1382.31 450.29l5.38-6.07-.16-26.87-5.31 7.78.09 25.16zm-119.73 11.5l4.75 5.62-.08-8.58-4.66.01-.01 2.95z"/><path fill="none" stroke="#0ac5f6" stroke-linecap="round" stroke-miterlimit="10" stroke-width=".75" d="M1409.49 379.66l-128.87 10.74"/><path d="M1228.75 458.56h128a4.86 4.86 0 0 0 4-2.13l51-75.15" fill="none" stroke="#1d1f24" stroke-linecap="round" stroke-miterlimit="10" stroke-width=".75"/><path fill="none" stroke="#0ac5f6" stroke-linecap="round" stroke-miterlimit="10" stroke-width=".75" d="M1278.87 392.6l-51.7 64.12"/><path d="M1387.5 427.54l20.79 25.92c1.36 1.69 2.8 3.75 2.12 5.76m-22.85-26.75l19.69 25M1235.1 476.7l-44 3.7" fill="none" stroke="#1d1f24" stroke-linecap="round" stroke-miterlimit="10" stroke-width=".75"/><path fill="none" stroke="#06d2b5" stroke-miterlimit="10" stroke-width=".75" d="M163 342.22l58.5 13.5 85 49.5m-252 8l85 30m353 51.75l-30.63-15.87"/><path d="M1352.08 521.77c.2-2.58 3.57-4.4 5.81-3 .79-5.74 5.1-7.67 10.17-6.29 2.69.74 4.46-.11 7.14-.48 1.67-.22 7.07-.23 8 1.73-.63-1.37.6-11.68 3.35-10.14a4.81 4.81 0 0 1 2.39 4c.45-10.11 7-19.9 17.11-22.64 2.85-.78 6.21-1.24 8.49.64 2.44 2 2.43 5.74 1.81 8.85a38 38 0 0 1-3.33 9.71c2-3.86 10.26-6.73 13.25-3.12 2.17-1.28 4.76-2.46 7.34-2 3 .52 4.23 3.45 3.64 6.21.76-3.53 3.63-4 6.67-2.95a4.16 4.16 0 0 1 .2-2.79c.89-2.82 1.94-5.87 4.42-7.49a18.11 18.11 0 0 1 8.19-2.66c4-.4 7 .71 7.64 4.7.39 2.37.47 7.09-1.24 9.07a9.11 9.11 0 0 1 5.13-3 4 4 0 0 1 2.46.15c1.62.73 2.06 2.78 2.3 4.53a4.83 4.83 0 0 1 4.25-.9c2 .44 3.6 2.18 5.62 2.1 2.39-.1 4-1.31 6.33.35a5.82 5.82 0 0 1 2.11 6.31" fill="none" stroke="#06d2b5" stroke-linecap="round" stroke-linejoin="round" stroke-width=".75"/><path d="M1369.54 511.47c-.6-3.42-7-4.43-9.3-2.24a3.92 3.92 0 0 0 .85-4.55c-3-5-12.23 5.19-13 8.05a29.36 29.36 0 0 0 .94-8.5 2.78 2.78 0 0 0-.52-1.81c-1-1.12-2.86-.07-3.89 1.05a33.21 33.21 0 0 0-6.87 11.83c-.82 2.32.06 2.26-2.65 2.23s-4.86-.79-7.47-.18a7.66 7.66 0 0 0-6.1 6.15 2 2 0 0 0-1.86.44 1.57 1.57 0 0 0 0 2c-.63 0-.24-3.13-.43-3.73s-.22-1.26-.47-1.84a2.56 2.56 0 0 0-2.7-1.48c-1.46.24-2.4 1.69-2.85 3.1a18.17 18.17 0 0 1-1.39 4.2 1.87 1.87 0 0 1-.51.57 2.29 2.29 0 0 1-1.13.26 48.67 48.67 0 0 0-8 1.12 2.87 2.87 0 0 0-1.3.53 1.05 1.05 0 0 0-.31 1.27" fill="none" stroke="#fdb102" stroke-linecap="round" stroke-linejoin="round" stroke-width=".75"/><path fill="#f9fafc" d="M268.38 574.49l-6.53.3-3.57-86.84 6.04.03 4.06 86.51z"/><path d="M258.28 488c1.05 27.55 2 57.86 3 85.4" fill="none" stroke="#1d1f24" stroke-linecap="round" stroke-miterlimit="10" stroke-width=".75"/><path d="M264.86 488.26c1.05 27.55 2.42 58.6 3.48 86.14" fill="none" stroke="#a9b5cc" stroke-linecap="round" stroke-miterlimit="10" stroke-width=".75"/><path fill="#1d1f24" d="M258.75 502.72L265 491.6l-.15-3.69-6.68-.31.58 15.12z"/><path d="M341.07 491l-161.24-6.29c-3.85-.15-6.9-4-6.78-8.47l.64-24.3c.11-4.49 3.33-7.91 7.17-7.65l160.33 11c3 .2 5.37 3.55 5.36 7.49L346.5 484c-.01 4-2.43 7.07-5.43 7z" fill="#7974fd"/><path d="M341.07 491l-161.24-6.29c-3.85-.15-6.9-4-6.78-8.47l.64-24.3c.11-4.49 3.33-7.91 7.17-7.65" fill="none" stroke="#5c56f5" stroke-linecap="round" stroke-miterlimit="10" stroke-width=".75"/><path fill="none" stroke="#1d1f24" stroke-linecap="round" stroke-miterlimit="10" stroke-width=".75" d="M189.62 484.97l107.88 4.32"/><path d="M186.24 548.13a3.22 3.22 0 0 0-.94-2.48 7 7 0 0 0-2.23-1.45c-4.16-1.92-9.8-2.36-13.6-4.91a13.23 13.23 0 0 1-2.05-1.91 7.39 7.39 0 0 0-4.57-2.58c-1.78-.1-3.72 1.35-3.51 3.13a46 46 0 0 1-4.36-7.64c-.68-1.77-1.15-4.92-3.57-5.2a2.77 2.77 0 0 0-2.6 1.67 8.15 8.15 0 0 0-.61 3.21c-3.35-8.13-5.15-16.77-7.82-25.12-.81-2.52-2.19-7.86-5.54-8.17-3.78-.35-3.81 4.58-3.45 7.09.71 5 1.39 10 2.4 14.86-1.44-1.14-3.67-2.23-4.88-.86a3.55 3.55 0 0 0-.64 2.1 34.85 34.85 0 0 0 .26 7.29c-.43-3-5.92-4-8.2-3.64-3.55.55-6 4-7.13 7.25a20.76 20.76 0 0 0-1 7.48 1.43 1.43 0 0 1-.15.87 1.14 1.14 0 0 1-1.5.18c-.48-.27-.85-.72-1.33-1-1.36-.79-3.18.07-4 1.41a9.21 9.21 0 0 0-.94 4.54" fill="none" stroke="#fdb102" stroke-linecap="round" stroke-linejoin="round" stroke-width=".75"/><path d="M388.87 573.6c18.62-2 38.39-4.23 51.37-3.28a.28.28 0 0 0 .11-.55c-4.92-1.73-18.61-5.77-34.18-3.46-11.84 1.75-17.3 7.29-17.3 7.29z" fill="#7974fd"/><path d="M391.48 571.54c-3.58 2.46-5.46 6-4.33 10.36.62 2.39 2.07 5.51 4.44 6.44 3.73 1.46 9.62.59 13.58.35 2.06-.13 9.05-.66 16.62-1.9 12.87-2.1 27.44-6.23 22.49-13.78a8.28 8.28 0 0 0-2.92-2.6" fill="none" stroke="#1d1f24" stroke-linecap="round" stroke-miterlimit="10" stroke-width=".75"/><path d="M300.71 547.1a1.7 1.7 0 0 1-.06-2.75 2.77 2.77 0 0 1 3.09.14 8.06 8.06 0 0 1 2.12 2.48c-.26-.71.46-1.48 1.22-1.54a3 3 0 0 1 2.05.85 7.31 7.31 0 0 0 1.87 1.28" fill="none" stroke="#fdb102" stroke-linecap="round" stroke-linejoin="round" stroke-width=".75"/><path d="M1169.09 551.44c1.5 2.67 5.55 13.76 8.77 22.82a29.74 29.74 0 0 0 18.25 18.11c3.66 1.27 7.1 2.25 8.89 2.19 8.64-.29 40-8.25 44.37-10.09 3-1.25 3.9-5.48 4.57-8.81" fill="none" stroke="#e8ecf2" stroke-linecap="round" stroke-miterlimit="10" stroke-width=".75"/><path d="M1137.43 621a9.42 9.42 0 0 0 5.17-.25c3.08-1.11 5-3.87 5.65-7.37a16.24 16.24 0 0 0-.22-6.25" fill="none" stroke="#a9b5cc" stroke-linecap="round" stroke-miterlimit="10" stroke-width=".75"/><path d="M1226.54 607.88q8-1.61 15.61-3.62a.87.87 0 0 0 .64-1 41.15 41.15 0 0 0-1.85-7.41.88.88 0 0 0-1-.55l-15.67 3.63a.87.87 0 0 0-.62 1.15 51.5 51.5 0 0 1 1.88 7.1.88.88 0 0 0 1.01.7z" fill="#e8ecf2"/><path d="M1160 620.84a122.29 122.29 0 0 0 44.43 3.72c15.75-1.65 40.75-7.5 50.83-13" fill="none" stroke="#f59600" stroke-linecap="round" stroke-miterlimit="10" stroke-width=".75"/><path d="M1253 615a6.8 6.8 0 0 0-3.24-2c-2.59-.57-5.35.53-7.82 1.13q-7.11 1.72-14.15 3.72c-6.64 1.89-13.07 3-17.8 8.38" fill="none" stroke="#1d1f24" stroke-linecap="round" stroke-miterlimit="10" stroke-width=".75"/><path d="M1115.17 608.89c-34.67-10.67-77.86-25.42-77.86-25.42m-35.12-13.12a74.42 74.42 0 0 1-7.88-2.81" fill="none" stroke="#f59600" stroke-linecap="round" stroke-miterlimit="10" stroke-width=".75"/><path d="M909.66 658.56c10.28 7.62 19.64 16.56 29.56 24.75m-5.44-7.68a345 345 0 0 1 33.72 29.59M894 615.88a128 128 0 0 1 15.81 9.53m-36.9-35.73A89.33 89.33 0 0 0 861 587c-4.57-.71-9.17-1.54-13.79-1.85m56.96 39.91a45.7 45.7 0 0 1 5 3.16M809 622q14.24 9.39 27.79 19.95M706.5 663.72q11.91 13.66 24.6 26.64m-29.48-37.02q9.46 8.4 18.07 17.69m-14.55-45.45a73.64 73.64 0 0 1 11.78 8.42m-310.4 35a122 122 0 0 1 5.72 14.27m-5.73-20.55l5.24 10M502.88 632c4.35 2.17 7.84 5.49 11.37 8.76m314.05-1.85l8.7 7.29" fill="none" stroke="#e8ecf2" stroke-linecap="round" stroke-miterlimit="10" stroke-width=".75"/><path d="M1054.35 664.14l27.39 20.15" fill="none" stroke="#a9b5cc" stroke-linecap="round" stroke-miterlimit="10" stroke-width=".75"/><path d="M957.5 603.22a114.31 114.31 0 0 1 17.76 8.48m-171.51-17.41a48.66 48.66 0 0 1 11.52 2.13m58.01 9.83a49.11 49.11 0 0 1 10.78 5.37" fill="none" stroke="#e8ecf2" stroke-linecap="round" stroke-miterlimit="10" stroke-width=".75"/><path d="M1404 593.22q20.3 5.28 40 12.51m-25.88-11.63c-7.59-2.43-15.59-4.59-23.82-6.41m-69.05-2.22l8.5 2" fill="none" stroke="#a9b5cc" stroke-linecap="round" stroke-miterlimit="10" stroke-width=".75"/><path d="M286.43 113.27s7.74 5.3 10.66 9.65 2.59 4 6.5 6.06 6.58 7.62 6.58 7.62l3.56-1s-5.44-8.39-11.3-13c-10.72-8.33-16-9.33-16-9.33z" fill="#0ac5f6"/><path d="M1242.79 603.27a41.15 41.15 0 0 0-1.85-7.41.88.88 0 0 0-1-.55l-15.67 3.63a.87.87 0 0 0-.62 1.15 51.5 51.5 0 0 1 1.88 7.1" fill="none" stroke="#fdb102" stroke-linecap="round" stroke-miterlimit="10" stroke-width=".75"/><path d="M1129.5 585.88c-2.13.49-13.35 3.26-12.37 18.3-.81-7.33 1-13.35 4.51-16.28 4.6-3.83 7.86-2.02 7.86-2.02z" fill="#1d1f24"/><path d="M1145.52 606.51h.23c.84-.23.91-1 .86-1.67-.11-1.48-1.26-3-2-4.24a15.88 15.88 0 0 0-7.84-6.44 12.33 12.33 0 0 0-3.29-.61c-.9 0-3.89.77-1.7 1.73 4.67 2.07 9 4.67 11.75 9.13.47.72.98 2.16 1.99 2.1zm-131.46-45.66c.3-1.44 2.1-.89 3-.35a13.32 13.32 0 0 1 5.4 10.34c0 .38.14 1.06-.33 1.2-.78.23-1.05-.95-1.17-1.44-.75-3.12-3.27-5.44-5.67-7.57-.7-.58-1.41-1.33-1.23-2.18z" fill="#fdb102"/><path d="M1025.3 535.86a1.12 1.12 0 0 1-.54-1.53c.35-.7 2.29-1.36 3-1.72 2.11-1.11 4.28-2.09 6.47-3 3-1.25 6.16-2.86 9.37-3.36a7.14 7.14 0 0 1 1.85-.09c.41 0 1.14.17 1.31.62a5.47 5.47 0 0 1 .08 1.81c0 .7 0 1.39-.1 2.09a28.81 28.81 0 0 1-.63 4.13 3.87 3.87 0 0 1-.4 1.14 2.74 2.74 0 0 1-1.53 1 5.57 5.57 0 0 1-2.22.27l-9.89-.49a40.23 40.23 0 0 1-6.2-.64 1.61 1.61 0 0 1-.57-.23z" fill="#f9fafc"/><path d="M1037.86 533.37a15.68 15.68 0 0 0 6.6 3 1.3 1.3 0 0 0 .62 0 1.2 1.2 0 0 0 .56-.44 7.54 7.54 0 0 0 1.26-4.05c.13-1.29.24-2.58.32-3.87 0-.55 0-1.18-.59-1.34a3.87 3.87 0 0 0-2.17.3 19.27 19.27 0 0 0-7.17 4.25c-.73.78-.06 1.65.57 2.15z" fill="#7974fd"/><path d="M1024.71 536c.89 1.65 10.43 2.36 15.29 2.38 2.1 0 3.55 0 5.3-1.19" fill="none" stroke="#fdb102" stroke-linecap="round" stroke-miterlimit="10" stroke-width=".75"/><path d="M1003 638.8a457.4 457.4 0 0 1 42.6 31.86m-104.11-70.41q10.2 4.32 20 9.46m32.27 26.48a124.18 124.18 0 0 1 11.59 8.18" fill="none" stroke="#a9b5cc" stroke-linecap="round" stroke-miterlimit="10" stroke-width=".75"/><path d="M1110.78 455.44a7.12 7.12 0 0 1 1.23-3 .91.91 0 0 1 .67-.25.79.79 0 0 1 .61.67 2.42 2.42 0 0 1-.09 1c.86-1.3 1.33-2.78 2.15-4.1a.89.89 0 0 1 .6-.46c.83-.1 1.58 1.82 1.49 2.46.49-3.58 1.11-8.18 3.64-11 3.68-4.08 3.17 2.9 3.35 5.45a13.52 13.52 0 0 1 .63-3.32c.29-.9 1.08-1.95 2-1.58a1.83 1.83 0 0 1 .84 1.41 28.49 28.49 0 0 1 .47 8.69c.12-1.21.79-3 2-3.44 1.63-.58 1.35 3 1 3.72" fill="none" stroke="#06d2b5" stroke-linecap="round" stroke-linejoin="round" stroke-width=".75"/><path d="M1022.43 478.15a460.59 460.59 0 0 1-142.56 70m19.38-.05c49.67-15.22 100.72-42.48 142.62-74.71" fill="none" stroke="#fdb102" stroke-linecap="round" stroke-miterlimit="10" stroke-width=".75"/><path d="M360.55 620.14q13.11-.81 26.27-1.46" fill="none" stroke="#e8ecf2" stroke-linecap="round" stroke-miterlimit="10" stroke-width="4"/><path d="M1266.2 658.26q12.63-3.6 25.35-7.06" fill="none" stroke="#e8ecf2" stroke-linecap="round" stroke-miterlimit="10" stroke-width="13"/><path d="M377.4 601.71c9.3-1.07 18.79-1.82 28.35-2.26" fill="none" stroke="#e8ecf2" stroke-linecap="round" stroke-miterlimit="10" stroke-width="2"/><path d="M457 571.43c5 1.25 10.09 2.71 15.13 4.34m6.34-9.33c5 1.26 10.09 2.71 15.13 4.34" fill="none" stroke="#e8ecf2" stroke-linecap="round" stroke-miterlimit="10"/><path d="M544 522.72a10.78 10.78 0 0 1-.19-3.84 1 1 0 0 1 .33-.73c.5-.35 1.09.32 1.3.89a15.55 15.55 0 0 1 .88 3.68c.11-.67.36-1.48 1-1.58s1.16.68 1.39 1.33a18.71 18.71 0 0 1 1 5.07l1.59-1.62c.13-.12.29-.27.47-.23s.25.19.32.33a6.73 6.73 0 0 1 .72 3.2M369.13 400.36a11 11 0 0 0 3.3-5.65 8.77 8.77 0 0 1-2.26.83 16.58 16.58 0 0 0 3.28-6.87c-.84.57-1.91.41-2.56 1.39a33.81 33.81 0 0 0 4.53-10l-.09 1.54a2.32 2.32 0 0 1 .56-2.29 33.79 33.79 0 0 0 5 13 3.71 3.71 0 0 0-3-.61 45.2 45.2 0 0 0 5.29 9.39 12.62 12.62 0 0 0-3.29-1.1 8.26 8.26 0 0 0 2.07 3.94" fill="none" stroke="#06d2b5" stroke-linecap="round" stroke-linejoin="round" stroke-width=".75"/><path d="M381.9 396.82c1.12-.65 1.81-2.18 2.39-3.65.24-.62.48-1.25.67-1.91l.29.87c.78 2.36.69 4.38 1.63 6.63l-1.45-.39a25 25 0 0 0 2.32 6.53 1.59 1.59 0 0 1-.91-.38 5.46 5.46 0 0 0 .6 2.53M174.33 534.39a70.25 70.25 0 0 1-4.07-10.64l2.54 1.56a84.76 84.76 0 0 0-5.47-8.29 9 9 0 0 0 4.28 2.85 61.19 61.19 0 0 1-4.37-10.64c-.47-1.56-1-3.09-1.36-4.69a49 49 0 0 1-.67-5.41c0-.11-.05-.26-.16-.27s-.18.09-.23.18c-1.3 2.48-1.51 5.4-2.33 8-.57 1.81-1.14 3.56-1.67 5.37a29.7 29.7 0 0 1-2.33 5.66 4.27 4.27 0 0 0-.6 1.51 1.06 1.06 0 0 0 .72-.18c1.94-1 3.62-1.81 4.34-4" fill="none" stroke="#06d2b5" stroke-linecap="round" stroke-linejoin="round" stroke-width=".75"/><path d="M159.62 519a19 19 0 0 1-2.6 8.36c-.66 1.11.28.85 1 .55a7.54 7.54 0 0 0 2.17-1.42c-.53.5-.65 1.72-.87 2.38-.31.95-.66 1.88-1 2.79-.77 1.84.27.14-.77 1.84m9.82-.98a.79.79 0 0 1 .58.16 6.75 6.75 0 0 0 2.23.79c-.11 0-.2-.07-.27-.15a16 16 0 0 1-2.39-5.16m1137.01-165.73a35.61 35.61 0 0 1-6.41 5.47 32.68 32.68 0 0 0 8.23-18.91 7 7 0 0 1-3.52 6.51 83.54 83.54 0 0 0 5.46-20.26 135.71 135.71 0 0 0 4.86 22.47 1.48 1.48 0 0 0-1.53-.76l1.55 3.53m15.11-11.61a7.21 7.21 0 0 1-4.78 1.47c0-.7.64-1.21 1.2-1.63 4.45-3.37 6.77-9.49 7.78-14.85.34-1.78.56-3.58.77-5.38.1-.93 0-5.09.68-5.63 2-1.51 2 6.5 2.08 7.42.49 3.56 1.55 7.33 4.33 9.61m-28.98 8.01a33.23 33.23 0 0 1 3.51-8 81.27 81.27 0 0 0 3.75 15.21m-81.55 57.83l4.13-8.26.54 3.34a7.54 7.54 0 0 0 1.29-3.88l.77-5.74a22.9 22.9 0 0 0 .26-6.45 30.72 30.72 0 0 0 3.71 14.74M1402.15 497l-3.61 23.89m55.09-12.35l-4.21 7.53M1406.24 500a87.17 87.17 0 0 0-5.67 7m46.43 3l3.5 3.75m-56.5-4.07a45.66 45.66 0 0 0 5.25 5.25" fill="none" stroke="#06d2b5" stroke-linecap="round" stroke-linejoin="round" stroke-width=".75"/><path d="M1065.57 513.48a339.74 339.74 0 0 1 58.66-10.88" fill="none" stroke="#e8ecf2" stroke-linecap="round" stroke-miterlimit="10" stroke-width=".75"/><path d="M933 580.9a430.59 430.59 0 0 1 102.26 42.78m300.74 15.1l17 6.57m41.76-18.62q35.77 14.53 70.87 30.67" fill="none" stroke="#fff" stroke-linecap="round" stroke-miterlimit="10" stroke-width=".75"/><path d="M263.46 350.46a14.23 14.23 0 0 1-2.88 4.91 142.23 142.23 0 0 1 5.88-19.58 103.89 103.89 0 0 0 8.26 25.48 6 6 0 0 1-4.4-2.78q3.29 7.45 7.27 14.56a25.68 25.68 0 0 1-7.48-6.6" fill="none" stroke="#06d2b5" stroke-linecap="round" stroke-linejoin="round" stroke-width=".75"/><path d="M262.5 355.23q-1.69 7.56-4 15a51.42 51.42 0 0 0 5.6-5.64m-3.16 5.12a65.31 65.31 0 0 1-2.6 7.3m8.16-2.67L268 378c.1.25.26.55.51.57a.4.4 0 0 0 .31-.13c.4-.39.34-1.1.4-1.7s.46-1.26 1-1.08a1.6 1.6 0 0 1 .57.4l7.89 7.52-4.32-11.91m.23 9.62c1.13 2.6 2.37 5.16 3.72 7.65M245 368.21a.84.84 0 0 0 .68.27l1.71-4.74-4.34 3c2.45-5.29 4.92-10.63 6.12-16.33a.85.85 0 0 1 .27-.56c.18-.12.49 0 .47.19-.16-.51-.71-.65-.39-1.08a6.25 6.25 0 0 1 1.22 3.52 107.64 107.64 0 0 0 4.05 18.1l-3.86-2.62a14.35 14.35 0 0 0 1.84 5.27M355.56 390q1.26-3.48 2.27-7.05a44.06 44.06 0 0 0 2.55 10.43l-1.84-1.28.82 1.46" fill="none" stroke="#06d2b5" stroke-linecap="round" stroke-linejoin="round" stroke-width=".75"/><path d="M139.1 523q1.86 12.57 3.28 25.21m-19.1-10.48a62.78 62.78 0 0 0-1.5 9.25M135.72 529a44.7 44.7 0 0 1 5.06 6.26m4.72 6.21l-2.75 4.75M119 534.24a29.24 29.24 0 0 1 3 7.23" fill="none" stroke="#fdb102" stroke-linecap="round" stroke-linejoin="round" stroke-width=".75"/><path d="M998.25 539.24c-4.76 2.63-9.54 5.4-13.3 9.32-3.05 3.18-2.4 8.55-1 12.44m253.54-51.7a326.7 326.7 0 0 1 55.56 11.25M225.39 589.82a108 108 0 0 0-41.55 23.51M349 578.89l5 5m39.33 3.6a123.41 123.41 0 0 0 20.06-1.34 175.88 175.88 0 0 0 19.4-3.64 49.41 49.41 0 0 0 8.31-3" fill="none" stroke="#e8ecf2" stroke-linecap="round" stroke-miterlimit="10" stroke-width=".75"/><path d="M422.75 586.85a3.56 3.56 0 0 0 1.71-2.21 9.33 9.33 0 0 0-1.32-7 3.45 3.45 0 0 0-6.15.32c-1.25 2.82.07 6.81 2.57 8.61a3 3 0 0 0 3.19.28zm18.35-5.55a2.59 2.59 0 0 0 1.12-1.7 7.72 7.72 0 0 0-1.18-5.34c-1.2-1.79-3.57-1.73-4.31.3a6.26 6.26 0 0 0 2.11 6.52 2 2 0 0 0 2.26.22z" fill="none" stroke="#1d1f24" stroke-linecap="round" stroke-miterlimit="10" stroke-width=".75"/><path d="M699.72 579.52c-.19-1-1.21-1.66-2.13-2.16-.41-.22-.92-.45-1.31-.19a1.36 1.36 0 0 0-.44.63 3.88 3.88 0 0 1-.76 1.24 1.5 1.5 0 0 1-1.32.46 1.16 1.16 0 0 0-.58-.07c-.33.09-.39.51-.43.85a5.38 5.38 0 0 1-2.41 3.93 5.19 5.19 0 0 0-1.23.9 1.05 1.05 0 0 0-.05 1.38c.4.37 1 .19 1.54 0l3.95-1.54a1.08 1.08 0 0 0 .53-.35 1.47 1.47 0 0 0 .13-.52 2.59 2.59 0 0 1 .56-1.28" fill="#7974fd"/><path d="M697.87 541.26s-9.85-2.93-12.93-2.6-3.73 1.19-5 .44-10.27-5-10.92-.74a5.38 5.38 0 0 0 6 6.41s1.42 6.41 1.31 7.7-6 10.92-8.13 11.58.12 2.44 1.92 1.58 9.35-7 10.45-9.73.43-7.29.43-7.29.65 1.81 9.17 2.58 7.7-9.93 7.7-9.93z" fill="#f9fafc"/><path d="M702.06 542.73c-2.07-.47-4.08-1.3-6.14-1.83q-3.45-.9-6.94-1.64c-1.59-.33-3.14-1-4.78-.63-.84.21-1.6.68-2.42 1-1.46.5-4.73.31-5.77 1.46a3.63 3.63 0 0 0-1 3.16 34 34 0 0 1 1.23 8 7.16 7.16 0 0 1-.26 2.45 10.79 10.79 0 0 1-2.37 4l-4.44 4.45a2.18 2.18 0 0 1 1.36.78" fill="none" stroke="#1d1f24" stroke-linecap="round" stroke-miterlimit="10" stroke-width=".75"/><path d="M690.06 550.64c-1.6 2.05-2.8 4.25-4.22 6.41a65.19 65.19 0 0 0-3.55 6.11 6.38 6.38 0 0 0 1.25 6.8c3.35 3.62 6 5.46 9.59 8.8 1.47 1.35 2.17.08 2.46-1.43.23-1.18-.49-1.64-1-2.58a59.37 59.37 0 0 0-3.54-5.47c-1.28-1.71-1.61-1.58-3-3.19-.18-.2-.41-.41-.39-.68a1.33 1.33 0 0 1 .34-.68c4.25-5.42 7.12-6.19 13-13.1a14 14 0 0 1 6.51-3.1c.08-2.77-2.44-5.14-5.41-5.8-6.64.16-11.5 1.98-12.04 7.91z" fill="#a9b5cc"/><path d="M704.15 542.88a3.82 3.82 0 0 0-2.91-3.37 12.52 12.52 0 0 0-5.31.06 3.87 3.87 0 0 0-2.86 1.78c-.6.71-3.59 4.41-.94 4.22a12.58 12.58 0 0 0 4.17-1.3 16 16 0 0 1 7.85-1.39z" fill="#7974fd"/><path d="M696.57 580.87c-.77 2.25-3.05 3.59-5.19 4.64a4.51 4.51 0 0 0-2 1.49q2.77-.35 5.52-.87a3.4 3.4 0 0 0 1.26-.41 3.32 3.32 0 0 0 .69-.66 25.63 25.63 0 0 0 3-4.39.91.91 0 0 0 .15-.77.74.74 0 0 0-.29-.29c-.94-.58-2.21 0-2.89.89s-1 2-1.68 2.85" fill="#1d1f24"/><path d="M681.41 539.59a7.79 7.79 0 0 1-4.16-2.45" fill="none" stroke="#1d1f24" stroke-linecap="round" stroke-miterlimit="10" stroke-width=".75"/><path d="M672 538.6a2.53 2.53 0 0 0-.37.18c-.84.46-3.24 3-4.25 2a1.44 1.44 0 0 1-.29-1.06c0-2.66.12-4.53 2.28-6.31a8.71 8.71 0 0 1 5.87-2c1.28.07 2.29 1.16 3 2.08a5.33 5.33 0 0 1 1.07 1.48c.2.66.33 2.15-.33 2.54a6 6 0 0 1-3.11.54 8.58 8.58 0 0 0-3.87.55z" fill="#a9b5cc"/><path d="M669 541a12.09 12.09 0 0 0 2.13 2.68 3.94 3.94 0 0 0 3.17 1m-.87-6.32a1.13 1.13 0 0 0-1.68-.3 1.22 1.22 0 0 0-.09 1.52 2 2 0 0 0 1.41.79 6.08 6.08 0 0 0 1.65-.09m6.15 5.42l.25 7.58c.06 1.62-1 3.32-2 4.58a46 46 0 0 1-6.27 6 2.31 2.31 0 0 1-1.39.73" fill="none" stroke="#1d1f24" stroke-linecap="round" stroke-miterlimit="10" stroke-width=".75"/><path d="M668.23 563.85c-1.9-.17-4.17 2.62-3.76 3.66a7 7 0 0 0 2.46 1.43 1 1 0 0 0 .33 0c.23 0 .87 0 .85-.21-.11-1.28 1.87-3 2.58-3.76" fill="#fff" stroke="#1d1f24" stroke-linecap="round" stroke-miterlimit="10"/><path d="M680.93 549a8.43 8.43 0 0 0 3.71 1.17 29.45 29.45 0 0 1 3.88.54" fill="none" stroke="#1d1f24" stroke-linecap="round" stroke-miterlimit="10" stroke-width=".75"/><path d="M693.32 543.37c-1.64 1.94-3.09 4-2.86 6.62" fill="none" stroke="#7974fd" stroke-miterlimit="10"/><path d="M678.65 538.36a.84.84 0 0 1-.93.45 2.26 2.26 0 0 1-1-.51c-.13-.11-.27-.31-.14-.42 1-.67 1.73-1.69 2.95-2.07a6 6 0 0 1 2.32-.1 4.86 4.86 0 0 1 1.52.27 9.78 9.78 0 0 0 1.58.53 9.66 9.66 0 0 0 5.33-.26c-.4.2-.81.82-1.12 1.14a9.39 9.39 0 0 0-1 1.09" fill="none" stroke="#1d1f24" stroke-linecap="round" stroke-miterlimit="10" stroke-width=".75"/><path d="M704.75 580.08a2.4 2.4 0 0 1-.57 1.28 6.3 6.3 0 0 1-.86.78s-.05-1.43 0-1.65c0-.5.15-1.42.15-1.42s.53-.52.88-.33.43.92.4 1.34z" fill="#7974fd"/><path d="M1190.06 519.86l-44.06 3.45c-3.88.3-4.53 1.31-1.43 2.24s8.73 1.22 12.68 1.13c20.29-.66 35.24-1.79 44.1-3.45 3.38-.63 4.52-1.31 1.42-2.24a41.57 41.57 0 0 0-12.71-1.13z" fill="#1d1f24"/><path d="M1195.07 522.89a57.3 57.3 0 0 0-9-14.26s4.38 3.53 8.08 3l-2.53-7.78s-6.44 1.12-8.32-.06-.52-.62 0-1.33 1.42-2.63 1.42-2.63a38 38 0 0 0-4.13-.62 5.69 5.69 0 0 1-3.24-1.14l-5.08 2.9s-4.84 1.33-5.78 1.36-2.33-.82-2.71 2.16c0 0 .29.89-1.38 1.15s-7.43.95-8.17 1.34.32 3.77 1.33 4.46a14 14 0 0 0 6 1.49c1.75-.07 6.65-1.84 6.65-1.84s-3.21 8.9-3.36 9.25a1.15 1.15 0 0 0 1.65 1.25c1.45-.51 1.91-1.45 3.2-2.2s5.58-4.31 5.58-4.31 4.23 5.73 5.37 8.41c3.63.7 8.68.34 14.42-.6z" fill="#e8ecf2"/><path d="M1172.4 513.2a20 20 0 0 0-3.87 4.31 12.19 12.19 0 0 1-1.31 2.06 2.21 2.21 0 0 1-2.19.76 59 59 0 0 1 2-7.74 3.11 3.11 0 0 1 .47-1 2.87 2.87 0 0 1 1.39-.81c1.5-.47 3.95-.88 5.44-.15.57.28.75.83.2 1.25-.3.23-.8.29-1.13.5a7.91 7.91 0 0 0-1 .82z" fill="#1d1f24"/><path d="M1154 509c.78 1.21 1.33 3 2.9 3.22 2.44.33 4.51 1.31 7.45.2 2.22-.83 4.62-1.88 7-1.77.47 0 4.39-.14 3.49 1a.86.86 0 0 1-.36.23c-1.86.81-3.16 2.5-4.38 4.12a26.52 26.52 0 0 1-2.22 2.93c-.57.57-1.25 1.6-2.07 1.77a.64.64 0 0 1-.75-.27.8.8 0 0 1 0-.53c.36-1.55 2.07-6.49 2.33-8.05m28.27 10.94c-1.86-4.12-8-11.51-10.73-15.11" fill="none" stroke="#1d1f24" stroke-linecap="round" stroke-miterlimit="10" stroke-width=".75"/><path d="M1156.11 509.63c-.1.36-.15.84-.51.94a.81.81 0 0 1-.71-.29 10 10 0 0 1-1.33-1.43 2.4 2.4 0 0 1-.47-.91 1 1 0 0 1 .24-1 3.88 3.88 0 0 1 2.83-.23c1.32.72.19 2.02-.05 2.92z" fill="#1d1f24"/><path d="M1179.46 504.07a2.64 2.64 0 0 1 2.19-.66 13.4 13.4 0 0 1 2.31.56 12.1 12.1 0 0 0 6.59-.1 1.32 1.32 0 0 1 1 0 1.1 1.1 0 0 1 .4.5 14.86 14.86 0 0 1 1.13 3.33l1 3.95a10.78 10.78 0 0 1-6.27-1.81c-.64-.46-1.1-1.13-1.75-1.62-.91-.66-1.85-1.27-2.79-1.88a5.4 5.4 0 0 0-1.59-.8 6.8 6.8 0 0 0-2.16.09c-.08 0 0 .07 0 .07l5.4 1.83" fill="none" stroke="#1d1f24" stroke-linecap="round" stroke-miterlimit="10" stroke-width=".97"/><path d="M1175 515a27.71 27.71 0 0 1-6.24 5.26m-.97-15.75a.86.86 0 0 0-.28.56 10.78 10.78 0 0 1 2.78.16" fill="none" stroke="#1d1f24" stroke-linecap="round" stroke-miterlimit="10" stroke-width=".75"/><path d="M1167.47 515.1a2.27 2.27 0 0 1 1.48-2.4c.51-.17 1.07-.2 1.6-.36s1.43-.45 2 .11c-.24.5-.94.52-1.38.86a1.51 1.51 0 0 0-.07 2.08 4.4 4.4 0 0 0 2 1.2l2.18.84a3.56 3.56 0 0 1 1.07.57 1.19 1.19 0 0 1 .43 1.07 1.18 1.18 0 0 1-1.2.82c-1.12 0-2.38-.92-3.42-1.3a12 12 0 0 1-2.77-1.22 4.4 4.4 0 0 1-1.92-2.27z" fill="#fc5449"/><path d="M1166.92 519.47c-.05-.1-.09-.2-.13-.3m-1.72-.12c0-.1-.09-.2-.13-.3" fill="none" stroke="#fff" stroke-linecap="round" stroke-miterlimit="10" stroke-width=".75"/><path d="M1174.58 515.5a3.84 3.84 0 0 1 2.54-1.58c.19 0 .45 0 .46.27s-.09.4-.24.4c-1.11 0-1.73.69-2.4 1a.3.3 0 0 1 .37-.23.88.88 0 0 1 .34.3 52.65 52.65 0 0 1 4.57 8m-2.92-25.33a7.62 7.62 0 0 0 3.2.86c1.27.18 2.68-.16 3.87.41a.54.54 0 0 1 .26.21.55.55 0 0 1-.06.43 7.91 7.91 0 0 1-2.62 3.14s-4-4.47-9.77-2.43m-8.8 3.57l.19.62a.73.73 0 0 0-.35.09" fill="none" stroke="#1d1f24" stroke-linecap="round" stroke-miterlimit="10" stroke-width=".75"/><path d="M1483.14 395.67q17.19 17.73 32.63 37m-24.46 83.18c.47-.75 1.09-1.59 2-1.59a1.8 1.8 0 0 1 1.53 1.15 5.37 5.37 0 0 1 .3 2v2.12c0-.45.51-.78 1-.72a1.94 1.94 0 0 1 1.12.73 2.61 2.61 0 0 1 .76 2.18" fill="none" stroke="#06d2b5" stroke-linecap="round" stroke-linejoin="round" stroke-width=".75"/></g></g></svg>