<?xml version="1.0" standalone="no"?>
<!DOCTYPE svg PUBLIC "-//W3C//DTD SVG 1.1//EN" "http://www.w3.org/Graphics/SVG/1.1/DTD/svg11.dtd" >
<svg xmlns="http://www.w3.org/2000/svg" xmlns:xlink="http://www.w3.org/1999/xlink" version="1.1">
<metadata>
Created by FontForge 20160407 at Tue Nov  8 10:20:54 2016
 By Jimmy Wärting
Copyright \(c\) 2015 by Fontfabric LLC. All rights reserved.
</metadata>
<defs>
<font id="MullerUltraLightItalic" horiz-adv-x="618" >
  <font-face 
    font-family="Muller UltraLight Italic"
    font-weight="250"
    font-style="italic"
    font-stretch="normal"
    units-per-em="1000"
    panose-1="0 0 0 0 0 0 0 0 0 0"
    ascent="780"
    descent="-220"
    x-height="480"
    cap-height="700"
    bbox="-207 -231 1215.01 932"
    underline-thickness="50"
    underline-position="-125"
    slope="-9"
    stemh="30"
    stemv="38"
    unicode-range="U+0020-25CA"
  />
<missing-glyph horiz-adv-x="265" 
 />
    <glyph glyph-name="f_f" unicode="ff" horiz-adv-x="669" 
d="M749 663c-23 13 -63 22 -102 22c-68 0 -132 -29 -147 -121l-14 -84h205l-5 -36h-205l-71 -444h-38l71 444h-272l-71 -444h-38l71 444h-84l5 36h84l10 58c16 105 101 157 198 157c58 0 102 -17 147 -47c34 53 93 73 148 73c44 0 88 -10 113 -24zM176 480h272l14 88
c3 19 8 35 14 50c-37 26 -76 41 -129 41c-86 0 -148 -43 -162 -124z" />
    <glyph glyph-name="f_f_i" unicode="ffi" horiz-adv-x="846" 
d="M100 0h-38l71 444h-84l5 36h84l10 58c16 105 100 157 198 157c60 0 106 -18 152 -51c37 48 95 71 155 71c55 0 106 -16 149 -43l-6 -38c-40 28 -88 45 -141 45c-80 0 -143 -43 -157 -128l-12 -71h305l-76 -480h-38l70 444h-266l-71 -444h-38l71 444h-272zM185 535l-9 -55
h272l12 74c4 23 10 42 20 60c-39 28 -77 45 -133 45c-86 0 -148 -43 -162 -124z" />
    <glyph glyph-name="f_f_l" unicode="ffl" horiz-adv-x="856" 
d="M794 679l3 17l40 11l-112 -707h-38l102 643c-38 23 -86 36 -135 36c-80 0 -142 -42 -156 -128l-12 -71h184l-5 -36h-184l-71 -444h-38l71 444h-272l-71 -444h-38l71 444h-84l5 36h84l10 58c16 105 102 157 198 157c59 0 105 -18 151 -51c37 47 95 71 155 71
c53 0 102 -13 142 -36zM448 480l12 74c4 23 10 43 20 60c-38 29 -77 45 -133 45c-85 0 -148 -43 -162 -124l-9 -55h272z" />
    <glyph glyph-name=".notdef" horiz-adv-x="265" 
 />
    <glyph glyph-name="Aacute" unicode="&#xc1;" horiz-adv-x="710" 
d="M649 0h-41l-60 204h-410l-124 -204h-45l428 700h46zM405 641l-245 -400h379l-118 401c-2 6 -4 13 -5 20c-4 -8 -7 -14 -11 -21zM439 776h-43l110 137h48z" />
    <glyph glyph-name="Abreve" unicode="&#x102;" horiz-adv-x="710" 
d="M649 0h-41l-60 204h-410l-124 -204h-45l428 700h46zM405 641l-245 -400h379l-118 401c-2 6 -4 13 -5 20c-4 -8 -7 -14 -11 -21zM565 822c-43 -31 -84 -41 -132 -41c-47 0 -91 10 -124 41l6 39c37 -33 74 -44 120 -44c47 0 89 11 136 44z" />
    <glyph glyph-name="Acircumflex" unicode="&#xc2;" horiz-adv-x="710" 
d="M649 0h-41l-60 204h-410l-124 -204h-45l428 700h46zM405 641l-245 -400h379l-118 401c-2 6 -4 13 -5 20c-4 -8 -7 -14 -11 -21zM435 907h33l108 -131h-42l-85 101l-116 -101h-46z" />
    <glyph glyph-name="Adieresis" unicode="&#xc4;" horiz-adv-x="710" 
d="M649 0h-41l-60 204h-410l-124 -204h-45l428 700h46zM405 641l-245 -400h379l-118 401c-2 6 -4 13 -5 20c-4 -8 -7 -14 -11 -21zM570 833c-2 -15 -17 -28 -33 -28c-18 0 -31 15 -28 33c3 15 18 29 33 29c19 0 31 -16 28 -34zM369 833c-2 -15 -17 -28 -33 -28
c-18 0 -31 15 -28 33c3 15 18 29 33 29c19 0 31 -16 28 -34z" />
    <glyph glyph-name="Agrave" unicode="&#xc0;" horiz-adv-x="710" 
d="M649 0h-41l-60 204h-410l-124 -204h-45l428 700h46zM405 641l-245 -400h379l-118 401c-2 6 -4 13 -5 20c-4 -8 -7 -14 -11 -21zM468 776h-40l-73 137h46z" />
    <glyph glyph-name="Amacron" unicode="&#x100;" horiz-adv-x="710" 
d="M649 0h-41l-60 204h-410l-124 -204h-45l428 700h46zM405 641l-245 -400h379l-118 401c-2 6 -4 13 -5 20c-4 -8 -7 -14 -11 -21zM312 840h264l-5 -36h-264z" />
    <glyph glyph-name="Aogonek" unicode="&#x104;" horiz-adv-x="710" 
d="M650 0c-68 -42 -130 -96 -137 -146c-5 -32 12 -52 51 -52c18 0 38 4 55 12l-5 -33c-19 -8 -39 -11 -59 -11c-59 0 -86 34 -79 83c8 54 61 108 129 160l-57 191h-410l-124 -204h-45l428 700h46l206 -700h1zM416 662c-4 -8 -7 -14 -11 -21l-245 -400h379l-118 401
c-2 6 -4 13 -5 20z" />
    <glyph glyph-name="Aring" unicode="&#xc5;" horiz-adv-x="710" 
d="M649 0h-41l-60 204h-410l-124 -204h-45l428 700h46zM405 641l-245 -400h379l-118 401c-2 6 -4 13 -5 20c-4 -8 -7 -14 -11 -21zM535 841c-9 -53 -57 -87 -103 -87c-49 0 -90 36 -81 92c9 53 57 86 104 86c49 0 89 -36 80 -91zM381 843c-6 -37 20 -61 51 -61
c33 0 68 22 74 62c6 36 -20 60 -50 60c-34 0 -69 -22 -75 -61z" />
    <glyph glyph-name="Atilde" unicode="&#xc3;" horiz-adv-x="710" 
d="M649 0h-41l-60 204h-410l-124 -204h-45l428 700h46zM405 641l-245 -400h379l-118 401c-2 6 -4 13 -5 20c-4 -8 -7 -14 -11 -21zM590 863c-1 -51 -32 -81 -74 -81c-57 0 -111 53 -155 53c-28 0 -45 -19 -45 -47h-34c0 50 34 81 73 81c56 0 112 -53 157 -53
c30 0 44 18 44 47h34z" />
    <glyph glyph-name="AE" unicode="&#xc6;" horiz-adv-x="997" 
d="M1001 700l-6 -38h-389l-46 -291h359l-6 -38h-359l-47 -295h396l-7 -38h-434l32 205h-322l-178 -205h-48l608 700h447zM203 241h297l66 419z" />
    <glyph glyph-name="B" unicode="B" horiz-adv-x="680" 
d="M167 700h260c131 0 227 -56 207 -179c-15 -94 -85 -140 -161 -153c68 -13 155 -56 137 -182c-27 -163 -184 -186 -297 -186h-257zM571 195c20 134 -105 152 -176 152h-244l-49 -309h209c101 0 237 14 260 157zM594 523c16 101 -59 139 -175 139h-219l-44 -277h251
c86 0 171 38 187 138z" />
    <glyph glyph-name="C" unicode="C" horiz-adv-x="648" 
d="M62 359c37 235 243 352 416 352c71 0 133 -17 184 -49l-6 -38c-46 32 -107 49 -175 49c-159 0 -345 -103 -380 -320c-36 -221 120 -326 276 -326c70 0 138 18 197 51l-6 -42c-59 -31 -131 -47 -200 -47c-172 0 -346 123 -306 370z" />
    <glyph glyph-name="Cacute" unicode="&#x106;" horiz-adv-x="648" 
d="M62 359c37 235 243 352 416 352c71 0 133 -17 184 -49l-6 -38c-46 32 -107 49 -175 49c-159 0 -345 -103 -380 -320c-36 -221 120 -326 276 -326c70 0 138 18 197 51l-6 -42c-59 -31 -131 -47 -200 -47c-172 0 -346 123 -306 370zM497 776h-43l110 137h48z" />
    <glyph glyph-name="Ccaron" unicode="&#x10c;" horiz-adv-x="648" 
d="M62 359c37 235 243 352 416 352c71 0 133 -17 184 -49l-6 -38c-46 32 -107 49 -175 49c-159 0 -345 -103 -380 -320c-36 -221 120 -326 276 -326c70 0 138 18 197 51l-6 -42c-59 -31 -131 -47 -200 -47c-172 0 -346 123 -306 370zM653 897l-148 -131h-34l-107 131h42
l85 -101l115 101h47z" />
    <glyph glyph-name="Ccedilla" unicode="&#xc7;" horiz-adv-x="647" 
d="M656 624c-46 32 -107 49 -175 49c-159 0 -346 -103 -380 -320c-36 -221 120 -326 275 -326c71 0 139 18 198 51l-7 -42c-56 -30 -124 -46 -190 -47l-31 -75c58 11 116 -12 109 -67c-7 -48 -51 -78 -124 -78c-44 0 -76 10 -102 22l6 32c26 -14 58 -22 93 -22
c62 0 90 22 94 50c6 41 -57 53 -118 36l40 103c-164 11 -320 134 -283 369c38 235 243 352 417 352c71 0 133 -17 184 -49z" />
    <glyph glyph-name="Cdotaccent" unicode="&#x10a;" horiz-adv-x="648" 
d="M62 359c37 235 243 352 416 352c71 0 133 -17 184 -49l-6 -38c-46 32 -107 49 -175 49c-159 0 -345 -103 -380 -320c-36 -221 120 -326 276 -326c70 0 138 18 197 51l-6 -42c-59 -31 -131 -47 -200 -47c-172 0 -346 123 -306 370zM529 817c-3 -21 -20 -33 -39 -33
c-20 0 -36 15 -32 38c4 21 21 33 39 33c21 0 36 -15 32 -38z" />
    <glyph glyph-name="D" unicode="D" horiz-adv-x="732" 
d="M167 700h203c249 0 351 -150 319 -353c-31 -200 -170 -347 -426 -347h-207zM650 353c30 183 -58 309 -282 309h-168l-98 -624h166c224 0 353 128 382 315z" />
    <glyph glyph-name="Eth" unicode="&#xd0;" horiz-adv-x="733" 
d="M167 700h204c248 0 351 -150 319 -353c-32 -200 -171 -347 -426 -347h-208l53 331h-68l5 37h68zM268 38c224 0 353 128 382 315c30 183 -58 309 -282 309h-168l-46 -294h247l-5 -37h-248l-46 -293h166z" />
    <glyph glyph-name="Dcaron" unicode="&#x10e;" horiz-adv-x="732" 
d="M167 700h203c249 0 351 -150 319 -353c-31 -200 -170 -347 -426 -347h-207zM650 353c30 183 -58 309 -282 309h-168l-98 -624h166c224 0 353 128 382 315zM566 897l-148 -131h-34l-107 131h42l85 -101l115 101h47z" />
    <glyph glyph-name="Dcroat" unicode="&#x110;" horiz-adv-x="733" 
d="M167 700h204c248 0 351 -150 319 -353c-32 -200 -171 -347 -426 -347h-208l53 331h-68l5 37h68zM268 38c224 0 353 128 382 315c30 183 -58 309 -282 309h-168l-46 -294h247l-5 -37h-248l-46 -293h166z" />
    <glyph glyph-name="E" unicode="E" horiz-adv-x="624" 
d="M167 700h459l-6 -38h-420l-45 -291h389l-6 -38h-389l-47 -295h426l-7 -38h-465z" />
    <glyph glyph-name="Eacute" unicode="&#xc9;" horiz-adv-x="624" 
d="M167 700h459l-6 -38h-420l-45 -291h389l-6 -38h-389l-47 -295h426l-7 -38h-465zM416 776h-43l110 137h48z" />
    <glyph glyph-name="Ecaron" unicode="&#x11a;" horiz-adv-x="624" 
d="M167 700h459l-6 -38h-420l-45 -291h389l-6 -38h-389l-47 -295h426l-7 -38h-465zM572 897l-148 -131h-34l-107 131h42l85 -101l115 101h47z" />
    <glyph glyph-name="Ecircumflex" unicode="&#xca;" horiz-adv-x="624" 
d="M167 700h459l-6 -38h-420l-45 -291h389l-6 -38h-389l-47 -295h426l-7 -38h-465zM412 907h33l108 -131h-42l-85 101l-116 -101h-46z" />
    <glyph glyph-name="Edieresis" unicode="&#xcb;" horiz-adv-x="624" 
d="M167 700h459l-6 -38h-420l-45 -291h389l-6 -38h-389l-47 -295h426l-7 -38h-465zM547 833c-2 -15 -17 -28 -33 -28c-18 0 -31 15 -28 33c3 15 18 29 33 29c19 0 31 -16 28 -34zM346 833c-2 -15 -17 -28 -33 -28c-18 0 -31 15 -28 33c3 15 18 29 33 29c19 0 31 -16 28 -34z
" />
    <glyph glyph-name="Edotaccent" unicode="&#x116;" horiz-adv-x="624" 
d="M167 700h459l-6 -38h-420l-45 -291h389l-6 -38h-389l-47 -295h426l-7 -38h-465zM448 817c-3 -21 -20 -33 -39 -33c-20 0 -36 15 -32 38c4 21 21 33 39 33c21 0 36 -15 32 -38z" />
    <glyph glyph-name="Egrave" unicode="&#xc8;" horiz-adv-x="624" 
d="M167 700h459l-6 -38h-420l-45 -291h389l-6 -38h-389l-47 -295h426l-7 -38h-465zM445 776h-40l-73 137h46z" />
    <glyph glyph-name="Emacron" unicode="&#x112;" horiz-adv-x="624" 
d="M167 700h459l-6 -38h-420l-45 -291h389l-6 -38h-389l-47 -295h426l-7 -38h-465zM289 840h264l-5 -36h-264z" />
    <glyph glyph-name="Eogonek" unicode="&#x118;" horiz-adv-x="624" 
d="M489 -189l-5 -33c-18 -6 -38 -9 -58 -9c-58 0 -87 34 -79 83c8 47 46 99 119 148h-410l111 700h459l-6 -38h-420l-45 -291h389l-6 -38h-389l-47 -295h426l-7 -38c-68 -43 -130 -95 -137 -145c-5 -32 12 -54 51 -54c18 0 36 4 54 10z" />
    <glyph glyph-name="F" unicode="F" horiz-adv-x="601" 
d="M167 700h461l-7 -38h-421l-47 -300h392l-6 -38h-392l-51 -324h-40z" />
    <glyph glyph-name="G" unicode="G" horiz-adv-x="711" 
d="M63 363c40 248 250 348 424 348c76 0 144 -17 198 -47l-6 -38c-48 31 -120 47 -189 47c-161 0 -351 -86 -388 -316c-36 -231 124 -330 286 -330c64 0 128 14 182 39l47 301h41l-53 -331c-68 -30 -146 -47 -220 -47c-181 0 -363 114 -322 374z" />
    <glyph glyph-name="Gbreve" unicode="&#x11e;" horiz-adv-x="711" 
d="M63 363c40 248 250 348 424 348c76 0 144 -17 198 -47l-6 -38c-48 31 -120 47 -189 47c-161 0 -351 -86 -388 -316c-36 -231 124 -330 286 -330c64 0 128 14 182 39l47 301h41l-53 -331c-68 -30 -146 -47 -220 -47c-181 0 -363 114 -322 374zM621 822
c-43 -31 -84 -41 -132 -41c-47 0 -91 10 -124 41l6 39c37 -33 74 -44 120 -44c47 0 89 11 136 44z" />
    <glyph glyph-name="Gcommaaccent" unicode="&#x122;" horiz-adv-x="711" 
d="M63 363c40 248 250 348 424 348c76 0 144 -17 198 -47l-6 -38c-48 31 -120 47 -189 47c-161 0 -351 -86 -388 -316c-36 -231 124 -330 286 -330c64 0 128 14 182 39l47 301h41l-53 -331c-68 -30 -146 -47 -220 -47c-181 0 -363 114 -322 374zM344 -228h-34l48 172h38z
" />
    <glyph glyph-name="Gdotaccent" unicode="&#x120;" horiz-adv-x="711" 
d="M63 363c40 248 250 348 424 348c76 0 144 -17 198 -47l-6 -38c-48 31 -120 47 -189 47c-161 0 -351 -86 -388 -316c-36 -231 124 -330 286 -330c64 0 128 14 182 39l47 301h41l-53 -331c-68 -30 -146 -47 -220 -47c-181 0 -363 114 -322 374zM527 817
c-3 -21 -20 -33 -39 -33c-20 0 -36 15 -32 38c4 21 21 33 39 33c21 0 36 -15 32 -38z" />
    <glyph glyph-name="H" unicode="H" horiz-adv-x="767" 
d="M691 700h39l-111 -700h-39l52 333h-484l-52 -333h-40l111 700h40l-52 -329h484z" />
    <glyph glyph-name="Hbar" unicode="&#x126;" horiz-adv-x="769" 
d="M97 0h-40l82 516h-78l6 34h77l24 150h40l-24 -150h484l24 150h39l-23 -150h77l-5 -34h-78l-82 -516h-39l52 333h-484zM178 516l-23 -145h484l23 145h-484z" />
    <glyph glyph-name="I" unicode="I" horiz-adv-x="244" 
d="M167 700h40l-111 -700h-40z" />
    <glyph glyph-name="IJ" unicode="&#x132;" horiz-adv-x="766" 
d="M167 700h40l-111 -700h-40zM472 700h264l-80 -510c-22 -140 -119 -200 -247 -200c-71 0 -132 15 -174 43l6 39c42 -29 99 -44 163 -44c114 0 194 49 212 166l75 468h-226z" />
    <glyph glyph-name="Iacute" unicode="&#xcd;" horiz-adv-x="244" 
d="M167 700h40l-111 -700h-40zM205 776h-43l110 137h48z" />
    <glyph glyph-name="Icircumflex" unicode="&#xce;" horiz-adv-x="244" 
d="M167 700h40l-111 -700h-40zM201 907h33l108 -131h-42l-85 101l-116 -101h-46z" />
    <glyph glyph-name="Idieresis" unicode="&#xcf;" horiz-adv-x="244" 
d="M167 700h40l-111 -700h-40zM336 833c-2 -15 -17 -28 -33 -28c-18 0 -31 15 -28 33c3 15 18 29 33 29c19 0 31 -16 28 -34zM135 833c-2 -15 -17 -28 -33 -28c-18 0 -31 15 -28 33c3 15 18 29 33 29c19 0 31 -16 28 -34z" />
    <glyph glyph-name="Idotaccent" unicode="&#x130;" horiz-adv-x="244" 
d="M167 700h40l-111 -700h-40zM237 817c-3 -21 -20 -33 -39 -33c-20 0 -36 15 -32 38c4 21 21 33 39 33c21 0 36 -15 32 -38z" />
    <glyph glyph-name="Igrave" unicode="&#xcc;" horiz-adv-x="244" 
d="M167 700h40l-111 -700h-40zM234 776h-40l-73 137h46z" />
    <glyph glyph-name="Imacron" unicode="&#x12a;" horiz-adv-x="244" 
d="M167 700h40l-111 -700h-40zM78 840h264l-5 -36h-264z" />
    <glyph glyph-name="Iogonek" unicode="&#x12e;" horiz-adv-x="244" 
d="M96 0c-40 -40 -84 -96 -92 -145c-5 -32 13 -55 52 -54c26 0 50 7 75 21l-5 -33c-24 -14 -51 -20 -79 -20c-57 0 -87 34 -79 83c8 48 47 105 89 155l110 693h40z" />
    <glyph glyph-name="J" unicode="J" horiz-adv-x="522" 
d="M228 700h264l-80 -510c-22 -140 -119 -200 -247 -200c-71 0 -132 15 -174 43l6 39c42 -29 99 -44 163 -44c114 0 194 49 212 166l75 468h-226z" />
    <glyph glyph-name="K" unicode="K" horiz-adv-x="655" 
d="M644 700h46l-303 -343l218 -357h-43l-209 340h-204l-53 -340h-40l111 700h40l-51 -322h202z" />
    <glyph glyph-name="Kcommaaccent" unicode="&#x136;" horiz-adv-x="655" 
d="M644 700h46l-303 -343l218 -357h-43l-209 340h-204l-53 -340h-40l111 700h40l-51 -322h202zM275 -218h-34l48 172h38z" />
    <glyph glyph-name="L" unicode="L" horiz-adv-x="569" 
d="M167 700h40l-105 -662h418l-6 -38h-458z" />
    <glyph glyph-name="Lacute" unicode="&#x139;" horiz-adv-x="569" 
d="M167 700h40l-105 -662h418l-6 -38h-458zM221 776h-43l110 137h48z" />
    <glyph glyph-name="Lcaron" unicode="&#x13d;" horiz-adv-x="570" 
d="M445 700h37l-48 -163h-33zM167 700h40l-105 -662h418l-6 -38h-458z" />
    <glyph glyph-name="Lcommaaccent" unicode="&#x13b;" horiz-adv-x="569" 
d="M167 700h40l-105 -662h418l-6 -38h-458zM256 -218h-34l48 172h38z" />
    <glyph glyph-name="Ldot" unicode="&#x13f;" horiz-adv-x="575" 
d="M392 335c-2 -17 -16 -26 -31 -26c-18 0 -31 12 -28 32c3 17 17 26 32 26c18 0 30 -12 27 -32zM167 700h40l-105 -662h418l-6 -38h-458z" />
    <glyph glyph-name="Lslash" unicode="&#x141;" horiz-adv-x="574" 
d="M518 0h-457l45 286l-98 -40l6 34l98 40l60 380h39l-58 -365l251 102l-6 -34l-250 -102l-41 -263h418z" />
    <glyph glyph-name="M" unicode="M" horiz-adv-x="901" 
d="M826 700h38l-111 -700h-39l99 626l-363 -437h-27l-227 438l-100 -627h-40l111 700h34l240 -464z" />
    <glyph glyph-name="N" unicode="N" horiz-adv-x="767" 
d="M96 0h-40l111 700h33l391 -635c2 21 5 37 7 54l93 581h39l-111 -700h-32l-391 636c-3 -21 -6 -37 -8 -54z" />
    <glyph glyph-name="Nacute" unicode="&#x143;" horiz-adv-x="767" 
d="M96 0h-40l111 700h33l391 -635c2 21 5 37 7 54l93 581h39l-111 -700h-32l-391 636c-3 -21 -6 -37 -8 -54zM468 776h-43l110 137h48z" />
    <glyph glyph-name="Ncaron" unicode="&#x147;" horiz-adv-x="767" 
d="M96 0h-40l111 700h33l391 -635c2 21 5 37 7 54l93 581h39l-111 -700h-32l-391 636c-3 -21 -6 -37 -8 -54zM624 897l-148 -131h-34l-107 131h42l85 -101l115 101h47z" />
    <glyph glyph-name="Ncommaaccent" unicode="&#x145;" horiz-adv-x="767" 
d="M96 0h-40l111 700h33l391 -635c2 21 5 37 7 54l93 581h39l-111 -700h-32l-391 636c-3 -21 -6 -37 -8 -54zM312 -218h-34l48 172h38z" />
    <glyph glyph-name="Eng" unicode="&#x14a;" horiz-adv-x="768" 
d="M603 -107c-15 -91 -72 -124 -141 -124c-26 0 -49 4 -71 12l6 36c17 -6 38 -10 58 -10c57 0 98 23 109 92l17 109l-385 628c-3 -21 -6 -37 -8 -54l-92 -582h-40l111 700h33l391 -635c2 21 5 37 7 54l93 581h39z" />
    <glyph glyph-name="Ntilde" unicode="&#xd1;" horiz-adv-x="767" 
d="M96 0h-40l111 700h33l391 -635c2 21 5 37 7 54l93 581h39l-111 -700h-32l-391 636c-3 -21 -6 -37 -8 -54zM619 863c-1 -51 -32 -81 -74 -81c-57 0 -111 53 -155 53c-28 0 -45 -19 -45 -47h-34c0 50 34 81 73 81c56 0 112 -53 157 -53c30 0 44 18 44 47h34z" />
    <glyph glyph-name="O" unicode="O" horiz-adv-x="824" 
d="M783 347c-28 -175 -177 -358 -418 -358c-235 0 -334 187 -306 364c28 175 180 358 417 358c235 0 334 -187 307 -364zM98 349c-24 -153 54 -322 269 -322s351 165 376 324c24 153 -54 322 -269 322c-216 0 -351 -165 -376 -324z" />
    <glyph glyph-name="Oacute" unicode="&#xd3;" horiz-adv-x="824" 
d="M783 347c-28 -175 -177 -358 -418 -358c-235 0 -334 187 -306 364c28 175 180 358 417 358c235 0 334 -187 307 -364zM98 349c-24 -153 54 -322 269 -322s351 165 376 324c24 153 -54 322 -269 322c-216 0 -351 -165 -376 -324zM495 776h-43l110 137h48z" />
    <glyph glyph-name="Ocircumflex" unicode="&#xd4;" horiz-adv-x="824" 
d="M783 347c-28 -175 -177 -358 -418 -358c-235 0 -334 187 -306 364c28 175 180 358 417 358c235 0 334 -187 307 -364zM98 349c-24 -153 54 -322 269 -322s351 165 376 324c24 153 -54 322 -269 322c-216 0 -351 -165 -376 -324zM491 907h33l108 -131h-42l-85 101
l-116 -101h-46z" />
    <glyph glyph-name="Odieresis" unicode="&#xd6;" horiz-adv-x="824" 
d="M783 347c-28 -175 -177 -358 -418 -358c-235 0 -334 187 -306 364c28 175 180 358 417 358c235 0 334 -187 307 -364zM98 349c-24 -153 54 -322 269 -322s351 165 376 324c24 153 -54 322 -269 322c-216 0 -351 -165 -376 -324zM626 833c-2 -15 -17 -28 -33 -28
c-18 0 -31 15 -28 33c3 15 18 29 33 29c19 0 31 -16 28 -34zM425 833c-2 -15 -17 -28 -33 -28c-18 0 -31 15 -28 33c3 15 18 29 33 29c19 0 31 -16 28 -34z" />
    <glyph glyph-name="Ograve" unicode="&#xd2;" horiz-adv-x="824" 
d="M783 347c-28 -175 -177 -358 -418 -358c-235 0 -334 187 -306 364c28 175 180 358 417 358c235 0 334 -187 307 -364zM98 349c-24 -153 54 -322 269 -322s351 165 376 324c24 153 -54 322 -269 322c-216 0 -351 -165 -376 -324zM524 776h-40l-73 137h46z" />
    <glyph glyph-name="Ohungarumlaut" unicode="&#x150;" horiz-adv-x="824" 
d="M783 347c-28 -175 -177 -358 -418 -358c-235 0 -334 187 -306 364c28 175 180 358 417 358c235 0 334 -187 307 -364zM98 349c-24 -153 54 -322 269 -322s351 165 376 324c24 153 -54 322 -269 322c-216 0 -351 -165 -376 -324zM585 779h-42l97 143h44zM432 779h-42
l97 143h44z" />
    <glyph glyph-name="Omacron" unicode="&#x14c;" horiz-adv-x="824" 
d="M783 347c-28 -175 -177 -358 -418 -358c-235 0 -334 187 -306 364c28 175 180 358 417 358c235 0 334 -187 307 -364zM98 349c-24 -153 54 -322 269 -322s351 165 376 324c24 153 -54 322 -269 322c-216 0 -351 -165 -376 -324zM368 840h264l-5 -36h-264z" />
    <glyph glyph-name="Oslash" unicode="&#xd8;" horiz-adv-x="824" 
d="M89 -48h-40l101 114c-78 71 -107 180 -90 287c27 175 180 358 417 358c80 0 144 -22 193 -57l84 94h40l-101 -114c78 -71 107 -180 90 -287c-27 -175 -176 -358 -417 -358c-80 0 -144 22 -193 57zM99 349c-14 -93 9 -191 77 -254l468 529c-42 30 -98 49 -169 49
c-215 0 -351 -165 -376 -324zM199 76c42 -30 98 -49 169 -49c216 0 351 165 376 324c14 93 -8 191 -77 254z" />
    <glyph glyph-name="Otilde" unicode="&#xd5;" horiz-adv-x="824" 
d="M783 347c-28 -175 -177 -358 -418 -358c-235 0 -334 187 -306 364c28 175 180 358 417 358c235 0 334 -187 307 -364zM98 349c-24 -153 54 -322 269 -322s351 165 376 324c24 153 -54 322 -269 322c-216 0 -351 -165 -376 -324zM646 863c-1 -51 -32 -81 -74 -81
c-57 0 -111 53 -155 53c-28 0 -45 -19 -45 -47h-34c0 50 34 81 73 81c56 0 112 -53 157 -53c30 0 44 18 44 47h34z" />
    <glyph glyph-name="OE" unicode="&#x152;" horiz-adv-x="1023" 
d="M488 0c-36 -8 -72 -11 -115 -11c-239 0 -342 189 -311 374c28 171 181 348 410 348c46 0 89 -4 119 -11h436l-7 -38h-389l-46 -291h360l-6 -38h-360l-47 -295h396l-6 -38h-434zM101 357c-27 -165 59 -330 275 -330c46 0 81 4 116 13l99 620c-34 10 -75 13 -121 13
c-207 0 -343 -161 -369 -316z" />
    <glyph glyph-name="P" unicode="P" horiz-adv-x="656" 
d="M167 700h223c150 0 285 -50 257 -222c-27 -169 -168 -217 -326 -217h-184l-41 -261h-40zM608 483c23 142 -90 179 -218 179h-190l-57 -363h184c138 0 259 40 281 184z" />
    <glyph glyph-name="Thorn" unicode="&#xde;" horiz-adv-x="652" 
d="M186 569h181c154 0 287 -49 260 -222c-27 -169 -167 -216 -326 -216h-184l-21 -131h-40l111 700h40zM122 169h184c138 0 258 39 281 184c23 142 -89 178 -220 178h-187z" />
    <glyph glyph-name="Q" unicode="Q" horiz-adv-x="824" 
d="M724 -33l-29 -25l-97 116c-64 -42 -142 -69 -233 -69c-235 0 -334 187 -306 364c28 175 180 358 417 358c235 0 334 -187 307 -364c-16 -98 -69 -198 -155 -267zM98 349c-24 -153 54 -322 269 -322c80 0 149 24 206 61l-128 151l28 24l130 -154c77 62 126 153 140 242
c24 153 -54 322 -269 322c-216 0 -351 -165 -376 -324z" />
    <glyph glyph-name="R" unicode="R" horiz-adv-x="686" 
d="M96 0h-40l111 700h262c119 0 245 -54 221 -208c-22 -137 -137 -191 -246 -200l213 -292h-47l-211 289h-218zM200 662l-52 -335h227c100 0 215 42 235 170c21 126 -83 165 -181 165h-229z" />
    <glyph glyph-name="Racute" unicode="&#x154;" horiz-adv-x="686" 
d="M96 0h-40l111 700h262c119 0 245 -54 221 -208c-22 -137 -137 -191 -246 -200l213 -292h-47l-211 289h-218zM200 662l-52 -335h227c100 0 215 42 235 170c21 126 -83 165 -181 165h-229zM418 776h-43l110 137h48z" />
    <glyph glyph-name="Rcaron" unicode="&#x158;" horiz-adv-x="686" 
d="M96 0h-40l111 700h262c119 0 245 -54 221 -208c-22 -137 -137 -191 -246 -200l213 -292h-47l-211 289h-218zM200 662l-52 -335h227c100 0 215 42 235 170c21 126 -83 165 -181 165h-229zM574 897l-148 -131h-34l-107 131h42l85 -101l115 101h47z" />
    <glyph glyph-name="Rcommaaccent" unicode="&#x156;" horiz-adv-x="686" 
d="M96 0h-40l111 700h262c119 0 245 -54 221 -208c-22 -137 -137 -191 -246 -200l213 -292h-47l-211 289h-218zM200 662l-52 -335h227c100 0 215 42 235 170c21 126 -83 165 -181 165h-229zM292 -218h-34l48 172h38z" />
    <glyph glyph-name="S" unicode="S" horiz-adv-x="569" 
d="M96 545c19 119 144 166 254 166c79 0 145 -20 194 -51l-5 -38c-49 33 -118 51 -189 51c-98 0 -198 -35 -214 -132c-34 -207 412 -131 373 -382c-19 -126 -140 -170 -260 -170c-87 0 -173 23 -233 59l6 39c64 -40 146 -60 226 -60c107 0 206 33 221 134
c34 220 -410 142 -373 384z" />
    <glyph glyph-name="Sacute" unicode="&#x15a;" horiz-adv-x="569" 
d="M96 545c19 119 144 166 254 166c79 0 145 -20 194 -51l-5 -38c-49 33 -118 51 -189 51c-98 0 -198 -35 -214 -132c-34 -207 412 -131 373 -382c-19 -126 -140 -170 -260 -170c-87 0 -173 23 -233 59l6 39c64 -40 146 -60 226 -60c107 0 206 33 221 134
c34 220 -410 142 -373 384zM352 776h-43l110 137h48z" />
    <glyph glyph-name="Scaron" unicode="&#x160;" horiz-adv-x="569" 
d="M96 545c19 119 144 166 254 166c79 0 145 -20 194 -51l-5 -38c-49 33 -118 51 -189 51c-98 0 -198 -35 -214 -132c-34 -207 412 -131 373 -382c-19 -126 -140 -170 -260 -170c-87 0 -173 23 -233 59l6 39c64 -40 146 -60 226 -60c107 0 206 33 221 134
c34 220 -410 142 -373 384zM508 897l-148 -131h-34l-107 131h42l85 -101l115 101h47z" />
    <glyph glyph-name="Scedilla" unicode="&#x15e;" horiz-adv-x="569" 
d="M346 -153c-7 -48 -51 -78 -124 -78c-44 0 -76 10 -102 22l6 32c26 -14 58 -22 93 -22c62 0 90 22 94 50c6 41 -57 53 -118 36l40 103c-82 2 -162 23 -219 58l6 39c64 -40 146 -60 226 -60c107 0 206 33 221 134c34 220 -410 142 -373 384c19 119 144 166 254 166
c79 0 145 -20 194 -51l-5 -38c-49 33 -118 51 -189 51c-98 0 -198 -35 -214 -132c-34 -207 412 -131 373 -382c-18 -119 -128 -166 -241 -169l-31 -76c58 11 116 -12 109 -67z" />
    <glyph glyph-name="Scommaaccent" unicode="&#x218;" horiz-adv-x="569" 
d="M96 545c19 119 144 166 254 166c79 0 145 -20 194 -51l-5 -38c-49 33 -118 51 -189 51c-98 0 -198 -35 -214 -132c-34 -207 412 -131 373 -382c-19 -126 -140 -170 -260 -170c-87 0 -173 23 -233 59l6 39c64 -40 146 -60 226 -60c107 0 206 33 221 134
c34 220 -410 142 -373 384zM233 -218h-34l48 172h38z" />
    <glyph glyph-name="T" unicode="T" horiz-adv-x="590" 
d="M76 700h567l-7 -38h-263l-105 -662h-39l104 662h-263z" />
    <glyph glyph-name="Tbar" unicode="&#x166;" horiz-adv-x="602" 
d="M274 0h-39l53 338h-134l5 34h135l45 290h-263l6 38h567l-7 -38h-263l-45 -290h134l-5 -34h-135z" />
    <glyph glyph-name="Tcaron" unicode="&#x164;" horiz-adv-x="590" 
d="M76 700h567l-7 -38h-263l-105 -662h-39l104 662h-263zM537 897l-148 -131h-34l-107 131h42l85 -101l115 101h47z" />
    <glyph glyph-name="Tcommaaccent" unicode="&#x162;" horiz-adv-x="590" 
d="M76 700h567l-7 -38h-263l-105 -662h-39l104 662h-263zM210 -218h-34l48 172h38z" />
    <glyph glyph-name="uni021A" unicode="&#x21a;" horiz-adv-x="590" 
d="M76 700h567l-7 -38h-263l-105 -662h-39l104 662h-263zM211 -218h-34l48 172h38z" />
    <glyph glyph-name="U" unicode="U" horiz-adv-x="752" 
d="M683 700h40l-72 -457c-30 -190 -162 -254 -318 -254s-276 67 -246 257l72 454h40l-72 -455c-26 -163 67 -218 205 -218c143 0 254 57 280 220z" />
    <glyph glyph-name="Uacute" unicode="&#xda;" horiz-adv-x="752" 
d="M683 700h40l-72 -457c-30 -190 -162 -254 -318 -254s-276 67 -246 257l72 454h40l-72 -455c-26 -163 67 -218 205 -218c143 0 254 57 280 220zM456 776h-43l110 137h48z" />
    <glyph glyph-name="Ucircumflex" unicode="&#xdb;" horiz-adv-x="752" 
d="M683 700h40l-72 -457c-30 -190 -162 -254 -318 -254s-276 67 -246 257l72 454h40l-72 -455c-26 -163 67 -218 205 -218c143 0 254 57 280 220zM452 907h33l108 -131h-42l-85 101l-116 -101h-46z" />
    <glyph glyph-name="Udieresis" unicode="&#xdc;" horiz-adv-x="752" 
d="M683 700h40l-72 -457c-30 -190 -162 -254 -318 -254s-276 67 -246 257l72 454h40l-72 -455c-26 -163 67 -218 205 -218c143 0 254 57 280 220zM587 833c-2 -15 -17 -28 -33 -28c-18 0 -31 15 -28 33c3 15 18 29 33 29c19 0 31 -16 28 -34zM386 833
c-2 -15 -17 -28 -33 -28c-18 0 -31 15 -28 33c3 15 18 29 33 29c19 0 31 -16 28 -34z" />
    <glyph glyph-name="Ugrave" unicode="&#xd9;" horiz-adv-x="752" 
d="M683 700h40l-72 -457c-30 -190 -162 -254 -318 -254s-276 67 -246 257l72 454h40l-72 -455c-26 -163 67 -218 205 -218c143 0 254 57 280 220zM485 776h-40l-73 137h46z" />
    <glyph glyph-name="Uhungarumlaut" unicode="&#x170;" horiz-adv-x="752" 
d="M683 700h40l-72 -457c-30 -190 -162 -254 -318 -254s-276 67 -246 257l72 454h40l-72 -455c-26 -163 67 -218 205 -218c143 0 254 57 280 220zM546 779h-42l97 143h44zM393 779h-42l97 143h44z" />
    <glyph glyph-name="Umacron" unicode="&#x16a;" horiz-adv-x="752" 
d="M683 700h40l-72 -457c-30 -190 -162 -254 -318 -254s-276 67 -246 257l72 454h40l-72 -455c-26 -163 67 -218 205 -218c143 0 254 57 280 220zM329 840h264l-5 -36h-264z" />
    <glyph glyph-name="Uogonek" unicode="&#x172;" horiz-adv-x="752" 
d="M612 247l71 453h40l-72 -457c-13 -86 -52 -154 -110 -196c-104 -76 -150 -144 -158 -193c-5 -32 15 -54 51 -53c26 0 52 7 76 20l-5 -32c-25 -13 -52 -20 -80 -20c-57 0 -88 34 -80 83c6 43 44 99 112 157c-37 -14 -79 -20 -124 -20c-156 0 -276 67 -246 257l72 454h40
l-72 -455c-26 -163 67 -218 205 -218c143 0 254 57 280 220z" />
    <glyph glyph-name="Uring" unicode="&#x16e;" horiz-adv-x="752" 
d="M683 700h40l-72 -457c-30 -190 -162 -254 -318 -254s-276 67 -246 257l72 454h40l-72 -455c-26 -163 67 -218 205 -218c143 0 254 57 280 220zM552 841c-9 -53 -57 -87 -103 -87c-49 0 -90 36 -81 92c9 53 57 86 104 86c49 0 89 -36 80 -91zM398 843
c-6 -37 20 -61 51 -61c33 0 68 22 74 62c6 36 -20 60 -50 60c-34 0 -69 -22 -75 -61z" />
    <glyph glyph-name="V" unicode="V" horiz-adv-x="680" 
d="M314 0h-40l-191 700h41l176 -655l383 655h45z" />
    <glyph glyph-name="W" unicode="W" horiz-adv-x="989" 
d="M989 700h42l-331 -700h-45l-104 624l-304 -624h-46l-112 700h40l103 -648l313 642h33l107 -637z" />
    <glyph glyph-name="Wacute" unicode="&#x1e82;" horiz-adv-x="993" 
d="M989 700h42l-331 -700h-45l-104 624l-304 -624h-46l-112 700h40l103 -648l313 642h33l107 -637zM580 776h-43l110 137h48z" />
    <glyph glyph-name="Wcircumflex" unicode="&#x174;" horiz-adv-x="993" 
d="M989 700h42l-331 -700h-45l-104 624l-304 -624h-46l-112 700h40l103 -648l313 642h33l107 -637zM576 907h33l108 -131h-42l-85 101l-116 -101h-46z" />
    <glyph glyph-name="Wdieresis" unicode="&#x1e84;" horiz-adv-x="993" 
d="M989 700h42l-331 -700h-45l-104 624l-304 -624h-46l-112 700h40l103 -648l313 642h33l107 -637zM711 833c-2 -15 -17 -28 -33 -28c-18 0 -31 15 -28 33c3 15 18 29 33 29c19 0 31 -16 28 -34zM510 833c-2 -15 -17 -28 -33 -28c-18 0 -31 15 -28 33c3 15 18 29 33 29
c19 0 31 -16 28 -34z" />
    <glyph glyph-name="Wgrave" unicode="&#x1e80;" horiz-adv-x="993" 
d="M989 700h42l-331 -700h-45l-104 624l-304 -624h-46l-112 700h40l103 -648l313 642h33l107 -637zM609 776h-40l-73 137h46z" />
    <glyph glyph-name="X" unicode="X" horiz-adv-x="615" 
d="M12 0h-50l334 362l-206 338h44l189 -309l286 309h50l-317 -343l217 -357h-43l-200 328z" />
    <glyph glyph-name="Y" unicode="Y" horiz-adv-x="631" 
d="M289 0h-39l44 279l-208 421h42l190 -382l312 382h46l-342 -421z" />
    <glyph glyph-name="Yacute" unicode="&#xdd;" horiz-adv-x="631" 
d="M289 0h-39l44 279l-208 421h42l190 -382l312 382h46l-342 -421zM395 776h-43l110 137h48z" />
    <glyph glyph-name="Ycircumflex" unicode="&#x176;" horiz-adv-x="631" 
d="M289 0h-39l44 279l-208 421h42l190 -382l312 382h46l-342 -421zM391 907h33l108 -131h-42l-85 101l-116 -101h-46z" />
    <glyph glyph-name="Ydieresis" unicode="&#x178;" horiz-adv-x="631" 
d="M289 0h-39l44 279l-208 421h42l190 -382l312 382h46l-342 -421zM526 833c-2 -15 -17 -28 -33 -28c-18 0 -31 15 -28 33c3 15 18 29 33 29c19 0 31 -16 28 -34zM325 833c-2 -15 -17 -28 -33 -28c-18 0 -31 15 -28 33c3 15 18 29 33 29c19 0 31 -16 28 -34z" />
    <glyph glyph-name="Ygrave" unicode="&#x1ef2;" horiz-adv-x="631" 
d="M289 0h-39l44 279l-208 421h42l190 -382l312 382h46l-342 -421zM424 776h-40l-73 137h46z" />
    <glyph glyph-name="Z" unicode="Z" horiz-adv-x="571" 
d="M496 0h-516l5 35l556 627h-439l6 38h490l-6 -35l-556 -627h466z" />
    <glyph glyph-name="Zacute" unicode="&#x179;" horiz-adv-x="571" 
d="M496 0h-516l5 35l556 627h-439l6 38h490l-6 -35l-556 -627h466zM380 776h-43l110 137h48z" />
    <glyph glyph-name="Zcaron" unicode="&#x17d;" horiz-adv-x="571" 
d="M496 0h-516l5 35l556 627h-439l6 38h490l-6 -35l-556 -627h466zM536 897l-148 -131h-34l-107 131h42l85 -101l115 101h47z" />
    <glyph glyph-name="Zdotaccent" unicode="&#x17b;" horiz-adv-x="571" 
d="M496 0h-516l5 35l556 627h-439l6 38h490l-6 -35l-556 -627h466zM412 817c-3 -21 -20 -33 -39 -33c-20 0 -36 15 -32 38c4 21 21 33 39 33c21 0 36 -15 32 -38z" />
    <glyph glyph-name="a" unicode="a" horiz-adv-x="615" 
d="M471 113c-50 -70 -132 -124 -231 -124c-136 0 -225 104 -201 257c24 149 144 245 276 245c97 0 167 -58 195 -127l19 116h35l-76 -480h-35zM76 242c-21 -133 55 -217 169 -217c101 0 189 66 231 144l22 142c-15 79 -85 144 -181 144c-113 0 -219 -77 -241 -213z" />
    <glyph glyph-name="aacute" unicode="&#xe1;" horiz-adv-x="615" 
d="M471 113c-50 -70 -132 -124 -231 -124c-136 0 -225 104 -201 257c24 149 144 245 276 245c97 0 167 -58 195 -127l19 116h35l-76 -480h-35zM76 242c-21 -133 55 -217 169 -217c101 0 189 66 231 144l22 142c-15 79 -85 144 -181 144c-113 0 -219 -77 -241 -213zM350 556
h-43l110 137h48z" />
    <glyph glyph-name="abreve" unicode="&#x103;" horiz-adv-x="615" 
d="M471 113c-50 -70 -132 -124 -231 -124c-136 0 -225 104 -201 257c24 149 144 245 276 245c97 0 167 -58 195 -127l19 116h35l-76 -480h-35zM76 242c-21 -133 55 -217 169 -217c101 0 189 66 231 144l22 142c-15 79 -85 144 -181 144c-113 0 -219 -77 -241 -213zM476 602
c-43 -31 -84 -41 -132 -41c-47 0 -91 10 -124 41l6 39c37 -33 74 -44 120 -44c47 0 89 11 136 44z" />
    <glyph glyph-name="acircumflex" unicode="&#xe2;" horiz-adv-x="615" 
d="M471 113c-50 -70 -132 -124 -231 -124c-136 0 -225 104 -201 257c24 149 144 245 276 245c97 0 167 -58 195 -127l19 116h35l-76 -480h-35zM76 242c-21 -133 55 -217 169 -217c101 0 189 66 231 144l22 142c-15 79 -85 144 -181 144c-113 0 -219 -77 -241 -213zM346 687
h33l108 -131h-42l-85 101l-116 -101h-46z" />
    <glyph glyph-name="adieresis" unicode="&#xe4;" horiz-adv-x="615" 
d="M471 113c-50 -70 -132 -124 -231 -124c-136 0 -225 104 -201 257c24 149 144 245 276 245c97 0 167 -58 195 -127l19 116h35l-76 -480h-35zM76 242c-21 -133 55 -217 169 -217c101 0 189 66 231 144l22 142c-15 79 -85 144 -181 144c-113 0 -219 -77 -241 -213zM481 613
c-2 -15 -17 -28 -33 -28c-18 0 -31 15 -28 33c3 15 18 29 33 29c19 0 31 -16 28 -34zM280 613c-2 -15 -17 -28 -33 -28c-18 0 -31 15 -28 33c3 15 18 29 33 29c19 0 31 -16 28 -34z" />
    <glyph glyph-name="agrave" unicode="&#xe0;" horiz-adv-x="615" 
d="M471 113c-50 -70 -132 -124 -231 -124c-136 0 -225 104 -201 257c24 149 144 245 276 245c97 0 167 -58 195 -127l19 116h35l-76 -480h-35zM76 242c-21 -133 55 -217 169 -217c101 0 189 66 231 144l22 142c-15 79 -85 144 -181 144c-113 0 -219 -77 -241 -213zM379 556
h-40l-73 137h46z" />
    <glyph glyph-name="amacron" unicode="&#x101;" horiz-adv-x="615" 
d="M471 113c-50 -70 -132 -124 -231 -124c-136 0 -225 104 -201 257c24 149 144 245 276 245c97 0 167 -58 195 -127l19 116h35l-76 -480h-35zM76 242c-21 -133 55 -217 169 -217c101 0 189 66 231 144l22 142c-15 79 -85 144 -181 144c-113 0 -219 -77 -241 -213zM223 620
h264l-5 -36h-264z" />
    <glyph glyph-name="aogonek" unicode="&#x105;" horiz-adv-x="615" 
d="M564 480l-76 -480c-65 -42 -125 -97 -132 -146c-5 -32 12 -53 45 -53c20 0 36 4 55 10l-5 -33c-18 -5 -37 -9 -58 -9c-53 0 -82 34 -74 83c8 50 57 104 136 159l16 102c-50 -70 -132 -124 -231 -124c-136 0 -225 104 -201 257c24 149 144 245 276 245
c97 0 167 -58 195 -127l19 116h35zM76 242c-21 -133 55 -217 169 -217c101 0 189 66 231 144l22 142c-15 79 -85 144 -181 144c-113 0 -219 -77 -241 -213z" />
    <glyph glyph-name="aring" unicode="&#xe5;" horiz-adv-x="615" 
d="M471 113c-50 -70 -132 -124 -231 -124c-136 0 -225 104 -201 257c24 149 144 245 276 245c97 0 167 -58 195 -127l19 116h35l-76 -480h-35zM76 242c-21 -133 55 -217 169 -217c101 0 189 66 231 144l22 142c-15 79 -85 144 -181 144c-113 0 -219 -77 -241 -213zM446 621
c-9 -53 -57 -87 -103 -87c-49 0 -90 36 -81 92c9 53 57 86 104 86c49 0 89 -36 80 -91zM292 623c-6 -37 20 -61 51 -61c33 0 68 22 74 62c6 36 -20 60 -50 60c-34 0 -69 -22 -75 -61z" />
    <glyph glyph-name="atilde" unicode="&#xe3;" horiz-adv-x="615" 
d="M471 113c-50 -70 -132 -124 -231 -124c-136 0 -225 104 -201 257c24 149 144 245 276 245c97 0 167 -58 195 -127l19 116h35l-76 -480h-35zM76 242c-21 -133 55 -217 169 -217c101 0 189 66 231 144l22 142c-15 79 -85 144 -181 144c-113 0 -219 -77 -241 -213zM501 643
c-1 -51 -32 -81 -74 -81c-57 0 -111 53 -155 53c-28 0 -45 -19 -45 -47h-34c0 50 34 81 73 81c56 0 112 -53 157 -53c30 0 44 18 44 47h34z" />
    <glyph glyph-name="ae" unicode="&#xe6;" horiz-adv-x="998" 
d="M471 112c-50 -69 -131 -123 -231 -123c-135 0 -225 104 -201 257c24 149 144 245 276 245c97 0 167 -58 195 -127l19 116h35l-20 -128c47 90 135 139 225 139c177 0 211 -153 171 -272h-413c-16 -139 91 -194 196 -194c57 0 118 15 164 39l-7 -39
c-45 -23 -106 -36 -163 -36c-90 0 -186 44 -208 144l-21 -133h-35zM76 242c-21 -133 55 -217 169 -217c101 0 189 66 231 144l22 142c-15 79 -87 144 -181 144c-115 0 -219 -77 -241 -213zM765 455c-112 0 -213 -83 -233 -202h379c23 85 -1 202 -146 202z" />
    <glyph glyph-name="b" unicode="b" horiz-adv-x="614" 
d="M146 700h38l-53 -331c48 68 133 122 228 122c130 0 225 -104 200 -257c-23 -149 -136 -245 -275 -245c-100 0 -166 56 -195 129l-19 -118h-35zM522 238c21 133 -61 217 -169 217c-101 0 -189 -66 -231 -146l-23 -139c17 -80 83 -145 182 -145c121 0 219 77 241 213z" />
    <glyph glyph-name="c" unicode="c" horiz-adv-x="493" 
d="M39 244c27 175 175 247 295 247c51 0 101 -13 140 -41l-6 -36c-35 29 -85 41 -131 41c-108 0 -236 -62 -261 -216c-23 -145 70 -214 184 -214c53 0 110 14 157 40l-5 -39c-49 -25 -104 -37 -158 -37c-129 0 -242 82 -215 255z" />
    <glyph glyph-name="cacute" unicode="&#x107;" horiz-adv-x="493" 
d="M39 244c27 175 175 247 295 247c51 0 101 -13 140 -41l-6 -36c-35 29 -85 41 -131 41c-108 0 -236 -62 -261 -216c-23 -145 70 -214 184 -214c53 0 110 14 157 40l-5 -39c-49 -25 -104 -37 -158 -37c-129 0 -242 82 -215 255zM343 556h-43l110 137h48z" />
    <glyph glyph-name="ccaron" unicode="&#x10d;" horiz-adv-x="493" 
d="M39 244c27 175 175 247 295 247c51 0 101 -13 140 -41l-6 -36c-35 29 -85 41 -131 41c-108 0 -236 -62 -261 -216c-23 -145 70 -214 184 -214c53 0 110 14 157 40l-5 -39c-49 -25 -104 -37 -158 -37c-129 0 -242 82 -215 255zM499 677l-148 -131h-34l-107 131h42l85 -101
l115 101h47z" />
    <glyph glyph-name="ccedilla" unicode="&#xe7;" horiz-adv-x="493" 
d="M468 414c-35 29 -85 41 -131 41c-108 0 -236 -62 -261 -216c-23 -145 70 -214 184 -214c53 0 110 14 158 40l-6 -39c-47 -25 -98 -36 -149 -37l-31 -75c58 11 116 -12 109 -67c-7 -48 -51 -78 -124 -78c-44 0 -76 10 -102 22l6 32c25 -14 57 -22 93 -22c61 0 90 22 94 50
c6 41 -57 53 -118 36l40 104c-117 9 -216 90 -191 253c27 175 176 247 296 247c50 0 100 -13 139 -41z" />
    <glyph glyph-name="cdotaccent" unicode="&#x10b;" horiz-adv-x="493" 
d="M39 244c27 175 175 247 295 247c51 0 101 -13 140 -41l-6 -36c-35 29 -85 41 -131 41c-108 0 -236 -62 -261 -216c-23 -145 70 -214 184 -214c53 0 110 14 157 40l-5 -39c-49 -25 -104 -37 -158 -37c-129 0 -242 82 -215 255zM375 597c-3 -21 -20 -33 -39 -33
c-20 0 -36 15 -32 38c4 21 21 33 39 33c21 0 36 -15 32 -38z" />
    <glyph glyph-name="d" unicode="d" horiz-adv-x="615" 
d="M561 700h38l-111 -700h-35l19 116c-49 -73 -132 -127 -232 -127c-134 0 -225 104 -201 257c24 149 139 245 274 245c100 0 169 -56 194 -127zM499 310c-16 80 -83 145 -182 145c-116 0 -219 -77 -241 -213c-21 -132 57 -217 169 -217c101 0 189 66 231 146z" />
    <glyph glyph-name="eth" unicode="&#xf0;" horiz-adv-x="594" 
d="M533 265c-27 -172 -143 -276 -289 -276c-138 0 -231 93 -208 237c21 131 141 222 264 222c101 0 194 -57 200 -168c2 8 3 16 4 26c21 190 -68 284 -170 326l-131 -113l-19 23l118 101c-46 15 -98 21 -142 21l4 36c49 0 110 -8 168 -30l99 86l20 -23l-90 -77
c112 -52 208 -164 172 -391zM74 221c-19 -120 55 -195 171 -195c115 0 198 70 234 177c19 138 -70 209 -175 209c-111 0 -212 -77 -230 -191z" />
    <glyph glyph-name="dcaron" unicode="&#x10f;" horiz-adv-x="615" 
d="M681 700h37l-48 -163h-33zM561 700h38l-111 -700h-35l19 116c-49 -73 -132 -127 -232 -127c-134 0 -225 104 -201 257c24 149 139 245 274 245c100 0 169 -56 194 -127zM499 310c-16 80 -83 145 -182 145c-116 0 -219 -77 -241 -213c-21 -132 57 -217 169 -217
c101 0 189 66 231 146z" />
    <glyph glyph-name="dcroat" unicode="&#x111;" horiz-adv-x="615" 
d="M584 613h85l-4 -30h-85l-92 -583h-35l19 116c-49 -73 -132 -127 -232 -127c-134 0 -225 104 -201 257c24 149 139 245 274 245c100 0 169 -56 194 -127l35 219h-184l4 30h185l14 87h38zM245 25c101 0 189 66 231 146l23 139c-16 80 -83 145 -182 145
c-116 0 -219 -77 -241 -213c-21 -132 57 -217 169 -217z" />
    <glyph glyph-name="e" unicode="e" horiz-adv-x="545" 
d="M38 242c26 161 151 249 271 249c174 0 218 -153 178 -272h-413c-17 -139 90 -194 196 -194c58 0 119 15 165 39l-6 -39c-45 -23 -105 -36 -164 -36c-126 0 -255 77 -227 253zM458 253c23 85 -8 202 -149 202c-105 0 -206 -72 -231 -202h380z" />
    <glyph glyph-name="eacute" unicode="&#xe9;" horiz-adv-x="545" 
d="M38 242c26 161 151 249 271 249c174 0 218 -153 178 -272h-413c-17 -139 90 -194 196 -194c58 0 119 15 165 39l-6 -39c-45 -23 -105 -36 -164 -36c-126 0 -255 77 -227 253zM458 253c23 85 -8 202 -149 202c-105 0 -206 -72 -231 -202h380zM330 556h-43l110 137h48z" />
    <glyph glyph-name="ecaron" unicode="&#x11b;" horiz-adv-x="545" 
d="M38 242c26 161 151 249 271 249c174 0 218 -153 178 -272h-413c-17 -139 90 -194 196 -194c58 0 119 15 165 39l-6 -39c-45 -23 -105 -36 -164 -36c-126 0 -255 77 -227 253zM458 253c23 85 -8 202 -149 202c-105 0 -206 -72 -231 -202h380zM486 677l-148 -131h-34
l-107 131h42l85 -101l115 101h47z" />
    <glyph glyph-name="ecircumflex" unicode="&#xea;" horiz-adv-x="545" 
d="M38 242c26 161 151 249 271 249c174 0 218 -153 178 -272h-413c-17 -139 90 -194 196 -194c58 0 119 15 165 39l-6 -39c-45 -23 -105 -36 -164 -36c-126 0 -255 77 -227 253zM458 253c23 85 -8 202 -149 202c-105 0 -206 -72 -231 -202h380zM326 687h33l108 -131h-42
l-85 101l-116 -101h-46z" />
    <glyph glyph-name="edieresis" unicode="&#xeb;" horiz-adv-x="545" 
d="M38 242c26 161 151 249 271 249c174 0 218 -153 178 -272h-413c-17 -139 90 -194 196 -194c58 0 119 15 165 39l-6 -39c-45 -23 -105 -36 -164 -36c-126 0 -255 77 -227 253zM458 253c23 85 -8 202 -149 202c-105 0 -206 -72 -231 -202h380zM461 613
c-2 -15 -17 -28 -33 -28c-18 0 -31 15 -28 33c3 15 18 29 33 29c19 0 31 -16 28 -34zM260 613c-2 -15 -17 -28 -33 -28c-18 0 -31 15 -28 33c3 15 18 29 33 29c19 0 31 -16 28 -34z" />
    <glyph glyph-name="edotaccent" unicode="&#x117;" horiz-adv-x="545" 
d="M38 242c26 161 151 249 271 249c174 0 218 -153 178 -272h-413c-17 -139 90 -194 196 -194c58 0 119 15 165 39l-6 -39c-45 -23 -105 -36 -164 -36c-126 0 -255 77 -227 253zM458 253c23 85 -8 202 -149 202c-105 0 -206 -72 -231 -202h380zM362 597
c-3 -21 -20 -33 -39 -33c-20 0 -36 15 -32 38c4 21 21 33 39 33c21 0 36 -15 32 -38z" />
    <glyph glyph-name="egrave" unicode="&#xe8;" horiz-adv-x="545" 
d="M38 242c26 161 151 249 271 249c174 0 218 -153 178 -272h-413c-17 -139 90 -194 196 -194c58 0 119 15 165 39l-6 -39c-45 -23 -105 -36 -164 -36c-126 0 -255 77 -227 253zM458 253c23 85 -8 202 -149 202c-105 0 -206 -72 -231 -202h380zM359 556h-40l-73 137h46z" />
    <glyph glyph-name="emacron" unicode="&#x113;" horiz-adv-x="545" 
d="M38 242c26 161 151 249 271 249c174 0 218 -153 178 -272h-413c-17 -139 90 -194 196 -194c58 0 119 15 165 39l-6 -39c-45 -23 -105 -36 -164 -36c-126 0 -255 77 -227 253zM458 253c23 85 -8 202 -149 202c-105 0 -206 -72 -231 -202h380zM203 620h264l-5 -36h-264z
" />
    <glyph glyph-name="eogonek" unicode="&#x119;" horiz-adv-x="545" 
d="M380 -211c-24 -13 -52 -20 -79 -20c-59 0 -87 34 -79 83c7 48 59 101 131 149c-28 -7 -59 -12 -88 -12c-126 0 -255 77 -227 253c26 161 151 249 271 249c174 0 218 -153 178 -272h-413c-17 -139 90 -194 196 -194c58 0 119 15 165 39l-6 -39
c-102 -68 -162 -122 -170 -171c-5 -32 12 -53 51 -53c26 1 51 9 75 22zM310 455c-105 0 -206 -72 -231 -202h380c23 85 -8 202 -149 202z" />
    <glyph glyph-name="f" unicode="f" horiz-adv-x="359" 
d="M151 562c18 111 98 149 181 149c45 0 81 -9 111 -24l-6 -35c-25 14 -62 23 -101 23c-72 0 -133 -28 -147 -117l-13 -78h205l-5 -36h-205l-71 -444h-38l71 444h-84l5 36h84z" />
    <glyph glyph-name="g" unicode="g" horiz-adv-x="615" 
d="M488 -1c-27 -169 -156 -230 -285 -230c-72 0 -134 17 -181 48l6 36c46 -31 104 -48 172 -48c116 0 227 52 250 196l18 109c-47 -67 -130 -121 -228 -121c-137 0 -225 104 -201 257c24 149 141 245 276 245c100 0 166 -56 195 -131l18 120h36zM76 242
c-21 -132 54 -217 169 -217c101 0 189 65 231 143l23 143c-16 79 -83 144 -182 144c-115 0 -219 -77 -241 -213z" />
    <glyph glyph-name="gbreve" unicode="&#x11f;" horiz-adv-x="615" 
d="M488 -1c-27 -169 -156 -230 -285 -230c-72 0 -134 17 -181 48l6 36c46 -31 104 -48 172 -48c116 0 227 52 250 196l18 109c-47 -67 -130 -121 -228 -121c-137 0 -225 104 -201 257c24 149 141 245 276 245c100 0 166 -56 195 -131l18 120h36zM76 242
c-21 -132 54 -217 169 -217c101 0 189 65 231 143l23 143c-16 79 -83 144 -182 144c-115 0 -219 -77 -241 -213zM467 602c-43 -31 -84 -41 -132 -41c-47 0 -91 10 -124 41l6 39c37 -33 74 -44 120 -44c47 0 89 11 136 44z" />
    <glyph glyph-name="gcommaaccent" unicode="&#x123;" horiz-adv-x="615" 
d="M337 549h-39l51 155h33zM488 -1c-27 -169 -156 -230 -285 -230c-72 0 -134 17 -181 48l6 36c46 -31 104 -48 172 -48c116 0 227 52 250 196l18 109c-47 -67 -130 -121 -228 -121c-137 0 -225 104 -201 257c24 149 141 245 276 245c100 0 166 -56 195 -131l18 120h36z
M76 242c-21 -132 54 -217 169 -217c101 0 189 65 231 143l23 143c-16 79 -83 144 -182 144c-115 0 -219 -77 -241 -213z" />
    <glyph glyph-name="gdotaccent" unicode="&#x121;" horiz-adv-x="615" 
d="M488 -1c-27 -169 -156 -230 -285 -230c-72 0 -134 17 -181 48l6 36c46 -31 104 -48 172 -48c116 0 227 52 250 196l18 109c-47 -67 -130 -121 -228 -121c-137 0 -225 104 -201 257c24 149 141 245 276 245c100 0 166 -56 195 -131l18 120h36zM76 242
c-21 -132 54 -217 169 -217c101 0 189 65 231 143l23 143c-16 79 -83 144 -182 144c-115 0 -219 -77 -241 -213zM373 597c-3 -21 -20 -33 -39 -33c-20 0 -36 15 -32 38c4 21 21 33 39 33c21 0 36 -15 32 -38z" />
    <glyph glyph-name="h" unicode="h" horiz-adv-x="578" 
d="M146 700h38l-51 -317c43 49 119 108 212 108c107 0 177 -76 158 -197l-47 -294h-38l47 293c17 106 -42 162 -128 162c-91 0 -170 -64 -212 -122l-52 -333h-38z" />
    <glyph glyph-name="hbar" unicode="&#x127;" horiz-adv-x="578" 
d="M133 383c43 49 119 108 212 108c107 0 177 -76 158 -197l-47 -294h-38l47 293c17 106 -42 162 -128 162c-91 0 -170 -64 -212 -122l-52 -333h-38l93 583h-59l4 30h59l14 87h38l-14 -87h210l-5 -30h-209z" />
    <glyph glyph-name="i" unicode="i" horiz-adv-x="208" 
d="M77 0h-38l76 480h38zM185 617c-3 -17 -17 -25 -31 -25c-16 0 -28 11 -25 30c2 17 16 25 30 25c16 0 28 -10 26 -30z" />
    <glyph glyph-name="dotlessi" unicode="&#x131;" horiz-adv-x="208" 
d="M77 0h-38l76 480h38z" />
    <glyph glyph-name="iacute" unicode="&#xed;" horiz-adv-x="208" 
d="M77 0h-38l76 480h38zM154 556h-43l110 137h48z" />
    <glyph glyph-name="icircumflex" unicode="&#xee;" horiz-adv-x="208" 
d="M77 0h-38l76 480h38zM62 556h-46l134 131h33l94 -131h-42l-71 101z" />
    <glyph glyph-name="idieresis" unicode="&#xef;" horiz-adv-x="208" 
d="M77 0h-38l76 480h38zM108 613c-2 -14 -16 -26 -31 -26c-17 0 -29 14 -26 31c3 14 17 27 31 27c18 0 29 -15 26 -32zM256 613c-2 -14 -16 -26 -31 -26c-17 0 -29 14 -26 31c3 14 17 27 31 27c18 0 29 -15 26 -32z" />
    <glyph glyph-name="i.loclTRK" horiz-adv-x="208" 
d="M77 0h-38l76 480h38zM186 597c-3 -21 -20 -33 -39 -33c-20 0 -36 15 -32 38c4 21 21 33 39 33c21 0 36 -15 32 -38z" />
    <glyph glyph-name="igrave" unicode="&#xec;" horiz-adv-x="208" 
d="M173 556h-38l-51 137h45zM77 0h-38l76 480h38z" />
    <glyph glyph-name="ij" unicode="&#x133;" horiz-adv-x="416" 
d="M77 0h-38l76 480h38zM185 617c-3 -17 -17 -25 -31 -25c-16 0 -28 11 -25 30c2 17 16 25 30 25c16 0 28 -10 26 -30zM267 -111c-14 -92 -75 -120 -138 -120c-28 0 -51 5 -71 13l5 34c18 -7 39 -11 60 -11c53 0 96 21 108 92l92 583h38zM392 617c-3 -17 -17 -25 -31 -25
c-16 0 -28 11 -25 30c2 17 16 25 30 25c16 0 28 -10 26 -30z" />
    <glyph glyph-name="imacron" unicode="&#x12b;" horiz-adv-x="208" 
d="M262 588h-220l5 36h220zM77 0h-38l76 480h38z" />
    <glyph glyph-name="iogonek" unicode="&#x12f;" horiz-adv-x="208" 
d="M129 622c2 17 16 25 30 25c16 0 28 -10 26 -30c-3 -17 -17 -25 -31 -25c-16 0 -28 11 -25 30zM153 480l-76 -480c-35 -36 -82 -93 -91 -144c-5 -33 14 -55 52 -55c24 0 47 6 72 19l-5 -33c-23 -12 -49 -18 -75 -18c-59 0 -87 38 -79 85c8 51 51 106 88 146l76 480h38z
" />
    <glyph glyph-name="j" unicode="j" horiz-adv-x="208" 
d="M59 -111c-14 -92 -75 -120 -138 -120c-28 0 -51 5 -71 13l5 34c18 -7 39 -11 60 -11c53 0 96 21 108 92l92 583h38zM184 617c-3 -17 -17 -25 -31 -25c-16 0 -28 11 -25 30c2 17 16 25 30 25c16 0 28 -10 26 -30z" />
    <glyph glyph-name="k" unicode="k" horiz-adv-x="496" 
d="M452 480h45l-232 -233l181 -247h-43l-172 233h-121l-37 -233h-38l111 700h38l-69 -431h125z" />
    <glyph glyph-name="kcommaaccent" unicode="&#x137;" horiz-adv-x="496" 
d="M452 480h45l-232 -233l181 -247h-43l-172 233h-121l-37 -233h-38l111 700h38l-69 -431h125zM193 -218h-34l48 172h38z" />
    <glyph glyph-name="l" unicode="l" horiz-adv-x="208" 
d="M155 730h38l-116 -730h-38z" />
    <glyph glyph-name="lacute" unicode="&#x13a;" horiz-adv-x="208" 
d="M155 730h38l-116 -730h-38zM200 782h-43l110 137h48z" />
    <glyph glyph-name="lcaron" unicode="&#x13e;" horiz-adv-x="207" 
d="M274 730h37l-48 -163h-33zM154 730h38l-116 -730h-38z" />
    <glyph glyph-name="lcommaaccent" unicode="&#x13c;" horiz-adv-x="208" 
d="M155 730h38l-116 -730h-38zM13 -218h-34l48 172h38z" />
    <glyph glyph-name="ldot" unicode="&#x140;" horiz-adv-x="262" 
d="M155 730h38l-116 -730h-38zM274 347c-2 -17 -16 -26 -31 -26c-18 0 -31 12 -28 32c3 17 17 26 32 26c18 0 30 -12 27 -32z" />
    <glyph glyph-name="lslash" unicode="&#x142;" horiz-adv-x="236" 
d="M169 730h38l-53 -332l94 38l-6 -34l-93 -38l-58 -364h-38l55 348l-93 -38l5 34l94 39z" />
    <glyph glyph-name="m" unicode="m" horiz-adv-x="893" 
d="M471 388c45 48 118 103 202 103c106 0 163 -78 147 -184l-49 -307h-38l49 309c14 85 -29 146 -114 146c-82 0 -151 -58 -190 -105c1 -14 0 -28 -2 -43l-49 -307h-38l49 309c14 85 -29 146 -114 146c-87 0 -159 -66 -197 -114l-54 -341h-38l76 480h34l-15 -95
c38 45 112 106 199 106c76 0 128 -41 142 -103z" />
    <glyph glyph-name="n" unicode="n" horiz-adv-x="578" 
d="M129 380c44 50 121 111 216 111c107 0 177 -76 158 -197l-47 -294h-38l47 293c17 106 -42 162 -128 162c-91 0 -170 -64 -212 -121l-52 -334h-38l76 480h34z" />
    <glyph glyph-name="nacute" unicode="&#x144;" horiz-adv-x="578" 
d="M129 380c44 50 121 111 216 111c107 0 177 -76 158 -197l-47 -294h-38l47 293c17 106 -42 162 -128 162c-91 0 -170 -64 -212 -121l-52 -334h-38l76 480h34zM336 556h-43l110 137h48z" />
    <glyph glyph-name="ncaron" unicode="&#x148;" horiz-adv-x="578" 
d="M129 380c44 50 121 111 216 111c107 0 177 -76 158 -197l-47 -294h-38l47 293c17 106 -42 162 -128 162c-91 0 -170 -64 -212 -121l-52 -334h-38l76 480h34zM492 677l-148 -131h-34l-107 131h42l85 -101l115 101h47z" />
    <glyph glyph-name="ncommaaccent" unicode="&#x146;" horiz-adv-x="578" 
d="M129 380c44 50 121 111 216 111c107 0 177 -76 158 -197l-47 -294h-38l47 293c17 106 -42 162 -128 162c-91 0 -170 -64 -212 -121l-52 -334h-38l76 480h34zM213 -218h-34l48 172h38z" />
    <glyph glyph-name="eng" unicode="&#x14b;" horiz-adv-x="578" 
d="M439 -111c-15 -95 -78 -120 -139 -120c-28 0 -52 5 -71 13l6 34c17 -7 39 -11 61 -11c52 0 95 22 106 92l63 396c17 106 -42 162 -128 162c-91 0 -170 -64 -212 -121l-52 -334h-38l76 480h34l-16 -100c44 50 121 111 216 111c107 0 177 -76 158 -197z" />
    <glyph glyph-name="ntilde" unicode="&#xf1;" horiz-adv-x="578" 
d="M129 380c44 50 121 111 216 111c107 0 177 -76 158 -197l-47 -294h-38l47 293c17 106 -42 162 -128 162c-91 0 -170 -64 -212 -121l-52 -334h-38l76 480h34zM487 643c-1 -51 -32 -81 -74 -81c-57 0 -111 53 -155 53c-28 0 -45 -19 -45 -47h-34c0 50 34 81 73 81
c56 0 112 -53 157 -53c30 0 44 18 44 47h34z" />
    <glyph glyph-name="o" unicode="o" horiz-adv-x="592" 
d="M537 234c-25 -159 -158 -245 -287 -245c-124 0 -236 94 -211 257c26 159 160 245 288 245c125 0 236 -94 210 -257zM77 240c-21 -134 67 -214 176 -214c115 0 226 76 248 214c21 134 -67 214 -176 214c-115 0 -226 -76 -248 -214z" />
    <glyph glyph-name="oacute" unicode="&#xf3;" horiz-adv-x="592" 
d="M537 234c-25 -159 -158 -245 -287 -245c-124 0 -236 94 -211 257c26 159 160 245 288 245c125 0 236 -94 210 -257zM77 240c-21 -134 67 -214 176 -214c115 0 226 76 248 214c21 134 -67 214 -176 214c-115 0 -226 -76 -248 -214zM344 550h-43l110 137h48z" />
    <glyph glyph-name="ocircumflex" unicode="&#xf4;" horiz-adv-x="592" 
d="M537 234c-25 -159 -158 -245 -287 -245c-124 0 -236 94 -211 257c26 159 160 245 288 245c125 0 236 -94 210 -257zM77 240c-21 -134 67 -214 176 -214c115 0 226 76 248 214c21 134 -67 214 -176 214c-115 0 -226 -76 -248 -214zM340 681h33l108 -131h-42l-85 101
l-116 -101h-46z" />
    <glyph glyph-name="odieresis" unicode="&#xf6;" horiz-adv-x="592" 
d="M537 234c-25 -159 -158 -245 -287 -245c-124 0 -236 94 -211 257c26 159 160 245 288 245c125 0 236 -94 210 -257zM77 240c-21 -134 67 -214 176 -214c115 0 226 76 248 214c21 134 -67 214 -176 214c-115 0 -226 -76 -248 -214zM475 607c-2 -15 -17 -28 -33 -28
c-18 0 -31 15 -28 33c3 15 18 29 33 29c19 0 31 -16 28 -34zM274 607c-2 -15 -17 -28 -33 -28c-18 0 -31 15 -28 33c3 15 18 29 33 29c19 0 31 -16 28 -34z" />
    <glyph glyph-name="ograve" unicode="&#xf2;" horiz-adv-x="592" 
d="M537 234c-25 -159 -158 -245 -287 -245c-124 0 -236 94 -211 257c26 159 160 245 288 245c125 0 236 -94 210 -257zM77 240c-21 -134 67 -214 176 -214c115 0 226 76 248 214c21 134 -67 214 -176 214c-115 0 -226 -76 -248 -214zM373 550h-40l-73 137h46z" />
    <glyph glyph-name="ohungarumlaut" unicode="&#x151;" horiz-adv-x="592" 
d="M537 234c-25 -159 -158 -245 -287 -245c-124 0 -236 94 -211 257c26 159 160 245 288 245c125 0 236 -94 210 -257zM77 240c-21 -134 67 -214 176 -214c115 0 226 76 248 214c21 134 -67 214 -176 214c-115 0 -226 -76 -248 -214zM434 553h-42l97 143h44zM281 553h-42
l97 143h44z" />
    <glyph glyph-name="omacron" unicode="&#x14d;" horiz-adv-x="592" 
d="M537 234c-25 -159 -158 -245 -287 -245c-124 0 -236 94 -211 257c26 159 160 245 288 245c125 0 236 -94 210 -257zM77 240c-21 -134 67 -214 176 -214c115 0 226 76 248 214c21 134 -67 214 -176 214c-115 0 -226 -76 -248 -214zM217 614h264l-5 -36h-264z" />
    <glyph glyph-name="oslash" unicode="&#xf8;" horiz-adv-x="593" 
d="M548 543l-80 -100c53 -43 84 -114 70 -209c-25 -159 -159 -245 -287 -245c-44 0 -86 12 -121 34l-65 -81h-36l79 97c-53 43 -83 114 -68 207c25 159 159 245 287 245c43 0 84 -11 118 -32l67 84h36zM325 454c-115 0 -226 -76 -248 -214c-12 -77 12 -135 54 -172l290 361
c-28 17 -61 25 -96 25zM253 26c115 0 226 76 248 214c12 78 -13 138 -57 174l-290 -362c28 -17 62 -26 99 -26z" />
    <glyph glyph-name="otilde" unicode="&#xf5;" horiz-adv-x="592" 
d="M537 234c-25 -159 -158 -245 -287 -245c-124 0 -236 94 -211 257c26 159 160 245 288 245c125 0 236 -94 210 -257zM77 240c-21 -134 67 -214 176 -214c115 0 226 76 248 214c21 134 -67 214 -176 214c-115 0 -226 -76 -248 -214zM495 637c-1 -51 -32 -81 -74 -81
c-57 0 -111 53 -155 53c-28 0 -45 -19 -45 -47h-34c0 50 34 81 73 81c56 0 112 -53 157 -53c30 0 44 18 44 47h34z" />
    <glyph glyph-name="oe" unicode="&#x153;" horiz-adv-x="990" 
d="M498 153c-47 -107 -142 -164 -252 -164c-120 0 -232 95 -207 257c26 160 160 245 284 245c99 0 184 -61 200 -167c44 109 138 167 234 167c174 0 215 -153 175 -275h-404c-17 -135 90 -191 190 -191c57 0 116 15 162 39l-6 -39c-45 -23 -106 -36 -163 -36
c-97 0 -197 50 -213 164zM77 241c-21 -135 67 -215 172 -215c121 0 222 77 244 214c21 135 -63 214 -172 214c-111 0 -222 -75 -244 -213zM758 455c-102 0 -200 -71 -225 -205h371c23 88 -5 205 -146 205z" />
    <glyph glyph-name="p" unicode="p" horiz-adv-x="614" 
d="M127 364c51 73 135 127 232 127c132 0 225 -104 200 -257c-23 -149 -140 -245 -275 -245c-100 0 -166 56 -193 129l-53 -338h-38l111 700h35zM522 238c22 132 -57 217 -168 217c-100 0 -189 -66 -232 -147l-22 -139c17 -79 83 -144 181 -144c117 0 220 77 241 213z" />
    <glyph glyph-name="thorn" unicode="&#xfe;" horiz-adv-x="614" 
d="M38 -220h-38l146 920h38l-53 -333c49 70 131 124 228 124c132 0 225 -104 200 -257c-23 -149 -140 -245 -275 -245c-100 0 -166 56 -193 129zM100 169c17 -79 83 -144 181 -144c117 0 220 77 241 213c22 132 -57 217 -168 217c-100 0 -189 -66 -232 -147z" />
    <glyph glyph-name="q" unicode="q" horiz-adv-x="615" 
d="M39 246c24 149 144 245 276 245c95 0 167 -57 195 -129l19 118h35l-111 -700h-38l52 330c-46 -67 -128 -121 -227 -121c-136 0 -225 104 -201 257zM499 312c-16 78 -86 143 -182 143c-113 0 -219 -77 -241 -213c-21 -133 55 -217 169 -217c101 0 189 66 231 144z" />
    <glyph glyph-name="r" unicode="r" horiz-adv-x="345" 
d="M125 349c43 78 125 145 238 141l-6 -39c-112 7 -202 -75 -238 -162l-46 -289h-38l76 480h35z" />
    <glyph glyph-name="racute" unicode="&#x155;" horiz-adv-x="345" 
d="M125 349c43 78 125 145 238 141l-6 -39c-112 7 -202 -75 -238 -162l-46 -289h-38l76 480h35zM256 556h-43l110 137h48z" />
    <glyph glyph-name="rcaron" unicode="&#x159;" horiz-adv-x="345" 
d="M125 349c43 78 125 145 238 141l-6 -39c-112 7 -202 -75 -238 -162l-46 -289h-38l76 480h35zM412 677l-148 -131h-34l-107 131h42l85 -101l115 101h47z" />
    <glyph glyph-name="rcommaaccent" unicode="&#x157;" horiz-adv-x="345" 
d="M125 349c43 78 125 145 238 141l-6 -39c-112 7 -202 -75 -238 -162l-46 -289h-38l76 480h35zM15 -218h-34l48 172h38z" />
    <glyph glyph-name="s" unicode="s" horiz-adv-x="458" 
d="M60 368c13 89 108 123 194 123c62 0 121 -18 159 -42l-5 -36c-37 26 -96 43 -155 43c-71 0 -146 -26 -155 -92c-21 -142 322 -74 294 -251c-14 -89 -107 -124 -201 -124c-68 0 -138 20 -177 50l6 37c42 -32 110 -51 172 -51c78 0 152 25 163 91c22 141 -322 74 -295 252z
" />
    <glyph glyph-name="sacute" unicode="&#x15b;" horiz-adv-x="458" 
d="M60 368c13 89 108 123 194 123c62 0 121 -18 159 -42l-5 -36c-37 26 -96 43 -155 43c-71 0 -146 -26 -155 -92c-21 -142 322 -74 294 -251c-14 -89 -107 -124 -201 -124c-68 0 -138 20 -177 50l6 37c42 -32 110 -51 172 -51c78 0 152 25 163 91c22 141 -322 74 -295 252z
M269 556h-43l110 137h48z" />
    <glyph glyph-name="scaron" unicode="&#x161;" horiz-adv-x="458" 
d="M60 368c13 89 108 123 194 123c62 0 121 -18 159 -42l-5 -36c-37 26 -96 43 -155 43c-71 0 -146 -26 -155 -92c-21 -142 322 -74 294 -251c-14 -89 -107 -124 -201 -124c-68 0 -138 20 -177 50l6 37c42 -32 110 -51 172 -51c78 0 152 25 163 91c22 141 -322 74 -295 252z
M425 677l-148 -131h-34l-107 131h42l85 -101l115 101h47z" />
    <glyph glyph-name="scedilla" unicode="&#x15f;" horiz-adv-x="458" 
d="M285 -153c-6 -48 -50 -78 -123 -78c-45 0 -77 10 -102 22l5 32c26 -14 58 -22 94 -22c61 0 90 22 93 50c7 41 -56 53 -118 36l40 103c-61 2 -124 22 -160 49l6 37c42 -32 110 -51 172 -51c78 0 152 25 163 91c22 141 -322 74 -295 252c13 89 108 123 194 123
c62 0 121 -18 159 -42l-5 -36c-37 26 -96 43 -155 43c-71 0 -146 -26 -155 -92c-21 -142 322 -74 294 -251c-13 -84 -96 -120 -184 -123l-31 -76c58 11 116 -12 108 -67z" />
    <glyph glyph-name="scommaaccent" unicode="&#x219;" horiz-adv-x="458" 
d="M60 368c13 89 108 123 194 123c62 0 121 -18 159 -42l-5 -36c-37 26 -96 43 -155 43c-71 0 -146 -26 -155 -92c-21 -142 322 -74 294 -251c-14 -89 -107 -124 -201 -124c-68 0 -138 20 -177 50l6 37c42 -32 110 -51 172 -51c78 0 152 25 163 91c22 141 -322 74 -295 252z
M172 -218h-34l48 172h38z" />
    <glyph glyph-name="germandbls" unicode="&#xdf;" horiz-adv-x="590" 
d="M529 147c-18 -110 -125 -158 -225 -158c-42 0 -90 10 -127 31l6 33c36 -21 80 -30 116 -30c89 0 178 38 192 131c18 110 -130 165 -118 238c10 66 92 90 105 174c9 55 -38 111 -126 111c-103 0 -182 -64 -199 -170l-80 -507h-38l80 504c21 132 114 206 237 207
c116 0 175 -77 164 -146c-14 -88 -96 -113 -106 -172c-10 -67 139 -119 119 -246z" />
    <glyph glyph-name="t" unicode="t" horiz-adv-x="370" 
d="M156 635l39 12l-26 -167h209l-5 -36h-209l-49 -305c-13 -79 24 -114 97 -114c41 0 79 10 109 25l-6 -37c-30 -15 -71 -24 -113 -24c-86 0 -141 51 -125 147l49 308h-90l5 36h90z" />
    <glyph glyph-name="tbar" unicode="&#x167;" horiz-adv-x="372" 
d="M380 480l-5 -36h-209l-22 -136h165l-6 -34h-165l-21 -135c-13 -79 24 -114 97 -114c41 0 79 10 109 25l-6 -37c-30 -15 -71 -24 -113 -24c-86 0 -141 51 -125 147l21 138h-54l6 34h54l22 136h-90l5 36h90l25 155l39 12l-26 -167h209z" />
    <glyph glyph-name="tcaron" unicode="&#x165;" horiz-adv-x="370" 
d="M317 716h37l-48 -159h-33zM156 635l39 12l-26 -167h209l-5 -36h-209l-49 -305c-13 -79 24 -114 97 -114c41 0 79 10 109 25l-6 -37c-30 -15 -71 -24 -113 -24c-86 0 -141 51 -125 147l49 308h-90l5 36h90z" />
    <glyph glyph-name="tcommaaccent" unicode="&#x163;" horiz-adv-x="370" 
d="M156 635l39 12l-26 -167h209l-5 -36h-209l-49 -305c-13 -79 24 -114 97 -114c41 0 79 10 109 25l-6 -37c-30 -15 -71 -24 -113 -24c-86 0 -141 51 -125 147l49 308h-90l5 36h90zM167 -218h-34l48 172h38z" />
    <glyph glyph-name="uni021B" unicode="&#x21b;" horiz-adv-x="370" 
d="M156 635l39 12l-26 -167h209l-5 -36h-209l-49 -305c-13 -79 24 -114 97 -114c41 0 79 10 109 25l-6 -37c-30 -15 -71 -24 -113 -24c-86 0 -141 51 -125 147l49 308h-90l5 36h90zM167 -218h-34l48 172h38z" />
    <glyph glyph-name="u" unicode="u" horiz-adv-x="577" 
d="M488 480h38l-76 -480h-35l16 101c-40 -51 -120 -112 -212 -112c-109 0 -180 76 -161 198l47 293h38l-47 -293c-16 -106 40 -162 128 -162c93 0 170 63 211 122z" />
    <glyph glyph-name="uacute" unicode="&#xfa;" horiz-adv-x="577" 
d="M488 480h38l-76 -480h-35l16 101c-40 -51 -120 -112 -212 -112c-109 0 -180 76 -161 198l47 293h38l-47 -293c-16 -106 40 -162 128 -162c93 0 170 63 211 122zM330 556h-43l110 137h48z" />
    <glyph glyph-name="ucircumflex" unicode="&#xfb;" horiz-adv-x="577" 
d="M488 480h38l-76 -480h-35l16 101c-40 -51 -120 -112 -212 -112c-109 0 -180 76 -161 198l47 293h38l-47 -293c-16 -106 40 -162 128 -162c93 0 170 63 211 122zM326 687h33l108 -131h-42l-85 101l-116 -101h-46z" />
    <glyph glyph-name="udieresis" unicode="&#xfc;" horiz-adv-x="577" 
d="M488 480h38l-76 -480h-35l16 101c-40 -51 -120 -112 -212 -112c-109 0 -180 76 -161 198l47 293h38l-47 -293c-16 -106 40 -162 128 -162c93 0 170 63 211 122zM461 613c-2 -15 -17 -28 -33 -28c-18 0 -31 15 -28 33c3 15 18 29 33 29c19 0 31 -16 28 -34zM260 613
c-2 -15 -17 -28 -33 -28c-18 0 -31 15 -28 33c3 15 18 29 33 29c19 0 31 -16 28 -34z" />
    <glyph glyph-name="ugrave" unicode="&#xf9;" horiz-adv-x="577" 
d="M488 480h38l-76 -480h-35l16 101c-40 -51 -120 -112 -212 -112c-109 0 -180 76 -161 198l47 293h38l-47 -293c-16 -106 40 -162 128 -162c93 0 170 63 211 122zM359 556h-40l-73 137h46z" />
    <glyph glyph-name="uhungarumlaut" unicode="&#x171;" horiz-adv-x="577" 
d="M488 480h38l-76 -480h-35l16 101c-40 -51 -120 -112 -212 -112c-109 0 -180 76 -161 198l47 293h38l-47 -293c-16 -106 40 -162 128 -162c93 0 170 63 211 122zM420 559h-42l97 143h44zM267 559h-42l97 143h44z" />
    <glyph glyph-name="umacron" unicode="&#x16b;" horiz-adv-x="577" 
d="M488 480h38l-76 -480h-35l16 101c-40 -51 -120 -112 -212 -112c-109 0 -180 76 -161 198l47 293h38l-47 -293c-16 -106 40 -162 128 -162c93 0 170 63 211 122zM203 620h264l-5 -36h-264z" />
    <glyph glyph-name="uogonek" unicode="&#x173;" horiz-adv-x="577" 
d="M526 480l-76 -480c-65 -42 -124 -97 -131 -146c-5 -32 12 -53 45 -53c19 0 36 4 53 10l-5 -33c-17 -5 -36 -9 -56 -9c-53 0 -82 34 -74 83c8 50 56 104 135 159l14 90c-40 -51 -120 -112 -212 -112c-109 0 -180 76 -161 198l47 293h38l-47 -293
c-16 -106 40 -162 128 -162c93 0 170 63 211 122l53 333h38z" />
    <glyph glyph-name="uring" unicode="&#x16f;" horiz-adv-x="577" 
d="M488 480h38l-76 -480h-35l16 101c-40 -51 -120 -112 -212 -112c-109 0 -180 76 -161 198l47 293h38l-47 -293c-16 -106 40 -162 128 -162c93 0 170 63 211 122zM426 621c-9 -53 -57 -87 -103 -87c-49 0 -90 36 -81 92c9 53 57 86 104 86c49 0 89 -36 80 -91zM272 623
c-6 -37 20 -61 51 -61c33 0 68 22 74 62c6 36 -20 60 -50 60c-34 0 -69 -22 -75 -61z" />
    <glyph glyph-name="v" unicode="v" horiz-adv-x="524" 
d="M493 480h42l-299 -480h-40l-146 480h40l131 -437z" />
    <glyph glyph-name="w" unicode="w" horiz-adv-x="796" 
d="M760 480h41l-255 -480h-39l-87 422l-223 -422h-40l-103 480h38l92 -430l225 424h35l88 -424z" />
    <glyph glyph-name="wacute" unicode="&#x1e83;" horiz-adv-x="796" 
d="M760 480h41l-255 -480h-39l-87 422l-223 -422h-40l-103 480h38l92 -430l225 424h35l88 -424zM446 556h-43l110 137h48z" />
    <glyph glyph-name="wcircumflex" unicode="&#x175;" horiz-adv-x="796" 
d="M760 480h41l-255 -480h-39l-87 422l-223 -422h-40l-103 480h38l92 -430l225 424h35l88 -424zM442 687h33l108 -131h-42l-85 101l-116 -101h-46z" />
    <glyph glyph-name="wdieresis" unicode="&#x1e85;" horiz-adv-x="796" 
d="M760 480h41l-255 -480h-39l-87 422l-223 -422h-40l-103 480h38l92 -430l225 424h35l88 -424zM577 613c-2 -15 -17 -28 -33 -28c-18 0 -31 15 -28 33c3 15 18 29 33 29c19 0 31 -16 28 -34zM376 613c-2 -15 -17 -28 -33 -28c-18 0 -31 15 -28 33c3 15 18 29 33 29
c19 0 31 -16 28 -34z" />
    <glyph glyph-name="wgrave" unicode="&#x1e81;" horiz-adv-x="796" 
d="M760 480h41l-255 -480h-39l-87 422l-223 -422h-40l-103 480h38l92 -430l225 424h35l88 -424zM475 556h-40l-73 137h46z" />
    <glyph glyph-name="x" unicode="x" horiz-adv-x="483" 
d="M15 0h-46l244 247l-156 233h43l138 -207l204 207h46l-232 -234l165 -246h-43l-146 219z" />
    <glyph glyph-name="y" unicode="y" horiz-adv-x="530" 
d="M235 39l263 441h42l-338 -565c-66 -108 -120 -146 -184 -146c-19 0 -34 3 -51 7l5 33c15 -4 29 -6 43 -6c59 0 104 41 156 128l41 69l-167 480h39z" />
    <glyph glyph-name="yacute" unicode="&#xfd;" horiz-adv-x="530" 
d="M235 39l263 441h42l-338 -565c-66 -108 -120 -146 -184 -146c-19 0 -34 3 -51 7l5 33c15 -4 29 -6 43 -6c59 0 104 41 156 128l41 69l-167 480h39zM302 556h-43l110 137h48z" />
    <glyph glyph-name="ycircumflex" unicode="&#x177;" horiz-adv-x="530" 
d="M235 39l263 441h42l-338 -565c-66 -108 -120 -146 -184 -146c-19 0 -34 3 -51 7l5 33c15 -4 29 -6 43 -6c59 0 104 41 156 128l41 69l-167 480h39zM298 687h33l108 -131h-42l-85 101l-116 -101h-46z" />
    <glyph glyph-name="ydieresis" unicode="&#xff;" horiz-adv-x="530" 
d="M235 39l263 441h42l-338 -565c-66 -108 -120 -146 -184 -146c-19 0 -34 3 -51 7l5 33c15 -4 29 -6 43 -6c59 0 104 41 156 128l41 69l-167 480h39zM433 613c-2 -15 -17 -28 -33 -28c-18 0 -31 15 -28 33c3 15 18 29 33 29c19 0 31 -16 28 -34zM232 613
c-2 -15 -17 -28 -33 -28c-18 0 -31 15 -28 33c3 15 18 29 33 29c19 0 31 -16 28 -34z" />
    <glyph glyph-name="ygrave" unicode="&#x1ef3;" horiz-adv-x="530" 
d="M235 39l263 441h42l-338 -565c-66 -108 -120 -146 -184 -146c-19 0 -34 3 -51 7l5 33c15 -4 29 -6 43 -6c59 0 104 41 156 128l41 69l-167 480h39zM331 556h-40l-73 137h46z" />
    <glyph glyph-name="z" unicode="z" horiz-adv-x="447" 
d="M74 480h360l-5 -32l-390 -414h336l-5 -34h-385l5 32l391 414h-312z" />
    <glyph glyph-name="zacute" unicode="&#x17a;" horiz-adv-x="447" 
d="M74 480h360l-5 -32l-390 -414h336l-5 -34h-385l5 32l391 414h-312zM275 556h-43l110 137h48z" />
    <glyph glyph-name="zcaron" unicode="&#x17e;" horiz-adv-x="447" 
d="M74 480h360l-5 -32l-390 -414h336l-5 -34h-385l5 32l391 414h-312zM431 677l-148 -131h-34l-107 131h42l85 -101l115 101h47z" />
    <glyph glyph-name="zdotaccent" unicode="&#x17c;" horiz-adv-x="447" 
d="M74 480h360l-5 -32l-390 -414h336l-5 -34h-385l5 32l391 414h-312zM307 597c-3 -21 -20 -33 -39 -33c-20 0 -36 15 -32 38c4 21 21 33 39 33c21 0 36 -15 32 -38z" />
    <glyph glyph-name="a.ss01" horiz-adv-x="536" 
d="M414 76c-6 -35 14 -45 38 -45c14 0 28 3 41 7l-6 -32c-14 -5 -31 -8 -45 -8c-41 0 -75 20 -66 79l1 8c-54 -62 -136 -96 -211 -96c-90 0 -164 50 -154 147c11 113 129 146 226 146c56 0 117 -10 166 -26l8 46c15 96 -32 153 -153 153c-65 0 -121 -16 -164 -31l6 38
c38 13 97 29 163 29c140 0 204 -71 184 -196zM172 23c74 0 162 38 213 110l14 92c-44 14 -105 24 -157 24c-84 0 -184 -26 -192 -117c-6 -71 48 -109 122 -109z" />
    <glyph glyph-name="aacute.ss01" horiz-adv-x="537" 
d="M415 76c-6 -35 14 -45 38 -45c14 0 28 3 41 7l-6 -32c-14 -5 -31 -8 -45 -8c-41 0 -75 20 -66 79l1 8c-54 -62 -136 -96 -211 -96c-90 0 -164 50 -154 147c11 113 129 146 226 146c56 0 117 -10 166 -26l8 46c15 96 -32 153 -153 153c-65 0 -121 -16 -164 -31l6 38
c38 13 97 29 163 29c140 0 204 -71 184 -196zM173 23c74 0 162 38 213 110l14 92c-44 14 -105 24 -157 24c-84 0 -184 -26 -192 -117c-6 -71 48 -109 122 -109zM295 556h-43l110 137h48z" />
    <glyph glyph-name="abreve.ss01" horiz-adv-x="537" 
d="M415 76c-6 -35 14 -45 38 -45c14 0 28 3 41 7l-6 -32c-14 -5 -31 -8 -45 -8c-41 0 -75 20 -66 79l1 8c-54 -62 -136 -96 -211 -96c-90 0 -164 50 -154 147c11 113 129 146 226 146c56 0 117 -10 166 -26l8 46c15 96 -32 153 -153 153c-65 0 -121 -16 -164 -31l6 38
c38 13 97 29 163 29c140 0 204 -71 184 -196zM173 23c74 0 162 38 213 110l14 92c-44 14 -105 24 -157 24c-84 0 -184 -26 -192 -117c-6 -71 48 -109 122 -109zM421 602c-43 -31 -84 -41 -132 -41c-47 0 -91 10 -124 41l6 39c37 -33 74 -44 120 -44c47 0 89 11 136 44z" />
    <glyph glyph-name="acircumflex.ss01" horiz-adv-x="537" 
d="M415 76c-6 -35 14 -45 38 -45c14 0 28 3 41 7l-6 -32c-14 -5 -31 -8 -45 -8c-41 0 -75 20 -66 79l1 8c-54 -62 -136 -96 -211 -96c-90 0 -164 50 -154 147c11 113 129 146 226 146c56 0 117 -10 166 -26l8 46c15 96 -32 153 -153 153c-65 0 -121 -16 -164 -31l6 38
c38 13 97 29 163 29c140 0 204 -71 184 -196zM173 23c74 0 162 38 213 110l14 92c-44 14 -105 24 -157 24c-84 0 -184 -26 -192 -117c-6 -71 48 -109 122 -109zM291 687h33l108 -131h-42l-85 101l-116 -101h-46z" />
    <glyph glyph-name="adieresis.ss01" horiz-adv-x="537" 
d="M415 76c-6 -35 14 -45 38 -45c14 0 28 3 41 7l-6 -32c-14 -5 -31 -8 -45 -8c-41 0 -75 20 -66 79l1 8c-54 -62 -136 -96 -211 -96c-90 0 -164 50 -154 147c11 113 129 146 226 146c56 0 117 -10 166 -26l8 46c15 96 -32 153 -153 153c-65 0 -121 -16 -164 -31l6 38
c38 13 97 29 163 29c140 0 204 -71 184 -196zM173 23c74 0 162 38 213 110l14 92c-44 14 -105 24 -157 24c-84 0 -184 -26 -192 -117c-6 -71 48 -109 122 -109zM426 613c-2 -15 -17 -28 -33 -28c-18 0 -31 15 -28 33c3 15 18 29 33 29c19 0 31 -16 28 -34zM225 613
c-2 -15 -17 -28 -33 -28c-18 0 -31 15 -28 33c3 15 18 29 33 29c19 0 31 -16 28 -34z" />
    <glyph glyph-name="agrave.ss01" horiz-adv-x="537" 
d="M415 76c-6 -35 14 -45 38 -45c14 0 28 3 41 7l-6 -32c-14 -5 -31 -8 -45 -8c-41 0 -75 20 -66 79l1 8c-54 -62 -136 -96 -211 -96c-90 0 -164 50 -154 147c11 113 129 146 226 146c56 0 117 -10 166 -26l8 46c15 96 -32 153 -153 153c-65 0 -121 -16 -164 -31l6 38
c38 13 97 29 163 29c140 0 204 -71 184 -196zM173 23c74 0 162 38 213 110l14 92c-44 14 -105 24 -157 24c-84 0 -184 -26 -192 -117c-6 -71 48 -109 122 -109zM324 556h-40l-73 137h46z" />
    <glyph glyph-name="amacron.ss01" horiz-adv-x="537" 
d="M415 76c-6 -35 14 -45 38 -45c14 0 28 3 41 7l-6 -32c-14 -5 -31 -8 -45 -8c-41 0 -75 20 -66 79l1 8c-54 -62 -136 -96 -211 -96c-90 0 -164 50 -154 147c11 113 129 146 226 146c56 0 117 -10 166 -26l8 46c15 96 -32 153 -153 153c-65 0 -121 -16 -164 -31l6 38
c38 13 97 29 163 29c140 0 204 -71 184 -196zM173 23c74 0 162 38 213 110l14 92c-44 14 -105 24 -157 24c-84 0 -184 -26 -192 -117c-6 -71 48 -109 122 -109zM168 620h264l-5 -36h-264z" />
    <glyph glyph-name="aogonek.ss01" horiz-adv-x="537" 
d="M494 38l-6 -32c-71 -47 -130 -101 -137 -150c-5 -33 12 -53 45 -53c19 0 36 3 53 10l-5 -33c-17 -6 -36 -9 -56 -9c-53 0 -82 34 -74 83c7 45 48 94 116 145c-35 4 -61 25 -53 78l1 8c-54 -62 -136 -96 -211 -96c-90 0 -164 50 -154 147c11 113 129 146 226 146
c56 0 117 -10 166 -26l8 46c15 96 -32 153 -153 153c-65 0 -121 -16 -164 -31l6 38c38 13 97 29 163 29c140 0 204 -71 184 -196l-34 -219c-6 -35 14 -45 38 -45c14 0 28 3 41 7zM173 23c74 0 162 38 213 110l14 92c-44 14 -105 24 -157 24c-84 0 -184 -26 -192 -117
c-6 -71 48 -109 122 -109z" />
    <glyph glyph-name="aring.ss01" horiz-adv-x="537" 
d="M415 76c-6 -35 14 -45 38 -45c14 0 28 3 41 7l-6 -32c-14 -5 -31 -8 -45 -8c-41 0 -75 20 -66 79l1 8c-54 -62 -136 -96 -211 -96c-90 0 -164 50 -154 147c11 113 129 146 226 146c56 0 117 -10 166 -26l8 46c15 96 -32 153 -153 153c-65 0 -121 -16 -164 -31l6 38
c38 13 97 29 163 29c140 0 204 -71 184 -196zM173 23c74 0 162 38 213 110l14 92c-44 14 -105 24 -157 24c-84 0 -184 -26 -192 -117c-6 -71 48 -109 122 -109zM391 621c-9 -53 -57 -87 -103 -87c-49 0 -90 36 -81 92c9 53 57 86 104 86c49 0 89 -36 80 -91zM237 623
c-6 -37 20 -61 51 -61c33 0 68 22 74 62c6 36 -20 60 -50 60c-34 0 -69 -22 -75 -61z" />
    <glyph glyph-name="atilde.ss01" horiz-adv-x="537" 
d="M415 76c-6 -35 14 -45 38 -45c14 0 28 3 41 7l-6 -32c-14 -5 -31 -8 -45 -8c-41 0 -75 20 -66 79l1 8c-54 -62 -136 -96 -211 -96c-90 0 -164 50 -154 147c11 113 129 146 226 146c56 0 117 -10 166 -26l8 46c15 96 -32 153 -153 153c-65 0 -121 -16 -164 -31l6 38
c38 13 97 29 163 29c140 0 204 -71 184 -196zM173 23c74 0 162 38 213 110l14 92c-44 14 -105 24 -157 24c-84 0 -184 -26 -192 -117c-6 -71 48 -109 122 -109zM446 643c-1 -51 -32 -81 -74 -81c-57 0 -111 53 -155 53c-28 0 -45 -19 -45 -47h-34c0 50 34 81 73 81
c56 0 112 -53 157 -53c30 0 44 18 44 47h34z" />
    <glyph glyph-name="ae.ss01" horiz-adv-x="897" 
d="M421 104c-73 -77 -157 -115 -251 -115c-86 0 -169 54 -156 150c14 113 129 143 230 143c52 0 113 -10 163 -27l8 47c15 93 -35 153 -144 153c-69 0 -131 -16 -174 -31l6 38c38 13 102 29 173 29c107 0 169 -56 170 -144c46 92 132 144 228 144c160 0 208 -148 165 -275
h-400c-15 -139 86 -191 191 -191c56 0 115 14 158 38l-6 -39c-42 -22 -104 -35 -159 -35c-85 0 -166 34 -202 115zM52 136c-10 -71 57 -113 123 -113c86 0 157 33 233 110c-7 26 -10 57 -6 92c-45 14 -106 24 -154 24c-87 0 -184 -22 -196 -113zM670 455
c-108 0 -201 -72 -226 -205h367c25 93 -10 205 -141 205z" />
    <glyph glyph-name="y.ss01" horiz-adv-x="577" 
d="M449 -7c-27 -167 -149 -224 -267 -224c-68 0 -131 16 -164 38l6 36c36 -23 93 -38 155 -38c106 0 211 47 233 190l15 102c-40 -48 -114 -108 -207 -108c-112 0 -181 76 -162 197l47 294h38l-47 -293c-16 -108 38 -162 128 -162c92 0 170 65 211 121l53 334h38z" />
    <glyph glyph-name="yacute.ss01" horiz-adv-x="577" 
d="M449 -7c-27 -167 -149 -224 -267 -224c-68 0 -131 16 -164 38l6 36c36 -23 93 -38 155 -38c106 0 211 47 233 190l15 102c-40 -48 -114 -108 -207 -108c-112 0 -181 76 -162 197l47 294h38l-47 -293c-16 -108 38 -162 128 -162c92 0 170 65 211 121l53 334h38zM332 556
h-43l110 137h48z" />
    <glyph glyph-name="ycircumflex.ss01" horiz-adv-x="577" 
d="M449 -7c-27 -167 -149 -224 -267 -224c-68 0 -131 16 -164 38l6 36c36 -23 93 -38 155 -38c106 0 211 47 233 190l15 102c-40 -48 -114 -108 -207 -108c-112 0 -181 76 -162 197l47 294h38l-47 -293c-16 -108 38 -162 128 -162c92 0 170 65 211 121l53 334h38zM328 687
h33l108 -131h-42l-85 101l-116 -101h-46z" />
    <glyph glyph-name="ydieresis.ss01" horiz-adv-x="577" 
d="M449 -7c-27 -167 -149 -224 -267 -224c-68 0 -131 16 -164 38l6 36c36 -23 93 -38 155 -38c106 0 211 47 233 190l15 102c-40 -48 -114 -108 -207 -108c-112 0 -181 76 -162 197l47 294h38l-47 -293c-16 -108 38 -162 128 -162c92 0 170 65 211 121l53 334h38zM463 613
c-2 -15 -17 -28 -33 -28c-18 0 -31 15 -28 33c3 15 18 29 33 29c19 0 31 -16 28 -34zM262 613c-2 -15 -17 -28 -33 -28c-18 0 -31 15 -28 33c3 15 18 29 33 29c19 0 31 -16 28 -34z" />
    <glyph glyph-name="ygrave.ss01" horiz-adv-x="577" 
d="M449 -7c-27 -167 -149 -224 -267 -224c-68 0 -131 16 -164 38l6 36c36 -23 93 -38 155 -38c106 0 211 47 233 190l15 102c-40 -48 -114 -108 -207 -108c-112 0 -181 76 -162 197l47 294h38l-47 -293c-16 -108 38 -162 128 -162c92 0 170 65 211 121l53 334h38zM361 556
h-40l-73 137h46z" />
    <glyph glyph-name="f_b" horiz-adv-x="956" 
d="M473 369c48 68 133 122 228 122c130 0 225 -104 200 -257c-23 -149 -136 -245 -275 -245c-100 0 -166 56 -195 129l-19 -118h-35l102 640c-38 22 -85 35 -135 35c-83 0 -143 -43 -156 -124l-12 -71h184l-5 -36h-184l-71 -444h-38l71 444h-84l5 36h84l13 74
c16 105 98 157 192 157c53 0 101 -13 141 -36l3 17l40 11zM624 25c121 0 219 77 241 213c21 133 -61 217 -169 217c-101 0 -189 -66 -231 -146l-23 -139c17 -80 83 -145 182 -145z" />
    <glyph glyph-name="f_f_b" horiz-adv-x="1266" 
d="M783 369c48 68 133 122 228 122c130 0 225 -104 200 -257c-23 -149 -136 -245 -275 -245c-100 0 -166 56 -195 129l-19 -118h-35l103 643c-39 23 -87 36 -136 36c-80 0 -142 -42 -156 -128l-12 -71h184l-5 -36h-184l-71 -444h-38l71 444h-272l-71 -444h-38l71 444h-84
l5 36h84l10 58c16 105 102 157 198 157c59 0 105 -18 151 -51c37 47 95 71 155 71c54 0 103 -13 143 -36l3 17l39 11zM448 480l12 74c4 23 10 43 20 60c-38 29 -77 45 -133 45c-85 0 -148 -43 -162 -124l-9 -55h272zM934 25c121 0 219 77 241 213c21 133 -61 217 -169 217
c-101 0 -189 -66 -231 -146l-23 -139c17 -80 83 -145 182 -145z" />
    <glyph glyph-name="f_f_h" horiz-adv-x="1229" 
d="M785 383c43 49 119 108 212 108c107 0 177 -76 158 -197l-47 -294h-38l47 293c17 106 -42 162 -128 162c-91 0 -170 -64 -212 -122l-52 -333h-38l103 643c-39 23 -87 36 -136 36c-80 0 -142 -42 -156 -128l-12 -71h184l-5 -36h-184l-71 -444h-38l71 444h-272l-71 -444
h-38l71 444h-84l5 36h84l10 58c16 105 102 157 198 157c59 0 105 -18 151 -51c37 47 95 71 155 71c54 0 103 -13 143 -36l3 17l39 11zM448 480l12 74c4 23 10 43 20 60c-38 29 -77 45 -133 45c-85 0 -148 -43 -162 -124l-9 -55h272z" />
    <glyph glyph-name="f_f_j" horiz-adv-x="846" 
d="M698 -111c-15 -92 -75 -120 -139 -120c-28 0 -51 5 -71 13l6 34c17 -7 39 -11 59 -11c54 0 97 21 108 92l86 547h-266l-71 -444h-38l71 444h-272l-71 -444h-38l71 444h-84l5 36h84l10 58c16 105 100 157 198 157c60 0 106 -18 152 -51c37 48 95 71 155 71
c55 0 106 -16 149 -43l-6 -38c-40 28 -88 45 -141 45c-80 0 -143 -43 -157 -128l-12 -71h305zM185 535l-9 -55h272l12 74c4 23 10 42 20 60c-39 28 -77 45 -133 45c-86 0 -148 -43 -162 -124z" />
    <glyph glyph-name="f_f_k" horiz-adv-x="1149" 
d="M1105 480h45l-232 -233l181 -247h-43l-172 233h-121l-37 -233h-38l102 643c-39 23 -87 36 -136 36c-80 0 -142 -42 -156 -128l-12 -71h184l-5 -36h-184l-71 -444h-38l71 444h-272l-71 -444h-38l71 444h-84l5 36h84l10 58c16 105 102 157 198 157c59 0 105 -18 151 -51
c37 47 95 71 155 71c54 0 103 -13 143 -36l3 17l40 11l-69 -438h124zM448 480l12 74c4 23 10 43 20 60c-38 29 -77 45 -133 45c-85 0 -148 -43 -162 -124l-9 -55h272z" />
    <glyph glyph-name="f_h" horiz-adv-x="919" 
d="M475 383c43 49 119 108 212 108c107 0 177 -76 158 -197l-47 -294h-38l47 293c17 106 -42 162 -128 162c-91 0 -170 -64 -212 -122l-52 -333h-38l102 640c-38 22 -85 35 -135 35c-83 0 -143 -43 -156 -124l-12 -71h184l-5 -36h-184l-71 -444h-38l71 444h-84l5 36h84
l13 74c16 105 98 157 192 157c53 0 101 -13 141 -36l3 17l40 11z" />
    <glyph glyph-name="f_i" horiz-adv-x="536" 
d="M100 0h-38l71 444h-84l5 36h84l13 74c16 105 98 157 190 157c55 0 108 -16 151 -43l-7 -37c-40 27 -88 44 -141 44c-80 0 -143 -42 -156 -124l-12 -71h305l-76 -480h-38l70 444h-266z" />
    <glyph glyph-name="f_j" horiz-adv-x="536" 
d="M388 -111c-15 -92 -75 -120 -139 -120c-28 0 -51 5 -71 13l6 34c17 -7 39 -11 59 -11c54 0 97 21 108 92l86 547h-266l-71 -444h-38l71 444h-84l5 36h84l13 74c16 105 98 157 190 157c55 0 108 -16 151 -43l-7 -37c-40 27 -88 44 -141 44c-80 0 -143 -42 -156 -124
l-12 -71h305z" />
    <glyph glyph-name="f_k" horiz-adv-x="838" 
d="M794 480h46l-233 -233l181 -247h-43l-171 233h-122l-37 -233h-38l102 640c-38 22 -85 35 -135 35c-83 0 -143 -43 -156 -124l-12 -71h184l-5 -36h-184l-71 -444h-38l71 444h-84l5 36h84l13 74c16 105 98 157 192 157c53 0 101 -13 141 -36l3 17l40 11l-69 -434h125z" />
    <glyph glyph-name="f_l" horiz-adv-x="546" 
d="M484 675l3 17l40 11l-112 -703h-38l102 640c-38 22 -85 35 -135 35c-83 0 -143 -43 -156 -124l-12 -71h184l-5 -36h-184l-71 -444h-38l71 444h-84l5 36h84l13 74c16 105 98 157 192 157c53 0 101 -13 141 -36z" />
    <glyph glyph-name="uni0410" unicode="&#x410;" horiz-adv-x="709" 
d="M649 0h-41l-60 204h-410l-124 -204h-45l428 700h46zM405 641l-245 -400h379l-118 401c-2 6 -4 13 -5 20c-4 -8 -7 -14 -11 -21z" />
    <glyph glyph-name="uni0411" unicode="&#x411;" horiz-adv-x="660" 
d="M159 401h194c141 0 279 -33 251 -203c-26 -168 -168 -198 -312 -198h-236l111 700h465l-7 -38h-425zM102 38h196c125 0 244 22 267 165c22 140 -91 160 -212 160h-200z" />
    <glyph glyph-name="uni0412" unicode="&#x412;" horiz-adv-x="680" 
d="M167 700h260c131 0 227 -56 207 -179c-15 -94 -85 -140 -161 -153c68 -13 155 -56 137 -182c-27 -163 -184 -186 -297 -186h-257zM571 195c20 134 -105 152 -176 152h-244l-49 -309h209c101 0 237 14 260 157zM594 523c16 101 -59 139 -175 139h-219l-44 -277h251
c86 0 171 38 187 138z" />
    <glyph glyph-name="uni0413" unicode="&#x413;" horiz-adv-x="576" 
d="M96 0h-40l111 700h453l-7 -38h-413z" />
    <glyph glyph-name="uni0414" unicode="&#x414;" horiz-adv-x="752" 
d="M-17 -174h-38l34 212h76c120 171 197 433 232 662h411l-105 -662h87l-34 -212h-38l27 174h-625zM321 662c-39 -217 -113 -465 -222 -624h455l99 624h-332z" />
    <glyph glyph-name="uni0415" unicode="&#x415;" horiz-adv-x="622" 
d="M167 700h459l-6 -38h-420l-45 -291h389l-6 -38h-389l-47 -295h426l-7 -38h-465z" />
    <glyph glyph-name="uni0401" unicode="&#x401;" horiz-adv-x="622" 
d="M547 833c-2 -15 -17 -28 -33 -28c-18 0 -31 15 -28 33c3 15 18 29 33 29c19 0 31 -16 28 -34zM346 833c-2 -15 -17 -28 -33 -28c-18 0 -31 15 -28 33c3 15 18 29 33 29c19 0 31 -16 28 -34zM167 700h459l-6 -38h-420l-45 -291h389l-6 -38h-389l-47 -295h426l-7 -38h-465z
" />
    <glyph glyph-name="uni0416" unicode="&#x416;" horiz-adv-x="927" 
d="M911 700h45l-267 -341l183 -359h-42l-173 340h-165l-53 -340h-40l54 340h-160l-282 -340h-47l298 359l-159 341h42l150 -322h164l51 322h40l-51 -322h161z" />
    <glyph glyph-name="uni0417" unicode="&#x417;" horiz-adv-x="603" 
d="M535 185c-23 -145 -171 -196 -297 -196c-103 0 -174 16 -237 44l6 39c62 -30 132 -45 230 -45c109 0 239 41 259 167c19 120 -99 152 -207 152h-133l6 38h129c123 0 215 54 230 145c15 98 -75 144 -186 144c-89 0 -154 -15 -229 -48l6 39c69 31 138 47 228 47
c131 0 239 -62 220 -184c-13 -89 -88 -146 -185 -161c88 -12 179 -60 160 -181z" />
    <glyph glyph-name="uni0418" unicode="&#x418;" horiz-adv-x="767" 
d="M730 700l-111 -700h-39l92 583c3 17 6 33 9 51l-588 -634h-37l111 700h40l-94 -585c-2 -17 -5 -33 -8 -49l588 634h37z" />
    <glyph glyph-name="uni0419" unicode="&#x419;" horiz-adv-x="767" 
d="M730 700l-111 -700h-39l92 583c3 17 6 33 9 51l-588 -634h-37l111 700h40l-94 -585c-2 -17 -5 -33 -8 -49l588 634h37zM600 822c-43 -31 -84 -41 -132 -41c-47 0 -91 10 -124 41l6 39c37 -33 74 -44 120 -44c47 0 89 11 136 44z" />
    <glyph glyph-name="uni041A" unicode="&#x41a;" horiz-adv-x="655" 
d="M644 700h46l-303 -343l218 -357h-43l-209 340h-204l-53 -340h-40l111 700h40l-51 -322h202z" />
    <glyph glyph-name="uni041B" unicode="&#x41b;" horiz-adv-x="737" 
d="M301 700h399l-111 -700h-39l104 662h-321c-82 -358 -161 -672 -325 -672c-22 0 -39 3 -56 10l6 38c16 -6 32 -8 45 -8c139 0 218 314 298 670z" />
    <glyph glyph-name="uni041C" unicode="&#x41c;" horiz-adv-x="901" 
d="M826 700h38l-111 -700h-39l99 626l-363 -437h-27l-227 438l-100 -627h-40l111 700h34l240 -464z" />
    <glyph glyph-name="uni041D" unicode="&#x41d;" horiz-adv-x="767" 
d="M691 700h39l-111 -700h-39l52 333h-484l-52 -333h-40l111 700h40l-52 -329h484z" />
    <glyph glyph-name="uni041E" unicode="&#x41e;" horiz-adv-x="824" 
d="M783 347c-28 -175 -177 -358 -418 -358c-235 0 -334 187 -306 364c28 175 180 358 417 358c235 0 334 -187 307 -364zM98 349c-24 -153 54 -322 269 -322s351 165 376 324c24 153 -54 322 -269 322c-216 0 -351 -165 -376 -324z" />
    <glyph glyph-name="uni041F" unicode="&#x41f;" horiz-adv-x="750" 
d="M96 0h-40l111 700h546l-111 -700h-39l104 662h-467z" />
    <glyph glyph-name="uni0420" unicode="&#x420;" horiz-adv-x="654" 
d="M167 700h223c150 0 285 -50 257 -222c-27 -169 -168 -217 -326 -217h-184l-41 -261h-40zM608 483c23 142 -90 179 -218 179h-190l-57 -363h184c138 0 259 40 281 184z" />
    <glyph glyph-name="uni0421" unicode="&#x421;" horiz-adv-x="652" 
d="M62 359c37 235 243 352 416 352c71 0 133 -17 184 -49l-6 -38c-46 32 -107 49 -175 49c-159 0 -345 -103 -380 -320c-36 -221 120 -326 276 -326c70 0 138 18 197 51l-6 -42c-59 -31 -131 -47 -200 -47c-172 0 -346 123 -306 370z" />
    <glyph glyph-name="uni0422" unicode="&#x422;" horiz-adv-x="590" 
d="M76 700h567l-7 -38h-263l-105 -662h-39l104 662h-263z" />
    <glyph glyph-name="uni0423" unicode="&#x423;" horiz-adv-x="620" 
d="M331 158c-90 -137 -162 -169 -235 -169c-28 0 -55 4 -79 13l6 37c23 -8 46 -12 68 -12c62 0 118 24 188 122l16 22l-223 529h42l205 -492l319 492h45z" />
    <glyph glyph-name="uni0424" unicode="&#x424;" horiz-adv-x="848" 
d="M392 -36h-39l14 94c-211 3 -355 112 -325 299c28 185 193 282 418 285l15 94h40l-15 -94c205 -3 355 -112 326 -299c-29 -184 -192 -282 -419 -285zM81 354c-24 -159 88 -256 292 -260l81 512c-208 -4 -347 -91 -373 -252zM494 606l-81 -512c209 4 348 91 373 253
c26 159 -90 255 -292 259z" />
    <glyph glyph-name="uni0425" unicode="&#x425;" horiz-adv-x="615" 
d="M12 0h-50l334 362l-206 338h44l189 -309l286 309h50l-317 -343l217 -357h-43l-200 328z" />
    <glyph glyph-name="uni0427" unicode="&#x427;" horiz-adv-x="673" 
d="M525 0h-40l46 289c-80 -26 -158 -38 -228 -37c-161 2 -250 81 -226 236l34 212h40l-34 -216c-22 -136 57 -193 196 -194c72 -1 146 12 225 38l58 372h40z" />
    <glyph glyph-name="uni0426" unicode="&#x426;" horiz-adv-x="768" 
d="M662 -174h-38l28 174h-596l111 700h40l-105 -662h468l105 662h39l-104 -662h85z" />
    <glyph glyph-name="uni0428" unicode="&#x428;" horiz-adv-x="1064" 
d="M916 0h-860l111 700h40l-105 -662h371l104 662h40l-105 -662h371l105 662h39z" />
    <glyph glyph-name="uni0429" unicode="&#x429;" horiz-adv-x="1081" 
d="M975 -174h-38l28 174h-909l111 700h40l-105 -662h371l104 662h40l-105 -662h371l105 662h39l-104 -662h86z" />
    <glyph glyph-name="uni042F" unicode="&#x42f;" horiz-adv-x="681" 
d="M36 0h-48l264 276c-111 22 -176 94 -157 211c24 152 152 213 302 213h247l-111 -700h-40l43 269h-203c-14 0 -27 0 -40 1zM135 482c-20 -126 72 -175 198 -175h208l56 355h-206c-125 0 -236 -51 -256 -180z" />
    <glyph glyph-name="uni042C" unicode="&#x42c;" horiz-adv-x="655" 
d="M280 0h-224l111 700h40l-42 -262h185c150 0 283 -49 256 -221c-26 -170 -167 -217 -326 -217zM159 400l-57 -362h184c139 0 258 39 281 184c23 142 -88 178 -220 178h-188z" />
    <glyph glyph-name="uni042A" unicode="&#x42a;" horiz-adv-x="748" 
d="M372 0h-223l104 662h-185l6 38h225l-41 -262h184c151 0 284 -49 257 -221c-27 -170 -166 -217 -327 -217zM251 400l-57 -362h184c139 0 258 39 281 184c23 142 -88 178 -220 178h-188z" />
    <glyph glyph-name="uni042B" unicode="&#x42b;" horiz-adv-x="844" 
d="M280 0h-224l111 700h40l-42 -262h185c150 0 283 -49 256 -221c-26 -170 -166 -217 -326 -217zM159 400l-57 -362h184c139 0 258 39 281 184c23 142 -88 178 -220 178h-188zM696 0h-40l111 700h40z" />
    <glyph glyph-name="uni042D" unicode="&#x42d;" horiz-adv-x="655" 
d="M106 664c60 31 133 47 202 47c165 0 343 -123 304 -369c-39 -245 -227 -353 -412 -353c-71 0 -143 18 -193 49l6 38c50 -31 116 -49 184 -49c169 0 335 92 373 305l-398 -1l6 38l397 1c23 205 -130 303 -274 303c-73 0 -145 -19 -201 -49z" />
    <glyph glyph-name="uni042E" unicode="&#x42e;" horiz-adv-x="1080" 
d="M1039 347c-28 -175 -176 -358 -417 -358c-226 0 -326 173 -309 342h-165l-52 -331h-40l111 700h40l-53 -331h164c35 170 185 342 414 342c236 0 335 -187 307 -364zM354 349c-24 -153 54 -322 269 -322s351 165 376 324c24 153 -54 322 -269 322
c-216 0 -351 -165 -376 -324z" />
    <glyph glyph-name="uni0414.loclBGR" horiz-adv-x="792" 
d="M-8 -174h-38l34 212h73l377 662h46l169 -662h73l-34 -212h-38l28 174h-662zM456 657l-351 -619h508z" />
    <glyph glyph-name="uni041B.loclBGR" horiz-adv-x="676" 
d="M-30 0l413 700h41l191 -700h-42l-175 653l-384 -653h-44z" />
    <glyph glyph-name="uni0424.loclBGR" horiz-adv-x="889" 
d="M401 -106h-39l15 98c-221 5 -349 161 -317 364c32 200 200 347 431 352l16 98h38l-15 -98c222 -5 350 -161 318 -364c-32 -200 -200 -347 -432 -352zM99 352c-27 -175 74 -316 284 -322l102 640c-211 -6 -357 -140 -386 -318zM523 670l-101 -640c211 6 357 140 385 318
c28 175 -73 316 -284 322z" />
    <glyph glyph-name="uni0430" unicode="&#x430;" horiz-adv-x="615" 
d="M471 113c-50 -70 -132 -124 -231 -124c-136 0 -225 104 -201 257c24 149 144 245 276 245c97 0 167 -58 195 -127l19 116h35l-76 -480h-35zM76 242c-21 -133 55 -217 169 -217c101 0 189 66 231 144l22 142c-15 79 -85 144 -181 144c-113 0 -219 -77 -241 -213z" />
    <glyph glyph-name="uni0431" unicode="&#x431;" horiz-adv-x="590" 
d="M531 219c-22 -142 -122 -230 -266 -230c-149 0 -242 113 -214 292c23 146 106 257 201 310c151 83 238 60 308 120l-6 -42c-68 -53 -151 -34 -282 -108c-84 -46 -142 -127 -174 -223c50 75 142 122 231 122c125 0 224 -99 202 -241zM85 266c-21 -144 52 -240 180 -240
c127 0 209 79 228 198c18 114 -60 200 -171 200c-101 0 -199 -61 -237 -158z" />
    <glyph glyph-name="uni0432" unicode="&#x432;" horiz-adv-x="541" 
d="M290 0h-255l76 480h241c90 0 144 -47 132 -127c-9 -54 -43 -95 -98 -109c51 -11 91 -47 79 -120c-13 -81 -78 -124 -175 -124zM109 227l-30 -193h210c71 0 129 27 140 98c11 73 -39 95 -100 95h-220zM144 446l-29 -186h207c70 0 114 34 124 95c9 60 -31 91 -100 91h-202z
" />
    <glyph glyph-name="uni0433" unicode="&#x433;" horiz-adv-x="438" 
d="M73 0h-38l76 480h341l-6 -36h-302z" />
    <glyph glyph-name="uni0434" unicode="&#x434;" horiz-adv-x="613" 
d="M-4 -136h-37l27 171h63c81 124 131 247 162 445h330l-70 -445h69l-27 -171h-37l21 136h-479zM241 444c-30 -180 -79 -295 -151 -409h343l65 409h-257z" />
    <glyph glyph-name="uni0435" unicode="&#x435;" horiz-adv-x="543" 
d="M38 242c26 161 151 249 271 249c174 0 218 -153 178 -272h-413c-17 -139 90 -194 196 -194c58 0 119 15 165 39l-6 -39c-45 -23 -105 -36 -164 -36c-126 0 -255 77 -227 253zM458 253c23 85 -8 202 -149 202c-105 0 -206 -72 -231 -202h380z" />
    <glyph glyph-name="uni0451" unicode="&#x451;" horiz-adv-x="543" 
d="M461 613c-2 -15 -17 -28 -33 -28c-18 0 -31 15 -28 33c3 15 18 29 33 29c19 0 31 -16 28 -34zM260 613c-2 -15 -17 -28 -33 -28c-18 0 -31 15 -28 33c3 15 18 29 33 29c19 0 31 -16 28 -34zM38 242c26 161 151 249 271 249c174 0 218 -153 178 -272h-413
c-17 -139 90 -194 196 -194c58 0 119 15 165 39l-6 -39c-45 -23 -105 -36 -164 -36c-126 0 -255 77 -227 253zM458 253c23 85 -8 202 -149 202c-105 0 -206 -72 -231 -202h380z" />
    <glyph glyph-name="uni0436" unicode="&#x436;" horiz-adv-x="718" 
d="M9 0h-46l252 247l-147 233h40l138 -217h91l34 217h38l-34 -217h89l206 217h44l-222 -235l172 -245h-42l-161 227h-92l-36 -227h-38l36 227h-89z" />
    <glyph glyph-name="uni0437" unicode="&#x437;" horiz-adv-x="474" 
d="M398 124c-15 -95 -107 -134 -227 -135c-69 0 -130 14 -173 36l6 36c39 -21 101 -36 164 -36c96 0 180 26 193 108c11 66 -50 93 -103 93h-122l6 36h114c73 0 122 34 130 92c11 68 -62 102 -144 102c-65 0 -123 -14 -175 -36l6 38c54 21 108 34 174 33
c110 -1 191 -51 177 -138c-8 -58 -49 -97 -112 -109c51 -12 97 -54 86 -120z" />
    <glyph glyph-name="uni0438" unicode="&#x438;" horiz-adv-x="585" 
d="M70 0h-35l76 480h38l-66 -418l416 418h35l-76 -480h-38l66 418z" />
    <glyph glyph-name="uni0439" unicode="&#x439;" horiz-adv-x="585" 
d="M472 602c-43 -31 -84 -41 -132 -41c-47 0 -91 10 -124 41l6 37c36 -33 73 -44 120 -44c46 0 89 11 136 44zM70 0h-35l76 480h38l-66 -418l416 418h35l-76 -480h-38l66 418z" />
    <glyph glyph-name="uni043A" unicode="&#x43a;" horiz-adv-x="500" 
d="M73 0h-38l76 480h38l-34 -211h125l212 211h45l-231 -232l181 -248h-43l-171 233h-123z" />
    <glyph glyph-name="uni043B" unicode="&#x43b;" horiz-adv-x="587" 
d="M241 444c-56 -280 -115 -450 -227 -450c-20 0 -34 2 -50 8l5 32c12 -6 26 -7 39 -7c92 0 148 166 202 453h326l-76 -480h-38l70 444h-251z" />
    <glyph glyph-name="uni043C" unicode="&#x43c;" horiz-adv-x="666" 
d="M73 0h-38l76 480h38l165 -298l256 298h45l-76 -480h-38l68 424l-243 -282h-30l-155 281z" />
    <glyph glyph-name="uni043D" unicode="&#x43d;" horiz-adv-x="577" 
d="M73 0h-38l76 480h38l-35 -222h339l35 222h38l-76 -480h-38l35 222h-339z" />
    <glyph glyph-name="uni043E" unicode="&#x43e;" horiz-adv-x="592" 
d="M537 234c-25 -159 -158 -245 -287 -245c-124 0 -236 94 -211 257c26 159 160 245 288 245c125 0 236 -94 210 -257zM77 240c-21 -134 67 -214 176 -214c115 0 226 76 248 214c21 134 -67 214 -176 214c-115 0 -226 -76 -248 -214z" />
    <glyph glyph-name="uni043F" unicode="&#x43f;" horiz-adv-x="577" 
d="M73 0h-38l76 480h415l-76 -480h-38l71 444h-339z" />
    <glyph glyph-name="uni0440" unicode="&#x440;" horiz-adv-x="614" 
d="M127 364c51 73 135 127 232 127c132 0 225 -104 200 -257c-23 -149 -140 -245 -275 -245c-100 0 -166 56 -193 129l-53 -338h-38l111 700h35zM522 238c22 132 -57 217 -168 217c-100 0 -189 -66 -232 -147l-22 -139c17 -79 83 -144 181 -144c117 0 220 77 241 213z" />
    <glyph glyph-name="uni0441" unicode="&#x441;" horiz-adv-x="496" 
d="M39 244c27 175 175 247 295 247c51 0 101 -13 140 -41l-6 -36c-35 29 -85 41 -131 41c-108 0 -236 -62 -261 -216c-23 -145 70 -214 184 -214c53 0 110 14 157 40l-5 -39c-49 -25 -104 -37 -158 -37c-129 0 -242 82 -215 255z" />
    <glyph glyph-name="uni0442" unicode="&#x442;" horiz-adv-x="453" 
d="M199 0h-38l71 444h-194l5 36h426l-6 -36h-193z" />
    <glyph glyph-name="uni0443" unicode="&#x443;" horiz-adv-x="530" 
d="M235 39l263 441h42l-338 -565c-66 -108 -120 -146 -184 -146c-19 0 -34 3 -51 7l5 33c15 -4 29 -6 43 -6c59 0 104 41 156 128l41 69l-167 480h39z" />
    <glyph glyph-name="uni0444" unicode="&#x444;" horiz-adv-x="702" 
d="M288 -220h-37l33 209c-155 3 -271 98 -246 257c25 156 162 242 326 245l33 209h37l-33 -209c155 -3 272 -98 247 -257c-25 -156 -163 -242 -327 -245zM75 242c-21 -135 70 -216 215 -219l69 434c-144 -3 -262 -77 -284 -215zM396 457l-69 -434c144 3 262 77 284 215
c21 135 -71 216 -215 219z" />
    <glyph glyph-name="uni0445" unicode="&#x445;" horiz-adv-x="483" 
d="M15 0h-46l244 247l-156 233h43l138 -207l204 207h46l-232 -234l165 -246h-43l-146 219z" />
    <glyph glyph-name="uni0447" unicode="&#x447;" horiz-adv-x="515" 
d="M388 0h-38l28 180c-53 -21 -106 -30 -164 -30c-110 0 -185 55 -166 173l24 157h38l-24 -157c-16 -99 43 -137 139 -137c54 0 105 10 159 29l42 265h38z" />
    <glyph glyph-name="uni0446" unicode="&#x446;" horiz-adv-x="592" 
d="M492 -136h-37l21 136h-441l76 480h38l-70 -444h333l70 444h38l-70 -444h69z" />
    <glyph glyph-name="uni0448" unicode="&#x448;" horiz-adv-x="808" 
d="M681 0h-646l76 480h38l-70 -444h266l70 444h38l-70 -444h266l70 444h38z" />
    <glyph glyph-name="uni0449" unicode="&#x449;" horiz-adv-x="829" 
d="M729 -136h-38l22 136h-678l76 480h38l-70 -444h266l70 444h38l-70 -444h266l70 444h38l-70 -444h69z" />
    <glyph glyph-name="uni044F" unicode="&#x44f;" horiz-adv-x="537" 
d="M34 0h-44l175 192c-74 18 -115 70 -103 144c13 83 88 144 201 144h223l-76 -480h-38l30 186h-177h-19zM100 330c-11 -66 38 -109 126 -109h181l36 224h-179c-91 0 -154 -46 -164 -115z" />
    <glyph glyph-name="uni044C" unicode="&#x44c;" horiz-adv-x="508" 
d="M249 0h-214l76 480h38l-28 -180h178c105 0 167 -65 153 -153c-13 -85 -88 -147 -203 -147zM115 265l-36 -230h170c93 0 154 47 165 118c11 68 -37 112 -123 112h-176z" />
    <glyph glyph-name="uni044A" unicode="&#x44a;" horiz-adv-x="575" 
d="M316 0h-214l71 446h-136l5 34h174l-28 -180h178c105 0 167 -65 153 -153c-13 -85 -88 -147 -203 -147zM182 265l-36 -230h170c93 0 154 47 165 118c11 68 -37 112 -123 112h-176z" />
    <glyph glyph-name="uni044B" unicode="&#x44b;" horiz-adv-x="691" 
d="M249 0h-214l76 480h38l-28 -180h178c105 0 167 -65 153 -153c-13 -85 -88 -147 -203 -147zM115 265l-36 -230h170c93 0 154 47 165 118c11 68 -37 112 -123 112h-176zM564 0h-38l76 480h38z" />
    <glyph glyph-name="uni044D" unicode="&#x44d;" horiz-adv-x="502" 
d="M446 232c-27 -175 -157 -243 -282 -243c-64 0 -115 16 -161 43l6 36c41 -26 95 -43 150 -43c114 0 221 54 247 198l-280 -1l6 36l280 1c14 139 -93 196 -192 196c-56 0 -113 -17 -157 -44l6 37c47 28 100 43 156 43c119 0 250 -79 221 -259z" />
    <glyph glyph-name="uni044E" unicode="&#x44e;" horiz-adv-x="805" 
d="M750 234c-25 -159 -158 -245 -287 -245c-118 0 -225 86 -214 234h-140l-35 -222h-38l76 480h38l-35 -223h140c29 144 154 232 285 233c125 0 236 -94 210 -257zM289 240c-21 -134 67 -214 176 -214c115 0 226 76 248 214c21 134 -67 214 -176 214
c-115 0 -226 -76 -248 -214z" />
    <glyph glyph-name="uni0432.loclBGR" horiz-adv-x="576" 
d="M371 711c106 0 170 -74 155 -166c-11 -68 -50 -121 -146 -155c94 -13 152 -94 136 -199c-19 -117 -113 -202 -248 -202c-136 0 -233 87 -203 274l17 115c35 215 131 333 289 333zM117 360l191 37c119 25 168 76 180 151c11 71 -35 127 -120 127
c-113 0 -212 -73 -248 -297zM269 25c108 0 192 63 209 168c17 107 -55 191 -177 168l-189 -36l-9 -62c-26 -167 49 -238 166 -238z" />
    <glyph glyph-name="uni0433.loclBGR" horiz-adv-x="466" 
d="M378 40c-48 -30 -127 -51 -192 -51c-105 0 -186 40 -173 133c25 184 350 84 375 240c11 67 -54 93 -126 93c-59 0 -126 -18 -179 -47l6 38c54 27 118 45 181 45c89 0 171 -38 156 -131c-30 -189 -353 -88 -375 -240c-10 -69 53 -95 143 -95c61 0 138 20 190 55z" />
    <glyph glyph-name="uni0434.loclBGR" horiz-adv-x="615" 
d="M488 -1c-27 -169 -156 -230 -285 -230c-72 0 -134 17 -181 48l6 36c46 -31 104 -48 172 -48c116 0 227 52 250 196l18 109c-47 -67 -130 -121 -228 -121c-137 0 -225 104 -201 257c24 149 141 245 276 245c100 0 166 -56 195 -131l18 120h36zM76 242
c-21 -132 54 -217 169 -217c101 0 189 65 231 143l23 143c-16 79 -83 144 -182 144c-115 0 -219 -77 -241 -213z" />
    <glyph glyph-name="uni0436.loclBGR" horiz-adv-x="718" 
d="M9 0h-46l252 247l-147 233h40l138 -217h91l69 437h38l-69 -437h89l206 217h44l-222 -235l172 -245h-42l-161 227h-92l-36 -227h-38l36 227h-89z" />
    <glyph glyph-name="uni0438.loclBGR" horiz-adv-x="577" 
d="M488 480h38l-76 -480h-35l16 101c-40 -51 -120 -112 -212 -112c-109 0 -180 76 -161 198l47 293h38l-47 -293c-16 -106 40 -162 128 -162c93 0 170 63 211 122z" />
    <glyph glyph-name="uni0439.loclBGR" horiz-adv-x="577" 
d="M458 602c-43 -31 -84 -41 -132 -41c-47 0 -91 10 -124 41l6 37c36 -33 73 -44 120 -44c46 0 89 11 136 44zM488 480h38l-76 -480h-35l16 101c-40 -51 -120 -112 -212 -112c-109 0 -180 76 -161 198l47 293h38l-47 -293c-16 -106 40 -162 128 -162c93 0 170 63 211 122z
" />
    <glyph glyph-name="uni043A.loclBGR" horiz-adv-x="499" 
d="M452 480h45l-232 -233l181 -247h-43l-172 233h-121l-37 -233h-38l111 700h38l-69 -431h125z" />
    <glyph glyph-name="uni043B.loclBGR" horiz-adv-x="524" 
d="M313 480l146 -480h-40l-131 437l-270 -437h-44l298 480h41z" />
    <glyph glyph-name="uni043F.loclBGR" horiz-adv-x="578" 
d="M129 380c44 50 121 111 216 111c107 0 177 -76 158 -197l-47 -294h-38l47 293c17 106 -42 162 -128 162c-91 0 -170 -64 -212 -121l-52 -334h-38l76 480h34z" />
    <glyph glyph-name="uni0442.loclBGR" horiz-adv-x="893" 
d="M471 388c45 48 118 103 202 103c106 0 163 -78 147 -184l-49 -307h-38l49 309c14 85 -29 146 -114 146c-82 0 -151 -58 -190 -105c1 -14 0 -28 -2 -43l-49 -307h-38l49 309c14 85 -29 146 -114 146c-87 0 -159 -66 -197 -114l-54 -341h-38l76 480h34l-15 -95
c38 45 112 106 199 106c76 0 128 -41 142 -103z" />
    <glyph glyph-name="uni0446.loclBGR" horiz-adv-x="604" 
d="M464 88c-7 -45 15 -57 51 -57h21l-26 -167h-36l22 134c-45 3 -81 32 -69 98c-42 -50 -119 -107 -208 -107c-109 0 -180 76 -161 198l47 293h38l-47 -293c-16 -106 40 -162 128 -162c93 0 170 63 211 122l53 333h38z" />
    <glyph glyph-name="uni0448.loclBGR" horiz-adv-x="892" 
d="M749 136l54 344h38l-76 -480h-35l15 93c-35 -43 -109 -104 -198 -104c-75 0 -127 42 -142 104c-45 -49 -117 -104 -202 -104c-105 0 -163 78 -146 184l48 307h38l-49 -309c-13 -85 29 -146 114 -146c83 0 152 58 190 106c0 13 1 27 3 42l48 307h38l-49 -309
c-13 -85 29 -146 114 -146c87 0 160 63 197 111z" />
    <glyph glyph-name="uni0449.loclBGR" horiz-adv-x="919" 
d="M779 88c-7 -45 15 -57 51 -57h22l-26 -167h-36l22 134c-46 2 -80 26 -70 91c-36 -42 -109 -100 -195 -100c-75 0 -126 40 -143 102c-46 -49 -118 -102 -201 -102c-105 0 -163 78 -146 184l48 307h38l-49 -309c-13 -85 29 -146 114 -146c82 0 152 59 190 106
c0 13 1 27 3 42l48 307h38l-49 -309c-13 -85 29 -146 114 -146c87 0 160 63 197 111l54 344h38z" />
    <glyph glyph-name="uni044E.loclBGR" horiz-adv-x="804" 
d="M749 234c-25 -159 -158 -245 -287 -245c-118 0 -225 86 -213 234h-141l-35 -222h-38l111 699h38l-70 -442h140c29 144 154 232 285 233c125 0 236 -94 210 -257zM288 240c-21 -134 67 -214 176 -214c115 0 226 76 248 214c21 134 -67 214 -176 214
c-115 0 -226 -76 -248 -214z" />
    <glyph glyph-name="uni0430.ss01" horiz-adv-x="542" 
d="M414 76c-6 -35 14 -45 38 -45c14 0 28 3 41 7l-6 -32c-14 -5 -31 -8 -45 -8c-41 0 -75 20 -66 79l1 8c-54 -62 -136 -96 -211 -96c-90 0 -164 50 -154 147c11 113 129 146 226 146c56 0 117 -10 166 -26l8 46c15 96 -32 153 -153 153c-65 0 -121 -16 -164 -31l6 38
c38 13 97 29 163 29c140 0 204 -71 184 -196zM172 23c74 0 162 38 213 110l14 92c-44 14 -105 24 -157 24c-84 0 -184 -26 -192 -117c-6 -71 48 -109 122 -109z" />
    <glyph glyph-name="uni0437.ss01" horiz-adv-x="448" 
d="M367 -36c-21 -128 -125 -195 -260 -195c-58 0 -128 13 -171 45l6 37c41 -31 106 -47 162 -47c110 0 207 54 225 164c17 105 -57 199 -176 173l-63 -13l5 35l70 15c114 26 164 79 174 151c11 75 -42 126 -126 126c-55 0 -112 -15 -166 -48l5 42c58 30 108 42 165 42
c103 0 175 -69 161 -164c-10 -71 -53 -125 -148 -157c94 -15 153 -106 137 -206z" />
    <glyph glyph-name="uni0443.ss01" horiz-adv-x="577" 
d="M449 -7c-27 -167 -149 -224 -267 -224c-68 0 -131 16 -164 38l6 36c36 -23 93 -38 155 -38c106 0 211 47 233 190l15 102c-40 -48 -114 -108 -207 -108c-112 0 -181 76 -162 197l47 294h38l-47 -293c-16 -108 38 -162 128 -162c92 0 170 65 211 121l53 334h38z" />
    <glyph glyph-name="zero" unicode="0" horiz-adv-x="704" 
d="M66 346c32 202 149 345 347 345s273 -152 241 -357c-33 -202 -150 -345 -348 -345s-272 152 -240 357zM615 338c29 186 -31 315 -203 315c-174 0 -276 -121 -306 -311c-30 -186 30 -315 202 -315c175 0 277 121 307 311z" />
    <glyph glyph-name="one" unicode="1" horiz-adv-x="404" 
d="M282 680h28l-101 -642h138l-6 -38h-332l6 38h154l95 599l-163 -58l6 38z" />
    <glyph glyph-name="two" unicode="2" horiz-adv-x="561" 
d="M126 629c75 45 147 62 216 62c124 0 212 -65 195 -172c-18 -115 -118 -174 -232 -234c-114 -61 -228 -112 -253 -247h417l-6 -38h-460l4 23c26 166 149 230 275 294c104 52 200 103 216 207c13 80 -51 130 -160 130c-71 0 -141 -21 -218 -67z" />
    <glyph glyph-name="three" unicode="3" horiz-adv-x="586" 
d="M537 507c-11 -68 -62 -135 -152 -154c78 -15 145 -70 128 -175c-20 -123 -131 -189 -267 -189c-98 0 -170 17 -225 45l5 37c58 -29 127 -45 219 -45c121 0 213 54 230 158c17 106 -66 149 -174 149h-100l7 37h94c122 -1 185 68 196 140c13 80 -46 144 -160 144
c-81 0 -145 -17 -216 -47l6 40c65 28 131 44 216 44c130 0 208 -82 193 -184z" />
    <glyph glyph-name="four" unicode="4" horiz-adv-x="638" 
d="M483 680h44l-76 -477h141l-5 -38h-141l-27 -165h-39l26 165h-397l5 35zM411 203l68 422l-414 -422h346z" />
    <glyph glyph-name="five" unicode="5" horiz-adv-x="578" 
d="M163 680h391l-6 -38h-353l-60 -267c51 15 106 23 155 23c127 0 245 -60 222 -208c-20 -123 -135 -201 -278 -201c-79 0 -158 18 -211 47l5 36c54 -29 129 -46 204 -46c127 0 224 65 240 169c19 121 -77 166 -195 166c-62 0 -130 -12 -190 -33z" />
    <glyph glyph-name="six" unicode="6" horiz-adv-x="608" 
d="M558 617c-40 24 -90 36 -139 36c-154 0 -278 -92 -317 -336c0 -1 0 -3 -1 -4c79 65 167 100 254 100c112 0 217 -68 195 -211c-22 -137 -137 -213 -264 -213c-180 0 -255 131 -223 335c42 260 181 367 356 367c53 0 105 -14 145 -38zM510 205c19 122 -64 171 -164 171
c-86 0 -179 -40 -250 -108c-11 -155 54 -242 189 -242c110 0 206 61 225 179z" />
    <glyph glyph-name="seven" unicode="7" horiz-adv-x="517" 
d="M92 680h464l-6 -34l-411 -646h-44l409 642h-418z" />
    <glyph glyph-name="eight" unicode="8" horiz-adv-x="643" 
d="M568 159c-14 -87 -110 -170 -280 -170c-182 0 -264 96 -247 204c11 74 68 140 162 186c-56 30 -96 73 -84 148c13 82 99 164 261 164c155 0 231 -97 217 -189c-10 -72 -61 -129 -139 -176c69 -30 124 -78 110 -167zM80 192c-14 -92 57 -166 211 -166
c138 0 225 65 237 139c16 107 -87 134 -194 165c-34 10 -67 20 -97 31c-88 -38 -145 -98 -157 -169zM334 366c29 -8 60 -16 89 -25c73 42 124 95 135 162c11 74 -47 151 -179 151s-210 -62 -220 -130c-17 -105 94 -133 175 -158z" />
    <glyph glyph-name="nine" unicode="9" horiz-adv-x="609" 
d="M74 478c22 137 137 213 264 213c179 0 255 -131 223 -335c-42 -260 -181 -367 -356 -367c-55 0 -105 14 -145 38l6 37c39 -25 90 -37 139 -37c154 0 278 92 317 339c-79 -65 -166 -99 -253 -99c-114 0 -217 68 -195 211zM339 654c-110 0 -206 -60 -225 -179
c-19 -122 64 -171 164 -171c86 0 178 40 249 108c13 153 -52 242 -188 242z" />
    <glyph glyph-name="zero.osf" horiz-adv-x="659" 
d="M602 254c-21 -132 -132 -265 -314 -265c-190 0 -262 143 -241 277c22 133 136 265 314 265c184 0 262 -142 241 -277zM87 262c-18 -116 41 -235 202 -235c157 0 256 111 274 231c19 116 -46 235 -201 235c-158 0 -256 -111 -275 -231z" />
    <glyph glyph-name="one.osf" horiz-adv-x="409" 
d="M258 520h28l-76 -482h139l-7 -38h-331l6 38h154l68 439l-161 -58l6 38z" />
    <glyph glyph-name="two.osf" horiz-adv-x="521" 
d="M424 0h-420l5 27c18 118 126 154 235 200c82 34 177 62 192 148c12 70 -41 119 -138 119c-73 0 -136 -20 -206 -58l6 40c69 38 133 55 205 55c114 0 187 -64 172 -161c-18 -105 -130 -140 -219 -178c-101 -43 -191 -76 -203 -154h377z" />
    <glyph glyph-name="three.osf" horiz-adv-x="539" 
d="M471 347c-11 -68 -62 -135 -151 -154c77 -15 144 -70 127 -175c-19 -123 -136 -189 -259 -189c-88 0 -151 17 -203 45l5 38c56 -30 115 -45 196 -45c109 0 207 53 224 157c17 106 -66 149 -166 149h-78l6 38l73 -1c113 0 176 68 188 140c13 80 -44 144 -151 144
c-71 0 -131 -17 -195 -47l7 40c59 28 119 44 193 44c127 0 200 -82 184 -184z" />
    <glyph glyph-name="four.osf" horiz-adv-x="592" 
d="M428 520h43l-75 -477h134l-6 -38h-133l-27 -165h-39l27 165h-373l5 35zM358 43l67 421l-392 -421h325z" />
    <glyph glyph-name="five.osf" horiz-adv-x="531" 
d="M130 520h361l-5 -38h-325l-58 -267c47 15 94 23 142 23c107 0 226 -61 203 -207c-19 -123 -131 -202 -270 -202c-74 0 -138 18 -189 47l6 37c52 -30 112 -47 180 -47c123 0 217 66 234 170c19 121 -78 165 -176 165c-61 0 -121 -12 -179 -33z" />
    <glyph glyph-name="six.osf" horiz-adv-x="581" 
d="M538 616c-40 25 -80 37 -135 37c-122 0 -262 -92 -301 -337c70 63 155 97 232 97c106 0 208 -68 186 -211c-22 -137 -136 -213 -246 -213c-170 0 -243 131 -211 335c42 260 197 367 340 367c62 0 103 -14 141 -38zM480 205c19 122 -64 171 -154 171
c-76 0 -164 -39 -230 -107c-11 -155 52 -243 175 -243c94 0 190 61 209 179z" />
    <glyph glyph-name="seven.osf" horiz-adv-x="470" 
d="M55 520h436l-4 -34l-405 -646h-43l402 642h-391z" />
    <glyph glyph-name="eight.osf" horiz-adv-x="612" 
d="M118 527c13 82 103 164 248 164c141 0 214 -90 201 -180c-10 -74 -63 -137 -141 -185c71 -30 125 -75 111 -163s-107 -174 -274 -174c-163 0 -241 88 -224 196c12 75 69 147 162 193c-56 30 -95 76 -83 149zM316 332c-30 10 -52 18 -81 29c-87 -39 -145 -105 -157 -177
c-14 -92 52 -158 187 -158c132 0 222 66 234 140c15 103 -73 124 -183 166zM528 511c11 71 -47 143 -164 143c-115 0 -197 -63 -208 -132c-15 -97 81 -126 160 -156c28 -9 48 -16 75 -24c73 41 126 99 137 169z" />
    <glyph glyph-name="nine.osf" horiz-adv-x="568" 
d="M45 320c22 136 135 211 245 211c170 0 243 -131 211 -335c-42 -260 -196 -367 -340 -367c-59 0 -103 15 -141 38l5 37c40 -23 84 -37 137 -37c121 0 262 92 300 336c-67 -63 -152 -96 -233 -96c-106 0 -207 70 -184 213zM84 316c-19 -122 64 -172 155 -172
c79 0 166 39 229 107c12 155 -53 243 -176 243c-94 0 -189 -59 -208 -178z" />
    <glyph glyph-name="zero.sinf" horiz-adv-x="431" 
d="M363 100c-19 -120 -91 -207 -208 -207c-122 0 -166 93 -146 215c19 120 91 207 209 207c120 0 165 -93 145 -215zM43 106c-17 -107 16 -180 113 -180c100 0 157 66 174 176c17 107 -16 180 -113 180c-100 0 -157 -66 -174 -176z" />
    <glyph glyph-name="one.sinf" horiz-adv-x="256" 
d="M141 308h25l-60 -376h77l-6 -32h-208l5 32h99l54 340l-97 -35l6 33z" />
    <glyph glyph-name="two.sinf" horiz-adv-x="346" 
d="M45 278c43 26 88 37 130 37c72 0 131 -40 119 -108c-11 -65 -68 -103 -138 -139c-67 -35 -129 -65 -141 -136h241l-6 -32h-280l3 19c15 99 90 137 163 174c66 34 116 64 125 119c8 46 -32 71 -87 71c-48 0 -89 -13 -135 -41z" />
    <glyph glyph-name="three.sinf" horiz-adv-x="357" 
d="M289 203c-6 -41 -36 -79 -88 -91c43 -9 84 -41 74 -105c-12 -75 -79 -114 -166 -114c-55 0 -98 10 -133 27l6 34c34 -18 76 -28 126 -28c73 0 126 27 135 88c9 59 -37 80 -97 80h-62l4 33h57c68 0 105 36 112 79c7 44 -30 76 -92 76c-47 0 -86 -9 -129 -29l6 35
c37 17 79 27 128 27c77 0 129 -50 119 -112z" />
    <glyph glyph-name="four.sinf" horiz-adv-x="392" 
d="M254 308h37l-45 -281h83l-5 -31h-82l-16 -96h-33l15 96h-234l5 30zM214 27l36 233l-228 -233h192z" />
    <glyph glyph-name="five.sinf" horiz-adv-x="354" 
d="M65 308h239l-6 -32h-206l-33 -143c28 8 58 12 85 12c71 0 148 -36 134 -129c-13 -76 -82 -123 -170 -123c-49 0 -95 11 -128 28l5 32c32 -18 76 -27 120 -27c74 0 129 35 139 96c11 69 -47 92 -112 92c-38 0 -78 -8 -113 -20z" />
    <glyph glyph-name="six.sinf" horiz-adv-x="378" 
d="M308 260c-24 15 -56 22 -86 22c-82 0 -156 -49 -180 -183c47 35 95 52 144 52c68 0 133 -43 119 -129c-13 -84 -82 -129 -160 -129c-110 0 -157 80 -137 204c24 153 112 218 214 218c35 0 66 -9 91 -23zM143 -75c63 0 117 30 128 98c11 69 -37 96 -93 96
c-48 0 -99 -20 -140 -57c-7 -90 31 -137 105 -137z" />
    <glyph glyph-name="seven.sinf" horiz-adv-x="307" 
d="M61 -100h-37l226 376h-237l6 32h274l-5 -30z" />
    <glyph glyph-name="eight.sinf" horiz-adv-x="397" 
d="M40 215c8 49 59 100 160 100c95 0 140 -57 132 -113c-6 -42 -34 -80 -79 -106c39 -19 70 -47 61 -98c-8 -53 -60 -105 -175 -105c-111 0 -156 57 -146 122c7 43 38 84 93 111c-30 17 -53 45 -46 89zM174 93c-20 5 -40 11 -57 18c-51 -21 -83 -57 -89 -96
c-8 -53 27 -90 114 -90c85 0 133 35 139 77c9 57 -49 73 -107 91zM298 200c7 41 -23 83 -99 83s-119 -33 -126 -72c-9 -58 53 -73 98 -88c17 -4 36 -9 53 -14c41 22 68 54 74 91z" />
    <glyph glyph-name="nine.sinf" horiz-adv-x="377" 
d="M13 186c13 84 84 129 161 129c110 0 156 -80 136 -204c-25 -153 -111 -218 -215 -218c-34 0 -66 9 -90 23l5 32c25 -15 56 -22 86 -22c83 0 155 49 179 181c-46 -33 -94 -50 -143 -50c-69 0 -133 43 -119 129zM175 283c-63 0 -118 -31 -128 -98c-12 -69 37 -96 93 -96
c48 0 99 20 140 57c7 90 -31 137 -105 137z" />
    <glyph glyph-name="zero.sups" horiz-adv-x="432" 
d="M439 576c-19 -120 -91 -207 -208 -207c-122 0 -166 93 -146 215c19 120 91 207 209 207c120 0 165 -93 145 -215zM119 582c-17 -107 16 -180 113 -180c100 0 157 66 174 176c17 107 -16 180 -113 180c-100 0 -157 -66 -174 -176z" />
    <glyph glyph-name="one.sups" horiz-adv-x="256" 
d="M216 780h25l-60 -376h77l-6 -32h-208l5 32h99l54 340l-97 -35l6 33z" />
    <glyph glyph-name="two.sups" horiz-adv-x="347" 
d="M120 754c43 26 88 37 130 37c72 0 131 -40 119 -108c-11 -65 -68 -103 -138 -139c-67 -35 -129 -65 -141 -136h241l-6 -32h-280l3 19c15 99 90 137 163 174c66 34 116 64 125 119c8 46 -32 71 -87 71c-48 0 -89 -13 -135 -41z" />
    <glyph glyph-name="three.sups" horiz-adv-x="356" 
d="M364 679c-6 -41 -36 -79 -88 -91c43 -9 84 -41 74 -105c-12 -75 -79 -114 -166 -114c-55 0 -98 10 -133 27l6 34c34 -18 76 -28 126 -28c73 0 126 27 135 88c9 59 -37 80 -97 80h-62l4 33h57c68 0 105 36 112 79c7 44 -30 76 -92 76c-47 0 -86 -9 -129 -29l6 35
c37 17 79 27 128 27c77 0 129 -50 119 -112z" />
    <glyph glyph-name="four.sups" horiz-adv-x="392" 
d="M328 780h37l-45 -281h83l-5 -31h-82l-16 -96h-33l15 96h-234l5 30zM288 499l36 233l-228 -233h192z" />
    <glyph glyph-name="five.sups" horiz-adv-x="354" 
d="M140 780h239l-6 -32h-206l-33 -143c28 8 58 12 85 12c71 0 148 -36 134 -129c-13 -76 -82 -123 -170 -123c-49 0 -95 11 -128 28l5 32c32 -18 76 -27 120 -27c74 0 129 35 139 96c11 69 -47 92 -112 92c-38 0 -78 -8 -113 -20z" />
    <glyph glyph-name="six.sups" horiz-adv-x="377" 
d="M383 736c-24 15 -56 22 -86 22c-82 0 -156 -49 -180 -183c47 35 95 52 144 52c68 0 133 -43 119 -129c-13 -84 -82 -129 -160 -129c-110 0 -157 80 -137 204c24 153 112 218 214 218c35 0 66 -9 91 -23zM218 401c63 0 117 30 128 98c11 69 -37 96 -93 96
c-48 0 -99 -20 -140 -57c-7 -90 31 -137 105 -137z" />
    <glyph glyph-name="seven.sups" horiz-adv-x="308" 
d="M136 372h-37l226 376h-237l6 32h274l-5 -30z" />
    <glyph glyph-name="eight.sups" horiz-adv-x="397" 
d="M115 691c8 49 59 100 160 100c95 0 140 -57 132 -113c-6 -42 -34 -80 -79 -106c39 -19 70 -47 61 -98c-8 -53 -60 -105 -175 -105c-111 0 -156 57 -146 122c7 43 38 84 93 111c-30 17 -53 45 -46 89zM249 569c-20 5 -40 11 -57 18c-51 -21 -83 -57 -89 -96
c-8 -53 27 -90 114 -90c85 0 133 35 139 77c9 57 -49 73 -107 91zM373 676c7 41 -23 83 -99 83s-119 -33 -126 -72c-9 -58 53 -73 98 -88c17 -4 36 -9 53 -14c41 22 68 54 74 91z" />
    <glyph glyph-name="nine.sups" horiz-adv-x="378" 
d="M89 662c13 84 84 129 161 129c110 0 156 -80 136 -204c-25 -153 -111 -218 -215 -218c-34 0 -66 9 -90 23l5 32c25 -15 56 -22 86 -22c83 0 155 49 179 181c-46 -33 -94 -50 -143 -50c-69 0 -133 43 -119 129zM251 759c-63 0 -118 -31 -128 -98c-12 -69 37 -96 93 -96
c48 0 99 20 140 57c7 90 -31 137 -105 137z" />
    <glyph glyph-name="zero.tf" 
d="M45 346c32 202 149 345 325 345c177 0 251 -152 219 -357c-33 -202 -150 -345 -326 -345s-250 152 -218 357zM550 338c29 186 -31 315 -181 315c-152 0 -254 -121 -284 -311c-30 -186 30 -315 180 -315c153 0 255 121 285 311z" />
    <glyph glyph-name="one.tf" 
d="M389 680h28l-102 -642h218l-6 -38h-494l6 38h236l95 599l-219 -77l6 38z" />
    <glyph glyph-name="two.tf" 
d="M144 629c79 45 151 62 226 62c134 0 222 -69 204 -176c-18 -114 -126 -169 -241 -230c-114 -61 -236 -112 -262 -247h436l-6 -38h-480l4 23c26 166 157 225 286 293c102 54 209 104 225 204c12 80 -51 134 -170 134c-77 0 -147 -21 -224 -67z" />
    <glyph glyph-name="three.tf" 
d="M560 507c-11 -68 -62 -135 -152 -154c78 -15 145 -70 128 -175c-20 -123 -133 -189 -277 -189c-102 0 -174 17 -229 45l5 37c58 -29 127 -45 223 -45c129 1 223 54 240 158c17 106 -66 149 -178 149h-110l7 37h104c126 0 189 68 200 140c13 80 -46 144 -170 144
c-85 0 -149 -17 -220 -47l6 40c65 28 131 44 220 44c140 0 218 -82 203 -184z" />
    <glyph glyph-name="four.tf" 
d="M477 680h44l-76 -477h134l-5 -38h-134l-27 -165h-39l26 165h-397l5 35zM405 203l68 423l-414 -423h346z" />
    <glyph glyph-name="five.tf" 
d="M176 680h405l-6 -38h-367l-60 -267c51 15 106 23 162 23c134 0 252 -60 229 -208c-20 -123 -135 -201 -285 -201c-86 0 -165 18 -218 47l5 36c54 -29 129 -46 211 -46c134 0 231 65 247 169c19 121 -77 166 -202 166c-69 0 -137 -12 -197 -33z" />
    <glyph glyph-name="six.tf" 
d="M563 617c-40 24 -90 36 -139 36c-154 0 -278 -92 -317 -336c78 63 166 96 253 96c112 0 217 -68 195 -211c-22 -137 -137 -213 -264 -213c-180 0 -255 131 -223 335c42 260 181 367 356 367c53 0 105 -14 145 -38zM290 26c110 0 206 61 225 179c19 122 -64 171 -164 171
c-85 0 -178 -38 -249 -104c-13 -157 51 -246 188 -246z" />
    <glyph glyph-name="seven.tf" 
d="M122 680h504l-6 -34l-411 -646h-44l409 642h-458z" />
    <glyph glyph-name="eight.tf" 
d="M554 159c-14 -87 -106 -170 -280 -170c-186 0 -264 94 -247 202c12 78 68 145 163 188c-57 30 -96 73 -84 148c13 82 95 164 262 164c156 0 230 -97 217 -186c-12 -77 -63 -134 -141 -179c72 -30 124 -78 110 -167zM67 192c-14 -92 50 -166 211 -166
c139 0 225 65 237 139c16 107 -87 134 -194 165c-34 10 -67 20 -97 31c-88 -35 -145 -95 -157 -169zM321 366c29 -8 60 -16 88 -25c74 40 125 92 136 165c11 71 -44 148 -177 148c-138 0 -212 -62 -222 -130c-17 -105 94 -133 175 -158z" />
    <glyph glyph-name="nine.tf" 
d="M79 478c22 137 137 213 264 213c179 0 255 -131 223 -335c-42 -260 -181 -367 -356 -367c-55 0 -105 14 -145 38l6 37c39 -25 90 -37 139 -37c154 0 278 92 317 336c-78 -63 -166 -96 -253 -96c-114 0 -217 68 -195 211zM344 654c-110 0 -206 -63 -225 -181
c-19 -122 64 -169 164 -169c85 0 178 38 249 104c13 157 -51 246 -188 246z" />
    <glyph glyph-name="zero.tosf" 
d="M581 256c-21 -132 -132 -267 -316 -267c-180 0 -259 139 -238 274c22 132 136 268 316 268c178 0 259 -139 238 -275zM66 259c-18 -117 46 -232 199 -232c160 0 257 115 276 234c19 117 -48 232 -199 232c-156 0 -257 -115 -276 -234z" />
    <glyph glyph-name="one.tosf" 
d="M362 520h28l-76 -482h218l-6 -38h-494l6 38h236l69 439l-218 -77l6 38z" />
    <glyph glyph-name="two.tosf" 
d="M502 0h-475l5 27c20 127 155 171 266 203c122 34 196 68 209 143c12 73 -53 121 -162 121c-80 0 -155 -22 -231 -66l7 41c74 43 150 62 229 62c130 0 211 -63 195 -164c-14 -94 -107 -134 -235 -171c-103 -29 -219 -74 -233 -158h431z" />
    <glyph glyph-name="three.tosf" 
d="M531 347c-11 -68 -62 -135 -152 -154c78 -15 145 -70 128 -175c-20 -123 -131 -189 -274 -189c-101 0 -173 17 -228 45l5 37c58 -29 127 -45 222 -45c128 0 220 54 237 158c17 106 -66 149 -178 149h-106l7 37h100c126 -1 189 68 200 140c13 80 -46 144 -167 144
c-84 0 -148 -17 -219 -47l6 40c65 28 131 44 219 44c137 0 215 -82 200 -184z" />
    <glyph glyph-name="four.tosf" 
d="M452 516h44l-76 -477h135l-5 -38h-135l-27 -165h-39l26 165h-397l5 35zM381 39l68 422l-414 -422h346z" />
    <glyph glyph-name="five.tosf" 
d="M153 520h401l-6 -38h-363l-60 -267c51 15 106 23 155 23c137 0 255 -60 232 -208c-20 -123 -135 -201 -288 -201c-79 0 -158 18 -211 47l5 36c54 -29 129 -46 204 -46c137 0 234 65 250 169c19 121 -77 166 -205 166c-62 0 -130 -12 -190 -33z" />
    <glyph glyph-name="six.tosf" 
d="M563 617c-40 24 -90 36 -139 36c-154 0 -278 -92 -317 -338c78 64 166 98 253 98c112 0 217 -68 195 -211c-22 -137 -137 -213 -264 -213c-180 0 -255 131 -223 335c42 260 181 367 356 367c53 0 105 -14 145 -38zM290 26c110 0 206 61 225 179c19 122 -64 171 -164 171
c-85 0 -178 -40 -249 -106c-13 -155 52 -244 188 -244z" />
    <glyph glyph-name="seven.tosf" 
d="M96 520h502l-5 -34l-426 -646h-44l424 642h-457z" />
    <glyph glyph-name="eight.tosf" 
d="M555 159c-14 -87 -108 -170 -280 -170c-188 0 -264 96 -247 204c12 77 68 143 163 186c-57 30 -96 73 -84 148c13 82 93 164 261 164c156 0 231 -97 218 -186c-12 -77 -63 -134 -141 -179c72 -30 124 -78 110 -167zM68 192c-14 -92 50 -166 211 -166
c139 0 225 65 237 139c16 107 -87 134 -194 165c-34 10 -67 20 -97 31c-88 -35 -145 -95 -157 -169zM322 366c29 -8 60 -16 88 -25c74 40 125 92 136 165c11 71 -46 148 -179 148c-138 0 -210 -62 -220 -130c-17 -105 94 -133 175 -158z" />
    <glyph glyph-name="nine.tosf" 
d="M53 318c22 137 137 213 264 213c179 0 255 -131 223 -335c-42 -260 -181 -367 -356 -367c-55 0 -105 14 -145 38l6 37c39 -25 90 -37 139 -37c154 0 278 92 317 337c-78 -63 -166 -97 -253 -97c-114 0 -217 68 -195 211zM93 315c-19 -122 64 -171 164 -171
c86 0 178 39 249 105c13 156 -52 245 -188 245c-110 0 -206 -60 -225 -179z" />
    <glyph glyph-name="fraction" unicode="&#x2044;" horiz-adv-x="165" 
d="M-184 -11h-23l571 722h23z" />
    <glyph glyph-name="onehalf" unicode="&#xbd;" horiz-adv-x="888" 
d="M178 -11h-23l571 722h23zM596 378c43 26 88 37 130 37c72 0 131 -40 119 -108c-11 -65 -68 -103 -138 -139c-67 -35 -129 -65 -141 -136h241l-6 -32h-280l3 19c15 99 90 137 163 174c66 34 116 64 125 119c8 46 -32 71 -87 71c-48 0 -89 -13 -135 -41zM219 680h25
l-60 -376h77l-6 -32h-208l5 32h99l54 340l-97 -35l6 33z" />
    <glyph glyph-name="onequarter" unicode="&#xbc;" horiz-adv-x="938" 
d="M801 408h37l-45 -281h83l-5 -31h-82l-16 -96h-33l15 96h-234l5 30zM761 127l36 233l-228 -233h192zM183 -11h-23l571 722h23zM224 680h25l-60 -376h77l-6 -32h-208l5 32h99l54 340l-97 -35l6 33z" />
    <glyph glyph-name="threequarters" unicode="&#xbe;" horiz-adv-x="986" 
d="M253 -11h-23l571 722h23zM849 408h37l-45 -281h83l-5 -31h-82l-16 -96h-33l15 96h-234l5 30zM809 127l36 233l-228 -233h192zM371 579c-6 -41 -36 -79 -88 -91c43 -9 84 -41 74 -105c-12 -75 -79 -114 -166 -114c-55 0 -98 10 -133 27l6 34c34 -18 76 -28 126 -28
c73 0 126 27 135 88c9 59 -37 80 -97 80h-62l4 33h57c68 0 105 36 112 79c7 44 -30 76 -92 76c-47 0 -86 -9 -129 -29l6 35c37 17 79 27 128 27c77 0 129 -50 119 -112z" />
    <glyph glyph-name="oneeighth" unicode="&#x215b;" horiz-adv-x="919" 
d="M576 315c8 49 59 100 160 100c95 0 140 -57 132 -113c-6 -42 -34 -80 -79 -106c39 -19 70 -47 61 -98c-8 -53 -60 -105 -175 -105c-111 0 -156 57 -146 122c7 43 38 84 93 111c-30 17 -53 45 -46 89zM710 193c-20 5 -40 11 -57 18c-51 -21 -83 -57 -89 -96
c-8 -53 27 -90 114 -90c85 0 133 35 139 77c9 57 -49 73 -107 91zM834 300c7 41 -23 83 -99 83s-119 -33 -126 -72c-9 -58 53 -73 98 -88c17 -4 36 -9 53 -14c41 22 68 54 74 91zM175 -11h-23l571 722h23zM220 680h25l-60 -376h77l-6 -32h-208l5 32h99l54 340l-97 -35l6 33z
" />
    <glyph glyph-name="threeeighths" unicode="&#x215c;" horiz-adv-x="966" 
d="M622 315c8 49 59 100 160 100c95 0 140 -57 132 -113c-6 -42 -34 -80 -79 -106c39 -19 70 -47 61 -98c-8 -53 -60 -105 -175 -105c-111 0 -156 57 -146 122c7 43 38 84 93 111c-30 17 -53 45 -46 89zM756 193c-20 5 -40 11 -57 18c-51 -21 -83 -57 -89 -96
c-8 -53 27 -90 114 -90c85 0 133 35 139 77c9 57 -49 73 -107 91zM880 300c7 41 -23 83 -99 83s-119 -33 -126 -72c-9 -58 53 -73 98 -88c17 -4 36 -9 53 -14c41 22 68 54 74 91zM231 -11h-23l571 722h23zM366 579c-6 -41 -36 -79 -88 -91c43 -9 84 -41 74 -105
c-12 -75 -79 -114 -166 -114c-55 0 -98 10 -133 27l6 34c34 -18 76 -28 126 -28c73 0 126 27 135 88c9 59 -37 80 -97 80h-62l4 33h57c68 0 105 36 112 79c7 44 -30 76 -92 76c-47 0 -86 -9 -129 -29l6 35c37 17 79 27 128 27c77 0 129 -50 119 -112z" />
    <glyph glyph-name="fiveeighths" unicode="&#x215d;" horiz-adv-x="958" 
d="M614 315c8 49 59 100 160 100c95 0 140 -57 132 -113c-6 -42 -34 -80 -79 -106c39 -19 70 -47 61 -98c-8 -53 -60 -105 -175 -105c-111 0 -156 57 -146 122c7 43 38 84 93 111c-30 17 -53 45 -46 89zM748 193c-20 5 -40 11 -57 18c-51 -21 -83 -57 -89 -96
c-8 -53 27 -90 114 -90c85 0 133 35 139 77c9 57 -49 73 -107 91zM872 300c7 41 -23 83 -99 83s-119 -33 -126 -72c-9 -58 53 -73 98 -88c17 -4 36 -9 53 -14c41 22 68 54 74 91zM223 -11h-23l571 722h23zM137 680h239l-6 -32h-206l-33 -143c28 8 58 12 85 12
c71 0 148 -36 134 -129c-13 -76 -82 -123 -170 -123c-49 0 -95 11 -128 28l5 32c32 -18 76 -27 120 -27c74 0 129 35 139 96c11 69 -47 92 -112 92c-38 0 -78 -8 -113 -20z" />
    <glyph glyph-name="seveneighths" unicode="&#x215e;" horiz-adv-x="858" 
d="M119 -11h-23l571 722h23zM512 315c8 49 59 100 160 100c95 0 140 -57 132 -113c-6 -42 -34 -80 -79 -106c39 -19 70 -47 61 -98c-8 -53 -60 -105 -175 -105c-111 0 -156 57 -146 122c7 43 38 84 93 111c-30 17 -53 45 -46 89zM646 193c-20 5 -40 11 -57 18
c-51 -21 -83 -57 -89 -96c-8 -53 27 -90 114 -90c85 0 133 35 139 77c9 57 -49 73 -107 91zM770 300c7 41 -23 83 -99 83s-119 -33 -126 -72c-9 -58 53 -73 98 -88c17 -4 36 -9 53 -14c41 22 68 54 74 91zM142 272h-37l226 376h-237l6 32h274l-5 -30z" />
    <glyph glyph-name="zero.dnom" horiz-adv-x="431" 
d="M379 200c-19 -120 -91 -207 -208 -207c-122 0 -166 93 -146 215c19 120 91 207 209 207c120 0 165 -93 145 -215zM59 206c-17 -107 16 -180 113 -180c100 0 157 66 174 176c17 107 -16 180 -113 180c-100 0 -157 -66 -174 -176z" />
    <glyph glyph-name="one.dnom" horiz-adv-x="256" 
d="M157 408h25l-60 -376h77l-6 -32h-208l5 32h99l54 340l-97 -35l6 33z" />
    <glyph glyph-name="two.dnom" horiz-adv-x="345" 
d="M60 378c43 26 88 37 130 37c72 0 131 -40 119 -108c-11 -65 -68 -103 -138 -139c-67 -35 -129 -65 -141 -136h241l-6 -32h-280l3 19c15 99 90 137 163 174c66 34 116 64 125 119c8 46 -32 71 -87 71c-48 0 -89 -13 -135 -41z" />
    <glyph glyph-name="three.dnom" horiz-adv-x="357" 
d="M305 303c-6 -41 -36 -79 -88 -91c43 -9 84 -41 74 -105c-12 -75 -79 -114 -166 -114c-55 0 -98 10 -133 27l6 34c34 -18 76 -28 126 -28c73 0 126 27 135 88c9 59 -37 80 -97 80h-62l4 33h57c68 0 105 36 112 79c7 44 -30 76 -92 76c-47 0 -86 -9 -129 -29l6 35
c37 17 79 27 128 27c77 0 129 -50 119 -112z" />
    <glyph glyph-name="four.dnom" horiz-adv-x="391" 
d="M269 408h37l-45 -281h83l-5 -31h-82l-16 -96h-33l15 96h-234l5 30zM229 127l36 233l-228 -233h192z" />
    <glyph glyph-name="five.dnom" horiz-adv-x="354" 
d="M81 408h239l-6 -32h-206l-33 -143c28 8 58 12 85 12c71 0 148 -36 134 -129c-13 -76 -82 -123 -170 -123c-49 0 -95 11 -128 28l5 32c32 -18 76 -27 120 -27c74 0 129 35 139 96c11 69 -47 92 -112 92c-38 0 -78 -8 -113 -20z" />
    <glyph glyph-name="six.dnom" horiz-adv-x="378" 
d="M324 360c-24 15 -56 22 -86 22c-82 0 -156 -49 -180 -183c47 35 95 52 144 52c68 0 133 -43 119 -129c-13 -84 -82 -129 -160 -129c-110 0 -157 80 -137 204c24 153 112 218 214 218c35 0 66 -9 91 -23zM159 25c63 0 117 30 128 98c11 69 -37 96 -93 96
c-48 0 -99 -20 -140 -57c-7 -90 31 -137 105 -137z" />
    <glyph glyph-name="seven.dnom" horiz-adv-x="308" 
d="M77 0h-37l226 376h-237l6 32h274l-5 -30z" />
    <glyph glyph-name="eight.dnom" horiz-adv-x="397" 
d="M56 315c8 49 59 100 160 100c95 0 140 -57 132 -113c-6 -42 -34 -80 -79 -106c39 -19 70 -47 61 -98c-8 -53 -60 -105 -175 -105c-111 0 -156 57 -146 122c7 43 38 84 93 111c-30 17 -53 45 -46 89zM190 193c-20 5 -40 11 -57 18c-51 -21 -83 -57 -89 -96
c-8 -53 27 -90 114 -90c85 0 133 35 139 77c9 57 -49 73 -107 91zM314 300c7 41 -23 83 -99 83s-119 -33 -126 -72c-9 -58 53 -73 98 -88c17 -4 36 -9 53 -14c41 22 68 54 74 91z" />
    <glyph glyph-name="nine.dnom" horiz-adv-x="377" 
d="M29 286c13 84 84 129 161 129c110 0 156 -80 136 -204c-25 -153 -111 -218 -215 -218c-34 0 -66 9 -90 23l5 32c25 -15 56 -22 86 -22c83 0 155 49 179 181c-46 -33 -94 -50 -143 -50c-69 0 -133 43 -119 129zM191 383c-63 0 -118 -31 -128 -98c-12 -69 37 -96 93 -96
c48 0 99 20 140 57c7 90 -31 137 -105 137z" />
    <glyph glyph-name="zero.numr" horiz-adv-x="432" 
d="M423 476c-19 -120 -91 -207 -208 -207c-122 0 -166 93 -146 215c19 120 91 207 209 207c120 0 165 -93 145 -215zM103 482c-17 -107 16 -180 113 -180c100 0 157 66 174 176c17 107 -16 180 -113 180c-100 0 -157 -66 -174 -176z" />
    <glyph glyph-name="one.numr" horiz-adv-x="256" 
d="M200 680h25l-60 -376h77l-6 -32h-208l5 32h99l54 340l-97 -35l6 33z" />
    <glyph glyph-name="two.numr" horiz-adv-x="347" 
d="M105 654c43 26 88 37 130 37c72 0 131 -40 119 -108c-11 -65 -68 -103 -138 -139c-67 -35 -129 -65 -141 -136h241l-6 -32h-280l3 19c15 99 90 137 163 174c66 34 116 64 125 119c8 46 -32 71 -87 71c-48 0 -89 -13 -135 -41z" />
    <glyph glyph-name="three.numr" horiz-adv-x="356" 
d="M348 579c-6 -41 -36 -79 -88 -91c43 -9 84 -41 74 -105c-12 -75 -79 -114 -166 -114c-55 0 -98 10 -133 27l6 34c34 -18 76 -28 126 -28c73 0 126 27 135 88c9 59 -37 80 -97 80h-62l4 33h57c68 0 105 36 112 79c7 44 -30 76 -92 76c-47 0 -86 -9 -129 -29l6 35
c37 17 79 27 128 27c77 0 129 -50 119 -112z" />
    <glyph glyph-name="four.numr" horiz-adv-x="391" 
d="M312 680h37l-45 -281h83l-5 -31h-82l-16 -96h-33l15 96h-234l5 30zM272 399l36 233l-228 -233h192z" />
    <glyph glyph-name="five.numr" horiz-adv-x="354" 
d="M124 680h239l-6 -32h-206l-33 -143c28 8 58 12 85 12c71 0 148 -36 134 -129c-13 -76 -82 -123 -170 -123c-49 0 -95 11 -128 28l5 32c32 -18 76 -27 120 -27c74 0 129 35 139 96c11 69 -47 92 -112 92c-38 0 -78 -8 -113 -20z" />
    <glyph glyph-name="six.numr" horiz-adv-x="377" 
d="M367 636c-24 15 -56 22 -86 22c-82 0 -156 -49 -180 -183c47 35 95 52 144 52c68 0 133 -43 119 -129c-13 -84 -82 -129 -160 -129c-110 0 -157 80 -137 204c24 153 112 218 214 218c35 0 66 -9 91 -23zM202 301c63 0 117 30 128 98c11 69 -37 96 -93 96
c-48 0 -99 -20 -140 -57c-7 -90 31 -137 105 -137z" />
    <glyph glyph-name="seven.numr" horiz-adv-x="308" 
d="M120 272h-37l226 376h-237l6 32h274l-5 -30z" />
    <glyph glyph-name="eight.numr" horiz-adv-x="398" 
d="M100 591c8 49 59 100 160 100c95 0 140 -57 132 -113c-6 -42 -34 -80 -79 -106c39 -19 70 -47 61 -98c-8 -53 -60 -105 -175 -105c-111 0 -156 57 -146 122c7 43 38 84 93 111c-30 17 -53 45 -46 89zM234 469c-20 5 -40 11 -57 18c-51 -21 -83 -57 -89 -96
c-8 -53 27 -90 114 -90c85 0 133 35 139 77c9 57 -49 73 -107 91zM358 576c7 41 -23 83 -99 83s-119 -33 -126 -72c-9 -58 53 -73 98 -88c17 -4 36 -9 53 -14c41 22 68 54 74 91z" />
    <glyph glyph-name="nine.numr" horiz-adv-x="378" 
d="M73 562c13 84 84 129 161 129c110 0 156 -80 136 -204c-25 -153 -111 -218 -215 -218c-34 0 -66 9 -90 23l5 32c25 -15 56 -22 86 -22c83 0 155 49 179 181c-46 -33 -94 -50 -143 -50c-69 0 -133 43 -119 129zM235 659c-63 0 -118 -31 -128 -98c-12 -69 37 -96 93 -96
c48 0 99 20 140 57c7 90 -31 137 -105 137z" />
    <glyph glyph-name="asterisk" unicode="*" horiz-adv-x="426" 
d="M250 524l-102 -118l-26 21l104 113l-127 41l17 33l125 -48l18 134h35l-25 -134l140 48l7 -34l-141 -40l69 -113l-32 -21z" />
    <glyph glyph-name="backslash" unicode="\" horiz-adv-x="406" 
d="M312 -57h-30l-168 814h29z" />
    <glyph glyph-name="periodcentered" unicode="&#xb7;" horiz-adv-x="198" 
d="M120 236c-2 -17 -16 -26 -31 -26c-18 0 -31 12 -28 32c3 17 17 26 32 26c18 0 30 -12 27 -32z" />
    <glyph glyph-name="bullet" unicode="&#x2022;" horiz-adv-x="297" 
d="M107 353c4 30 29 47 55 47c29 0 50 -20 45 -53c-4 -30 -30 -47 -56 -47c-28 0 -49 20 -44 53z" />
    <glyph glyph-name="colon" unicode=":" horiz-adv-x="201" 
d="M147 399c-2 -17 -16 -26 -32 -26c-17 0 -30 12 -27 32c3 17 17 26 32 26c18 0 30 -12 27 -32zM88 20c-3 -17 -17 -27 -33 -27c-17 0 -30 13 -26 32c2 17 17 27 31 27c19 0 31 -12 28 -32z" />
    <glyph glyph-name="comma" unicode="," horiz-adv-x="204" 
d="M6 -144h-32l86 218h40z" />
    <glyph glyph-name="ellipsis" unicode="&#x2026;" horiz-adv-x="489" 
d="M383 20c-3 -17 -17 -27 -33 -27c-17 0 -30 13 -26 32c2 17 17 27 31 27c19 0 31 -12 28 -32zM89 20c-3 -17 -17 -27 -32 -27c-18 0 -31 13 -27 32c2 17 17 27 32 27c18 0 30 -12 27 -32zM236 20c-3 -17 -17 -27 -32 -27c-18 0 -31 13 -27 32c2 17 17 27 32 27
c18 0 30 -12 27 -32z" />
    <glyph glyph-name="exclam" unicode="!" horiz-adv-x="204" 
d="M102 177h-34l80 523h40zM91 19c-4 -16 -17 -26 -32 -26c-17 0 -30 12 -27 32c3 16 17 26 31 26c18 0 30 -12 28 -32z" />
    <glyph glyph-name="exclamdown" unicode="&#xa1;" horiz-adv-x="190" 
d="M34 -216h-40l86 523h34zM149 459c-3 -16 -16 -26 -31 -26c-17 0 -30 12 -26 31c2 17 17 27 31 27c17 0 30 -12 26 -32z" />
    <glyph glyph-name="numbersign" unicode="#" horiz-adv-x="649" 
d="M79 0h-39l73 185h-89l6 34h97l96 243h-105l5 34h113l73 185h38l-72 -185h239l73 185h39l-73 -185h87l-5 -34h-95l-96 -243h103l-6 -34h-111l-73 -185h-39l73 185h-239zM262 462l-96 -243h239l95 243h-238z" />
    <glyph glyph-name="period" unicode="." horiz-adv-x="195" 
d="M89 20c-3 -17 -17 -27 -32 -27c-18 0 -31 13 -27 32c2 17 17 27 32 27c18 0 30 -12 27 -32z" />
    <glyph glyph-name="question" unicode="?" horiz-adv-x="490" 
d="M236 192h-38c20 141 230 222 251 356c13 81 -50 125 -160 125c-72 0 -140 -24 -199 -57l6 40c55 31 126 55 200 55c123 0 210 -60 192 -165c-22 -144 -234 -229 -252 -354zM220 20c-3 -17 -17 -27 -32 -27c-18 0 -31 13 -27 32c2 17 17 27 32 27c18 0 30 -12 27 -32z" />
    <glyph glyph-name="questiondown" unicode="&#xbf;" horiz-adv-x="480" 
d="M374 -173c-56 -31 -127 -55 -200 -55c-125 0 -210 60 -193 165c23 144 234 233 253 354h37c-21 -137 -229 -223 -251 -356c-13 -81 51 -125 161 -125c72 0 140 24 199 58zM309 459c-2 -17 -17 -27 -32 -27c-18 0 -30 13 -26 32c2 17 16 27 31 27c18 0 31 -12 27 -32z" />
    <glyph glyph-name="quotedbl" unicode="&#x22;" horiz-adv-x="267" 
d="M235 556h-27l23 144h38zM135 556h-27l23 144h38z" />
    <glyph glyph-name="quotesingle" unicode="'" horiz-adv-x="167" 
d="M135 556h-27l23 144h38z" />
    <glyph glyph-name="semicolon" unicode=";" horiz-adv-x="292" 
d="M46 -144h-32l86 218h40zM197 441c-2 -17 -16 -27 -32 -27c-17 0 -30 12 -27 32c2 17 18 27 32 27c19 0 30 -12 27 -32z" />
    <glyph glyph-name="slash" unicode="/" horiz-adv-x="413" 
d="M18 -57h-31l426 814h31z" />
    <glyph glyph-name="underscore" unicode="_" horiz-adv-x="434" 
d="M367 -132h-434l6 36h434z" />
    <glyph glyph-name="braceleft" unicode="{" horiz-adv-x="270" 
d="M173 -76l-5 -34c-83 -15 -111 26 -99 98l40 252c10 68 -28 93 -74 93l5 35c46 0 93 27 104 96l40 251c12 74 51 111 129 95l-5 -34c-56 10 -77 -18 -87 -79l-39 -243c-9 -61 -44 -94 -85 -105c33 -9 62 -40 52 -106l-39 -243c-9 -58 3 -85 63 -76z" />
    <glyph glyph-name="braceright" unicode="}" horiz-adv-x="269" 
d="M104 -15c-11 -73 -49 -112 -129 -95l5 36c55 -12 78 15 87 72l40 252c9 61 46 94 89 102c-37 9 -66 43 -56 106l39 244c9 58 -2 86 -64 75l5 33c82 15 111 -26 99 -98l-39 -251c-11 -69 31 -95 73 -95l-5 -34c-45 0 -93 -28 -104 -96z" />
    <glyph glyph-name="bracketleft" unicode="[" horiz-adv-x="248" 
d="M163 -110h-150l145 920h150l-5 -38h-111l-134 -844h111z" />
    <glyph glyph-name="bracketright" unicode="]" horiz-adv-x="247" 
d="M108 -110h-150l5 38h112l133 844h-110l5 38h150z" />
    <glyph glyph-name="parenleft" unicode="(" horiz-adv-x="257" 
d="M277 808h39c-109 -127 -191 -300 -217 -461c-25 -158 2 -330 72 -455h-38c-69 127 -101 298 -75 461c25 159 109 329 219 455z" />
    <glyph glyph-name="parenright" unicode=")" horiz-adv-x="258" 
d="M105 808h37c69 -127 102 -298 76 -461c-25 -159 -110 -329 -219 -455h-40c109 127 191 300 217 461c25 158 -2 330 -71 455z" />
    <glyph glyph-name="emdash" unicode="&#x2014;" horiz-adv-x="752" 
d="M673 226h-614l5 36h614z" />
    <glyph glyph-name="endash" unicode="&#x2013;" horiz-adv-x="569" 
d="M489 226h-430l5 36h431z" />
    <glyph glyph-name="hyphen" unicode="-" horiz-adv-x="485" 
d="M64 262h347l-5 -36h-347z" />
    <glyph glyph-name="emdash.case" horiz-adv-x="764" 
d="M694 332h-614l5 36h614z" />
    <glyph glyph-name="endash.case" horiz-adv-x="580" 
d="M510 332h-430l5 36h431z" />
    <glyph glyph-name="hyphen.case" horiz-adv-x="497" 
d="M85 368h347l-5 -36h-347z" />
    <glyph glyph-name="guillemotleft" unicode="&#xab;" horiz-adv-x="434" 
d="M334 66h-40l-93 169l2 11l145 168h42l-151 -175zM175 66h-40l-93 169l2 11l145 168h42l-151 -175z" />
    <glyph glyph-name="guillemotright" unicode="&#xbb;" horiz-adv-x="435" 
d="M230 66h-43l151 175l-95 173h40l94 -169l-2 -11zM71 66h-43l151 175l-95 173h40l94 -169l-2 -11z" />
    <glyph glyph-name="guilsinglleft" unicode="&#x2039;" horiz-adv-x="275" 
d="M175 66h-40l-93 169l2 11l145 168h42l-151 -175z" />
    <glyph glyph-name="guilsinglright" unicode="&#x203a;" horiz-adv-x="276" 
d="M71 66h-43l151 175l-95 173h40l94 -169l-2 -11z" />
    <glyph glyph-name="quotedblbase" unicode="&#x201e;" horiz-adv-x="332" 
d="M134 -144h-32l86 218h40zM6 -144h-32l86 218h40z" />
    <glyph glyph-name="quotedblleft" unicode="&#x201c;" horiz-adv-x="320" 
d="M252 482h-40l94 218h32zM124 482h-40l94 218h32z" />
    <glyph glyph-name="quotedblright" unicode="&#x201d;" horiz-adv-x="318" 
d="M245 482h-32l86 218h40zM117 482h-32l86 218h40z" />
    <glyph glyph-name="quoteleft" unicode="&#x2018;" horiz-adv-x="192" 
d="M124 482h-40l94 218h32z" />
    <glyph glyph-name="quoteright" unicode="&#x2019;" horiz-adv-x="190" 
d="M117 482h-32l86 218h40z" />
    <glyph glyph-name="quotesinglbase" unicode="&#x201a;" horiz-adv-x="204" 
d="M6 -144h-32l86 218h40z" />
    <glyph glyph-name="guillemotleft.case" horiz-adv-x="454" 
d="M360 176h-40l-93 169l2 11l145 168h42l-151 -175zM201 176h-40l-93 169l2 11l145 168h42l-151 -175z" />
    <glyph glyph-name="guillemotright.case" horiz-adv-x="454" 
d="M257 176h-43l151 175l-95 173h40l94 -169l-2 -11zM99 176h-43l151 175l-95 173h40l94 -169l-2 -11z" />
    <glyph glyph-name="guilsinglleft.case" horiz-adv-x="295" 
d="M201 176h-40l-93 169l2 11l145 168h42l-151 -175z" />
    <glyph glyph-name="guilsinglright.case" horiz-adv-x="296" 
d="M99 176h-43l151 175l-95 173h40l94 -169l-2 -11z" />
    <glyph glyph-name="space" unicode=" " horiz-adv-x="265" 
 />
    <glyph glyph-name="cent" unicode="&#xa2;" horiz-adv-x="510" 
d="M478 450l-6 -36c-34 28 -83 40 -128 41l-68 -430c50 2 102 16 145 40l-5 -39c-45 -23 -96 -35 -146 -37l-17 -109h-34l17 110c-119 9 -218 91 -193 254c25 164 157 238 273 246l17 110h34l-17 -109c47 -2 92 -15 128 -41zM310 453c-100 -11 -207 -75 -230 -214
c-22 -136 58 -205 162 -213z" />
    <glyph glyph-name="currency" unicode="&#xa4;" horiz-adv-x="573" 
d="M154 201l-76 -65l-23 27l74 64c-24 31 -36 74 -27 126c7 49 32 91 66 122l-53 62l30 27l54 -65c37 26 81 38 124 38c46 0 86 -14 116 -38l75 65l23 -27l-75 -64c24 -31 36 -74 28 -126c-8 -48 -32 -91 -66 -122l53 -62l-30 -27l-54 65c-38 -26 -82 -38 -125 -38
c-45 0 -85 14 -114 38zM140 347c-14 -91 47 -149 130 -149c87 0 168 60 183 155c14 90 -46 149 -130 149c-88 0 -167 -60 -183 -155z" />
    <glyph glyph-name="dollar" unicode="$" horiz-adv-x="570" 
d="M241 -130h-34l19 120c-78 5 -154 25 -209 58l6 39c63 -39 148 -60 227 -60c102 0 206 34 221 135c31 204 -419 128 -380 367c18 108 138 159 246 161l18 120h34l-18 -120c62 -4 124 -21 169 -49l-6 -37c-50 31 -123 49 -193 49c-90 0 -195 -37 -210 -128
c-34 -203 417 -128 380 -366c-19 -122 -138 -168 -251 -170z" />
    <glyph glyph-name="Euro" unicode="&#x20ac;" horiz-adv-x="730" 
d="M709 604c-48 31 -106 49 -180 49c-130 0 -281 -67 -340 -225h387l-6 -34h-392c-4 -14 -7 -28 -9 -43c-4 -23 -5 -44 -5 -65h389l-6 -34h-380c18 -144 133 -225 266 -225c76 0 149 17 203 50l-7 -41c-54 -31 -122 -47 -200 -47c-155 0 -285 96 -303 263h-89l6 34h81
c0 22 1 44 5 68c2 14 5 27 8 40h-77l6 34h81c62 181 237 263 382 263c77 0 135 -18 187 -50z" />
    <glyph glyph-name="sterling" unicode="&#xa3;" horiz-adv-x="603" 
d="M516 0h-522l6 38h32c50 0 85 35 94 95l30 186h-82l6 38h82l17 107c26 170 144 226 254 226c51 0 101 -14 138 -39l-6 -37c-35 25 -83 39 -133 39c-93 0 -191 -47 -214 -192l-17 -104h248l-6 -38h-248l-30 -188c-7 -52 -27 -81 -59 -94l416 1z" />
    <glyph glyph-name="yen" unicode="&#xa5;" horiz-adv-x="640" 
d="M618 680h44l-303 -371h166l-6 -34h-184l-14 -87h185l-6 -34h-185l-24 -154h-40l25 154h-184l6 34h183l15 87h-185l6 34h166l-186 371h43l180 -366z" />
    <glyph glyph-name="cent.tf" 
d="M532 450l-6 -36c-34 29 -84 41 -129 41l-68 -430c50 2 102 16 146 40l-5 -39c-46 -23 -96 -35 -147 -37l-17 -109h-34l17 110c-119 9 -217 91 -192 254c25 164 157 237 272 246l17 110h34l-17 -109c47 -2 93 -15 129 -41zM363 453c-100 -11 -206 -75 -229 -214
c-21 -135 58 -204 161 -213z" />
    <glyph glyph-name="currency.tf" 
d="M177 201l-76 -65l-23 27l74 64c-24 31 -36 74 -27 126c7 49 32 91 66 122l-53 62l30 27l54 -65c37 26 81 38 124 38c46 0 86 -14 116 -38l75 65l23 -27l-75 -64c24 -31 36 -74 28 -126c-8 -48 -32 -91 -66 -122l53 -62l-30 -27l-54 65c-38 -26 -82 -38 -125 -38
c-45 0 -85 14 -114 38zM163 347c-14 -91 47 -149 130 -149c87 0 168 60 183 155c14 90 -46 149 -130 149c-88 0 -167 -60 -183 -155z" />
    <glyph glyph-name="dollar.tf" 
d="M266 -130h-34l18 120c-78 5 -154 25 -209 58l6 39c63 -39 148 -60 227 -60c102 0 206 34 221 135c31 204 -419 128 -380 367c18 108 140 159 246 161l18 120h34l-18 -120c63 -4 123 -21 169 -49l-6 -37c-50 31 -123 49 -193 49c-90 0 -195 -37 -210 -128
c-34 -203 417 -128 380 -366c-19 -122 -138 -168 -251 -170z" />
    <glyph glyph-name="Euro.tf" 
d="M635 633c-34 13 -80 20 -128 20c-138 0 -287 -69 -347 -225h352l-6 -34h-357c-4 -15 -7 -30 -10 -46c-3 -22 -5 -42 -5 -62h355l-6 -34h-347c18 -145 135 -225 272 -225c52 0 98 8 138 21l-6 -38c-40 -14 -86 -21 -136 -21c-154 0 -290 95 -308 263h-89l6 34h82
c-1 22 1 44 5 68c2 14 5 27 8 40h-78l6 34h83c63 180 236 263 390 263c48 0 93 -8 132 -22z" />
    <glyph glyph-name="sterling.tf" 
d="M523 0h-522l6 38h32c50 0 85 35 94 95l30 186h-82l6 38h82l17 107c26 170 144 226 254 226c51 0 101 -14 138 -39l-6 -37c-35 25 -83 39 -133 39c-93 0 -191 -47 -214 -192l-17 -104h248l-6 -38h-248l-30 -188c-7 -52 -27 -81 -59 -94l416 1z" />
    <glyph glyph-name="yen.tf" 
d="M607 680h44l-303 -371h166l-6 -34h-184l-14 -87h185l-6 -34h-185l-24 -154h-40l25 154h-184l6 34h183l15 87h-185l6 34h166l-186 371h43l180 -366z" />
    <glyph glyph-name="approxequal" unicode="&#x2248;" horiz-adv-x="579" 
d="M535 473c-4 -56 -45 -93 -101 -93c-74 0 -169 67 -239 67c-38 0 -63 -23 -67 -57h-36c6 58 46 93 101 93c77 0 168 -66 240 -66c37 0 63 22 66 56h36zM512 328c-5 -56 -45 -93 -101 -93c-74 0 -169 67 -239 67c-38 0 -63 -23 -67 -57h-36c5 58 46 93 101 93
c77 0 168 -66 240 -66c37 0 63 22 66 56h36z" />
    <glyph glyph-name="asciitilde" unicode="~" horiz-adv-x="577" 
d="M517 371c-4 -56 -44 -93 -100 -93c-74 0 -170 67 -240 67c-38 0 -63 -23 -67 -57h-36c6 58 46 93 101 93c77 0 168 -66 240 -66c37 0 63 22 66 56h36z" />
    <glyph glyph-name="divide" unicode="&#xf7;" horiz-adv-x="640" 
d="M567 332h-480l5 36h480zM324 123c-3 -17 -16 -27 -32 -27c-17 0 -30 12 -27 32c3 17 17 26 32 26c18 0 30 -11 27 -31zM394 570c-3 -17 -16 -27 -32 -27c-17 0 -30 12 -26 32c2 17 17 26 31 26c19 0 30 -11 27 -31z" />
    <glyph glyph-name="emptyset" unicode="&#x2205;" horiz-adv-x="821" 
d="M781 345c-29 -183 -197 -356 -416 -356c-92 0 -165 30 -217 79l-69 -68h-29l84 83c-65 69 -91 170 -75 272c29 183 197 356 416 356c92 0 165 -30 217 -79l69 68h29l-84 -82c65 -70 91 -171 75 -273zM83 349c-15 -93 8 -186 67 -251l526 518c-48 44 -114 72 -200 72
c-210 0 -367 -167 -393 -339zM164 84c48 -44 115 -72 200 -72c211 0 367 167 394 339c15 93 -8 186 -68 251z" />
    <glyph glyph-name="equal" unicode="=" horiz-adv-x="546" 
d="M490 422h-397l6 37h397zM462 241h-397l5 37h398z" />
    <glyph glyph-name="greater" unicode="&#x3e;" horiz-adv-x="481" 
d="M442 330l-386 -159l6 39l345 140l-300 141l5 38l337 -160z" />
    <glyph glyph-name="greaterequal" unicode="&#x2265;" horiz-adv-x="511" 
d="M450 340l-386 -159l6 38l344 141l-299 140l5 38l337 -159zM396 0h-361l6 36h361z" />
    <glyph glyph-name="infinity" unicode="&#x221e;" horiz-adv-x="827" 
d="M427 389c60 72 121 140 213 140c87 0 158 -65 141 -174c-17 -105 -100 -168 -188 -168c-87 0 -139 70 -174 140c-59 -72 -120 -140 -214 -140c-87 0 -156 65 -139 174c17 105 100 168 188 168c87 0 138 -70 173 -140zM403 360c-33 68 -72 133 -144 133
c-73 0 -141 -47 -155 -136c-14 -86 38 -134 108 -134c81 0 135 65 191 137zM743 361c14 86 -38 132 -108 132c-81 0 -136 -65 -191 -137c32 -68 72 -133 144 -133c73 0 141 49 155 138z" />
    <glyph glyph-name="integral" unicode="&#x222b;" horiz-adv-x="401" 
d="M240 660c16 100 93 131 154 131c30 0 54 -6 71 -14l-6 -36c-16 8 -37 13 -62 13c-48 0 -107 -21 -120 -101l-120 -754c-16 -99 -89 -130 -154 -130c-29 0 -54 7 -70 14l5 36c16 -8 36 -13 59 -13c55 0 112 21 124 101z" />
    <glyph glyph-name="less" unicode="&#x3c;" horiz-adv-x="483" 
d="M393 209l-6 -38l-336 160l6 39l386 159l-5 -39l-345 -140z" />
    <glyph glyph-name="lessequal" unicode="&#x2264;" horiz-adv-x="517" 
d="M427 219l-6 -38l-336 160l6 38l386 159l-5 -38l-345 -140zM391 0h-361l6 36h361z" />
    <glyph glyph-name="logicalnot" unicode="&#xac;" horiz-adv-x="579" 
d="M500 294h-38l24 150h-392l5 36h431z" />
    <glyph glyph-name="minus" unicode="&#x2212;" horiz-adv-x="518" 
d="M448 330h-369l5 36h369z" />
    <glyph glyph-name="multiply" unicode="&#xd7;" horiz-adv-x="450" 
d="M230 326l-154 -133l-21 25l154 133l-112 132l27 25l112 -133l155 133l21 -25l-155 -133l112 -133l-27 -24z" />
    <glyph glyph-name="notequal" unicode="&#x2260;" horiz-adv-x="546" 
d="M134 140h-36l80 101h-113l5 37h135l115 144h-227l6 37h249l79 101h36l-79 -101h113l-6 -37h-135l-115 -144h227l-6 -37h-248z" />
    <glyph glyph-name="partialdiff" unicode="&#x2202;" horiz-adv-x="593" 
d="M533 265c-27 -172 -143 -276 -289 -276c-139 0 -231 93 -208 237c21 131 141 222 264 222c101 0 194 -57 200 -168c2 8 3 16 4 26c23 248 -148 362 -346 358l6 36c222 0 417 -133 369 -435zM73 221c-19 -120 52 -195 172 -195c114 0 198 70 234 178
c19 138 -70 208 -175 208c-112 0 -213 -77 -231 -191z" />
    <glyph glyph-name="percent" unicode="%" horiz-adv-x="878" 
d="M199 -60h-40l539 820h40zM381 560c-14 -95 -94 -143 -171 -143c-76 0 -146 54 -131 151c15 95 95 143 173 143c76 0 145 -54 129 -151zM115 565c-11 -69 34 -114 96 -114c66 0 124 40 136 112c10 69 -35 114 -96 114c-67 0 -125 -40 -136 -112zM818 132
c-15 -95 -95 -143 -171 -143c-77 0 -147 54 -132 151c15 95 94 143 173 143c75 0 145 -54 130 -151zM551 137c-11 -69 34 -114 96 -114c66 0 124 40 136 112c10 69 -35 114 -96 114c-67 0 -125 -40 -136 -112z" />
    <glyph glyph-name="perthousand" unicode="&#x2030;" horiz-adv-x="1251" 
d="M199 -60h-40l539 820h40zM381 560c-14 -95 -94 -143 -171 -143c-76 0 -146 54 -131 151c15 95 95 143 173 143c76 0 145 -54 129 -151zM115 565c-11 -69 34 -114 96 -114c66 0 124 40 136 112c10 69 -35 114 -96 114c-67 0 -125 -40 -136 -112zM818 132
c-15 -95 -95 -143 -171 -143c-77 0 -147 54 -132 151c15 95 94 143 173 143c75 0 145 -54 130 -151zM551 137c-11 -69 34 -114 96 -114c66 0 124 40 136 112c10 69 -35 114 -96 114c-67 0 -125 -40 -136 -112zM1191 132c-15 -95 -95 -143 -171 -143c-77 0 -147 54 -132 151
c15 95 94 143 173 143c75 0 145 -54 130 -151zM923 137c-11 -69 34 -114 96 -114c66 0 124 40 136 112c10 69 -35 114 -96 114c-67 0 -125 -40 -136 -112z" />
    <glyph glyph-name="plus" unicode="+" horiz-adv-x="532" 
d="M297 368h197l-6 -36h-197l-31 -197h-37l32 197h-197l5 36h197l32 197h36z" />
    <glyph glyph-name="plusminus" unicode="&#xb1;" horiz-adv-x="578" 
d="M357 579l-31 -197h197l-6 -37h-197l-31 -197h-36l31 197h-197l5 37h197l32 197h36zM462 0h-430l6 36h430z" />
    <glyph glyph-name="product" unicode="&#x220f;" horiz-adv-x="731" 
d="M98 -220h-40l140 882h-101l6 38h656l-6 -38h-101l-140 -882h-40l140 882h-375z" />
    <glyph glyph-name="radical" unicode="&#x221a;" horiz-adv-x="723" 
d="M301 0h-36l-117 442h-96l6 38h117l114 -434l461 734h43z" />
    <glyph glyph-name="summation" unicode="&#x2211;" horiz-adv-x="563" 
d="M464 0h-469l3 24l337 327l-232 326l3 23h466l-7 -38h-404l219 -307l-2 -13l-312 -304h405z" />
    <glyph glyph-name="lozenge" unicode="&#x25ca;" horiz-adv-x="546" 
d="M248 0h-42l-158 350l268 350h43l158 -350zM91 346l140 -309l244 316l-141 310z" />
    <glyph glyph-name="bar" unicode="|" horiz-adv-x="191" 
d="M54 -100h-40l144 910h40z" />
    <glyph glyph-name="brokenbar" unicode="&#xa6;" horiz-adv-x="210" 
d="M153 463h-40l54 347h40zM63 -100h-40l55 347h40z" />
    <glyph glyph-name="at" unicode="@" horiz-adv-x="1057" 
d="M43 250c38 240 248 461 559 461c300 0 429 -244 398 -438c-28 -179 -119 -264 -221 -264c-81 0 -129 44 -124 125c-41 -62 -109 -102 -184 -102c-108 0 -184 84 -164 208c19 122 115 204 225 204c77 0 131 -45 152 -104l15 95h37l-45 -282c-10 -69 18 -110 89 -110
c87 0 158 83 181 236c28 177 -90 394 -361 394c-288 0 -482 -203 -518 -429c-44 -276 154 -437 398 -437c81 0 155 11 230 37l-6 -40c-76 -26 -148 -35 -226 -35c-264 0 -483 175 -435 481zM676 291c-10 64 -61 117 -141 117c-92 0 -174 -64 -191 -171
c-16 -103 43 -169 132 -169c82 0 153 55 183 119z" />
    <glyph glyph-name="ampersand" unicode="&#x26;" horiz-adv-x="681" 
d="M520 113l108 -113h-47l-85 89c-64 -60 -152 -100 -260 -100c-144 0 -218 80 -203 178c15 97 111 159 195 204c-38 43 -82 107 -70 177c14 87 102 163 223 163c98 0 171 -59 157 -144c-15 -98 -150 -154 -253 -206l210 -221c46 51 75 114 84 177h39
c-11 -71 -44 -145 -98 -204zM381 674c-110 0 -175 -63 -186 -133c-9 -58 31 -114 65 -153c96 47 227 102 240 183c10 62 -45 103 -119 103zM72 164c-12 -78 50 -138 169 -138c93 0 172 36 230 89l-218 229c-81 -42 -167 -96 -181 -180z" />
    <glyph glyph-name="paragraph" unicode="&#xb6;" horiz-adv-x="602" 
d="M210 -220h-39l81 512c-134 0 -205 77 -184 207c20 127 113 201 247 201h266l-146 -920h-40l140 882h-186z" />
    <glyph glyph-name="copyright" unicode="&#xa9;" horiz-adv-x="854" 
d="M809 344c-38 -238 -251 -355 -427 -355c-174 0 -356 125 -318 367c37 238 251 355 426 355s357 -125 319 -367zM556 183c-42 -22 -87 -34 -136 -34c-96 0 -190 64 -169 199c23 145 144 203 239 203c48 0 88 -13 118 -35l-3 -30c-30 22 -69 34 -110 34
c-86 0 -190 -47 -211 -176c-18 -115 58 -164 143 -164c45 0 94 13 133 34zM83 354c-36 -226 131 -347 297 -347c170 0 375 110 411 339c36 226 -131 347 -298 347c-169 0 -374 -110 -410 -339z" />
    <glyph glyph-name="registered" unicode="&#xae;" horiz-adv-x="854" 
d="M809 344c-38 -238 -251 -355 -427 -355c-174 0 -356 125 -318 367c37 238 251 355 426 355s357 -125 319 -367zM83 354c-36 -226 131 -347 297 -347c170 0 375 110 411 339c36 226 -131 347 -298 347c-169 0 -374 -110 -410 -339zM303 150h-30l62 395h154
c54 0 144 -22 127 -125c-11 -70 -60 -97 -107 -107l88 -163h-33l-86 158c-10 -1 -21 -1 -29 -1h-122zM361 515l-29 -179h122c44 0 120 7 133 89c13 81 -59 90 -103 90h-123z" />
    <glyph glyph-name="section" unicode="&#xa7;" horiz-adv-x="488" 
d="M391 86c-13 -81 -102 -120 -196 -120c-63 0 -125 18 -165 45l5 36c42 -29 102 -47 159 -47c81 0 150 30 160 90c10 69 -58 90 -133 112c-81 23 -167 47 -152 142c10 62 64 104 119 131c-46 20 -80 52 -71 114c14 82 101 122 187 122c64 0 114 -18 151 -40l-5 -36
c-36 25 -84 42 -145 42c-73 0 -140 -33 -150 -93c-11 -71 65 -89 145 -111c79 -22 157 -51 143 -140c-11 -64 -68 -102 -126 -129c48 -21 84 -55 74 -118zM233 234c17 -5 33 -9 48 -14c50 17 115 53 124 113c11 67 -50 88 -118 108c-21 6 -43 11 -62 18
c-48 -15 -110 -56 -119 -115c-11 -70 57 -89 127 -110z" />
    <glyph glyph-name="trademark" unicode="&#x2122;" horiz-adv-x="656" 
d="M351 448h-25l40 252h28l82 -153l132 153h30l-40 -252h-25l34 215l-126 -144h-16l-79 144zM182 448h-25l36 228h-91l4 24h207l-4 -24h-91z" />
    <glyph glyph-name="degree" unicode="&#xb0;" horiz-adv-x="389" 
d="M384 570c-15 -90 -92 -141 -167 -141s-141 56 -126 148c14 89 93 140 166 140c76 0 141 -56 127 -147zM120 574c-11 -70 36 -115 97 -115c64 0 126 41 137 114c11 69 -35 114 -96 114c-64 0 -126 -41 -138 -113z" />
    <glyph glyph-name="asciicircum" unicode="^" horiz-adv-x="493" 
d="M116 398h-44l225 302h34l129 -302h-41l-110 260z" />
    <glyph glyph-name="dagger" unicode="&#x2020;" horiz-adv-x="491" 
d="M184 -220h-40l105 662h-190l6 38h190l35 220h40l-35 -220h189l-5 -38h-190z" />
    <glyph glyph-name="daggerdbl" unicode="&#x2021;" horiz-adv-x="518" 
d="M197 -220h-40l53 328h-190l6 38h190l47 296h-190l6 38h189l35 220h40l-35 -220h190l-6 -38h-190l-47 -296h190l-6 -38h-190z" />
    <glyph glyph-name="acute" unicode="&#xb4;" horiz-adv-x="170" 
d="M173 776h-43l110 137h48z" />
    <glyph glyph-name="breve" unicode="&#x2d8;" horiz-adv-x="321" 
d="M398 822c-43 -31 -84 -41 -132 -41c-47 0 -91 10 -124 41l6 39c37 -33 74 -44 120 -44c47 0 89 11 136 44z" />
    <glyph glyph-name="caron" unicode="&#x2c7;" horiz-adv-x="275" 
d="M404 897l-148 -131h-34l-107 131h42l85 -101l115 101h47z" />
    <glyph glyph-name="cedilla" unicode="&#xb8;" horiz-adv-x="211" 
d="M63 0h33l-35 -86c58 11 116 -12 109 -67c-7 -48 -51 -78 -124 -78c-44 0 -76 10 -102 22l6 32c25 -14 57 -22 93 -22c61 0 90 22 94 50c6 41 -57 53 -118 36z" />
    <glyph glyph-name="circumflex" unicode="&#x2c6;" horiz-adv-x="275" 
d="M243 907h33l108 -131h-42l-85 101l-116 -101h-46z" />
    <glyph glyph-name="dieresis" unicode="&#xa8;" horiz-adv-x="282" 
d="M384 833c-2 -15 -17 -28 -33 -28c-18 0 -31 15 -28 33c3 15 18 29 33 29c19 0 31 -16 28 -34zM183 833c-2 -15 -17 -28 -33 -28c-18 0 -31 15 -28 33c3 15 18 29 33 29c19 0 31 -16 28 -34z" />
    <glyph glyph-name="dotaccent" unicode="&#x2d9;" horiz-adv-x="92" 
d="M191 817c-3 -21 -20 -33 -39 -33c-20 0 -36 15 -32 38c4 21 21 33 39 33c21 0 36 -15 32 -38z" />
    <glyph glyph-name="grave" unicode="`" horiz-adv-x="170" 
d="M250 776h-40l-73 137h46z" />
    <glyph glyph-name="hungarumlaut" unicode="&#x2dd;" horiz-adv-x="318" 
d="M321 779h-42l97 143h44zM168 779h-42l97 143h44z" />
    <glyph glyph-name="macron" unicode="&#xaf;" horiz-adv-x="312" 
d="M136 840h264l-5 -36h-264z" />
    <glyph glyph-name="ogonek" unicode="&#x2db;" horiz-adv-x="206" 
d="M99 5l47 -5c-68 -43 -130 -95 -137 -145c-5 -32 12 -54 51 -54c25 0 51 7 75 19l-5 -34c-24 -11 -51 -17 -79 -17c-58 0 -87 34 -79 83s49 103 127 153z" />
    <glyph glyph-name="ring" unicode="&#x2da;" horiz-adv-x="206" 
d="M307 841c-9 -53 -57 -87 -103 -87c-49 0 -90 36 -81 92c9 53 57 86 104 86c49 0 89 -36 80 -91zM153 843c-6 -37 20 -61 51 -61c33 0 68 22 74 62c6 36 -20 60 -50 60c-34 0 -69 -22 -75 -61z" />
    <glyph glyph-name="tilde" unicode="&#x2dc;" horiz-adv-x="319" 
d="M423 863c-1 -51 -32 -81 -74 -81c-57 0 -111 53 -155 53c-28 0 -45 -19 -45 -47h-34c0 50 34 81 73 81c56 0 112 -53 157 -53c30 0 44 18 44 47h34z" />
    <glyph glyph-name="uni0326" unicode="&#x326;" horiz-adv-x="100" 
d="M0 -218h-34l48 172h38z" />
    <glyph glyph-name="A" unicode="A" horiz-adv-x="710" 
d="M649 0h-41l-60 204h-410l-124 -204h-45l428 700h46zM405 641l-245 -400h379l-118 401c-2 6 -4 13 -5 20c-4 -8 -7 -14 -11 -21z" />
    </font>
</defs>
</svg>
