<?xml version="1.0" standalone="no"?>
<!DOCTYPE svg PUBLIC "-//W3C//DTD SVG 1.1//EN" "http://www.w3.org/Graphics/SVG/1.1/DTD/svg11.dtd" >
<svg xmlns="http://www.w3.org/2000/svg" xmlns:xlink="http://www.w3.org/1999/xlink" version="1.1">
<metadata>
Created by FontForge 20160407 at Tue Nov  8 10:20:55 2016
 By Jimmy Warting
Copyright \(c\) 2015 by Fontfabric LLC. All rights reserved.
</metadata>
<defs>
<font id="MullerThinItalic" horiz-adv-x="614" >
  <font-face 
    font-family="Muller Thin Italic"
    font-weight="250"
    font-style="italic"
    font-stretch="normal"
    units-per-em="1000"
    panose-1="0 0 0 0 0 0 0 0 0 0"
    ascent="780"
    descent="-220"
    x-height="480"
    cap-height="700"
    bbox="-206 -231 1210.92 922"
    underline-thickness="50"
    underline-position="-125"
    slope="-9"
    stemh="20"
    stemv="24"
    unicode-range="U+0020-25CA"
  />
<missing-glyph horiz-adv-x="271" 
 />
    <glyph glyph-name="f_f" unicode="ff" horiz-adv-x="660" 
d="M744 675c-22 14 -64 23 -104 23c-71 0 -139 -33 -154 -126l-15 -92h213l-3 -23h-213l-73 -457h-24l73 457h-286l-73 -457h-24l73 457h-82l3 23h82l10 58c16 105 100 154 193 154c58 0 104 -17 147 -49c33 56 93 77 149 77c44 0 87 -10 111 -23zM161 480h286l15 93
c3 20 8 37 14 52c-38 28 -79 45 -134 45c-93 0 -157 -48 -171 -133z" />
    <glyph glyph-name="f_f_i" unicode="ffi" horiz-adv-x="837" 
d="M85 0h-24l73 457h-82l3 23h82l10 58c16 105 99 154 193 154c61 0 107 -19 152 -53c36 50 94 73 154 73c55 0 108 -17 150 -45l-4 -24c-38 28 -89 47 -144 47c-85 0 -151 -48 -164 -135l-13 -75h308l-76 -480h-24l72 457h-283l-73 -457h-24l73 457h-286zM171 537l-10 -57
h286l13 76c3 25 11 46 21 65c-40 30 -81 49 -139 49c-93 0 -157 -48 -171 -133z" />
    <glyph glyph-name="f_f_l" unicode="ffl" horiz-adv-x="847" 
d="M796 672l4 26l25 8l-112 -706h-24l103 649c-38 25 -90 41 -145 41c-84 0 -150 -48 -163 -135l-13 -75h195l-3 -23h-195l-73 -457h-24l73 457h-286l-73 -457h-24l73 457h-82l3 23h82l10 58c16 105 100 154 193 154c60 0 107 -19 152 -53c36 49 95 73 153 73
c57 0 110 -15 151 -40zM447 480l13 76c3 25 11 46 21 64c-40 31 -81 50 -139 50c-92 0 -157 -48 -171 -133l-10 -57h286z" />
    <glyph glyph-name=".notdef" horiz-adv-x="271" 
 />
    <glyph glyph-name="Aacute" unicode="&#xc1;" horiz-adv-x="707" 
d="M644 0h-26l-65 215h-420l-134 -215h-28l433 700h30zM406 659l-260 -420h401l-127 421c-2 4 -4 10 -5 17c-2 -6 -5 -11 -9 -18zM427 778h-27l108 133h30z" />
    <glyph glyph-name="Abreve" unicode="&#x102;" horiz-adv-x="707" 
d="M644 0h-26l-65 215h-420l-134 -215h-28l433 700h30zM406 659l-260 -420h401l-127 421c-2 4 -4 10 -5 17c-2 -6 -5 -11 -9 -18zM559 824c-41 -30 -80 -41 -127 -41c-48 0 -90 11 -121 41l4 26c34 -33 71 -44 117 -44c45 0 87 11 131 44z" />
    <glyph glyph-name="Acircumflex" unicode="&#xc2;" horiz-adv-x="707" 
d="M644 0h-26l-65 215h-420l-134 -215h-28l433 700h30zM406 659l-260 -420h401l-127 421c-2 4 -4 10 -5 17c-2 -6 -5 -11 -9 -18zM439 903h21l107 -125h-27l-91 106l-125 -106h-30z" />
    <glyph glyph-name="Adieresis" unicode="&#xc4;" horiz-adv-x="707" 
d="M644 0h-26l-65 215h-420l-134 -215h-28l433 700h30zM406 659l-260 -420h401l-127 421c-2 4 -4 10 -5 17c-2 -6 -5 -11 -9 -18zM561 834c-2 -12 -13 -22 -25 -22c-14 0 -23 12 -20 25c1 11 13 21 24 21c15 0 23 -11 21 -24zM361 834c-2 -12 -13 -22 -25 -22
c-14 0 -23 12 -20 25c1 11 13 21 24 21c15 0 23 -11 21 -24z" />
    <glyph glyph-name="Agrave" unicode="&#xc0;" horiz-adv-x="707" 
d="M644 0h-26l-65 215h-420l-134 -215h-28l433 700h30zM406 659l-260 -420h401l-127 421c-2 4 -4 10 -5 17c-2 -6 -5 -11 -9 -18zM459 778h-26l-70 133h28z" />
    <glyph glyph-name="Amacron" unicode="&#x100;" horiz-adv-x="707" 
d="M644 0h-26l-65 215h-420l-134 -215h-28l433 700h30zM406 659l-260 -420h401l-127 421c-2 4 -4 10 -5 17c-2 -6 -5 -11 -9 -18zM315 834h252l-3 -23h-252z" />
    <glyph glyph-name="Aogonek" unicode="&#x104;" horiz-adv-x="707" 
d="M644 0c-70 -44 -136 -98 -145 -151c-5 -35 15 -58 57 -58c18 0 38 4 56 11l-3 -22c-18 -7 -38 -10 -57 -10c-56 0 -84 31 -76 79c8 53 68 108 140 157l-63 209h-420l-134 -215h-28l433 700h30zM406 659l-260 -420h401l-127 421c-2 4 -4 10 -5 17c-2 -6 -6 -12 -9 -18z
" />
    <glyph glyph-name="Aring" unicode="&#xc5;" horiz-adv-x="707" 
d="M644 0h-26l-65 215h-420l-134 -215h-28l433 700h30zM406 659l-260 -420h401l-127 421c-2 4 -4 10 -5 17c-2 -6 -5 -11 -9 -18zM525 838c-8 -49 -52 -80 -95 -80c-45 0 -82 33 -73 84c7 48 52 80 95 80c45 0 82 -33 73 -84zM376 839c-6 -38 22 -62 53 -62
c35 0 70 23 77 63c6 38 -21 63 -53 63c-34 0 -70 -24 -77 -64z" />
    <glyph glyph-name="Atilde" unicode="&#xc3;" horiz-adv-x="707" 
d="M644 0h-26l-65 215h-420l-134 -215h-28l433 700h30zM406 659l-260 -420h401l-127 421c-2 4 -4 10 -5 17c-2 -6 -5 -11 -9 -18zM584 861c-1 -43 -27 -72 -67 -72c-55 0 -112 56 -159 56c-29 0 -48 -20 -48 -51h-22c0 43 30 73 67 73c54 0 113 -56 160 -56
c31 0 46 19 47 50h22z" />
    <glyph glyph-name="AE" unicode="&#xc6;" horiz-adv-x="995" 
d="M996 700l-4 -24h-400l-49 -312h370l-4 -24h-370l-50 -316h406l-4 -24h-430l34 216h-329l-188 -216h-31l613 700h436zM187 239h312l69 436z" />
    <glyph glyph-name="B" unicode="B" horiz-adv-x="675" 
d="M170 700h251c133 0 226 -54 207 -177c-16 -97 -88 -143 -170 -155c72 -12 164 -53 145 -182c-28 -165 -185 -186 -300 -186h-244zM578 192c22 143 -112 163 -185 163h-253l-52 -331h215c107 0 251 16 275 168zM604 525c17 108 -63 151 -187 151h-226l-47 -297h262
c89 0 181 41 198 146z" />
    <glyph glyph-name="C" unicode="C" horiz-adv-x="649" 
d="M63 355c38 240 243 355 415 355c72 0 134 -16 184 -48l-4 -25c-47 33 -109 49 -178 49c-164 0 -356 -106 -393 -335c-36 -226 122 -337 285 -337c70 0 139 18 200 50l-4 -26c-59 -32 -131 -48 -200 -48c-173 0 -344 121 -305 365z" />
    <glyph glyph-name="Cacute" unicode="&#x106;" horiz-adv-x="649" 
d="M63 355c38 240 243 355 415 355c72 0 134 -16 184 -48l-4 -25c-47 33 -109 49 -178 49c-164 0 -356 -106 -393 -335c-36 -226 122 -337 285 -337c70 0 139 18 200 50l-4 -26c-59 -32 -131 -48 -200 -48c-173 0 -344 121 -305 365zM486 778h-27l108 133h30z" />
    <glyph glyph-name="Ccaron" unicode="&#x10c;" horiz-adv-x="649" 
d="M63 355c38 240 243 355 415 355c72 0 134 -16 184 -48l-4 -25c-47 33 -109 49 -178 49c-164 0 -356 -106 -393 -335c-36 -226 122 -337 285 -337c70 0 139 18 200 50l-4 -26c-59 -32 -131 -48 -200 -48c-173 0 -344 121 -305 365zM645 893l-147 -125h-20l-107 125h27
l92 -106l124 106h31z" />
    <glyph glyph-name="Ccedilla" unicode="&#xc7;" horiz-adv-x="649" 
d="M658 637c-46 33 -109 49 -177 49c-164 0 -357 -106 -393 -335c-36 -226 122 -337 284 -337c71 0 140 18 201 50l-5 -26c-57 -31 -127 -48 -195 -48l-34 -85c57 14 121 -6 113 -62c-5 -43 -45 -73 -118 -73c-46 0 -78 10 -101 22l3 21c27 -14 58 -22 96 -22
c66 0 95 24 99 55c7 45 -58 58 -121 39l42 105c-167 8 -326 129 -289 365c39 240 243 355 416 355c71 0 133 -16 183 -48z" />
    <glyph glyph-name="Cdotaccent" unicode="&#x10a;" horiz-adv-x="649" 
d="M63 355c38 240 243 355 415 355c72 0 134 -16 184 -48l-4 -25c-47 33 -109 49 -178 49c-164 0 -356 -106 -393 -335c-36 -226 122 -337 285 -337c70 0 139 18 200 50l-4 -26c-59 -32 -131 -48 -200 -48c-173 0 -344 121 -305 365zM522 816c-3 -16 -17 -26 -31 -26
c-16 0 -28 11 -25 29c3 15 16 26 30 26c17 0 29 -12 26 -29z" />
    <glyph glyph-name="D" unicode="D" horiz-adv-x="730" 
d="M170 700h195c252 0 352 -149 320 -352c-31 -200 -171 -348 -427 -348h-199zM661 352c30 189 -61 324 -296 324h-174l-103 -652h174c235 0 369 136 399 328z" />
    <glyph glyph-name="Eth" unicode="&#xd0;" horiz-adv-x="731" 
d="M171 700h195c252 0 352 -149 320 -352c-31 -200 -171 -348 -427 -348h-199l53 338h-63l3 23h64zM262 24c235 0 369 136 399 328c30 189 -61 324 -296 324h-174l-50 -315h259l-3 -23h-259l-50 -314h174z" />
    <glyph glyph-name="Dcaron" unicode="&#x10e;" horiz-adv-x="730" 
d="M170 700h195c252 0 352 -149 320 -352c-31 -200 -171 -348 -427 -348h-199zM661 352c30 189 -61 324 -296 324h-174l-103 -652h174c235 0 369 136 399 328zM559 893l-147 -125h-20l-107 125h27l92 -106l124 106h31z" />
    <glyph glyph-name="Dcroat" unicode="&#x110;" horiz-adv-x="731" 
d="M171 700h195c252 0 352 -149 320 -352c-31 -200 -171 -348 -427 -348h-199l53 338h-63l3 23h64zM262 24c235 0 369 136 399 328c30 189 -61 324 -296 324h-174l-50 -315h259l-3 -23h-259l-50 -314h174z" />
    <glyph glyph-name="E" unicode="E" horiz-adv-x="626" 
d="M170 700h455l-4 -24h-430l-49 -312h400l-4 -24h-400l-50 -316h436l-4 -24h-461z" />
    <glyph glyph-name="Eacute" unicode="&#xc9;" horiz-adv-x="626" 
d="M170 700h455l-4 -24h-430l-49 -312h400l-4 -24h-400l-50 -316h436l-4 -24h-461zM407 778h-27l108 133h30z" />
    <glyph glyph-name="Ecaron" unicode="&#x11a;" horiz-adv-x="626" 
d="M170 700h455l-4 -24h-430l-49 -312h400l-4 -24h-400l-50 -316h436l-4 -24h-461zM566 893l-147 -125h-20l-107 125h27l92 -106l124 106h31z" />
    <glyph glyph-name="Ecircumflex" unicode="&#xca;" horiz-adv-x="626" 
d="M170 700h455l-4 -24h-430l-49 -312h400l-4 -24h-400l-50 -316h436l-4 -24h-461zM419 903h21l107 -125h-27l-91 106l-125 -106h-30z" />
    <glyph glyph-name="Edieresis" unicode="&#xcb;" horiz-adv-x="626" 
d="M170 700h455l-4 -24h-430l-49 -312h400l-4 -24h-400l-50 -316h436l-4 -24h-461zM541 834c-2 -12 -13 -22 -25 -22c-14 0 -23 12 -20 25c1 11 13 21 24 21c15 0 23 -11 21 -24zM341 834c-2 -12 -13 -22 -25 -22c-14 0 -23 12 -20 25c1 11 13 21 24 21c15 0 23 -11 21 -24z
" />
    <glyph glyph-name="Edotaccent" unicode="&#x116;" horiz-adv-x="626" 
d="M170 700h455l-4 -24h-430l-49 -312h400l-4 -24h-400l-50 -316h436l-4 -24h-461zM443 816c-3 -16 -17 -26 -31 -26c-16 0 -28 11 -25 29c3 15 16 26 30 26c17 0 29 -12 26 -29z" />
    <glyph glyph-name="Egrave" unicode="&#xc8;" horiz-adv-x="626" 
d="M170 700h455l-4 -24h-430l-49 -312h400l-4 -24h-400l-50 -316h436l-4 -24h-461zM439 778h-26l-70 133h28z" />
    <glyph glyph-name="Emacron" unicode="&#x112;" horiz-adv-x="626" 
d="M170 700h455l-4 -24h-430l-49 -312h400l-4 -24h-400l-50 -316h436l-4 -24h-461zM295 834h252l-3 -23h-252z" />
    <glyph glyph-name="Eogonek" unicode="&#x118;" horiz-adv-x="626" 
d="M486 -197l-3 -22c-18 -7 -39 -11 -59 -11c-52 0 -80 31 -72 79c7 49 55 100 133 151h-426l111 700h455l-4 -24h-430l-49 -312h400l-4 -24h-400l-50 -316h436l-4 -24c-70 -44 -137 -97 -145 -150c-6 -36 14 -59 52 -59c20 0 40 4 59 12z" />
    <glyph glyph-name="F" unicode="F" horiz-adv-x="596" 
d="M170 700h456l-4 -24h-431l-50 -319h402l-4 -24h-403l-52 -333h-25z" />
    <glyph glyph-name="G" unicode="G" horiz-adv-x="710" 
d="M64 362c40 252 250 348 424 348c73 0 142 -17 195 -46l-3 -24c-50 30 -123 46 -191 46c-166 0 -363 -89 -401 -328c-38 -238 126 -344 297 -344c68 0 138 14 196 42l49 309h25l-52 -328c-67 -31 -145 -47 -219 -47c-183 0 -361 115 -320 372z" />
    <glyph glyph-name="Gbreve" unicode="&#x11e;" horiz-adv-x="710" 
d="M64 362c40 252 250 348 424 348c73 0 142 -17 195 -46l-3 -24c-50 30 -123 46 -191 46c-166 0 -363 -89 -401 -328c-38 -238 126 -344 297 -344c68 0 138 14 196 42l49 309h25l-52 -328c-67 -31 -145 -47 -219 -47c-183 0 -361 115 -320 372zM620 824
c-41 -30 -80 -41 -127 -41c-48 0 -90 11 -121 41l4 26c34 -33 71 -44 117 -44c45 0 87 11 131 44z" />
    <glyph glyph-name="Gcommaaccent" unicode="&#x122;" horiz-adv-x="710" 
d="M64 362c40 252 250 348 424 348c73 0 142 -17 195 -46l-3 -24c-50 30 -123 46 -191 46c-166 0 -363 -89 -401 -328c-38 -238 126 -344 297 -344c68 0 138 14 196 42l49 309h25l-52 -328c-67 -31 -145 -47 -219 -47c-183 0 -361 115 -320 372zM340 -224h-22l47 166h24z
" />
    <glyph glyph-name="Gdotaccent" unicode="&#x120;" horiz-adv-x="710" 
d="M64 362c40 252 250 348 424 348c73 0 142 -17 195 -46l-3 -24c-50 30 -123 46 -191 46c-166 0 -363 -89 -401 -328c-38 -238 126 -344 297 -344c68 0 138 14 196 42l49 309h25l-52 -328c-67 -31 -145 -47 -219 -47c-183 0 -361 115 -320 372zM524 816
c-3 -16 -17 -26 -31 -26c-16 0 -28 11 -25 29c3 15 16 26 30 26c17 0 29 -12 26 -29z" />
    <glyph glyph-name="H" unicode="H" horiz-adv-x="767" 
d="M702 700h25l-111 -700h-25l54 340h-507l-54 -340h-25l111 700h25l-53 -336h507z" />
    <glyph glyph-name="Hbar" unicode="&#x126;" horiz-adv-x="767" 
d="M85 0h-25l82 520h-78l3 22h79l25 158h25l-25 -158h507l25 158h25l-25 -158h79l-4 -22h-79l-82 -520h-25l54 340h-507zM167 520l-24 -156h507l24 156h-507z" />
    <glyph glyph-name="I" unicode="I" horiz-adv-x="235" 
d="M170 700h25l-111 -700h-25z" />
    <glyph glyph-name="IJ" unicode="&#x132;" horiz-adv-x="759" 
d="M170 700h25l-111 -700h-25zM470 700h256l-81 -515c-21 -135 -113 -195 -242 -195c-71 0 -132 15 -174 43l4 25c42 -29 101 -44 167 -44c121 0 201 54 220 173l78 489h-232z" />
    <glyph glyph-name="Iacute" unicode="&#xcd;" horiz-adv-x="235" 
d="M170 700h25l-111 -700h-25zM190 778h-27l108 133h30z" />
    <glyph glyph-name="Icircumflex" unicode="&#xce;" horiz-adv-x="235" 
d="M170 700h25l-111 -700h-25zM202 903h21l107 -125h-27l-91 106l-125 -106h-30z" />
    <glyph glyph-name="Idieresis" unicode="&#xcf;" horiz-adv-x="235" 
d="M170 700h25l-111 -700h-25zM324 834c-2 -12 -13 -22 -25 -22c-14 0 -23 12 -20 25c1 11 13 21 24 21c15 0 23 -11 21 -24zM124 834c-2 -12 -13 -22 -25 -22c-14 0 -23 12 -20 25c1 11 13 21 24 21c15 0 23 -11 21 -24z" />
    <glyph glyph-name="Idotaccent" unicode="&#x130;" horiz-adv-x="235" 
d="M170 700h25l-111 -700h-25zM226 816c-3 -16 -17 -26 -31 -26c-16 0 -28 11 -25 29c3 15 16 26 30 26c17 0 29 -12 26 -29z" />
    <glyph glyph-name="Igrave" unicode="&#xcc;" horiz-adv-x="235" 
d="M170 700h25l-111 -700h-25zM222 778h-26l-70 133h28z" />
    <glyph glyph-name="Imacron" unicode="&#x12a;" horiz-adv-x="235" 
d="M170 700h25l-111 -700h-25zM78 834h252l-3 -23h-252z" />
    <glyph glyph-name="Iogonek" unicode="&#x12e;" horiz-adv-x="235" 
d="M84 0c-36 -38 -85 -97 -93 -151c-5 -35 15 -59 57 -59c27 1 51 7 78 20l-3 -21c-24 -13 -51 -19 -78 -19c-55 0 -84 31 -76 79c7 51 50 109 91 157l110 694h25z" />
    <glyph glyph-name="J" unicode="J" horiz-adv-x="524" 
d="M235 700h256l-81 -515c-21 -135 -113 -195 -242 -195c-71 0 -132 15 -174 43l4 25c42 -29 101 -44 167 -44c121 0 201 54 220 173l78 489h-232z" />
    <glyph glyph-name="K" unicode="K" horiz-adv-x="652" 
d="M656 700h29l-308 -342l225 -358h-28l-218 347h-217l-55 -347h-25l111 700h25l-52 -329h216z" />
    <glyph glyph-name="Kcommaaccent" unicode="&#x136;" horiz-adv-x="652" 
d="M656 700h29l-308 -342l225 -358h-28l-218 347h-217l-55 -347h-25l111 700h25l-52 -329h216zM269 -214h-22l47 166h24z" />
    <glyph glyph-name="L" unicode="L" horiz-adv-x="569" 
d="M170 700h25l-107 -676h428l-4 -24h-453z" />
    <glyph glyph-name="Lacute" unicode="&#x139;" horiz-adv-x="569" 
d="M170 700h25l-107 -676h428l-4 -24h-453zM208 778h-27l108 133h30z" />
    <glyph glyph-name="Lcaron" unicode="&#x13d;" horiz-adv-x="569" 
d="M449 700h23l-46 -156h-20zM170 700h25l-107 -676h428l-4 -24h-453z" />
    <glyph glyph-name="Lcommaaccent" unicode="&#x13b;" horiz-adv-x="569" 
d="M170 700h25l-107 -676h428l-4 -24h-453zM251 -214h-22l47 166h24z" />
    <glyph glyph-name="Ldot" unicode="&#x13f;" horiz-adv-x="576" 
d="M383 332c-2 -12 -13 -20 -24 -20c-13 0 -23 9 -21 24c2 12 13 20 24 20c14 0 23 -9 21 -24zM170 700h25l-107 -676h428l-4 -24h-453z" />
    <glyph glyph-name="Lslash" unicode="&#x141;" horiz-adv-x="572" 
d="M515 0h-453l47 291l-103 -42l4 22l102 42l61 387h25l-60 -377l259 107l-3 -22l-259 -107l-44 -277h428z" />
    <glyph glyph-name="M" unicode="M" horiz-adv-x="900" 
d="M837 700h23l-111 -700h-25l103 651l-381 -454h-18l-240 456l-104 -653h-25l111 700h20l250 -474z" />
    <glyph glyph-name="N" unicode="N" horiz-adv-x="767" 
d="M84 0h-25l111 700h20l408 -658c2 18 5 33 7 49l97 609h25l-111 -700h-20l-408 659c-2 -18 -5 -33 -8 -49z" />
    <glyph glyph-name="Nacute" unicode="&#x143;" horiz-adv-x="767" 
d="M84 0h-25l111 700h20l408 -658c2 18 5 33 7 49l97 609h25l-111 -700h-20l-408 659c-2 -18 -5 -33 -8 -49zM458 778h-27l108 133h30z" />
    <glyph glyph-name="Ncaron" unicode="&#x147;" horiz-adv-x="767" 
d="M84 0h-25l111 700h20l408 -658c2 18 5 33 7 49l97 609h25l-111 -700h-20l-408 659c-2 -18 -5 -33 -8 -49zM617 893l-147 -125h-20l-107 125h27l92 -106l124 106h31z" />
    <glyph glyph-name="Ncommaaccent" unicode="&#x145;" horiz-adv-x="767" 
d="M84 0h-25l111 700h20l408 -658c2 18 5 33 7 49l97 609h25l-111 -700h-20l-408 659c-2 -18 -5 -33 -8 -49zM306 -214h-22l47 166h24z" />
    <glyph glyph-name="Eng" unicode="&#x14a;" horiz-adv-x="767" 
d="M598 -115c-14 -87 -67 -115 -134 -115c-26 0 -49 4 -69 11l4 23c18 -7 39 -10 61 -10c59 0 102 22 113 94l19 118l-404 653c-2 -18 -5 -33 -8 -49l-96 -610h-25l111 700h20l408 -658c2 18 5 33 7 49l97 609h25z" />
    <glyph glyph-name="Ntilde" unicode="&#xd1;" horiz-adv-x="767" 
d="M84 0h-25l111 700h20l408 -658c2 18 5 33 7 49l97 609h25l-111 -700h-20l-408 659c-2 -18 -5 -33 -8 -49zM615 861c-1 -43 -27 -72 -67 -72c-55 0 -112 56 -159 56c-29 0 -48 -20 -48 -51h-22c0 43 30 73 67 73c54 0 113 -56 160 -56c31 0 46 19 47 50h22z" />
    <glyph glyph-name="O" unicode="O" horiz-adv-x="825" 
d="M783 348c-28 -174 -180 -358 -417 -358c-238 0 -332 188 -305 362c28 174 182 358 417 358c238 0 332 -188 305 -362zM86 349c-25 -160 57 -335 281 -335c223 0 365 174 391 337c25 160 -57 335 -281 335c-223 0 -366 -174 -391 -337z" />
    <glyph glyph-name="Oacute" unicode="&#xd3;" horiz-adv-x="825" 
d="M783 348c-28 -174 -180 -358 -417 -358c-238 0 -332 188 -305 362c28 174 182 358 417 358c238 0 332 -188 305 -362zM86 349c-25 -160 57 -335 281 -335c223 0 365 174 391 337c25 160 -57 335 -281 335c-223 0 -366 -174 -391 -337zM486 778h-27l108 133h30z" />
    <glyph glyph-name="Ocircumflex" unicode="&#xd4;" horiz-adv-x="825" 
d="M783 348c-28 -174 -180 -358 -417 -358c-238 0 -332 188 -305 362c28 174 182 358 417 358c238 0 332 -188 305 -362zM86 349c-25 -160 57 -335 281 -335c223 0 365 174 391 337c25 160 -57 335 -281 335c-223 0 -366 -174 -391 -337zM498 903h21l107 -125h-27l-91 106
l-125 -106h-30z" />
    <glyph glyph-name="Odieresis" unicode="&#xd6;" horiz-adv-x="825" 
d="M783 348c-28 -174 -180 -358 -417 -358c-238 0 -332 188 -305 362c28 174 182 358 417 358c238 0 332 -188 305 -362zM86 349c-25 -160 57 -335 281 -335c223 0 365 174 391 337c25 160 -57 335 -281 335c-223 0 -366 -174 -391 -337zM620 834c-2 -12 -13 -22 -25 -22
c-14 0 -23 12 -20 25c1 11 13 21 24 21c15 0 23 -11 21 -24zM420 834c-2 -12 -13 -22 -25 -22c-14 0 -23 12 -20 25c1 11 13 21 24 21c15 0 23 -11 21 -24z" />
    <glyph glyph-name="Ograve" unicode="&#xd2;" horiz-adv-x="825" 
d="M783 348c-28 -174 -180 -358 -417 -358c-238 0 -332 188 -305 362c28 174 182 358 417 358c238 0 332 -188 305 -362zM86 349c-25 -160 57 -335 281 -335c223 0 365 174 391 337c25 160 -57 335 -281 335c-223 0 -366 -174 -391 -337zM518 778h-26l-70 133h28z" />
    <glyph glyph-name="Ohungarumlaut" unicode="&#x150;" horiz-adv-x="825" 
d="M783 348c-28 -174 -180 -358 -417 -358c-238 0 -332 188 -305 362c28 174 182 358 417 358c238 0 332 -188 305 -362zM86 349c-25 -160 57 -335 281 -335c223 0 365 174 391 337c25 160 -57 335 -281 335c-223 0 -366 -174 -391 -337zM578 778h-27l98 142h28zM426 778
h-27l98 142h28z" />
    <glyph glyph-name="Omacron" unicode="&#x14c;" horiz-adv-x="825" 
d="M783 348c-28 -174 -180 -358 -417 -358c-238 0 -332 188 -305 362c28 174 182 358 417 358c238 0 332 -188 305 -362zM86 349c-25 -160 57 -335 281 -335c223 0 365 174 391 337c25 160 -57 335 -281 335c-223 0 -366 -174 -391 -337zM374 834h252l-3 -23h-252z" />
    <glyph glyph-name="Oslash" unicode="&#xd8;" horiz-adv-x="825" 
d="M83 -48h-26l97 110c-80 71 -109 183 -92 290c27 174 181 358 416 358c84 0 149 -23 198 -59l86 97h26l-97 -110c80 -71 109 -183 92 -290c-27 -174 -179 -358 -416 -358c-84 0 -149 23 -198 59zM87 349c-15 -99 10 -203 85 -268l488 551c-45 34 -105 54 -182 54
c-223 0 -365 -174 -391 -337zM186 68c45 -34 105 -54 182 -54c223 0 365 174 390 337c16 99 -9 203 -84 268z" />
    <glyph glyph-name="Otilde" unicode="&#xd5;" horiz-adv-x="825" 
d="M783 348c-28 -174 -180 -358 -417 -358c-238 0 -332 188 -305 362c28 174 182 358 417 358c238 0 332 -188 305 -362zM86 349c-25 -160 57 -335 281 -335c223 0 365 174 391 337c25 160 -57 335 -281 335c-223 0 -366 -174 -391 -337zM643 861c-1 -43 -27 -72 -67 -72
c-55 0 -112 56 -159 56c-29 0 -48 -20 -48 -51h-22c0 43 30 73 67 73c54 0 113 -56 160 -56c31 0 46 19 47 50h22z" />
    <glyph glyph-name="OE" unicode="&#x152;" horiz-adv-x="1022" 
d="M488 0c-37 -8 -74 -10 -119 -10c-240 0 -336 189 -307 367c27 172 182 353 413 353c46 0 89 -3 121 -10h427l-4 -24h-400l-49 -312h371l-5 -24h-370l-50 -316h407l-5 -24h-430zM87 353c-27 -166 59 -339 283 -339c50 0 84 2 121 11l103 651c-33 8 -75 10 -120 10
c-219 0 -362 -172 -387 -333z" />
    <glyph glyph-name="P" unicode="P" horiz-adv-x="654" 
d="M170 700h215c153 0 286 -48 259 -219c-27 -168 -169 -215 -325 -215h-193l-42 -266h-25zM620 485c24 150 -94 191 -233 191h-196l-61 -386h193c144 0 273 42 297 195z" />
    <glyph glyph-name="Thorn" unicode="&#xde;" horiz-adv-x="650" 
d="M174 567h189c156 0 287 -48 260 -219c-27 -168 -167 -215 -325 -215h-193l-21 -133h-25l111 700h25zM109 157h193c144 0 273 42 297 195c24 150 -93 191 -234 191h-195z" />
    <glyph glyph-name="Q" unicode="Q" horiz-adv-x="825" 
d="M723 -42l-18 -15l-102 120c-64 -44 -144 -73 -237 -73c-238 0 -332 188 -305 362c28 174 182 358 417 358c238 0 332 -188 305 -362c-16 -99 -72 -201 -161 -271zM86 349c-25 -160 57 -335 281 -335c87 0 161 26 221 68l-136 160l18 16l137 -162c84 65 136 162 151 255
c25 160 -57 335 -281 335c-223 0 -366 -174 -391 -337z" />
    <glyph glyph-name="R" unicode="R" horiz-adv-x="682" 
d="M84 0h-25l111 700h259c116 0 242 -53 217 -205c-22 -140 -143 -194 -254 -200l220 -295h-29l-220 294h-233zM191 676l-56 -358h238c104 0 228 45 249 181c22 133 -88 177 -192 177h-239z" />
    <glyph glyph-name="Racute" unicode="&#x154;" horiz-adv-x="682" 
d="M84 0h-25l111 700h259c116 0 242 -53 217 -205c-22 -140 -143 -194 -254 -200l220 -295h-29l-220 294h-233zM191 676l-56 -358h238c104 0 228 45 249 181c22 133 -88 177 -192 177h-239zM408 778h-27l108 133h30z" />
    <glyph glyph-name="Rcaron" unicode="&#x158;" horiz-adv-x="682" 
d="M84 0h-25l111 700h259c116 0 242 -53 217 -205c-22 -140 -143 -194 -254 -200l220 -295h-29l-220 294h-233zM191 676l-56 -358h238c104 0 228 45 249 181c22 133 -88 177 -192 177h-239zM567 893l-147 -125h-20l-107 125h27l92 -106l124 106h31z" />
    <glyph glyph-name="Rcommaaccent" unicode="&#x156;" horiz-adv-x="682" 
d="M84 0h-25l111 700h259c116 0 242 -53 217 -205c-22 -140 -143 -194 -254 -200l220 -295h-29l-220 294h-233zM191 676l-56 -358h238c104 0 228 45 249 181c22 133 -88 177 -192 177h-239zM285 -214h-22l47 166h24z" />
    <glyph glyph-name="S" unicode="S" horiz-adv-x="566" 
d="M99 547c19 118 144 163 250 163c79 0 143 -19 192 -49l-4 -24c-49 32 -116 50 -187 49c-100 0 -209 -37 -226 -142c-35 -219 418 -136 380 -388c-19 -122 -137 -167 -256 -166c-85 0 -171 22 -230 58l3 24c63 -37 145 -58 226 -58c110 0 215 36 232 144
c35 232 -418 147 -380 389z" />
    <glyph glyph-name="Sacute" unicode="&#x15a;" horiz-adv-x="566" 
d="M99 547c19 118 144 163 250 163c79 0 143 -19 192 -49l-4 -24c-49 32 -116 50 -187 49c-100 0 -209 -37 -226 -142c-35 -219 418 -136 380 -388c-19 -122 -137 -167 -256 -166c-85 0 -171 22 -230 58l3 24c63 -37 145 -58 226 -58c110 0 215 36 232 144
c35 232 -418 147 -380 389zM339 778h-27l108 133h30z" />
    <glyph glyph-name="Scaron" unicode="&#x160;" horiz-adv-x="566" 
d="M99 547c19 118 144 163 250 163c79 0 143 -19 192 -49l-4 -24c-49 32 -116 50 -187 49c-100 0 -209 -37 -226 -142c-35 -219 418 -136 380 -388c-19 -122 -137 -167 -256 -166c-85 0 -171 22 -230 58l3 24c63 -37 145 -58 226 -58c110 0 215 36 232 144
c35 232 -418 147 -380 389zM498 893l-147 -125h-20l-107 125h27l92 -106l124 106h31z" />
    <glyph glyph-name="Scedilla" unicode="&#x15e;" horiz-adv-x="566" 
d="M340 -157c-5 -43 -45 -73 -118 -73c-46 0 -78 10 -101 22l3 21c27 -14 58 -22 96 -22c66 0 95 24 99 55c7 45 -58 58 -121 39l42 105c-82 1 -165 23 -222 58l3 24c63 -37 145 -58 226 -58c110 0 215 36 232 144c35 232 -418 147 -380 389c19 118 144 163 250 163
c79 0 143 -19 192 -49l-4 -24c-49 32 -116 50 -187 49c-100 0 -209 -37 -226 -142c-35 -219 418 -136 380 -388c-19 -117 -128 -164 -242 -166l-35 -85c57 14 121 -6 113 -62z" />
    <glyph glyph-name="Scommaaccent" unicode="&#x218;" horiz-adv-x="566" 
d="M99 547c19 118 144 163 250 163c79 0 143 -19 192 -49l-4 -24c-49 32 -116 50 -187 49c-100 0 -209 -37 -226 -142c-35 -219 418 -136 380 -388c-19 -122 -137 -167 -256 -166c-85 0 -171 22 -230 58l3 24c63 -37 145 -58 226 -58c110 0 215 36 232 144
c35 232 -418 147 -380 389zM228 -214h-22l47 166h24z" />
    <glyph glyph-name="T" unicode="T" horiz-adv-x="588" 
d="M77 700h563l-4 -24h-269l-107 -676h-25l107 676h-269z" />
    <glyph glyph-name="Tbar" unicode="&#x166;" horiz-adv-x="601" 
d="M266 0h-25l55 347h-140l4 22h140l48 307h-269l4 24h563l-4 -24h-269l-48 -307h140l-4 -22h-140z" />
    <glyph glyph-name="Tcaron" unicode="&#x164;" horiz-adv-x="588" 
d="M77 700h563l-4 -24h-269l-107 -676h-25l107 676h-269zM528 893l-147 -125h-20l-107 125h27l92 -106l124 106h31z" />
    <glyph glyph-name="Tcommaaccent" unicode="&#x162;" horiz-adv-x="588" 
d="M77 700h563l-4 -24h-269l-107 -676h-25l107 676h-269zM204 -214h-22l47 166h24z" />
    <glyph glyph-name="uni021A" unicode="&#x21a;" horiz-adv-x="588" 
d="M77 700h563l-4 -24h-269l-107 -676h-25l107 676h-269zM206 -214h-22l47 166h24z" />
    <glyph glyph-name="U" unicode="U" horiz-adv-x="749" 
d="M693 700h25l-73 -460c-29 -187 -159 -250 -315 -250s-271 65 -241 251l72 459h25l-73 -459c-27 -170 72 -227 216 -227c148 0 265 58 292 228z" />
    <glyph glyph-name="Uacute" unicode="&#xda;" horiz-adv-x="749" 
d="M693 700h25l-73 -460c-29 -187 -159 -250 -315 -250s-271 65 -241 251l72 459h25l-73 -459c-27 -170 72 -227 216 -227c148 0 265 58 292 228zM445 778h-27l108 133h30z" />
    <glyph glyph-name="Ucircumflex" unicode="&#xdb;" horiz-adv-x="749" 
d="M693 700h25l-73 -460c-29 -187 -159 -250 -315 -250s-271 65 -241 251l72 459h25l-73 -459c-27 -170 72 -227 216 -227c148 0 265 58 292 228zM457 903h21l107 -125h-27l-91 106l-125 -106h-30z" />
    <glyph glyph-name="Udieresis" unicode="&#xdc;" horiz-adv-x="749" 
d="M693 700h25l-73 -460c-29 -187 -159 -250 -315 -250s-271 65 -241 251l72 459h25l-73 -459c-27 -170 72 -227 216 -227c148 0 265 58 292 228zM579 834c-2 -12 -13 -22 -25 -22c-14 0 -23 12 -20 25c1 11 13 21 24 21c15 0 23 -11 21 -24zM379 834
c-2 -12 -13 -22 -25 -22c-14 0 -23 12 -20 25c1 11 13 21 24 21c15 0 23 -11 21 -24z" />
    <glyph glyph-name="Ugrave" unicode="&#xd9;" horiz-adv-x="749" 
d="M693 700h25l-73 -460c-29 -187 -159 -250 -315 -250s-271 65 -241 251l72 459h25l-73 -459c-27 -170 72 -227 216 -227c148 0 265 58 292 228zM477 778h-26l-70 133h28z" />
    <glyph glyph-name="Uhungarumlaut" unicode="&#x170;" horiz-adv-x="749" 
d="M693 700h25l-73 -460c-29 -187 -159 -250 -315 -250s-271 65 -241 251l72 459h25l-73 -459c-27 -170 72 -227 216 -227c148 0 265 58 292 228zM537 778h-27l98 142h28zM385 778h-27l98 142h28z" />
    <glyph glyph-name="Umacron" unicode="&#x16a;" horiz-adv-x="749" 
d="M693 700h25l-73 -460c-29 -187 -159 -250 -315 -250s-271 65 -241 251l72 459h25l-73 -459c-27 -170 72 -227 216 -227c148 0 265 58 292 228zM333 834h252l-3 -23h-252z" />
    <glyph glyph-name="Uogonek" unicode="&#x172;" horiz-adv-x="749" 
d="M621 242l72 458h25l-73 -460c-12 -82 -49 -151 -107 -193c-105 -76 -154 -146 -161 -194c-5 -35 13 -62 58 -61c28 1 49 6 75 20l-3 -25c-24 -12 -46 -17 -76 -17c-59 0 -87 35 -79 83c7 42 42 99 111 158c-33 -14 -81 -21 -133 -21c-156 0 -271 65 -241 251l72 459h25
l-73 -459c-27 -170 72 -227 216 -227c148 0 265 58 292 228z" />
    <glyph glyph-name="Uring" unicode="&#x16e;" horiz-adv-x="749" 
d="M693 700h25l-73 -460c-29 -187 -159 -250 -315 -250s-271 65 -241 251l72 459h25l-73 -459c-27 -170 72 -227 216 -227c148 0 265 58 292 228zM543 838c-8 -49 -52 -80 -95 -80c-45 0 -82 33 -73 84c7 48 52 80 95 80c45 0 82 -33 73 -84zM394 839c-6 -38 22 -62 53 -62
c35 0 70 23 77 63c6 38 -21 63 -53 63c-34 0 -70 -24 -77 -64z" />
    <glyph glyph-name="V" unicode="V" horiz-adv-x="677" 
d="M305 0h-25l-195 700h26l185 -671l398 671h28z" />
    <glyph glyph-name="W" unicode="W" horiz-adv-x="983" 
d="M996 700h26l-334 -700h-27l-109 649l-319 -649h-28l-113 700h25l107 -666l323 658h22l110 -655z" />
    <glyph glyph-name="Wacute" unicode="&#x1e82;" horiz-adv-x="983" 
d="M996 700h26l-334 -700h-27l-109 649l-319 -649h-28l-113 700h25l107 -666l323 658h22l110 -655zM567 778h-27l108 133h30z" />
    <glyph glyph-name="Wcircumflex" unicode="&#x174;" horiz-adv-x="983" 
d="M996 700h26l-334 -700h-27l-109 649l-319 -649h-28l-113 700h25l107 -666l323 658h22l110 -655zM579 903h21l107 -125h-27l-91 106l-125 -106h-30z" />
    <glyph glyph-name="Wdieresis" unicode="&#x1e84;" horiz-adv-x="983" 
d="M996 700h26l-334 -700h-27l-109 649l-319 -649h-28l-113 700h25l107 -666l323 658h22l110 -655zM701 834c-2 -12 -13 -22 -25 -22c-14 0 -23 12 -20 25c1 11 13 21 24 21c15 0 23 -11 21 -24zM501 834c-2 -12 -13 -22 -25 -22c-14 0 -23 12 -20 25c1 11 13 21 24 21
c15 0 23 -11 21 -24z" />
    <glyph glyph-name="Wgrave" unicode="&#x1e80;" horiz-adv-x="983" 
d="M996 700h26l-334 -700h-27l-109 649l-319 -649h-28l-113 700h25l107 -666l323 658h22l110 -655zM599 778h-26l-70 133h28z" />
    <glyph glyph-name="X" unicode="X" horiz-adv-x="604" 
d="M-4 0h-32l335 361l-208 339h28l197 -321l299 321h31l-318 -343l219 -357h-27l-209 339z" />
    <glyph glyph-name="Y" unicode="Y" horiz-adv-x="624" 
d="M278 0h-25l45 284l-209 416h26l198 -391l322 391h30l-342 -416z" />
    <glyph glyph-name="Yacute" unicode="&#xdd;" horiz-adv-x="624" 
d="M278 0h-25l45 284l-209 416h26l198 -391l322 391h30l-342 -416zM383 778h-27l108 133h30z" />
    <glyph glyph-name="Ycircumflex" unicode="&#x176;" horiz-adv-x="624" 
d="M278 0h-25l45 284l-209 416h26l198 -391l322 391h30l-342 -416zM395 903h21l107 -125h-27l-91 106l-125 -106h-30z" />
    <glyph glyph-name="Ydieresis" unicode="&#x178;" horiz-adv-x="624" 
d="M278 0h-25l45 284l-209 416h26l198 -391l322 391h30l-342 -416zM517 834c-2 -12 -13 -22 -25 -22c-14 0 -23 12 -20 25c1 11 13 21 24 21c15 0 23 -11 21 -24zM317 834c-2 -12 -13 -22 -25 -22c-14 0 -23 12 -20 25c1 11 13 21 24 21c15 0 23 -11 21 -24z" />
    <glyph glyph-name="Ygrave" unicode="&#x1ef2;" horiz-adv-x="624" 
d="M278 0h-25l45 284l-209 416h26l198 -391l322 391h30l-342 -416zM415 778h-26l-70 133h28z" />
    <glyph glyph-name="Z" unicode="Z" horiz-adv-x="566" 
d="M492 0h-515l3 22l579 654h-456l5 24h488l-3 -22l-580 -654h483z" />
    <glyph glyph-name="Zacute" unicode="&#x179;" horiz-adv-x="566" 
d="M492 0h-515l3 22l579 654h-456l5 24h488l-3 -22l-580 -654h483zM368 778h-27l108 133h30z" />
    <glyph glyph-name="Zcaron" unicode="&#x17d;" horiz-adv-x="566" 
d="M492 0h-515l3 22l579 654h-456l5 24h488l-3 -22l-580 -654h483zM527 893l-147 -125h-20l-107 125h27l92 -106l124 106h31z" />
    <glyph glyph-name="Zdotaccent" unicode="&#x17b;" horiz-adv-x="566" 
d="M492 0h-515l3 22l579 654h-456l5 24h488l-3 -22l-580 -654h483zM404 816c-3 -16 -17 -26 -31 -26c-16 0 -28 11 -25 29c3 15 16 26 30 26c17 0 29 -12 26 -29z" />
    <glyph glyph-name="a" unicode="a" horiz-adv-x="613" 
d="M481 124c-50 -76 -138 -134 -239 -134c-136 0 -225 101 -200 256c24 152 144 244 276 244c98 0 173 -61 199 -137l20 127h23l-76 -480h-23zM65 243c-23 -141 57 -231 178 -231c106 0 199 70 242 152l24 150c-16 85 -91 154 -190 154c-120 0 -232 -82 -254 -225z" />
    <glyph glyph-name="aacute" unicode="&#xe1;" horiz-adv-x="613" 
d="M481 124c-50 -76 -138 -134 -239 -134c-136 0 -225 101 -200 256c24 152 144 244 276 244c98 0 173 -61 199 -137l20 127h23l-76 -480h-23zM65 243c-23 -141 57 -231 178 -231c106 0 199 70 242 152l24 150c-16 85 -91 154 -190 154c-120 0 -232 -82 -254 -225zM342 558
h-27l108 133h30z" />
    <glyph glyph-name="abreve" unicode="&#x103;" horiz-adv-x="613" 
d="M481 124c-50 -76 -138 -134 -239 -134c-136 0 -225 101 -200 256c24 152 144 244 276 244c98 0 173 -61 199 -137l20 127h23l-76 -480h-23zM65 243c-23 -141 57 -231 178 -231c106 0 199 70 242 152l24 150c-16 85 -91 154 -190 154c-120 0 -232 -82 -254 -225zM474 604
c-41 -30 -80 -41 -127 -41c-48 0 -90 11 -121 41l4 26c34 -33 71 -44 117 -44c45 0 87 11 131 44z" />
    <glyph glyph-name="acircumflex" unicode="&#xe2;" horiz-adv-x="613" 
d="M481 124c-50 -76 -138 -134 -239 -134c-136 0 -225 101 -200 256c24 152 144 244 276 244c98 0 173 -61 199 -137l20 127h23l-76 -480h-23zM65 243c-23 -141 57 -231 178 -231c106 0 199 70 242 152l24 150c-16 85 -91 154 -190 154c-120 0 -232 -82 -254 -225zM354 683
h21l107 -125h-27l-91 106l-125 -106h-30z" />
    <glyph glyph-name="adieresis" unicode="&#xe4;" horiz-adv-x="613" 
d="M481 124c-50 -76 -138 -134 -239 -134c-136 0 -225 101 -200 256c24 152 144 244 276 244c98 0 173 -61 199 -137l20 127h23l-76 -480h-23zM65 243c-23 -141 57 -231 178 -231c106 0 199 70 242 152l24 150c-16 85 -91 154 -190 154c-120 0 -232 -82 -254 -225zM476 614
c-2 -12 -13 -22 -25 -22c-14 0 -23 12 -20 25c1 11 13 21 24 21c15 0 23 -11 21 -24zM276 614c-2 -12 -13 -22 -25 -22c-14 0 -23 12 -20 25c1 11 13 21 24 21c15 0 23 -11 21 -24z" />
    <glyph glyph-name="agrave" unicode="&#xe0;" horiz-adv-x="613" 
d="M481 124c-50 -76 -138 -134 -239 -134c-136 0 -225 101 -200 256c24 152 144 244 276 244c98 0 173 -61 199 -137l20 127h23l-76 -480h-23zM65 243c-23 -141 57 -231 178 -231c106 0 199 70 242 152l24 150c-16 85 -91 154 -190 154c-120 0 -232 -82 -254 -225zM374 558
h-26l-70 133h28z" />
    <glyph glyph-name="amacron" unicode="&#x101;" horiz-adv-x="613" 
d="M481 124c-50 -76 -138 -134 -239 -134c-136 0 -225 101 -200 256c24 152 144 244 276 244c98 0 173 -61 199 -137l20 127h23l-76 -480h-23zM65 243c-23 -141 57 -231 178 -231c106 0 199 70 242 152l24 150c-16 85 -91 154 -190 154c-120 0 -232 -82 -254 -225zM230 614
h252l-3 -23h-252z" />
    <glyph glyph-name="aogonek" unicode="&#x105;" horiz-adv-x="613" 
d="M560 480l-76 -480c-66 -44 -128 -98 -137 -151c-5 -36 15 -58 49 -58c19 0 36 3 55 9l-3 -22c-18 -5 -36 -8 -56 -8c-47 0 -76 31 -68 79c8 51 60 105 139 160l18 115c-50 -76 -138 -134 -239 -134c-136 0 -225 101 -200 256c24 152 144 244 276 244
c98 0 173 -61 199 -137l20 127h23zM65 243c-23 -141 57 -231 178 -231c106 0 199 70 242 152l24 150c-16 85 -91 154 -190 154c-120 0 -232 -82 -254 -225z" />
    <glyph glyph-name="aring" unicode="&#xe5;" horiz-adv-x="613" 
d="M481 124c-50 -76 -138 -134 -239 -134c-136 0 -225 101 -200 256c24 152 144 244 276 244c98 0 173 -61 199 -137l20 127h23l-76 -480h-23zM65 243c-23 -141 57 -231 178 -231c106 0 199 70 242 152l24 150c-16 85 -91 154 -190 154c-120 0 -232 -82 -254 -225zM440 618
c-8 -49 -52 -80 -95 -80c-45 0 -82 33 -73 84c7 48 52 80 95 80c45 0 82 -33 73 -84zM291 619c-6 -38 22 -62 53 -62c35 0 70 23 77 63c6 38 -21 63 -53 63c-34 0 -70 -24 -77 -64z" />
    <glyph glyph-name="atilde" unicode="&#xe3;" horiz-adv-x="613" 
d="M481 124c-50 -76 -138 -134 -239 -134c-136 0 -225 101 -200 256c24 152 144 244 276 244c98 0 173 -61 199 -137l20 127h23l-76 -480h-23zM65 243c-23 -141 57 -231 178 -231c106 0 199 70 242 152l24 150c-16 85 -91 154 -190 154c-120 0 -232 -82 -254 -225zM499 641
c-1 -43 -27 -72 -67 -72c-55 0 -112 56 -159 56c-29 0 -48 -20 -48 -51h-22c0 43 30 73 67 73c54 0 113 -56 160 -56c31 0 46 19 47 50h22z" />
    <glyph glyph-name="ae" unicode="&#xe6;" horiz-adv-x="1001" 
d="M481 122c-50 -74 -136 -132 -239 -132c-134 0 -225 101 -200 256c24 152 144 244 276 244c98 0 173 -61 199 -137l20 127h23l-23 -144c48 100 142 154 237 154c176 0 208 -152 171 -265h-422c-20 -151 91 -213 204 -213c56 0 117 15 162 39l-4 -25
c-44 -24 -105 -36 -161 -36c-98 0 -198 47 -217 157l-23 -147h-23zM66 243c-23 -141 57 -231 178 -231c106 0 199 70 242 152l24 150c-16 85 -94 154 -190 154c-122 0 -232 -82 -254 -225zM772 468c-121 0 -228 -93 -247 -221h402c25 94 -2 221 -155 221z" />
    <glyph glyph-name="b" unicode="b" horiz-adv-x="613" 
d="M149 700h24l-54 -344c49 76 140 134 237 134c127 0 225 -101 200 -256c-24 -152 -138 -244 -276 -244c-102 0 -172 59 -198 140l-22 -130h-22zM532 237c23 141 -65 231 -178 231c-105 0 -198 -70 -243 -156l-23 -145c17 -86 87 -155 190 -155c127 0 232 82 254 225z" />
    <glyph glyph-name="c" unicode="c" horiz-adv-x="493" 
d="M41 242c27 176 177 248 296 248c49 0 99 -11 137 -40l-4 -23c-35 29 -87 41 -132 41c-112 0 -246 -67 -273 -229c-25 -152 74 -227 192 -227c53 0 111 14 158 40l-3 -25c-49 -26 -105 -37 -158 -37c-127 0 -239 80 -213 252z" />
    <glyph glyph-name="cacute" unicode="&#x107;" horiz-adv-x="493" 
d="M41 242c27 176 177 248 296 248c49 0 99 -11 137 -40l-4 -23c-35 29 -87 41 -132 41c-112 0 -246 -67 -273 -229c-25 -152 74 -227 192 -227c53 0 111 14 158 40l-3 -25c-49 -26 -105 -37 -158 -37c-127 0 -239 80 -213 252zM335 558h-27l108 133h30z" />
    <glyph glyph-name="ccaron" unicode="&#x10d;" horiz-adv-x="493" 
d="M41 242c27 176 177 248 296 248c49 0 99 -11 137 -40l-4 -23c-35 29 -87 41 -132 41c-112 0 -246 -67 -273 -229c-25 -152 74 -227 192 -227c53 0 111 14 158 40l-3 -25c-49 -26 -105 -37 -158 -37c-127 0 -239 80 -213 252zM494 673l-147 -125h-20l-107 125h27l92 -106
l124 106h31z" />
    <glyph glyph-name="ccedilla" unicode="&#xe7;" horiz-adv-x="493" 
d="M469 427c-35 29 -86 41 -131 41c-113 0 -247 -67 -273 -229c-25 -152 73 -227 191 -227c53 0 112 14 159 40l-4 -25c-47 -26 -100 -37 -152 -37l-34 -85c57 14 121 -6 113 -62c-6 -43 -46 -73 -119 -73c-45 0 -77 10 -101 22l4 21c26 -14 57 -22 95 -22c66 0 96 24 99 55
c7 45 -58 58 -120 39l42 105c-120 6 -222 86 -197 252c27 176 177 248 296 248c49 0 98 -11 137 -40z" />
    <glyph glyph-name="cdotaccent" unicode="&#x10b;" horiz-adv-x="493" 
d="M41 242c27 176 177 248 296 248c49 0 99 -11 137 -40l-4 -23c-35 29 -87 41 -132 41c-112 0 -246 -67 -273 -229c-25 -152 74 -227 192 -227c53 0 111 14 158 40l-3 -25c-49 -26 -105 -37 -158 -37c-127 0 -239 80 -213 252zM371 596c-3 -16 -17 -26 -31 -26
c-16 0 -28 11 -25 29c3 15 16 26 30 26c17 0 29 -12 26 -29z" />
    <glyph glyph-name="d" unicode="d" horiz-adv-x="613" 
d="M571 700h24l-111 -700h-22l20 126c-50 -78 -139 -136 -240 -136c-132 0 -225 101 -200 256c24 152 140 244 275 244c101 0 174 -59 199 -139zM509 313c-16 86 -87 155 -190 155c-124 0 -232 -81 -254 -225c-23 -141 60 -231 178 -231c106 0 199 70 243 156z" />
    <glyph glyph-name="eth" unicode="&#xf0;" horiz-adv-x="595" 
d="M532 264c-27 -167 -141 -274 -288 -274c-136 0 -229 91 -206 236c21 132 142 223 266 223c103 0 203 -61 204 -189c2 8 3 17 4 26c31 216 -71 317 -181 361l-139 -120l-13 15l130 111c-48 18 -103 24 -148 24l4 23c46 0 105 -7 164 -29l98 85l13 -15l-92 -79
c117 -49 222 -162 184 -398zM62 222c-20 -128 60 -209 182 -209c118 0 209 74 248 188c21 153 -78 225 -185 225c-117 0 -226 -82 -245 -204z" />
    <glyph glyph-name="dcaron" unicode="&#x10f;" horiz-adv-x="613" 
d="M680 700h23l-46 -156h-20zM571 700h24l-111 -700h-22l20 126c-50 -78 -139 -136 -240 -136c-132 0 -225 101 -200 256c24 152 140 244 275 244c101 0 174 -59 199 -139zM509 313c-16 86 -87 155 -190 155c-124 0 -232 -81 -254 -225c-23 -141 60 -231 178 -231
c106 0 199 70 243 156z" />
    <glyph glyph-name="dcroat" unicode="&#x111;" horiz-adv-x="613" 
d="M580 611h93l-3 -20h-92l-94 -591h-22l20 126c-50 -78 -139 -136 -240 -136c-132 0 -225 101 -200 256c24 152 140 244 275 244c101 0 174 -59 199 -139l38 240h-187l2 20h188l14 89h24zM243 12c106 0 199 70 243 156l23 145c-16 86 -87 155 -190 155
c-124 0 -232 -81 -254 -225c-23 -141 60 -231 178 -231z" />
    <glyph glyph-name="e" unicode="e" horiz-adv-x="542" 
d="M41 241c25 160 147 249 268 249c172 0 214 -152 177 -265h-423c-20 -151 92 -213 204 -213c57 0 118 15 164 39l-5 -25c-44 -24 -104 -36 -161 -36c-126 0 -253 74 -224 251zM468 247c26 94 -9 221 -158 221c-111 0 -218 -78 -244 -221h402z" />
    <glyph glyph-name="eacute" unicode="&#xe9;" horiz-adv-x="542" 
d="M41 241c25 160 147 249 268 249c172 0 214 -152 177 -265h-423c-20 -151 92 -213 204 -213c57 0 118 15 164 39l-5 -25c-44 -24 -104 -36 -161 -36c-126 0 -253 74 -224 251zM468 247c26 94 -9 221 -158 221c-111 0 -218 -78 -244 -221h402zM322 558h-27l108 133h30z" />
    <glyph glyph-name="ecaron" unicode="&#x11b;" horiz-adv-x="542" 
d="M41 241c25 160 147 249 268 249c172 0 214 -152 177 -265h-423c-20 -151 92 -213 204 -213c57 0 118 15 164 39l-5 -25c-44 -24 -104 -36 -161 -36c-126 0 -253 74 -224 251zM468 247c26 94 -9 221 -158 221c-111 0 -218 -78 -244 -221h402zM481 673l-147 -125h-20
l-107 125h27l92 -106l124 106h31z" />
    <glyph glyph-name="ecircumflex" unicode="&#xea;" horiz-adv-x="542" 
d="M41 241c25 160 147 249 268 249c172 0 214 -152 177 -265h-423c-20 -151 92 -213 204 -213c57 0 118 15 164 39l-5 -25c-44 -24 -104 -36 -161 -36c-126 0 -253 74 -224 251zM468 247c26 94 -9 221 -158 221c-111 0 -218 -78 -244 -221h402zM334 683h21l107 -125h-27
l-91 106l-125 -106h-30z" />
    <glyph glyph-name="edieresis" unicode="&#xeb;" horiz-adv-x="542" 
d="M41 241c25 160 147 249 268 249c172 0 214 -152 177 -265h-423c-20 -151 92 -213 204 -213c57 0 118 15 164 39l-5 -25c-44 -24 -104 -36 -161 -36c-126 0 -253 74 -224 251zM468 247c26 94 -9 221 -158 221c-111 0 -218 -78 -244 -221h402zM456 614
c-2 -12 -13 -22 -25 -22c-14 0 -23 12 -20 25c1 11 13 21 24 21c15 0 23 -11 21 -24zM256 614c-2 -12 -13 -22 -25 -22c-14 0 -23 12 -20 25c1 11 13 21 24 21c15 0 23 -11 21 -24z" />
    <glyph glyph-name="edotaccent" unicode="&#x117;" horiz-adv-x="542" 
d="M41 241c25 160 147 249 268 249c172 0 214 -152 177 -265h-423c-20 -151 92 -213 204 -213c57 0 118 15 164 39l-5 -25c-44 -24 -104 -36 -161 -36c-126 0 -253 74 -224 251zM468 247c26 94 -9 221 -158 221c-111 0 -218 -78 -244 -221h402zM358 596
c-3 -16 -17 -26 -31 -26c-16 0 -28 11 -25 29c3 15 16 26 30 26c17 0 29 -12 26 -29z" />
    <glyph glyph-name="egrave" unicode="&#xe8;" horiz-adv-x="542" 
d="M41 241c25 160 147 249 268 249c172 0 214 -152 177 -265h-423c-20 -151 92 -213 204 -213c57 0 118 15 164 39l-5 -25c-44 -24 -104 -36 -161 -36c-126 0 -253 74 -224 251zM468 247c26 94 -9 221 -158 221c-111 0 -218 -78 -244 -221h402zM354 558h-26l-70 133h28z" />
    <glyph glyph-name="emacron" unicode="&#x113;" horiz-adv-x="542" 
d="M41 241c25 160 147 249 268 249c172 0 214 -152 177 -265h-423c-20 -151 92 -213 204 -213c57 0 118 15 164 39l-5 -25c-44 -24 -104 -36 -161 -36c-126 0 -253 74 -224 251zM468 247c26 94 -9 221 -158 221c-111 0 -218 -78 -244 -221h402zM210 614h252l-3 -23h-252z
" />
    <glyph glyph-name="eogonek" unicode="&#x119;" horiz-adv-x="542" 
d="M377 -211c-24 -13 -51 -19 -78 -19c-56 -1 -84 31 -76 79c7 51 65 105 141 155c-28 -9 -65 -14 -99 -14c-126 0 -253 74 -224 251c25 160 147 249 268 249c172 0 214 -152 177 -265h-423c-20 -151 92 -213 204 -213c57 0 118 15 164 39l-5 -25
c-106 -70 -172 -124 -180 -177c-5 -35 14 -59 56 -58c27 0 52 7 78 20zM310 468c-111 0 -218 -78 -244 -221h402c26 94 -9 221 -158 221z" />
    <glyph glyph-name="f" unicode="f" horiz-adv-x="350" 
d="M151 565c17 108 91 145 175 145c45 0 81 -9 110 -23l-4 -23c-26 15 -64 24 -104 24c-77 0 -139 -33 -154 -124l-13 -84h213l-3 -23h-213l-73 -457h-24l73 457h-82l3 23h82z" />
    <glyph glyph-name="g" unicode="g" horiz-adv-x="613" 
d="M483 -1c-27 -169 -157 -229 -284 -229c-68 0 -129 16 -176 46l4 24c47 -31 105 -48 170 -48c119 0 238 55 262 209l20 122c-49 -75 -138 -133 -238 -133c-137 0 -225 101 -200 256c24 152 141 244 276 244c101 0 172 -59 199 -141l20 131h23zM64 243
c-23 -141 55 -231 178 -231c106 0 199 69 243 154l23 147c-16 86 -87 155 -190 155c-122 0 -232 -81 -254 -225z" />
    <glyph glyph-name="gbreve" unicode="&#x11f;" horiz-adv-x="613" 
d="M483 -1c-27 -169 -157 -229 -284 -229c-68 0 -129 16 -176 46l4 24c47 -31 105 -48 170 -48c119 0 238 55 262 209l20 122c-49 -75 -138 -133 -238 -133c-137 0 -225 101 -200 256c24 152 141 244 276 244c101 0 172 -59 199 -141l20 131h23zM64 243
c-23 -141 55 -231 178 -231c106 0 199 69 243 154l23 147c-16 86 -87 155 -190 155c-122 0 -232 -81 -254 -225zM466 604c-41 -30 -80 -41 -127 -41c-48 0 -90 11 -121 41l4 26c34 -33 71 -44 117 -44c45 0 87 11 131 44z" />
    <glyph glyph-name="gcommaaccent" unicode="&#x123;" horiz-adv-x="613" 
d="M330 550h-26l48 152h21zM483 -1c-27 -169 -157 -229 -284 -229c-68 0 -129 16 -176 46l4 24c47 -31 105 -48 170 -48c119 0 238 55 262 209l20 122c-49 -75 -138 -133 -238 -133c-137 0 -225 101 -200 256c24 152 141 244 276 244c101 0 172 -59 199 -141l20 131h23z
M64 243c-23 -141 55 -231 178 -231c106 0 199 69 243 154l23 147c-16 86 -87 155 -190 155c-122 0 -232 -81 -254 -225z" />
    <glyph glyph-name="gdotaccent" unicode="&#x121;" horiz-adv-x="613" 
d="M483 -1c-27 -169 -157 -229 -284 -229c-68 0 -129 16 -176 46l4 24c47 -31 105 -48 170 -48c119 0 238 55 262 209l20 122c-49 -75 -138 -133 -238 -133c-137 0 -225 101 -200 256c24 152 141 244 276 244c101 0 172 -59 199 -141l20 131h23zM64 243
c-23 -141 55 -231 178 -231c106 0 199 69 243 154l23 147c-16 86 -87 155 -190 155c-122 0 -232 -81 -254 -225zM370 596c-3 -16 -17 -26 -31 -26c-16 0 -28 11 -25 29c3 15 16 26 30 26c17 0 29 -12 26 -29z" />
    <glyph glyph-name="h" unicode="h" horiz-adv-x="574" 
d="M149 700h24l-52 -327c42 50 121 117 221 117c104 0 175 -73 156 -195l-47 -295h-24l47 294c18 112 -44 174 -136 174c-98 0 -181 -70 -223 -130l-53 -338h-24z" />
    <glyph glyph-name="hbar" unicode="&#x127;" horiz-adv-x="574" 
d="M121 373c42 50 121 117 221 117c104 0 175 -73 156 -195l-47 -295h-24l47 294c18 112 -44 174 -136 174c-98 0 -181 -70 -223 -130l-53 -338h-24l94 591h-59l2 20h59l15 89h24l-15 -89h221l-3 -20h-220z" />
    <glyph glyph-name="i" unicode="i" horiz-adv-x="200" 
d="M66 0h-24l76 480h24zM171 614c-2 -12 -12 -18 -22 -18c-11 0 -20 7 -18 21c2 12 12 18 22 18c11 0 20 -7 18 -21z" />
    <glyph glyph-name="dotlessi" unicode="&#x131;" horiz-adv-x="200" 
d="M66 0h-24l76 480h24z" />
    <glyph glyph-name="iacute" unicode="&#xed;" horiz-adv-x="200" 
d="M66 0h-24l76 480h24zM139 558h-27l108 133h30z" />
    <glyph glyph-name="icircumflex" unicode="&#xee;" horiz-adv-x="200" 
d="M66 0h-24l76 480h24zM48 558h-30l133 125h21l95 -125h-27l-79 106z" />
    <glyph glyph-name="idieresis" unicode="&#xef;" horiz-adv-x="200" 
d="M66 0h-24l76 480h24zM100 614c-2 -11 -12 -21 -24 -21c-13 0 -22 11 -19 24c1 11 12 20 23 20c14 0 22 -10 20 -23zM244 614c-2 -11 -12 -21 -24 -21c-13 0 -22 11 -19 24c1 11 12 20 23 20c14 0 22 -10 20 -23z" />
    <glyph glyph-name="i.loclTRK" horiz-adv-x="200" 
d="M66 0h-24l76 480h24zM175 596c-3 -16 -17 -26 -31 -26c-16 0 -28 11 -25 29c3 15 16 26 30 26c17 0 29 -12 26 -29z" />
    <glyph glyph-name="igrave" unicode="&#xec;" horiz-adv-x="200" 
d="M160 558h-24l-49 133h28zM66 0h-24l76 480h24z" />
    <glyph glyph-name="ij" unicode="&#x133;" horiz-adv-x="399" 
d="M66 0h-24l76 480h24zM171 614c-2 -12 -12 -18 -22 -18c-11 0 -20 7 -18 21c2 12 12 18 22 18c11 0 20 -7 18 -21zM247 -117c-14 -87 -69 -113 -133 -113c-27 0 -49 4 -69 12l4 22c18 -8 40 -12 62 -12c57 0 101 22 113 95l93 593h24zM371 614c-2 -12 -12 -18 -22 -18
c-11 0 -20 7 -18 21c2 12 12 18 22 18c11 0 20 -7 18 -21z" />
    <glyph glyph-name="imacron" unicode="&#x12b;" horiz-adv-x="200" 
d="M258 593h-220l3 23h220zM66 0h-24l76 480h24z" />
    <glyph glyph-name="iogonek" unicode="&#x12f;" horiz-adv-x="199" 
d="M132 617c2 12 12 18 22 18c11 0 20 -7 18 -21c-2 -12 -12 -18 -22 -18c-11 0 -20 7 -18 21zM142 480l-76 -480c-33 -36 -83 -96 -92 -150c-5 -36 15 -59 57 -59c26 0 50 6 77 19l-3 -22c-24 -12 -50 -18 -77 -18c-56 0 -84 33 -76 80c8 52 53 109 91 155l75 475h24z" />
    <glyph glyph-name="j" unicode="j" horiz-adv-x="199" 
d="M47 -117c-14 -87 -69 -113 -133 -113c-27 0 -49 4 -69 12l4 22c18 -8 40 -12 62 -12c57 0 101 22 113 95l93 593h24zM171 614c-2 -12 -12 -18 -22 -18c-11 0 -20 7 -18 21c2 12 12 18 22 18c11 0 20 -7 18 -21z" />
    <glyph glyph-name="k" unicode="k" horiz-adv-x="489" 
d="M459 480h29l-237 -233l188 -247h-28l-181 239h-130l-38 -239h-24l111 700h24l-70 -438h133z" />
    <glyph glyph-name="kcommaaccent" unicode="&#x137;" horiz-adv-x="489" 
d="M459 480h29l-237 -233l188 -247h-28l-181 239h-130l-38 -239h-24l111 700h24l-70 -438h133zM184 -214h-22l47 166h24z" />
    <glyph glyph-name="l" unicode="l" horiz-adv-x="199" 
d="M157 730h24l-116 -730h-24z" />
    <glyph glyph-name="lacute" unicode="&#x13a;" horiz-adv-x="199" 
d="M157 730h24l-116 -730h-24zM185 786h-27l108 133h30z" />
    <glyph glyph-name="lcaron" unicode="&#x13e;" horiz-adv-x="200" 
d="M266 730h23l-46 -156h-20zM158 730h24l-116 -730h-24z" />
    <glyph glyph-name="lcommaaccent" unicode="&#x13c;" horiz-adv-x="199" 
d="M157 730h24l-116 -730h-24zM2 -214h-22l47 166h24z" />
    <glyph glyph-name="ldot" unicode="&#x140;" horiz-adv-x="243" 
d="M157 730h24l-116 -730h-24zM252 348c-2 -12 -13 -20 -24 -20c-13 0 -23 9 -21 24c2 12 13 20 24 20c14 0 23 -9 21 -24z" />
    <glyph glyph-name="lslash" unicode="&#x142;" horiz-adv-x="221" 
d="M168 730h24l-55 -341l96 39l-4 -22l-95 -39l-58 -367h-24l57 357l-95 -39l3 22l96 39z" />
    <glyph glyph-name="m" unicode="m" horiz-adv-x="894" 
d="M469 380c42 49 118 110 207 110c101 0 160 -75 143 -178l-49 -312h-24l50 312c14 89 -32 156 -122 156c-88 0 -160 -62 -201 -114c0 -13 -1 -27 -3 -42l-49 -312h-24l50 312c14 89 -32 156 -122 156c-92 0 -168 -70 -208 -123l-55 -345h-24l76 480h22l-16 -104
c39 49 117 114 207 114c77 0 130 -43 142 -110z" />
    <glyph glyph-name="n" unicode="n" horiz-adv-x="574" 
d="M119 371c42 51 122 119 224 119c103 0 174 -73 155 -195l-47 -295h-24l47 294c18 112 -44 174 -136 174c-98 0 -181 -70 -223 -130l-53 -338h-24l76 480h22z" />
    <glyph glyph-name="nacute" unicode="&#x144;" horiz-adv-x="574" 
d="M119 371c42 51 122 119 224 119c103 0 174 -73 155 -195l-47 -295h-24l47 294c18 112 -44 174 -136 174c-98 0 -181 -70 -223 -130l-53 -338h-24l76 480h22zM321 558h-27l108 133h30z" />
    <glyph glyph-name="ncaron" unicode="&#x148;" horiz-adv-x="574" 
d="M119 371c42 51 122 119 224 119c103 0 174 -73 155 -195l-47 -295h-24l47 294c18 112 -44 174 -136 174c-98 0 -181 -70 -223 -130l-53 -338h-24l76 480h22zM480 673l-147 -125h-20l-107 125h27l92 -106l124 106h31z" />
    <glyph glyph-name="ncommaaccent" unicode="&#x146;" horiz-adv-x="574" 
d="M119 371c42 51 122 119 224 119c103 0 174 -73 155 -195l-47 -295h-24l47 294c18 112 -44 174 -136 174c-98 0 -181 -70 -223 -130l-53 -338h-24l76 480h22zM206 -214h-22l47 166h24z" />
    <glyph glyph-name="eng" unicode="&#x14b;" horiz-adv-x="575" 
d="M433 -117c-14 -88 -73 -113 -133 -113c-27 0 -50 4 -69 11l4 23c18 -8 40 -12 63 -12c54 0 100 23 111 95l65 407c18 112 -44 174 -136 174c-98 0 -181 -70 -223 -130l-53 -338h-24l76 480h22l-17 -109c42 51 122 119 224 119c103 0 174 -73 155 -195z" />
    <glyph glyph-name="ntilde" unicode="&#xf1;" horiz-adv-x="574" 
d="M119 371c42 51 122 119 224 119c103 0 174 -73 155 -195l-47 -295h-24l47 294c18 112 -44 174 -136 174c-98 0 -181 -70 -223 -130l-53 -338h-24l76 480h22zM478 641c-1 -43 -27 -72 -67 -72c-55 0 -112 56 -159 56c-29 0 -48 -20 -48 -51h-22c0 43 30 73 67 73
c54 0 113 -56 160 -56c31 0 46 19 47 50h22z" />
    <glyph glyph-name="o" unicode="o" horiz-adv-x="592" 
d="M535 234c-25 -159 -157 -244 -285 -244c-124 0 -234 95 -209 256c25 159 158 244 286 244c124 0 234 -95 208 -256zM65 242c-23 -143 72 -229 185 -229c120 0 239 79 261 225c23 143 -72 229 -185 229c-120 0 -239 -79 -261 -225z" />
    <glyph glyph-name="oacute" unicode="&#xf3;" horiz-adv-x="592" 
d="M535 234c-25 -159 -157 -244 -285 -244c-124 0 -234 95 -209 256c25 159 158 244 286 244c124 0 234 -95 208 -256zM65 242c-23 -143 72 -229 185 -229c120 0 239 79 261 225c23 143 -72 229 -185 229c-120 0 -239 -79 -261 -225zM335 550h-27l108 133h30z" />
    <glyph glyph-name="ocircumflex" unicode="&#xf4;" horiz-adv-x="592" 
d="M535 234c-25 -159 -157 -244 -285 -244c-124 0 -234 95 -209 256c25 159 158 244 286 244c124 0 234 -95 208 -256zM65 242c-23 -143 72 -229 185 -229c120 0 239 79 261 225c23 143 -72 229 -185 229c-120 0 -239 -79 -261 -225zM347 675h21l107 -125h-27l-91 106
l-125 -106h-30z" />
    <glyph glyph-name="odieresis" unicode="&#xf6;" horiz-adv-x="592" 
d="M535 234c-25 -159 -157 -244 -285 -244c-124 0 -234 95 -209 256c25 159 158 244 286 244c124 0 234 -95 208 -256zM65 242c-23 -143 72 -229 185 -229c120 0 239 79 261 225c23 143 -72 229 -185 229c-120 0 -239 -79 -261 -225zM469 606c-2 -12 -13 -22 -25 -22
c-14 0 -23 12 -20 25c1 11 13 21 24 21c15 0 23 -11 21 -24zM269 606c-2 -12 -13 -22 -25 -22c-14 0 -23 12 -20 25c1 11 13 21 24 21c15 0 23 -11 21 -24z" />
    <glyph glyph-name="ograve" unicode="&#xf2;" horiz-adv-x="592" 
d="M535 234c-25 -159 -157 -244 -285 -244c-124 0 -234 95 -209 256c25 159 158 244 286 244c124 0 234 -95 208 -256zM65 242c-23 -143 72 -229 185 -229c120 0 239 79 261 225c23 143 -72 229 -185 229c-120 0 -239 -79 -261 -225zM367 550h-26l-70 133h28z" />
    <glyph glyph-name="ohungarumlaut" unicode="&#x151;" horiz-adv-x="592" 
d="M535 234c-25 -159 -157 -244 -285 -244c-124 0 -234 95 -209 256c25 159 158 244 286 244c124 0 234 -95 208 -256zM65 242c-23 -143 72 -229 185 -229c120 0 239 79 261 225c23 143 -72 229 -185 229c-120 0 -239 -79 -261 -225zM427 550h-27l98 142h28zM275 550h-27
l98 142h28z" />
    <glyph glyph-name="omacron" unicode="&#x14d;" horiz-adv-x="592" 
d="M535 234c-25 -159 -157 -244 -285 -244c-124 0 -234 95 -209 256c25 159 158 244 286 244c124 0 234 -95 208 -256zM65 242c-23 -143 72 -229 185 -229c120 0 239 79 261 225c23 143 -72 229 -185 229c-120 0 -239 -79 -261 -225zM223 606h252l-3 -23h-252z" />
    <glyph glyph-name="oslash" unicode="&#xf8;" horiz-adv-x="593" 
d="M539 543l-77 -97c55 -43 89 -116 74 -212c-25 -159 -157 -244 -285 -244c-45 0 -88 13 -124 36l-66 -84h-23l75 95c-54 43 -86 114 -71 209c25 159 158 244 286 244c43 0 85 -11 120 -34l68 87h23zM326 467c-120 0 -238 -79 -261 -225c-13 -84 14 -148 62 -187l304 383
c-30 19 -67 29 -105 29zM251 13c120 0 238 79 261 225c14 86 -15 152 -65 189l-305 -383c31 -20 69 -31 109 -31z" />
    <glyph glyph-name="otilde" unicode="&#xf5;" horiz-adv-x="592" 
d="M535 234c-25 -159 -157 -244 -285 -244c-124 0 -234 95 -209 256c25 159 158 244 286 244c124 0 234 -95 208 -256zM65 242c-23 -143 72 -229 185 -229c120 0 239 79 261 225c23 143 -72 229 -185 229c-120 0 -239 -79 -261 -225zM492 633c-1 -43 -27 -72 -67 -72
c-55 0 -112 56 -159 56c-29 0 -48 -20 -48 -51h-22c0 43 30 73 67 73c54 0 113 -56 160 -56c31 0 46 19 47 50h22z" />
    <glyph glyph-name="oe" unicode="&#x153;" horiz-adv-x="992" 
d="M503 168c-46 -116 -142 -178 -258 -178c-119 0 -229 95 -204 257c25 158 158 243 280 243c103 0 191 -66 203 -182c41 118 139 182 238 182c172 0 210 -152 173 -269h-411c-20 -147 92 -209 196 -209c57 0 114 15 160 39l-5 -25c-43 -23 -103 -36 -158 -36
c-99 0 -204 53 -214 178zM65 243c-23 -143 72 -230 180 -230c128 0 233 80 256 226c23 143 -67 228 -181 228s-233 -78 -255 -224zM763 468c-107 0 -210 -78 -236 -225h390c26 99 -5 225 -154 225z" />
    <glyph glyph-name="p" unicode="p" horiz-adv-x="613" 
d="M116 353c52 79 141 137 240 137c131 0 225 -101 200 -256c-24 -152 -140 -244 -276 -244c-102 0 -172 59 -198 139l-55 -349h-24l111 700h22zM532 237c23 141 -61 231 -179 231c-102 0 -198 -70 -242 -156l-23 -145c17 -86 87 -155 190 -155c124 0 231 81 254 225z" />
    <glyph glyph-name="thorn" unicode="&#xfe;" horiz-adv-x="613" 
d="M27 -220h-24l146 920h24l-55 -345c51 77 139 135 238 135c131 0 225 -101 200 -256c-24 -152 -140 -244 -276 -244c-102 0 -172 59 -198 139zM88 167c17 -86 87 -155 190 -155c124 0 231 81 254 225c23 141 -61 231 -179 231c-102 0 -198 -70 -242 -156z" />
    <glyph glyph-name="q" unicode="q" horiz-adv-x="613" 
d="M42 246c24 152 144 244 276 244c97 0 173 -60 199 -138l20 128h23l-111 -700h-24l54 342c-48 -74 -136 -132 -237 -132c-136 0 -225 101 -200 256zM509 314c-16 85 -91 154 -190 154c-120 0 -232 -82 -254 -225c-23 -141 57 -231 178 -231c106 0 199 70 242 152z" />
    <glyph glyph-name="r" unicode="r" horiz-adv-x="338" 
d="M113 333c43 83 128 159 244 157l-4 -24c-118 3 -210 -90 -246 -180l-45 -286h-24l76 480h22z" />
    <glyph glyph-name="racute" unicode="&#x155;" horiz-adv-x="338" 
d="M113 333c43 83 128 159 244 157l-4 -24c-118 3 -210 -90 -246 -180l-45 -286h-24l76 480h22zM241 558h-27l108 133h30z" />
    <glyph glyph-name="rcaron" unicode="&#x159;" horiz-adv-x="338" 
d="M113 333c43 83 128 159 244 157l-4 -24c-118 3 -210 -90 -246 -180l-45 -286h-24l76 480h22zM400 673l-147 -125h-20l-107 125h27l92 -106l124 106h31z" />
    <glyph glyph-name="rcommaaccent" unicode="&#x157;" horiz-adv-x="338" 
d="M113 333c43 83 128 159 244 157l-4 -24c-118 3 -210 -90 -246 -180l-45 -286h-24l76 480h22zM6 -214h-22l47 166h24z" />
    <glyph glyph-name="s" unicode="s" horiz-adv-x="455" 
d="M61 371c14 86 107 119 191 119c61 0 120 -17 157 -42l-3 -22c-36 25 -96 42 -154 42c-75 0 -156 -29 -167 -100c-24 -157 330 -79 302 -257c-13 -86 -104 -121 -196 -121c-66 0 -138 20 -177 49l4 23c42 -30 111 -50 172 -50c84 0 162 30 173 101
c25 155 -329 77 -302 258z" />
    <glyph glyph-name="sacute" unicode="&#x15b;" horiz-adv-x="455" 
d="M61 371c14 86 107 119 191 119c61 0 120 -17 157 -42l-3 -22c-36 25 -96 42 -154 42c-75 0 -156 -29 -167 -100c-24 -157 330 -79 302 -257c-13 -86 -104 -121 -196 -121c-66 0 -138 20 -177 49l4 23c42 -30 111 -50 172 -50c84 0 162 30 173 101
c25 155 -329 77 -302 258zM258 558h-27l108 133h30z" />
    <glyph glyph-name="scaron" unicode="&#x161;" horiz-adv-x="455" 
d="M61 371c14 86 107 119 191 119c61 0 120 -17 157 -42l-3 -22c-36 25 -96 42 -154 42c-75 0 -156 -29 -167 -100c-24 -157 330 -79 302 -257c-13 -86 -104 -121 -196 -121c-66 0 -138 20 -177 49l4 23c42 -30 111 -50 172 -50c84 0 162 30 173 101
c25 155 -329 77 -302 258zM417 673l-147 -125h-20l-107 125h27l92 -106l124 106h31z" />
    <glyph glyph-name="scedilla" unicode="&#x15f;" horiz-adv-x="455" 
d="M280 -157c-6 -43 -46 -73 -119 -73c-45 0 -77 10 -101 22l4 21c26 -14 57 -22 95 -22c66 0 95 24 99 55c7 45 -58 58 -120 39l41 105c-62 2 -128 21 -165 49l4 23c42 -30 111 -50 172 -50c84 0 162 30 173 101c25 155 -329 77 -302 258c14 86 107 119 191 119
c61 0 120 -17 157 -42l-3 -22c-36 25 -96 42 -154 42c-75 0 -156 -29 -167 -100c-24 -157 330 -79 302 -257c-13 -83 -97 -119 -186 -121l-35 -85c57 14 121 -6 114 -62z" />
    <glyph glyph-name="scommaaccent" unicode="&#x219;" horiz-adv-x="455" 
d="M61 371c14 86 107 119 191 119c61 0 120 -17 157 -42l-3 -22c-36 25 -96 42 -154 42c-75 0 -156 -29 -167 -100c-24 -157 330 -79 302 -257c-13 -86 -104 -121 -196 -121c-66 0 -138 20 -177 49l4 23c42 -30 111 -50 172 -50c84 0 162 30 173 101
c25 155 -329 77 -302 258zM168 -214h-22l47 166h24z" />
    <glyph glyph-name="germandbls" unicode="&#xdf;" horiz-adv-x="588" 
d="M527 148c-18 -110 -125 -158 -226 -158c-42 0 -91 9 -128 32l3 22c38 -24 84 -32 122 -32c95 0 189 42 205 141c19 116 -131 171 -120 244c11 66 94 86 107 171c9 58 -42 120 -136 120c-109 0 -194 -69 -212 -182l-80 -506h-24l80 505c21 130 116 205 236 205
c110 1 171 -75 160 -144c-14 -88 -97 -108 -107 -169c-10 -67 140 -122 120 -249z" />
    <glyph glyph-name="t" unicode="t" horiz-adv-x="356" 
d="M154 637l25 9l-26 -166h215l-4 -23h-214l-52 -324c-13 -80 25 -121 101 -121c42 0 79 10 108 25l-3 -23c-28 -16 -67 -24 -109 -24c-85 0 -136 49 -121 142l52 325h-90l3 23h90z" />
    <glyph glyph-name="tbar" unicode="&#x167;" horiz-adv-x="356" 
d="M369 480l-4 -23h-214l-24 -149h167l-3 -22h-168l-24 -153c-13 -80 25 -121 101 -121c42 0 79 10 108 25l-3 -23c-28 -16 -67 -24 -109 -24c-85 0 -136 49 -121 142l24 154h-57l4 22h57l24 149h-90l3 23h90l25 157l25 9l-26 -166h215z" />
    <glyph glyph-name="tcaron" unicode="&#x165;" horiz-adv-x="356" 
d="M307 715h23l-46 -154h-20zM154 637l25 9l-26 -166h215l-4 -23h-214l-52 -324c-13 -80 25 -121 101 -121c42 0 79 10 108 25l-3 -23c-28 -16 -67 -24 -109 -24c-85 0 -136 49 -121 142l52 325h-90l3 23h90z" />
    <glyph glyph-name="tcommaaccent" unicode="&#x163;" horiz-adv-x="356" 
d="M154 637l25 9l-26 -166h215l-4 -23h-214l-52 -324c-13 -80 25 -121 101 -121c42 0 79 10 108 25l-3 -23c-28 -16 -67 -24 -109 -24c-85 0 -136 49 -121 142l52 325h-90l3 23h90zM154 -214h-22l47 166h24z" />
    <glyph glyph-name="uni021B" unicode="&#x21b;" horiz-adv-x="356" 
d="M154 637l25 9l-26 -166h215l-4 -23h-214l-52 -324c-13 -80 25 -121 101 -121c42 0 79 10 108 25l-3 -23c-28 -16 -67 -24 -109 -24c-85 0 -136 49 -121 142l52 325h-90l3 23h90zM154 -214h-22l47 166h24z" />
    <glyph glyph-name="u" unicode="u" horiz-adv-x="575" 
d="M497 480h24l-76 -480h-22l17 109c-40 -52 -123 -119 -221 -119c-105 0 -177 73 -158 196l47 294h24l-47 -294c-17 -112 43 -174 135 -174c100 0 182 70 223 131z" />
    <glyph glyph-name="uacute" unicode="&#xfa;" horiz-adv-x="575" 
d="M497 480h24l-76 -480h-22l17 109c-40 -52 -123 -119 -221 -119c-105 0 -177 73 -158 196l47 294h24l-47 -294c-17 -112 43 -174 135 -174c100 0 182 70 223 131zM320 558h-27l108 133h30z" />
    <glyph glyph-name="ucircumflex" unicode="&#xfb;" horiz-adv-x="575" 
d="M497 480h24l-76 -480h-22l17 109c-40 -52 -123 -119 -221 -119c-105 0 -177 73 -158 196l47 294h24l-47 -294c-17 -112 43 -174 135 -174c100 0 182 70 223 131zM332 683h21l107 -125h-27l-91 106l-125 -106h-30z" />
    <glyph glyph-name="udieresis" unicode="&#xfc;" horiz-adv-x="575" 
d="M497 480h24l-76 -480h-22l17 109c-40 -52 -123 -119 -221 -119c-105 0 -177 73 -158 196l47 294h24l-47 -294c-17 -112 43 -174 135 -174c100 0 182 70 223 131zM454 614c-2 -12 -13 -22 -25 -22c-14 0 -23 12 -20 25c1 11 13 21 24 21c15 0 23 -11 21 -24zM254 614
c-2 -12 -13 -22 -25 -22c-14 0 -23 12 -20 25c1 11 13 21 24 21c15 0 23 -11 21 -24z" />
    <glyph glyph-name="ugrave" unicode="&#xf9;" horiz-adv-x="575" 
d="M497 480h24l-76 -480h-22l17 109c-40 -52 -123 -119 -221 -119c-105 0 -177 73 -158 196l47 294h24l-47 -294c-17 -112 43 -174 135 -174c100 0 182 70 223 131zM352 558h-26l-70 133h28z" />
    <glyph glyph-name="uhungarumlaut" unicode="&#x171;" horiz-adv-x="575" 
d="M497 480h24l-76 -480h-22l17 109c-40 -52 -123 -119 -221 -119c-105 0 -177 73 -158 196l47 294h24l-47 -294c-17 -112 43 -174 135 -174c100 0 182 70 223 131zM412 558h-27l98 142h28zM260 558h-27l98 142h28z" />
    <glyph glyph-name="umacron" unicode="&#x16b;" horiz-adv-x="575" 
d="M497 480h24l-76 -480h-22l17 109c-40 -52 -123 -119 -221 -119c-105 0 -177 73 -158 196l47 294h24l-47 -294c-17 -112 43 -174 135 -174c100 0 182 70 223 131zM208 614h252l-3 -23h-252z" />
    <glyph glyph-name="uogonek" unicode="&#x173;" horiz-adv-x="575" 
d="M521 480l-76 -480c-66 -44 -129 -98 -138 -151c-5 -36 15 -58 49 -58c19 0 35 3 53 9l-3 -22c-17 -5 -35 -8 -54 -8c-47 0 -76 31 -68 79c8 51 60 105 140 160l16 100c-40 -52 -123 -119 -221 -119c-105 0 -177 73 -158 196l47 294h24l-47 -294
c-17 -112 43 -174 135 -174c100 0 182 70 223 131l54 337h24z" />
    <glyph glyph-name="uring" unicode="&#x16f;" horiz-adv-x="575" 
d="M497 480h24l-76 -480h-22l17 109c-40 -52 -123 -119 -221 -119c-105 0 -177 73 -158 196l47 294h24l-47 -294c-17 -112 43 -174 135 -174c100 0 182 70 223 131zM418 618c-8 -49 -52 -80 -95 -80c-45 0 -82 33 -73 84c7 48 52 80 95 80c45 0 82 -33 73 -84zM269 619
c-6 -38 22 -62 53 -62c35 0 70 23 77 63c6 38 -21 63 -53 63c-34 0 -70 -24 -77 -64z" />
    <glyph glyph-name="v" unicode="v" horiz-adv-x="520" 
d="M502 480h27l-302 -480h-26l-149 480h25l140 -453z" />
    <glyph glyph-name="w" unicode="w" horiz-adv-x="796" 
d="M774 480h26l-261 -480h-23l-92 440l-235 -440h-24l-108 480h24l101 -446l234 438h23l92 -439z" />
    <glyph glyph-name="wacute" unicode="&#x1e83;" horiz-adv-x="796" 
d="M774 480h26l-261 -480h-23l-92 440l-235 -440h-24l-108 480h24l101 -446l234 438h23l92 -439zM436 558h-27l108 133h30z" />
    <glyph glyph-name="wcircumflex" unicode="&#x175;" horiz-adv-x="796" 
d="M774 480h26l-261 -480h-23l-92 440l-235 -440h-24l-108 480h24l101 -446l234 438h23l92 -439zM448 683h21l107 -125h-27l-91 106l-125 -106h-30z" />
    <glyph glyph-name="wdieresis" unicode="&#x1e85;" horiz-adv-x="796" 
d="M774 480h26l-261 -480h-23l-92 440l-235 -440h-24l-108 480h24l101 -446l234 438h23l92 -439zM570 614c-2 -12 -13 -22 -25 -22c-14 0 -23 12 -20 25c1 11 13 21 24 21c15 0 23 -11 21 -24zM370 614c-2 -12 -13 -22 -25 -22c-14 0 -23 12 -20 25c1 11 13 21 24 21
c15 0 23 -11 21 -24z" />
    <glyph glyph-name="wgrave" unicode="&#x1e81;" horiz-adv-x="796" 
d="M774 480h26l-261 -480h-23l-92 440l-235 -440h-24l-108 480h24l101 -446l234 438h23l92 -439zM468 558h-26l-70 133h28z" />
    <glyph glyph-name="x" unicode="x" horiz-adv-x="482" 
d="M1 0h-30l249 247l-161 233h28l149 -216l220 216h30l-237 -234l170 -246h-27l-159 229z" />
    <glyph glyph-name="y" unicode="y" horiz-adv-x="530" 
d="M235 25l275 455h27l-344 -568c-65 -106 -115 -142 -177 -142c-18 0 -33 2 -49 6l3 21c16 -4 30 -5 44 -5c60 0 105 40 159 131l47 77l-173 480h25z" />
    <glyph glyph-name="yacute" unicode="&#xfd;" horiz-adv-x="530" 
d="M235 25l275 455h27l-344 -568c-65 -106 -115 -142 -177 -142c-18 0 -33 2 -49 6l3 21c16 -4 30 -5 44 -5c60 0 105 40 159 131l47 77l-173 480h25zM292 558h-27l108 133h30z" />
    <glyph glyph-name="ycircumflex" unicode="&#x177;" horiz-adv-x="530" 
d="M235 25l275 455h27l-344 -568c-65 -106 -115 -142 -177 -142c-18 0 -33 2 -49 6l3 21c16 -4 30 -5 44 -5c60 0 105 40 159 131l47 77l-173 480h25zM304 683h21l107 -125h-27l-91 106l-125 -106h-30z" />
    <glyph glyph-name="ydieresis" unicode="&#xff;" horiz-adv-x="530" 
d="M235 25l275 455h27l-344 -568c-65 -106 -115 -142 -177 -142c-18 0 -33 2 -49 6l3 21c16 -4 30 -5 44 -5c60 0 105 40 159 131l47 77l-173 480h25zM426 614c-2 -12 -13 -22 -25 -22c-14 0 -23 12 -20 25c1 11 13 21 24 21c15 0 23 -11 21 -24zM226 614
c-2 -12 -13 -22 -25 -22c-14 0 -23 12 -20 25c1 11 13 21 24 21c15 0 23 -11 21 -24z" />
    <glyph glyph-name="ygrave" unicode="&#x1ef3;" horiz-adv-x="530" 
d="M235 25l275 455h27l-344 -568c-65 -106 -115 -142 -177 -142c-18 0 -33 2 -49 6l3 21c16 -4 30 -5 44 -5c60 0 105 40 159 131l47 77l-173 480h25zM324 558h-26l-70 133h28z" />
    <glyph glyph-name="z" unicode="z" horiz-adv-x="439" 
d="M72 480h357l-4 -19l-407 -439h349l-4 -22h-381l3 19l408 439h-324z" />
    <glyph glyph-name="zacute" unicode="&#x17a;" horiz-adv-x="439" 
d="M72 480h357l-4 -19l-407 -439h349l-4 -22h-381l3 19l408 439h-324zM261 558h-27l108 133h30z" />
    <glyph glyph-name="zcaron" unicode="&#x17e;" horiz-adv-x="439" 
d="M72 480h357l-4 -19l-407 -439h349l-4 -22h-381l3 19l408 439h-324zM420 673l-147 -125h-20l-107 125h27l92 -106l124 106h31z" />
    <glyph glyph-name="zdotaccent" unicode="&#x17c;" horiz-adv-x="439" 
d="M72 480h357l-4 -19l-407 -439h349l-4 -22h-381l3 19l408 439h-324zM297 596c-3 -16 -17 -26 -31 -26c-16 0 -28 11 -25 29c3 15 16 26 30 26c17 0 29 -12 26 -29z" />
    <glyph glyph-name="a.ss01" horiz-adv-x="534" 
d="M407 69c-6 -37 16 -48 42 -48c14 0 27 2 40 7l-4 -22c-12 -4 -28 -7 -41 -7c-37 0 -69 18 -61 70l5 33c-53 -72 -145 -112 -223 -112c-91 0 -163 48 -153 143c11 110 126 145 225 145c58 0 122 -12 174 -30l9 54c16 101 -33 166 -158 166c-69 0 -123 -16 -164 -30l3 24
c39 13 93 28 163 28c137 0 198 -73 179 -192zM167 11c79 0 175 43 227 126l14 90c-49 17 -114 29 -168 29c-91 0 -195 -29 -204 -126c-7 -77 51 -119 131 -119z" />
    <glyph glyph-name="aacute.ss01" horiz-adv-x="535" 
d="M408 69c-6 -37 16 -48 42 -48c14 0 27 2 40 7l-4 -22c-12 -4 -28 -7 -41 -7c-37 0 -69 18 -61 70l5 33c-53 -72 -145 -112 -223 -112c-91 0 -163 48 -153 143c11 110 126 145 225 145c58 0 122 -12 174 -30l9 54c16 101 -33 166 -158 166c-69 0 -123 -16 -164 -30l3 24
c39 13 93 28 163 28c137 0 198 -73 179 -192zM168 11c79 0 175 43 227 126l14 90c-49 17 -114 29 -168 29c-91 0 -195 -29 -204 -126c-7 -77 51 -119 131 -119zM280 558h-27l108 133h30z" />
    <glyph glyph-name="abreve.ss01" horiz-adv-x="535" 
d="M408 69c-6 -37 16 -48 42 -48c14 0 27 2 40 7l-4 -22c-12 -4 -28 -7 -41 -7c-37 0 -69 18 -61 70l5 33c-53 -72 -145 -112 -223 -112c-91 0 -163 48 -153 143c11 110 126 145 225 145c58 0 122 -12 174 -30l9 54c16 101 -33 166 -158 166c-69 0 -123 -16 -164 -30l3 24
c39 13 93 28 163 28c137 0 198 -73 179 -192zM168 11c79 0 175 43 227 126l14 90c-49 17 -114 29 -168 29c-91 0 -195 -29 -204 -126c-7 -77 51 -119 131 -119zM412 604c-41 -30 -80 -41 -127 -41c-48 0 -90 11 -121 41l4 26c34 -33 71 -44 117 -44c45 0 87 11 131 44z" />
    <glyph glyph-name="acircumflex.ss01" horiz-adv-x="535" 
d="M408 69c-6 -37 16 -48 42 -48c14 0 27 2 40 7l-4 -22c-12 -4 -28 -7 -41 -7c-37 0 -69 18 -61 70l5 33c-53 -72 -145 -112 -223 -112c-91 0 -163 48 -153 143c11 110 126 145 225 145c58 0 122 -12 174 -30l9 54c16 101 -33 166 -158 166c-69 0 -123 -16 -164 -30l3 24
c39 13 93 28 163 28c137 0 198 -73 179 -192zM168 11c79 0 175 43 227 126l14 90c-49 17 -114 29 -168 29c-91 0 -195 -29 -204 -126c-7 -77 51 -119 131 -119zM292 683h21l107 -125h-27l-91 106l-125 -106h-30z" />
    <glyph glyph-name="adieresis.ss01" horiz-adv-x="535" 
d="M408 69c-6 -37 16 -48 42 -48c14 0 27 2 40 7l-4 -22c-12 -4 -28 -7 -41 -7c-37 0 -69 18 -61 70l5 33c-53 -72 -145 -112 -223 -112c-91 0 -163 48 -153 143c11 110 126 145 225 145c58 0 122 -12 174 -30l9 54c16 101 -33 166 -158 166c-69 0 -123 -16 -164 -30l3 24
c39 13 93 28 163 28c137 0 198 -73 179 -192zM168 11c79 0 175 43 227 126l14 90c-49 17 -114 29 -168 29c-91 0 -195 -29 -204 -126c-7 -77 51 -119 131 -119zM414 614c-2 -12 -13 -22 -25 -22c-14 0 -23 12 -20 25c1 11 13 21 24 21c15 0 23 -11 21 -24zM214 614
c-2 -12 -13 -22 -25 -22c-14 0 -23 12 -20 25c1 11 13 21 24 21c15 0 23 -11 21 -24z" />
    <glyph glyph-name="agrave.ss01" horiz-adv-x="535" 
d="M408 69c-6 -37 16 -48 42 -48c14 0 27 2 40 7l-4 -22c-12 -4 -28 -7 -41 -7c-37 0 -69 18 -61 70l5 33c-53 -72 -145 -112 -223 -112c-91 0 -163 48 -153 143c11 110 126 145 225 145c58 0 122 -12 174 -30l9 54c16 101 -33 166 -158 166c-69 0 -123 -16 -164 -30l3 24
c39 13 93 28 163 28c137 0 198 -73 179 -192zM168 11c79 0 175 43 227 126l14 90c-49 17 -114 29 -168 29c-91 0 -195 -29 -204 -126c-7 -77 51 -119 131 -119zM312 558h-26l-70 133h28z" />
    <glyph glyph-name="amacron.ss01" horiz-adv-x="535" 
d="M408 69c-6 -37 16 -48 42 -48c14 0 27 2 40 7l-4 -22c-12 -4 -28 -7 -41 -7c-37 0 -69 18 -61 70l5 33c-53 -72 -145 -112 -223 -112c-91 0 -163 48 -153 143c11 110 126 145 225 145c58 0 122 -12 174 -30l9 54c16 101 -33 166 -158 166c-69 0 -123 -16 -164 -30l3 24
c39 13 93 28 163 28c137 0 198 -73 179 -192zM168 11c79 0 175 43 227 126l14 90c-49 17 -114 29 -168 29c-91 0 -195 -29 -204 -126c-7 -77 51 -119 131 -119zM168 614h252l-3 -23h-252z" />
    <glyph glyph-name="aogonek.ss01" horiz-adv-x="535" 
d="M490 28l-4 -22c-74 -49 -136 -103 -145 -156c-5 -36 15 -59 49 -59c19 0 35 4 53 10l-3 -22c-17 -5 -35 -9 -54 -9c-47 0 -76 32 -68 80s54 98 126 149c-36 0 -68 18 -60 70l5 33c-53 -72 -145 -112 -223 -112c-91 0 -163 48 -153 143c11 110 126 145 225 145
c58 0 122 -12 174 -30l9 54c16 101 -33 166 -158 166c-69 0 -123 -16 -164 -30l3 24c39 13 93 28 163 28c137 0 198 -73 179 -192l-36 -229c-6 -37 16 -48 42 -48c14 0 27 2 40 7zM168 11c79 0 175 43 227 126l14 90c-49 17 -114 29 -168 29c-91 0 -195 -29 -204 -126
c-7 -77 51 -119 131 -119z" />
    <glyph glyph-name="aring.ss01" horiz-adv-x="535" 
d="M408 69c-6 -37 16 -48 42 -48c14 0 27 2 40 7l-4 -22c-12 -4 -28 -7 -41 -7c-37 0 -69 18 -61 70l5 33c-53 -72 -145 -112 -223 -112c-91 0 -163 48 -153 143c11 110 126 145 225 145c58 0 122 -12 174 -30l9 54c16 101 -33 166 -158 166c-69 0 -123 -16 -164 -30l3 24
c39 13 93 28 163 28c137 0 198 -73 179 -192zM168 11c79 0 175 43 227 126l14 90c-49 17 -114 29 -168 29c-91 0 -195 -29 -204 -126c-7 -77 51 -119 131 -119zM378 618c-8 -49 -52 -80 -95 -80c-45 0 -82 33 -73 84c7 48 52 80 95 80c45 0 82 -33 73 -84zM229 619
c-6 -38 22 -62 53 -62c35 0 70 23 77 63c6 38 -21 63 -53 63c-34 0 -70 -24 -77 -64z" />
    <glyph glyph-name="atilde.ss01" horiz-adv-x="535" 
d="M408 69c-6 -37 16 -48 42 -48c14 0 27 2 40 7l-4 -22c-12 -4 -28 -7 -41 -7c-37 0 -69 18 -61 70l5 33c-53 -72 -145 -112 -223 -112c-91 0 -163 48 -153 143c11 110 126 145 225 145c58 0 122 -12 174 -30l9 54c16 101 -33 166 -158 166c-69 0 -123 -16 -164 -30l3 24
c39 13 93 28 163 28c137 0 198 -73 179 -192zM168 11c79 0 175 43 227 126l14 90c-49 17 -114 29 -168 29c-91 0 -195 -29 -204 -126c-7 -77 51 -119 131 -119zM437 641c-1 -43 -27 -72 -67 -72c-55 0 -112 56 -159 56c-29 0 -48 -20 -48 -51h-22c0 43 30 73 67 73
c54 0 113 -56 160 -56c31 0 46 19 47 50h22z" />
    <glyph glyph-name="ae.ss01" horiz-adv-x="899" 
d="M423 114c-72 -82 -155 -124 -255 -124c-84 0 -168 53 -154 148c16 110 126 140 227 140c56 0 121 -12 173 -31l9 55c16 98 -36 166 -149 166c-71 0 -133 -16 -174 -30l4 24c38 13 100 28 172 28c111 0 173 -63 169 -159c42 102 130 159 233 159c155 0 203 -145 163 -269
h-407c-18 -151 89 -209 196 -209c56 0 114 14 156 38l-5 -26c-40 -21 -101 -34 -154 -34c-86 0 -170 36 -204 124zM38 135c-12 -78 62 -124 132 -124c95 0 171 39 245 123c-7 27 -8 58 -4 93c-49 17 -115 29 -167 29c-91 0 -192 -24 -206 -121zM675 468
c-116 0 -212 -78 -238 -225h386c28 105 -13 225 -148 225z" />
    <glyph glyph-name="y.ss01" horiz-adv-x="575" 
d="M444 -9c-26 -164 -147 -221 -265 -221c-65 0 -127 16 -158 36l4 24c33 -22 91 -38 152 -38c111 0 220 52 243 201l18 116c-40 -52 -118 -119 -219 -119c-106 0 -177 73 -158 195l47 295h24l-47 -294c-17 -113 42 -174 136 -174c98 0 181 70 223 131l53 337h24z" />
    <glyph glyph-name="yacute.ss01" horiz-adv-x="575" 
d="M444 -9c-26 -164 -147 -221 -265 -221c-65 0 -127 16 -158 36l4 24c33 -22 91 -38 152 -38c111 0 220 52 243 201l18 116c-40 -52 -118 -119 -219 -119c-106 0 -177 73 -158 195l47 295h24l-47 -294c-17 -113 42 -174 136 -174c98 0 181 70 223 131l53 337h24zM322 558
h-27l108 133h30z" />
    <glyph glyph-name="ycircumflex.ss01" horiz-adv-x="575" 
d="M444 -9c-26 -164 -147 -221 -265 -221c-65 0 -127 16 -158 36l4 24c33 -22 91 -38 152 -38c111 0 220 52 243 201l18 116c-40 -52 -118 -119 -219 -119c-106 0 -177 73 -158 195l47 295h24l-47 -294c-17 -113 42 -174 136 -174c98 0 181 70 223 131l53 337h24zM334 683
h21l107 -125h-27l-91 106l-125 -106h-30z" />
    <glyph glyph-name="ydieresis.ss01" horiz-adv-x="575" 
d="M444 -9c-26 -164 -147 -221 -265 -221c-65 0 -127 16 -158 36l4 24c33 -22 91 -38 152 -38c111 0 220 52 243 201l18 116c-40 -52 -118 -119 -219 -119c-106 0 -177 73 -158 195l47 295h24l-47 -294c-17 -113 42 -174 136 -174c98 0 181 70 223 131l53 337h24zM456 614
c-2 -12 -13 -22 -25 -22c-14 0 -23 12 -20 25c1 11 13 21 24 21c15 0 23 -11 21 -24zM256 614c-2 -12 -13 -22 -25 -22c-14 0 -23 12 -20 25c1 11 13 21 24 21c15 0 23 -11 21 -24z" />
    <glyph glyph-name="ygrave.ss01" horiz-adv-x="575" 
d="M444 -9c-26 -164 -147 -221 -265 -221c-65 0 -127 16 -158 36l4 24c33 -22 91 -38 152 -38c111 0 220 52 243 201l18 116c-40 -52 -118 -119 -219 -119c-106 0 -177 73 -158 195l47 295h24l-47 -294c-17 -113 42 -174 136 -174c98 0 181 70 223 131l53 337h24zM354 558
h-26l-70 133h28z" />
    <glyph glyph-name="f_b" horiz-adv-x="954" 
d="M460 356c49 76 140 134 237 134c127 0 225 -101 200 -256c-24 -152 -138 -244 -276 -244c-102 0 -172 59 -198 140l-22 -130h-22l102 648c-38 24 -87 40 -144 40c-88 0 -150 -49 -163 -133l-13 -75h195l-3 -23h-195l-73 -457h-24l73 457h-82l3 23h82l13 76
c16 105 96 154 186 154c58 0 108 -15 149 -39l4 25l26 8zM619 12c127 0 232 82 254 225c23 141 -65 231 -178 231c-105 0 -198 -70 -243 -156l-23 -145c17 -86 87 -155 190 -155z" />
    <glyph glyph-name="f_f_b" horiz-adv-x="1264" 
d="M770 356c49 76 140 134 237 134c127 0 225 -101 200 -256c-24 -152 -138 -244 -276 -244c-102 0 -172 59 -198 140l-22 -130h-22l103 649c-38 25 -90 41 -145 41c-84 0 -150 -48 -163 -135l-13 -75h195l-3 -23h-195l-73 -457h-24l73 457h-286l-73 -457h-24l73 457h-82
l3 23h82l10 58c16 105 100 154 193 154c60 0 107 -19 152 -53c36 49 95 73 153 73c57 0 110 -15 151 -40l4 26l25 8zM447 480l13 76c3 25 11 46 21 64c-40 31 -81 50 -139 50c-92 0 -157 -48 -171 -133l-10 -57h286zM929 12c127 0 232 82 254 225c23 141 -65 231 -178 231
c-105 0 -198 -70 -243 -156l-23 -145c17 -86 87 -155 190 -155z" />
    <glyph glyph-name="f_f_h" horiz-adv-x="1225" 
d="M772 373c42 50 121 117 221 117c104 0 175 -73 156 -195l-47 -295h-24l47 294c18 112 -44 174 -136 174c-98 0 -181 -70 -223 -130l-53 -338h-24l103 649c-38 25 -90 41 -145 41c-84 0 -150 -48 -163 -135l-13 -75h195l-3 -23h-195l-73 -457h-24l73 457h-286l-73 -457
h-24l73 457h-82l3 23h82l10 58c16 105 100 154 193 154c60 0 107 -19 152 -53c36 49 95 73 153 73c57 0 110 -15 151 -40l4 26l25 8zM447 480l13 76c3 25 11 46 21 64c-40 31 -81 50 -139 50c-92 0 -157 -48 -171 -133l-10 -57h286z" />
    <glyph glyph-name="f_f_j" horiz-adv-x="836" 
d="M684 -117c-13 -87 -69 -113 -132 -113c-27 0 -50 4 -69 12l3 22c19 -8 40 -12 62 -12c57 0 101 22 113 95l90 570h-283l-73 -457h-24l73 457h-286l-73 -457h-24l73 457h-82l3 23h82l10 58c16 105 99 154 193 154c61 0 107 -19 152 -53c36 50 94 73 154 73
c55 0 108 -17 150 -45l-4 -24c-38 28 -89 47 -144 47c-85 0 -151 -48 -164 -135l-13 -75h308zM171 537l-10 -57h286l13 76c3 25 11 46 21 65c-40 30 -81 49 -139 49c-93 0 -157 -48 -171 -133z" />
    <glyph glyph-name="f_f_k" horiz-adv-x="1140" 
d="M1110 480h29l-237 -233l188 -247h-28l-181 239h-130l-38 -239h-24l103 649c-38 25 -90 41 -145 41c-84 0 -150 -48 -163 -135l-13 -75h195l-3 -23h-195l-73 -457h-24l73 457h-286l-73 -457h-24l73 457h-82l3 23h82l10 58c16 105 100 154 193 154c60 0 107 -19 152 -53
c36 49 95 73 153 73c57 0 110 -15 151 -40l4 26l25 8l-70 -444h132zM447 480l13 76c3 25 11 46 21 64c-40 31 -81 50 -139 50c-92 0 -157 -48 -171 -133l-10 -57h286z" />
    <glyph glyph-name="f_h" horiz-adv-x="915" 
d="M462 373c42 50 121 117 221 117c104 0 175 -73 156 -195l-47 -295h-24l47 294c18 112 -44 174 -136 174c-98 0 -181 -70 -223 -130l-53 -338h-24l102 648c-38 24 -87 40 -144 40c-88 0 -150 -49 -163 -133l-13 -75h195l-3 -23h-195l-73 -457h-24l73 457h-82l3 23h82
l13 76c16 105 96 154 186 154c58 0 108 -15 149 -39l4 25l26 8z" />
    <glyph glyph-name="f_i" horiz-adv-x="527" 
d="M85 0h-24l73 457h-82l3 23h82l13 76c16 105 98 154 185 154c55 0 109 -17 151 -45l-4 -24c-39 28 -90 47 -144 47c-85 0 -151 -48 -164 -133l-13 -75h308l-76 -480h-24l72 457h-283z" />
    <glyph glyph-name="f_j" horiz-adv-x="526" 
d="M374 -117c-13 -87 -69 -113 -132 -113c-27 0 -50 4 -69 12l3 22c19 -8 40 -12 62 -12c57 0 101 22 113 95l90 570h-283l-73 -457h-24l73 457h-82l3 23h82l13 76c16 105 98 154 185 154c55 0 109 -17 151 -45l-4 -24c-39 28 -90 47 -144 47c-85 0 -151 -48 -164 -133
l-13 -75h308z" />
    <glyph glyph-name="f_k" horiz-adv-x="830" 
d="M800 480h29l-237 -233l188 -247h-27l-182 239h-130l-38 -239h-24l102 648c-38 24 -87 40 -144 40c-88 0 -150 -49 -163 -133l-13 -75h195l-3 -23h-195l-73 -457h-24l73 457h-82l3 23h82l13 76c16 105 96 154 186 154c58 0 108 -15 149 -39l4 25l26 8l-70 -442h132z" />
    <glyph glyph-name="f_l" horiz-adv-x="537" 
d="M485 671l4 25l26 8l-112 -704h-24l102 648c-38 24 -87 40 -144 40c-88 0 -150 -49 -163 -133l-13 -75h195l-3 -23h-195l-73 -457h-24l73 457h-82l3 23h82l13 76c16 105 96 154 186 154c58 0 108 -15 149 -39z" />
    <glyph glyph-name="uni0410" unicode="&#x410;" horiz-adv-x="706" 
d="M644 0h-26l-65 215h-420l-134 -215h-28l433 700h30zM406 659l-260 -420h401l-127 421c-2 4 -4 10 -5 17c-2 -6 -5 -11 -9 -18z" />
    <glyph glyph-name="uni0411" unicode="&#x411;" horiz-adv-x="657" 
d="M147 395h195c149 0 285 -29 258 -199c-27 -168 -167 -196 -317 -196h-224l111 700h458l-4 -24h-433zM88 24h199c138 0 264 23 288 175c24 150 -96 172 -231 172h-201z" />
    <glyph glyph-name="uni0412" unicode="&#x412;" horiz-adv-x="675" 
d="M170 700h251c133 0 226 -54 207 -177c-16 -97 -88 -143 -170 -155c72 -12 164 -53 145 -182c-28 -165 -185 -186 -300 -186h-244zM578 192c22 143 -112 163 -185 163h-253l-52 -331h215c107 0 251 16 275 168zM604 525c17 108 -63 151 -187 151h-226l-47 -297h262
c89 0 181 41 198 146z" />
    <glyph glyph-name="uni0413" unicode="&#x413;" horiz-adv-x="580" 
d="M84 0h-25l111 700h450l-4 -24h-425z" />
    <glyph glyph-name="uni0414" unicode="&#x414;" horiz-adv-x="748" 
d="M-29 -177h-24l31 201h72c123 173 203 443 239 676h406l-107 -676h86l-32 -201h-24l28 177h-648zM311 676c-39 -226 -117 -486 -233 -652h485l103 652h-355z" />
    <glyph glyph-name="uni0415" unicode="&#x415;" horiz-adv-x="625" 
d="M170 700h455l-4 -24h-430l-49 -312h400l-4 -24h-400l-50 -316h436l-4 -24h-461z" />
    <glyph glyph-name="uni0401" unicode="&#x401;" horiz-adv-x="625" 
d="M541 834c-2 -12 -13 -22 -25 -22c-14 0 -23 12 -20 25c1 11 13 21 24 21c15 0 23 -11 21 -24zM341 834c-2 -12 -13 -22 -25 -22c-14 0 -23 12 -20 25c1 11 13 21 24 21c15 0 23 -11 21 -24zM170 700h455l-4 -24h-430l-49 -312h400l-4 -24h-400l-50 -316h436l-4 -24h-461z
" />
    <glyph glyph-name="uni0416" unicode="&#x416;" horiz-adv-x="923" 
d="M922 700h27l-268 -341l187 -359h-26l-181 347h-177l-55 -347h-24l54 347h-173l-291 -347h-30l302 359l-162 341h26l156 -329h177l52 329h24l-52 -329h175z" />
    <glyph glyph-name="uni0417" unicode="&#x417;" horiz-adv-x="602" 
d="M533 186c-23 -145 -172 -196 -296 -196c-105 0 -174 15 -234 43l4 24c59 -27 128 -43 229 -43c114 0 251 45 272 177c20 127 -107 162 -220 162h-130l5 24h127c131 0 228 59 243 154c16 105 -79 155 -195 155c-93 0 -156 -15 -227 -45l4 24c67 30 132 45 226 45
c127 0 236 -60 217 -181c-14 -91 -95 -150 -200 -163c96 -11 193 -58 175 -180z" />
    <glyph glyph-name="uni0418" unicode="&#x418;" horiz-adv-x="767" 
d="M727 700l-111 -700h-25l97 609c2 17 5 31 8 48l-615 -657h-22l111 700h25l-98 -613c-2 -15 -4 -29 -7 -43l614 656h23z" />
    <glyph glyph-name="uni0419" unicode="&#x419;" horiz-adv-x="767" 
d="M727 700l-111 -700h-25l97 609c2 17 5 31 8 48l-615 -657h-22l111 700h25l-98 -613c-2 -15 -4 -29 -7 -43l614 656h23zM594 824c-41 -30 -80 -41 -127 -41c-48 0 -90 11 -121 41l4 26c34 -33 71 -44 117 -44c45 0 87 11 131 44z" />
    <glyph glyph-name="uni041A" unicode="&#x41a;" horiz-adv-x="652" 
d="M656 700h29l-308 -342l225 -358h-28l-218 347h-217l-55 -347h-25l111 700h25l-52 -329h216z" />
    <glyph glyph-name="uni041B" unicode="&#x41b;" horiz-adv-x="732" 
d="M303 700h389l-111 -700h-25l107 676h-340c-83 -361 -165 -686 -326 -686c-18 0 -34 2 -50 9l3 24c17 -6 31 -8 44 -8c145 0 227 324 309 685z" />
    <glyph glyph-name="uni041C" unicode="&#x41c;" horiz-adv-x="900" 
d="M837 700h23l-111 -700h-25l103 651l-381 -454h-18l-240 456l-104 -653h-25l111 700h20l250 -474z" />
    <glyph glyph-name="uni041D" unicode="&#x41d;" horiz-adv-x="767" 
d="M702 700h25l-111 -700h-25l54 340h-507l-54 -340h-25l111 700h25l-53 -336h507z" />
    <glyph glyph-name="uni041E" unicode="&#x41e;" horiz-adv-x="825" 
d="M783 348c-28 -174 -180 -358 -417 -358c-238 0 -332 188 -305 362c28 174 182 358 417 358c238 0 332 -188 305 -362zM86 349c-25 -160 57 -335 281 -335c223 0 365 174 391 337c25 160 -57 335 -281 335c-223 0 -366 -174 -391 -337z" />
    <glyph glyph-name="uni041F" unicode="&#x41f;" horiz-adv-x="748" 
d="M84 0h-25l111 700h538l-111 -700h-25l107 676h-488z" />
    <glyph glyph-name="uni0420" unicode="&#x420;" horiz-adv-x="651" 
d="M170 700h215c153 0 286 -48 259 -219c-27 -168 -169 -215 -325 -215h-193l-42 -266h-25zM620 485c24 150 -94 191 -233 191h-196l-61 -386h193c144 0 273 42 297 195z" />
    <glyph glyph-name="uni0421" unicode="&#x421;" horiz-adv-x="654" 
d="M63 355c38 240 243 355 415 355c72 0 134 -16 184 -48l-4 -25c-47 33 -109 49 -178 49c-164 0 -356 -106 -393 -335c-36 -226 122 -337 285 -337c70 0 139 18 200 50l-4 -26c-59 -32 -131 -48 -200 -48c-173 0 -344 121 -305 365z" />
    <glyph glyph-name="uni0422" unicode="&#x422;" horiz-adv-x="588" 
d="M77 700h563l-4 -24h-269l-107 -676h-25l107 676h-269z" />
    <glyph glyph-name="uni0423" unicode="&#x423;" horiz-adv-x="617" 
d="M324 159c-91 -138 -159 -169 -232 -169c-25 0 -50 3 -73 11l4 24c23 -8 45 -11 66 -11c64 0 123 27 197 130l15 22l-228 534h27l216 -511l335 511h28z" />
    <glyph glyph-name="uni0424" unicode="&#x424;" horiz-adv-x="843" 
d="M383 -35h-25l15 94c-218 2 -360 111 -330 298c29 185 195 282 422 284l15 94h25l-15 -94c215 -2 359 -110 329 -297c-29 -185 -194 -283 -422 -285zM68 354c-26 -169 94 -269 309 -272l85 536c-217 -3 -367 -93 -394 -264zM486 618l-84 -536c217 3 366 94 393 265
c27 169 -95 268 -309 271z" />
    <glyph glyph-name="uni0425" unicode="&#x425;" horiz-adv-x="604" 
d="M-4 0h-32l335 361l-208 339h28l197 -321l299 321h31l-318 -343l219 -357h-27l-209 339z" />
    <glyph glyph-name="uni0427" unicode="&#x427;" horiz-adv-x="669" 
d="M518 0h-25l47 295c-83 -28 -163 -40 -236 -39c-162 2 -250 80 -226 235l34 209h24l-33 -211c-23 -144 60 -207 206 -209c75 -1 153 13 235 40l60 380h25z" />
    <glyph glyph-name="uni0426" unicode="&#x426;" horiz-adv-x="762" 
d="M655 -177h-23l28 177h-601l111 700h25l-107 -676h489l107 676h25l-107 -676h85z" />
    <glyph glyph-name="uni0428" unicode="&#x428;" horiz-adv-x="1065" 
d="M914 0h-855l111 700h25l-107 -676h390l107 676h25l-107 -676h391l106 676h25z" />
    <glyph glyph-name="uni0429" unicode="&#x429;" horiz-adv-x="1078" 
d="M972 -177h-24l28 177h-917l111 700h25l-107 -676h390l107 676h25l-107 -676h391l106 676h25l-107 -676h86z" />
    <glyph glyph-name="uni042F" unicode="&#x42f;" horiz-adv-x="677" 
d="M22 0h-30l266 280c-115 20 -182 90 -162 209c23 149 152 211 298 211h243l-111 -700h-24l43 274h-214c-16 0 -31 0 -46 2zM121 485c-21 -133 78 -187 209 -187h219l60 378h-219c-129 0 -247 -55 -269 -191z" />
    <glyph glyph-name="uni042C" unicode="&#x42c;" horiz-adv-x="653" 
d="M277 0h-218l111 700h25l-42 -266h193c150 0 283 -48 256 -219c-26 -168 -168 -215 -325 -215zM149 410l-61 -386h193c145 0 273 42 296 195c25 150 -92 191 -233 191h-195z" />
    <glyph glyph-name="uni042A" unicode="&#x42a;" horiz-adv-x="744" 
d="M368 0h-218l107 676h-188l4 24h213l-43 -266h194c150 0 283 -48 256 -219c-26 -168 -167 -215 -325 -215zM240 410l-61 -386h193c145 0 273 42 296 195c25 150 -92 191 -233 191h-195z" />
    <glyph glyph-name="uni042B" unicode="&#x42b;" horiz-adv-x="831" 
d="M277 0h-218l111 700h25l-42 -266h193c150 0 283 -48 256 -219c-26 -168 -167 -215 -325 -215zM149 410l-61 -386h193c145 0 273 42 296 195c25 150 -92 191 -233 191h-195zM680 0h-25l111 700h25z" />
    <glyph glyph-name="uni042D" unicode="&#x42d;" horiz-adv-x="657" 
d="M108 663c60 31 133 47 202 47c163 0 340 -123 302 -367c-39 -244 -229 -353 -412 -353c-72 0 -141 18 -191 49l4 24c52 -31 116 -49 184 -49c175 0 351 99 389 325l-409 -1l3 24l409 1c27 216 -133 323 -283 323c-72 0 -145 -18 -202 -49z" />
    <glyph glyph-name="uni042E" unicode="&#x42e;" horiz-adv-x="1075" 
d="M1032 348c-27 -174 -179 -358 -416 -358c-232 0 -327 179 -307 348h-171l-54 -338h-25l111 700h25l-54 -338h172c32 171 184 348 415 348c238 0 332 -188 304 -362zM336 349c-25 -160 57 -335 281 -335c223 0 365 174 391 337c25 160 -57 335 -281 335
c-223 0 -366 -174 -391 -337z" />
    <glyph glyph-name="uni0414.loclBGR" horiz-adv-x="794" 
d="M-21 -177h-24l32 201h72l389 676h30l176 -676h72l-32 -201h-24l28 177h-691zM461 674l-373 -650h541z" />
    <glyph glyph-name="uni041B.loclBGR" horiz-adv-x="672" 
d="M-28 0l417 700h25l195 -700h-26l-184 670l-399 -670h-28z" />
    <glyph glyph-name="uni0424.loclBGR" horiz-adv-x="884" 
d="M391 -108h-25l16 99c-223 4 -352 161 -319 365c31 202 202 349 433 353l16 99h24l-16 -99c225 -4 353 -161 321 -365c-32 -202 -203 -349 -434 -353zM88 353c-29 -187 82 -334 299 -338l106 670c-217 -4 -375 -143 -405 -332zM517 685l-106 -670c217 4 375 143 405 332
c30 187 -82 334 -299 338z" />
    <glyph glyph-name="uni0430" unicode="&#x430;" horiz-adv-x="613" 
d="M481 124c-50 -76 -138 -134 -239 -134c-136 0 -225 101 -200 256c24 152 144 244 276 244c98 0 173 -61 199 -137l20 127h23l-76 -480h-23zM65 243c-23 -141 57 -231 178 -231c106 0 199 70 242 152l24 150c-16 85 -91 154 -190 154c-120 0 -232 -82 -254 -225z" />
    <glyph glyph-name="uni0431" unicode="&#x431;" horiz-adv-x="590" 
d="M530 219c-21 -140 -119 -229 -264 -229c-150 0 -241 117 -213 294c22 138 106 252 200 305c152 84 235 59 305 121l-4 -27c-68 -57 -150 -35 -287 -112c-88 -49 -151 -136 -184 -244c53 82 149 133 245 133c130 0 225 -101 202 -241zM76 279c-24 -160 54 -266 190 -266
c134 0 221 82 241 209c20 122 -62 215 -182 215c-100 0 -204 -58 -249 -158z" />
    <glyph glyph-name="uni0432" unicode="&#x432;" horiz-adv-x="541" 
d="M290 0h-252l76 480h238c88 0 141 -47 129 -125c-9 -55 -44 -97 -103 -111c55 -10 97 -45 84 -121c-12 -83 -81 -123 -172 -123zM99 233l-33 -211h224c75 0 138 30 150 106c12 79 -41 105 -109 105h-232zM135 458l-32 -203h218c79 0 126 39 136 102c9 63 -31 101 -109 101
h-213z" />
    <glyph glyph-name="uni0433" unicode="&#x433;" horiz-adv-x="439" 
d="M62 0h-24l76 480h337l-3 -23h-313z" />
    <glyph glyph-name="uni0434" unicode="&#x434;" horiz-adv-x="603" 
d="M-20 -138h-23l25 160h62c82 130 134 254 166 458h323l-72 -458h68l-26 -160h-23l22 138h-500zM230 457c-31 -192 -83 -312 -160 -435h367l69 435h-276z" />
    <glyph glyph-name="uni0435" unicode="&#x435;" horiz-adv-x="540" 
d="M41 241c25 160 147 249 268 249c172 0 214 -152 177 -265h-423c-20 -151 92 -213 204 -213c57 0 118 15 164 39l-5 -25c-44 -24 -104 -36 -161 -36c-126 0 -253 74 -224 251zM468 247c26 94 -9 221 -158 221c-111 0 -218 -78 -244 -221h402z" />
    <glyph glyph-name="uni0451" unicode="&#x451;" horiz-adv-x="540" 
d="M456 614c-2 -12 -13 -22 -25 -22c-14 0 -23 12 -20 25c1 11 13 21 24 21c15 0 23 -11 21 -24zM256 614c-2 -12 -13 -22 -25 -22c-14 0 -23 12 -20 25c1 11 13 21 24 21c15 0 23 -11 21 -24zM41 241c25 160 147 249 268 249c172 0 214 -152 177 -265h-423
c-20 -151 92 -213 204 -213c57 0 118 15 164 39l-5 -25c-44 -24 -104 -36 -161 -36c-126 0 -253 74 -224 251zM468 247c26 94 -9 221 -158 221c-111 0 -218 -78 -244 -221h402z" />
    <glyph glyph-name="uni0436" unicode="&#x436;" horiz-adv-x="706" 
d="M-7 0h-29l258 248l-152 232h25l146 -221h96l35 221h24l-35 -221h95l216 221h27l-226 -233l178 -247h-26l-171 236h-96l-38 -236h-24l38 236h-94z" />
    <glyph glyph-name="uni0437" unicode="&#x437;" horiz-adv-x="471" 
d="M394 124c-16 -97 -113 -134 -223 -134c-68 -1 -129 13 -172 34l4 23c40 -20 102 -35 166 -35c97 0 187 30 201 117c12 70 -52 104 -106 104h-124l4 22h115c79 0 128 40 137 101c11 73 -65 112 -152 112c-65 0 -121 -13 -174 -34l4 24c54 21 107 33 172 33
c103 -1 187 -49 174 -136c-9 -59 -50 -100 -114 -111c50 -11 98 -53 88 -120z" />
    <glyph glyph-name="uni0438" unicode="&#x438;" horiz-adv-x="584" 
d="M61 0h-23l76 480h24l-70 -442l439 442h23l-76 -480h-24l70 442z" />
    <glyph glyph-name="uni0439" unicode="&#x439;" horiz-adv-x="584" 
d="M468 604c-41 -30 -80 -41 -127 -41c-48 0 -90 11 -121 41l4 25c34 -33 71 -44 116 -44c46 0 88 11 132 44zM61 0h-23l76 480h24l-70 -442l439 442h23l-76 -480h-24l70 442z" />
    <glyph glyph-name="uni043A" unicode="&#x43a;" horiz-adv-x="494" 
d="M62 0h-24l76 480h24l-35 -218h133l224 218h28l-236 -232l188 -248h-27l-181 239h-132z" />
    <glyph glyph-name="uni043B" unicode="&#x43b;" horiz-adv-x="584" 
d="M233 457c-57 -291 -121 -463 -228 -463c-17 0 -29 2 -43 8l3 21c12 -6 25 -7 37 -7c94 0 156 167 212 464h316l-76 -480h-24l73 457h-270z" />
    <glyph glyph-name="uni043C" unicode="&#x43c;" horiz-adv-x="663" 
d="M62 0h-24l76 480h24l174 -308l269 308h28l-76 -480h-24l71 444l-262 -299h-17l-168 299z" />
    <glyph glyph-name="uni043D" unicode="&#x43d;" horiz-adv-x="576" 
d="M62 0h-24l76 480h24l-36 -229h360l36 229h24l-76 -480h-24l36 229h-360z" />
    <glyph glyph-name="uni043E" unicode="&#x43e;" horiz-adv-x="592" 
d="M535 234c-25 -159 -157 -244 -285 -244c-124 0 -234 95 -209 256c25 159 158 244 286 244c124 0 234 -95 208 -256zM65 242c-23 -143 72 -229 185 -229c120 0 239 79 261 225c23 143 -72 229 -185 229c-120 0 -239 -79 -261 -225z" />
    <glyph glyph-name="uni043F" unicode="&#x43f;" horiz-adv-x="576" 
d="M62 0h-24l76 480h408l-76 -480h-24l72 457h-359z" />
    <glyph glyph-name="uni0440" unicode="&#x440;" horiz-adv-x="613" 
d="M116 353c52 79 141 137 240 137c131 0 225 -101 200 -256c-24 -152 -140 -244 -276 -244c-102 0 -172 59 -198 139l-55 -349h-24l111 700h22zM532 237c23 141 -61 231 -179 231c-102 0 -198 -70 -242 -156l-23 -145c17 -86 87 -155 190 -155c124 0 231 81 254 225z" />
    <glyph glyph-name="uni0441" unicode="&#x441;" horiz-adv-x="497" 
d="M41 242c27 176 177 248 296 248c49 0 99 -11 137 -40l-4 -23c-35 29 -87 41 -132 41c-112 0 -246 -67 -273 -229c-25 -152 74 -227 192 -227c53 0 111 14 158 40l-3 -25c-49 -26 -105 -37 -158 -37c-127 0 -239 80 -213 252z" />
    <glyph glyph-name="uni0442" unicode="&#x442;" horiz-adv-x="449" 
d="M190 0h-24l72 457h-199l3 23h423l-3 -23h-200z" />
    <glyph glyph-name="uni0443" unicode="&#x443;" horiz-adv-x="530" 
d="M235 25l275 455h27l-344 -568c-65 -106 -115 -142 -177 -142c-18 0 -33 2 -49 6l3 21c16 -4 30 -5 44 -5c60 0 105 40 159 131l47 77l-173 480h25z" />
    <glyph glyph-name="uni0444" unicode="&#x444;" horiz-adv-x="696" 
d="M279 -220h-24l33 210c-157 2 -273 95 -248 256c25 158 163 242 328 244l33 210h24l-33 -210c157 -2 274 -95 248 -256c-25 -158 -164 -242 -328 -244zM63 243c-23 -144 76 -229 228 -231l72 456c-151 -2 -277 -78 -300 -225zM387 468l-72 -456c151 2 278 78 301 225
c23 144 -77 229 -229 231z" />
    <glyph glyph-name="uni0445" unicode="&#x445;" horiz-adv-x="482" 
d="M1 0h-30l249 247l-161 233h28l149 -216l220 216h30l-237 -234l170 -246h-27l-159 229z" />
    <glyph glyph-name="uni0447" unicode="&#x447;" horiz-adv-x="513" 
d="M383 0h-24l29 185c-56 -22 -113 -32 -171 -32c-111 0 -187 54 -168 172l24 155h24l-24 -155c-17 -105 47 -149 149 -149c57 0 113 10 170 32l43 272h24z" />
    <glyph glyph-name="uni0446" unicode="&#x446;" horiz-adv-x="589" 
d="M490 -138h-24l22 138h-450l76 480h24l-72 -457h357l72 457h24l-72 -457h68z" />
    <glyph glyph-name="uni0448" unicode="&#x448;" horiz-adv-x="806" 
d="M676 0h-638l76 480h24l-72 -457h283l72 457h24l-72 -457h283l72 457h24z" />
    <glyph glyph-name="uni0449" unicode="&#x449;" horiz-adv-x="822" 
d="M723 -138h-24l22 138h-683l76 480h24l-72 -457h283l72 457h24l-72 -457h283l72 457h24l-72 -457h68z" />
    <glyph glyph-name="uni044F" unicode="&#x44f;" horiz-adv-x="537" 
d="M21 0h-29l180 197c-78 15 -120 67 -108 141c13 83 89 142 199 142h220l-76 -480h-24l30 192h-188c-10 0 -19 0 -28 1zM88 334c-12 -72 40 -120 136 -120h193l39 244h-192c-97 0 -165 -50 -176 -124z" />
    <glyph glyph-name="uni044C" unicode="&#x44c;" horiz-adv-x="505" 
d="M246 0h-208l76 480h24l-29 -184h185c105 0 168 -63 154 -150c-13 -84 -89 -146 -202 -146zM106 274l-40 -252h182c99 0 165 54 176 128c12 72 -40 124 -134 124h-184z" />
    <glyph glyph-name="uni044A" unicode="&#x44a;" horiz-adv-x="570" 
d="M312 0h-209l73 458h-138l3 22h162l-29 -184h186c104 0 167 -63 153 -150c-13 -84 -89 -146 -201 -146zM171 274l-40 -252h182c99 0 165 54 176 128c12 72 -40 124 -134 124h-184z" />
    <glyph glyph-name="uni044B" unicode="&#x44b;" horiz-adv-x="677" 
d="M246 0h-208l76 480h24l-29 -184h185c105 0 168 -63 154 -150c-13 -84 -89 -146 -202 -146zM106 274l-40 -252h182c99 0 165 54 176 128c12 72 -40 124 -134 124h-184zM547 0h-24l76 480h24z" />
    <glyph glyph-name="uni044D" unicode="&#x44d;" horiz-adv-x="503" 
d="M446 233c-28 -175 -158 -243 -281 -243c-63 0 -115 15 -160 43l4 23c42 -27 97 -44 152 -44c117 0 234 61 260 217h-291l4 22l290 1c18 151 -94 216 -200 216c-56 0 -113 -17 -157 -44l4 23c46 28 100 43 155 43c118 0 248 -78 220 -257z" />
    <glyph glyph-name="uni044E" unicode="&#x44e;" horiz-adv-x="799" 
d="M742 234c-25 -159 -157 -244 -285 -244c-120 0 -227 88 -212 239h-147l-36 -228h-24l76 480h24l-36 -229h147c26 145 149 238 284 238c124 0 234 -95 209 -256zM272 242c-23 -143 72 -229 185 -229c120 0 239 79 261 225c23 143 -72 229 -185 229
c-120 0 -239 -79 -261 -225z" />
    <glyph glyph-name="uni0432.loclBGR" horiz-adv-x="574" 
d="M373 710c102 0 166 -69 151 -162c-11 -73 -55 -127 -156 -160c97 -9 161 -90 144 -198c-19 -117 -112 -200 -245 -200c-134 0 -230 87 -200 276l16 105c35 219 133 339 290 339zM104 353l204 37c122 26 179 77 192 160c13 80 -41 138 -129 138c-119 0 -226 -78 -264 -317
zM269 12c112 0 201 68 219 180c18 113 -60 198 -187 175l-200 -37l-10 -64c-28 -178 56 -254 178 -254z" />
    <glyph glyph-name="uni0433.loclBGR" horiz-adv-x="461" 
d="M374 41c-46 -30 -126 -51 -190 -51c-103 0 -182 38 -170 129c26 185 357 79 383 246c12 73 -57 103 -133 103c-58 0 -125 -18 -179 -47l4 25c54 27 119 44 180 44c86 0 167 -36 153 -126c-30 -189 -360 -82 -384 -247c-10 -74 57 -105 150 -105c62 0 139 21 190 55z" />
    <glyph glyph-name="uni0434.loclBGR" horiz-adv-x="613" 
d="M483 -1c-27 -169 -157 -229 -284 -229c-68 0 -129 16 -176 46l4 24c47 -31 105 -48 170 -48c119 0 238 55 262 209l20 122c-49 -75 -138 -133 -238 -133c-137 0 -225 101 -200 256c24 152 141 244 276 244c101 0 172 -59 199 -141l20 131h23zM64 243
c-23 -141 55 -231 178 -231c106 0 199 69 243 154l23 147c-16 86 -87 155 -190 155c-122 0 -232 -81 -254 -225z" />
    <glyph glyph-name="uni0436.loclBGR" horiz-adv-x="706" 
d="M-7 0h-29l258 248l-152 232h25l146 -221h96l70 441h24l-70 -441h95l216 221h27l-226 -233l178 -247h-26l-171 236h-96l-38 -236h-24l38 236h-94z" />
    <glyph glyph-name="uni0438.loclBGR" horiz-adv-x="575" 
d="M497 480h24l-76 -480h-22l17 109c-40 -52 -123 -119 -221 -119c-105 0 -177 73 -158 196l47 294h24l-47 -294c-17 -112 43 -174 135 -174c100 0 182 70 223 131z" />
    <glyph glyph-name="uni0439.loclBGR" horiz-adv-x="575" 
d="M453 604c-41 -30 -80 -41 -127 -41c-48 0 -90 11 -121 41l4 25c34 -33 71 -44 116 -44c46 0 88 11 132 44zM497 480h24l-76 -480h-22l17 109c-40 -52 -123 -119 -221 -119c-105 0 -177 73 -158 196l47 294h24l-47 -294c-17 -112 43 -174 135 -174c100 0 182 70 223 131z
" />
    <glyph glyph-name="uni043A.loclBGR" horiz-adv-x="493" 
d="M459 480h29l-237 -233l188 -247h-28l-181 239h-130l-38 -239h-24l111 700h24l-70 -438h133z" />
    <glyph glyph-name="uni043B.loclBGR" horiz-adv-x="521" 
d="M304 480l150 -480h-26l-140 453l-284 -453h-28l302 480h26z" />
    <glyph glyph-name="uni043F.loclBGR" horiz-adv-x="574" 
d="M119 371c42 51 122 119 224 119c103 0 174 -73 155 -195l-47 -295h-24l47 294c18 112 -44 174 -136 174c-98 0 -181 -70 -223 -130l-53 -338h-24l76 480h22z" />
    <glyph glyph-name="uni0442.loclBGR" horiz-adv-x="894" 
d="M469 380c42 49 118 110 207 110c101 0 160 -75 143 -178l-49 -312h-24l50 312c14 89 -32 156 -122 156c-88 0 -160 -62 -201 -114c0 -13 -1 -27 -3 -42l-49 -312h-24l50 312c14 89 -32 156 -122 156c-92 0 -168 -70 -208 -123l-55 -345h-24l76 480h22l-16 -104
c39 49 117 114 207 114c77 0 130 -43 142 -110z" />
    <glyph glyph-name="uni0446.loclBGR" horiz-adv-x="599" 
d="M457 76c-7 -42 20 -55 59 -55h16l-25 -159h-23l22 137c-47 1 -80 22 -73 79l4 27c-41 -51 -122 -115 -218 -115c-105 0 -177 73 -158 196l47 294h24l-47 -294c-17 -112 43 -174 135 -174c100 0 182 70 223 131l54 337h24z" />
    <glyph glyph-name="uni0448.loclBGR" horiz-adv-x="894" 
d="M761 133l55 347h24l-76 -480h-23l17 102c-38 -47 -115 -112 -207 -112c-76 0 -129 44 -142 110c-43 -50 -118 -110 -207 -110c-101 0 -160 75 -144 178l50 312h24l-50 -312c-13 -89 32 -156 122 -156c87 0 160 62 201 114c-1 13 0 27 2 42l50 312h24l-50 -312
c-13 -89 32 -156 122 -156c92 0 169 68 208 121z" />
    <glyph glyph-name="uni0449.loclBGR" horiz-adv-x="918" 
d="M776 76c-6 -43 20 -55 56 -55h19l-25 -159h-23l22 137c-42 1 -81 25 -72 77l3 25c-36 -46 -113 -111 -205 -111c-77 0 -129 43 -143 109c-43 -51 -118 -109 -206 -109c-101 0 -160 75 -144 178l50 312h24l-50 -312c-13 -89 32 -156 122 -156c87 0 160 62 201 113
c-1 14 0 28 2 43l50 312h24l-50 -312c-13 -89 32 -156 122 -156c92 0 169 68 208 121l55 347h24z" />
    <glyph glyph-name="uni044E.loclBGR" horiz-adv-x="799" 
d="M742 234c-25 -159 -157 -244 -285 -244c-120 0 -227 88 -212 239h-147l-36 -228h-24l111 699h24l-71 -448h147c26 145 149 238 284 238c124 0 234 -95 209 -256zM272 242c-23 -143 72 -229 185 -229c120 0 239 79 261 225c23 143 -72 229 -185 229
c-120 0 -239 -79 -261 -225z" />
    <glyph glyph-name="uni0430.ss01" horiz-adv-x="541" 
d="M407 69c-6 -37 16 -48 42 -48c14 0 27 2 40 7l-4 -22c-12 -4 -28 -7 -41 -7c-37 0 -69 18 -61 70l5 33c-53 -72 -145 -112 -223 -112c-91 0 -163 48 -153 143c11 110 126 145 225 145c58 0 122 -12 174 -30l9 54c16 101 -33 166 -158 166c-69 0 -123 -16 -164 -30l3 24
c39 13 93 28 163 28c137 0 198 -73 179 -192zM167 11c79 0 175 43 227 126l14 90c-49 17 -114 29 -168 29c-91 0 -195 -29 -204 -126c-7 -77 51 -119 131 -119z" />
    <glyph glyph-name="uni0437.ss01" horiz-adv-x="445" 
d="M362 -38c-21 -122 -119 -192 -256 -192c-59 0 -129 12 -171 44l4 23c40 -30 109 -45 167 -45c115 0 214 59 232 172c18 111 -63 209 -186 182l-60 -12l3 23l66 14c119 26 178 80 189 161c11 77 -43 136 -134 136c-55 0 -112 -15 -166 -47l4 27c56 30 108 43 165 43
c103 0 168 -70 155 -160c-10 -75 -56 -131 -157 -163c97 -11 162 -103 145 -206z" />
    <glyph glyph-name="uni0443.ss01" horiz-adv-x="575" 
d="M444 -9c-26 -164 -147 -221 -265 -221c-65 0 -127 16 -158 36l4 24c33 -22 91 -38 152 -38c111 0 220 52 243 201l18 116c-40 -52 -118 -119 -219 -119c-106 0 -177 73 -158 195l47 295h24l-47 -294c-17 -113 42 -174 136 -174c98 0 181 70 223 131l53 337h24z" />
    <glyph glyph-name="zero" unicode="0" horiz-adv-x="704" 
d="M68 346c33 204 149 344 345 344c199 0 271 -150 239 -356c-33 -204 -150 -344 -346 -344c-198 0 -270 150 -238 356zM627 337c31 193 -33 329 -214 329c-182 0 -289 -128 -320 -323c-31 -193 33 -329 214 -329c182 0 289 128 320 323z" />
    <glyph glyph-name="one" unicode="1" horiz-adv-x="398" 
d="M283 680h17l-104 -656h142l-4 -24h-324l4 24h157l99 628l-166 -59l4 24z" />
    <glyph glyph-name="two" unicode="2" horiz-adv-x="557" 
d="M128 630c74 44 145 60 212 60c122 0 208 -63 192 -167c-19 -115 -122 -173 -234 -233c-119 -63 -236 -115 -264 -266h428l-5 -24h-453l3 17c26 166 152 230 277 294c107 55 206 108 223 216c13 85 -55 140 -169 140c-70 0 -138 -19 -214 -63z" />
    <glyph glyph-name="three" unicode="3" horiz-adv-x="587" 
d="M536 509c-11 -69 -63 -138 -161 -156c85 -15 154 -71 137 -176c-19 -121 -126 -187 -264 -187c-98 0 -171 16 -223 44l3 24c56 -29 126 -45 219 -45c129 0 223 60 241 168c18 110 -71 159 -183 159h-98l4 23h95c129 0 194 74 206 148c13 84 -49 156 -168 156
c-83 0 -146 -16 -215 -45l4 25c64 28 128 43 214 43c130 0 204 -82 189 -181z" />
    <glyph glyph-name="four" unicode="4" horiz-adv-x="637" 
d="M493 680h28l-78 -486h146l-3 -24h-146l-27 -170h-25l27 170h-403l3 21zM418 194l73 451l-442 -451h369z" />
    <glyph glyph-name="five" unicode="5" horiz-adv-x="578" 
d="M166 680h386l-4 -24h-362l-65 -293c56 18 115 26 168 26c129 0 242 -58 220 -201c-19 -118 -129 -198 -272 -198c-79 0 -159 17 -211 46l3 23c56 -29 131 -46 206 -46c133 0 232 71 249 179c20 124 -78 174 -201 174c-63 0 -131 -12 -192 -33z" />
    <glyph glyph-name="six" unicode="6" horiz-adv-x="604" 
d="M554 630c-38 24 -87 36 -135 36c-164 0 -290 -96 -330 -350l-3 -20c78 72 174 114 265 114c113 0 214 -67 192 -210c-22 -134 -135 -210 -260 -210c-177 0 -250 129 -218 330c42 264 177 370 354 370c52 0 101 -13 139 -36zM518 203c20 128 -66 183 -171 183
c-91 0 -190 -45 -264 -120c-11 -158 55 -253 199 -253c115 0 217 67 236 190z" />
    <glyph glyph-name="seven" unicode="7" horiz-adv-x="511" 
d="M95 680h454l-3 -20l-422 -660h-28l420 656h-425z" />
    <glyph glyph-name="eight" unicode="8" horiz-adv-x="641" 
d="M564 159c-14 -86 -111 -169 -278 -169c-180 0 -260 94 -244 202c13 79 73 144 169 189c-60 29 -101 72 -89 148c13 81 100 161 260 161c155 0 226 -95 212 -184c-12 -76 -67 -134 -147 -182c73 -29 131 -75 117 -165zM68 190c-15 -95 56 -177 220 -177
c149 0 239 73 251 150c18 114 -92 142 -207 175c-34 10 -68 20 -98 32c-92 -39 -154 -103 -166 -180zM332 361c31 -9 63 -18 93 -27c77 44 133 99 145 173c12 77 -48 160 -188 160c-143 0 -224 -68 -235 -141c-18 -111 101 -140 185 -165z" />
    <glyph glyph-name="nine" unicode="9" horiz-adv-x="603" 
d="M76 480c22 134 135 210 260 210c175 0 250 -129 218 -330c-42 -264 -177 -370 -354 -370c-53 0 -101 13 -139 36l4 24c38 -24 87 -36 135 -36c164 0 290 96 330 350l3 20c-78 -72 -174 -114 -265 -114c-115 0 -214 67 -192 210zM101 477c-20 -127 66 -183 171 -183
c91 0 190 45 264 120c11 158 -55 253 -199 253c-115 0 -217 -67 -236 -190z" />
    <glyph glyph-name="zero.osf" horiz-adv-x="661" 
d="M602 254c-21 -133 -132 -264 -313 -264c-191 0 -261 141 -240 276c22 134 135 264 314 264c183 0 261 -140 239 -276zM74 263c-19 -123 42 -249 215 -249c167 0 270 118 289 243c20 123 -50 249 -215 249c-166 0 -269 -118 -289 -243z" />
    <glyph glyph-name="one.osf" horiz-adv-x="403" 
d="M260 520h16l-77 -496h142l-4 -24h-324l4 24h157l73 468l-165 -59l4 24z" />
    <glyph glyph-name="two.osf" horiz-adv-x="517" 
d="M419 0h-413l3 19c19 115 122 152 234 200c87 37 187 65 202 158c13 75 -41 130 -145 130c-75 0 -137 -19 -205 -57l3 26c68 38 132 54 204 54c113 0 183 -63 168 -156c-18 -106 -129 -138 -219 -177c-107 -46 -200 -81 -215 -173h388z" />
    <glyph glyph-name="three.osf" horiz-adv-x="539" 
d="M469 349c-11 -69 -63 -138 -160 -156c85 -15 153 -71 136 -176c-19 -121 -131 -187 -257 -187c-86 0 -149 16 -200 44l3 24c56 -28 115 -45 195 -45c118 0 218 60 236 168c18 110 -71 159 -180 159h-72l4 24h70c124 -1 189 73 201 147c14 84 -45 156 -160 156
c-71 0 -129 -16 -192 -45l4 25c59 28 118 43 190 43c128 0 198 -82 182 -181z" />
    <glyph glyph-name="four.osf" horiz-adv-x="592" 
d="M438 520h27l-76 -486h138l-3 -24h-139l-27 -170h-24l27 170h-381l3 22zM364 34l71 450l-421 -450h350z" />
    <glyph glyph-name="five.osf" horiz-adv-x="529" 
d="M132 520h355l-3 -24h-333l-64 -293c52 18 101 26 154 26c110 0 226 -59 203 -201c-18 -118 -126 -198 -264 -198c-74 0 -140 17 -189 46l4 23c51 -29 114 -46 183 -46c127 0 224 71 242 179c19 124 -82 174 -184 174c-63 0 -122 -12 -180 -33z" />
    <glyph glyph-name="six.osf" horiz-adv-x="576" 
d="M534 630c-38 24 -77 36 -133 36c-128 0 -272 -96 -312 -350l-3 -18c70 71 163 112 245 112c105 0 204 -67 182 -210c-22 -134 -134 -210 -241 -210c-167 0 -239 129 -207 330c42 264 195 370 336 370c62 0 100 -13 137 -36zM488 203c20 128 -66 183 -161 183
c-81 0 -178 -45 -244 -119c-12 -159 54 -254 187 -254c97 0 199 67 218 190z" />
    <glyph glyph-name="seven.osf" horiz-adv-x="464" 
d="M58 520h428l-3 -20l-416 -660h-27l413 656h-399z" />
    <glyph glyph-name="eight.osf" horiz-adv-x="611" 
d="M120 529c13 81 105 161 246 161s211 -89 198 -175c-12 -79 -69 -142 -149 -190c76 -30 133 -74 118 -164c-13 -87 -110 -171 -272 -171c-161 0 -237 86 -220 193c12 79 74 151 168 197c-60 29 -100 75 -89 149zM314 339c-32 11 -53 19 -83 30
c-91 -40 -153 -109 -166 -188c-15 -95 52 -168 196 -168s235 73 248 151c17 112 -88 136 -195 175zM540 516c11 73 -50 151 -174 151c-125 0 -210 -69 -222 -141c-17 -108 97 -138 170 -165c30 -10 50 -17 78 -26c77 44 135 104 148 181z" />
    <glyph glyph-name="nine.osf" horiz-adv-x="563" 
d="M47 320c22 135 134 210 241 210c167 0 239 -129 207 -330c-42 -264 -196 -370 -336 -370c-59 0 -101 15 -137 36l3 24c38 -22 81 -36 134 -36c128 0 272 96 312 350c1 6 2 15 2 17c-65 -70 -159 -111 -244 -111c-107 0 -205 68 -182 210zM72 318
c-20 -128 66 -184 161 -184c86 0 182 45 244 119c11 159 -55 254 -188 254c-97 0 -197 -66 -217 -189z" />
    <glyph glyph-name="zero.sinf" horiz-adv-x="430" 
d="M360 100c-19 -121 -90 -206 -207 -206c-119 0 -164 91 -144 214c19 121 90 206 208 206s163 -91 143 -214zM30 106c-17 -112 19 -191 123 -191c106 0 167 72 185 187c18 112 -18 191 -122 191c-106 0 -167 -72 -186 -187z" />
    <glyph glyph-name="one.sinf" horiz-adv-x="246" 
d="M140 308h16l-61 -387h79l-4 -21h-203l4 21h102l58 363l-99 -35l3 21z" />
    <glyph glyph-name="two.sinf" horiz-adv-x="340" 
d="M44 279c43 25 87 35 128 35c72 0 127 -38 116 -103c-11 -67 -70 -103 -140 -139c-70 -37 -136 -69 -150 -151h250l-4 -21h-275l2 13c15 99 91 138 164 176c68 36 122 65 131 125c9 50 -34 79 -95 79c-45 0 -86 -12 -131 -38z" />
    <glyph glyph-name="three.sinf" horiz-adv-x="355" 
d="M287 204c-7 -40 -38 -81 -95 -93c48 -7 90 -40 80 -105c-11 -72 -76 -112 -164 -112c-54 0 -97 10 -131 26l4 22c33 -17 76 -27 126 -27c79 0 134 32 144 96s-40 89 -105 89h-60l3 21h57c74 0 113 42 119 86c8 48 -30 86 -97 86c-49 0 -87 -9 -129 -27l4 23
c38 16 78 25 128 25c77 0 125 -49 116 -110z" />
    <glyph glyph-name="four.sinf" horiz-adv-x="389" 
d="M260 308h23l-45 -288h86l-2 -20h-87l-16 -100h-22l16 100h-239l3 19zM216 20l40 256l-251 -256h211z" />
    <glyph glyph-name="five.sinf" horiz-adv-x="351" 
d="M66 308h234l-3 -21h-214l-36 -163c31 9 65 14 95 14c73 0 145 -35 132 -124c-12 -72 -78 -120 -166 -120c-49 0 -95 10 -127 27l4 21c32 -17 77 -27 122 -27c78 0 135 39 145 103c11 73 -48 99 -117 99c-38 0 -79 -7 -115 -19z" />
    <glyph glyph-name="six.sinf" horiz-adv-x="373" 
d="M305 271c-23 15 -55 22 -83 22c-93 0 -168 -55 -192 -203c47 36 101 58 153 58c67 0 130 -42 116 -127c-13 -82 -79 -127 -157 -127c-108 0 -153 78 -134 200c26 157 110 220 214 220c33 0 62 -8 86 -22zM277 22c12 73 -38 105 -99 105c-52 0 -108 -25 -151 -63
c-8 -95 31 -149 114 -149c67 0 125 35 136 107z" />
    <glyph glyph-name="seven.sinf" horiz-adv-x="300" 
d="M51 -100h-25l232 387h-244l4 21h269l-4 -19z" />
    <glyph glyph-name="eight.sinf" horiz-adv-x="395" 
d="M41 217c8 48 59 97 159 97c95 0 137 -56 129 -110c-7 -46 -38 -85 -85 -109c42 -19 75 -47 67 -98c-9 -52 -61 -103 -174 -103c-110 0 -153 56 -143 120c8 47 42 88 98 114c-32 16 -57 44 -51 89zM171 99c-20 6 -40 11 -58 19c-54 -22 -89 -59 -96 -105
c-9 -55 27 -98 121 -98c95 0 144 40 151 85c10 62 -54 80 -118 99zM307 204c7 43 -24 89 -108 89s-129 -37 -136 -79c-10 -63 58 -80 106 -95c18 -4 37 -11 55 -15c44 21 76 56 83 100z" />
    <glyph glyph-name="nine.sinf" horiz-adv-x="372" 
d="M14 187c12 82 82 127 158 127c106 0 152 -78 133 -200c-26 -157 -109 -220 -214 -220c-33 0 -63 8 -85 22l2 21c24 -15 55 -22 83 -22c94 0 168 55 192 203c-47 -35 -101 -58 -153 -58c-68 0 -130 42 -116 127zM36 186c-12 -73 39 -105 99 -105c52 0 108 25 151 64
c8 94 -31 148 -114 148c-67 0 -126 -36 -136 -107z" />
    <glyph glyph-name="zero.sups" horiz-adv-x="431" 
d="M436 576c-19 -121 -90 -206 -207 -206c-119 0 -164 91 -144 214c19 121 90 206 208 206s163 -91 143 -214zM106 582c-17 -112 19 -191 123 -191c106 0 167 72 185 187c18 112 -18 191 -122 191c-106 0 -167 -72 -186 -187z" />
    <glyph glyph-name="one.sups" horiz-adv-x="247" 
d="M215 780h16l-61 -387h79l-4 -21h-203l4 21h102l58 363l-99 -35l3 21z" />
    <glyph glyph-name="two.sups" horiz-adv-x="341" 
d="M120 755c43 25 87 35 128 35c72 0 127 -38 116 -103c-11 -67 -70 -103 -140 -139c-70 -37 -136 -69 -150 -151h250l-4 -21h-275l2 13c15 99 91 138 164 176c68 36 122 65 131 125c9 50 -34 79 -95 79c-45 0 -86 -12 -131 -38z" />
    <glyph glyph-name="three.sups" horiz-adv-x="355" 
d="M362 680c-7 -40 -38 -81 -95 -93c48 -7 90 -40 80 -105c-11 -72 -76 -112 -164 -112c-54 0 -97 10 -131 26l4 22c33 -17 76 -27 126 -27c79 0 134 32 144 96s-40 89 -105 89h-60l3 21h57c74 0 113 42 119 86c8 48 -30 86 -97 86c-49 0 -87 -9 -129 -27l4 23
c38 16 78 25 128 25c77 0 125 -49 116 -110z" />
    <glyph glyph-name="four.sups" horiz-adv-x="388" 
d="M334 780h23l-45 -288h86l-2 -20h-87l-16 -100h-22l16 100h-239l3 19zM290 492l40 256l-251 -256h211z" />
    <glyph glyph-name="five.sups" horiz-adv-x="350" 
d="M140 780h234l-3 -21h-214l-36 -163c31 9 65 14 95 14c73 0 145 -35 132 -124c-12 -72 -78 -120 -166 -120c-49 0 -95 10 -127 27l4 21c32 -17 77 -27 122 -27c78 0 135 39 145 103c11 73 -48 99 -117 99c-38 0 -79 -7 -115 -19z" />
    <glyph glyph-name="six.sups" horiz-adv-x="372" 
d="M380 747c-23 15 -55 22 -83 22c-93 0 -168 -55 -192 -203c47 36 101 58 153 58c67 0 130 -42 116 -127c-13 -82 -79 -127 -157 -127c-108 0 -153 78 -134 200c26 157 110 220 214 220c33 0 62 -8 86 -22zM352 498c12 73 -38 105 -99 105c-52 0 -108 -25 -151 -63
c-8 -95 31 -149 114 -149c67 0 125 35 136 107z" />
    <glyph glyph-name="seven.sups" horiz-adv-x="300" 
d="M126 372h-25l232 387h-244l4 21h269l-4 -19z" />
    <glyph glyph-name="eight.sups" horiz-adv-x="395" 
d="M116 693c8 48 59 97 159 97c95 0 137 -56 129 -110c-7 -46 -38 -85 -85 -109c42 -19 75 -47 67 -98c-9 -52 -61 -103 -174 -103c-110 0 -153 56 -143 120c8 47 42 88 98 114c-32 16 -57 44 -51 89zM246 575c-20 6 -40 11 -58 19c-54 -22 -89 -59 -96 -105
c-9 -55 27 -98 121 -98c95 0 144 40 151 85c10 62 -54 80 -118 99zM382 680c7 43 -24 89 -108 89s-129 -37 -136 -79c-10 -63 58 -80 106 -95c18 -4 37 -11 55 -15c44 21 76 56 83 100z" />
    <glyph glyph-name="nine.sups" horiz-adv-x="373" 
d="M90 663c12 82 82 127 158 127c106 0 152 -78 133 -200c-26 -157 -109 -220 -214 -220c-33 0 -63 8 -85 22l2 21c24 -15 55 -22 83 -22c94 0 168 55 192 203c-47 -35 -101 -58 -153 -58c-68 0 -130 42 -116 127zM112 662c-12 -73 39 -105 99 -105c52 0 108 25 151 64
c8 94 -31 148 -114 148c-67 0 -126 -36 -136 -107z" />
    <glyph glyph-name="zero.tf" 
d="M44 346c33 204 150 344 325 344c177 0 249 -150 217 -356c-33 -204 -151 -344 -326 -344c-177 0 -248 150 -216 356zM561 337c31 193 -33 329 -193 329c-161 0 -268 -128 -299 -323c-31 -193 33 -329 193 -329c161 0 268 128 299 323z" />
    <glyph glyph-name="one.tf" 
d="M392 680h17l-104 -656h222l-4 -24h-487l4 24h240l100 628l-225 -79l4 24z" />
    <glyph glyph-name="two.tf" 
d="M147 630c76 44 147 60 222 60c132 0 218 -65 201 -169c-18 -114 -131 -170 -244 -231c-118 -62 -243 -115 -272 -266h447l-5 -24h-473l3 17c26 166 161 227 287 293c107 56 216 109 233 215c13 85 -55 142 -179 142c-78 0 -146 -19 -222 -63z" />
    <glyph glyph-name="three.tf" 
d="M556 509c-11 -69 -63 -138 -161 -156c85 -15 154 -71 137 -176c-19 -121 -127 -187 -274 -187c-100 0 -173 16 -225 44l3 24c56 -29 126 -45 221 -45c138 0 233 60 251 168c18 110 -71 159 -185 159h-108l4 23h105c131 0 196 74 208 148c13 84 -49 156 -178 156
c-85 0 -148 -16 -217 -45l4 25c64 28 128 43 216 43c140 0 214 -82 199 -181z" />
    <glyph glyph-name="four.tf" 
d="M484 680h28l-78 -486h140l-3 -24h-140l-27 -170h-25l27 170h-403l3 21zM409 194l73 452l-443 -452h370z" />
    <glyph glyph-name="five.tf" 
d="M178 680h398l-4 -24h-374l-65 -293c56 18 115 26 174 26c135 0 248 -58 226 -201c-19 -118 -129 -198 -278 -198c-85 0 -165 17 -217 46l3 23c56 -29 131 -46 212 -46c139 0 238 71 255 179c20 124 -78 174 -207 174c-69 0 -137 -12 -198 -33z" />
    <glyph glyph-name="six.tf" 
d="M559 630c-38 24 -87 36 -135 36c-164 0 -290 -96 -330 -350l-3 -20c78 72 174 114 265 114c113 0 214 -67 192 -210c-22 -134 -135 -210 -260 -210c-177 0 -250 129 -218 330c42 264 177 370 354 370c52 0 101 -13 139 -36zM523 203c20 128 -66 183 -171 183
c-91 0 -190 -45 -264 -120c-11 -158 55 -253 199 -253c115 0 217 67 236 190z" />
    <glyph glyph-name="seven.tf" 
d="M126 680h494l-3 -20l-422 -660h-28l420 656h-465z" />
    <glyph glyph-name="eight.tf" 
d="M550 159c-14 -86 -110 -169 -278 -169c-187 0 -261 94 -244 201c13 83 73 149 169 190c-60 29 -102 72 -90 148c13 81 96 161 261 161c156 0 226 -95 213 -180c-13 -84 -69 -141 -149 -185c77 -31 132 -76 118 -166zM53 190c-15 -95 48 -177 220 -177
c150 0 239 73 251 150c18 114 -92 142 -207 175c-34 10 -68 20 -98 32c-92 -35 -153 -99 -166 -180zM317 361c31 -9 63 -18 92 -26c78 40 134 95 147 176c11 73 -48 156 -188 156c-149 0 -225 -68 -236 -141c-18 -111 101 -140 185 -165z" />
    <glyph glyph-name="nine.tf" 
d="M82 480c22 134 135 210 260 210c175 0 250 -129 218 -330c-42 -264 -177 -370 -354 -370c-53 0 -101 13 -139 36l4 24c38 -24 87 -36 135 -36c164 0 290 96 330 350l3 20c-78 -72 -174 -114 -265 -114c-115 0 -214 67 -192 210zM107 476c-20 -128 66 -182 171 -182
c91 0 190 45 264 120c11 158 -55 253 -199 253c-115 0 -217 -68 -236 -191z" />
    <glyph glyph-name="zero.tosf" 
d="M578 257c-21 -133 -132 -267 -316 -267c-180 0 -257 136 -236 272c22 134 138 268 316 268s258 -137 236 -273zM51 259c-19 -123 49 -245 211 -245c170 0 272 122 291 247c20 123 -51 245 -211 245c-164 0 -271 -122 -291 -247z" />
    <glyph glyph-name="one.tosf" 
d="M365 520h17l-78 -496h222l-4 -24h-487l4 24h240l74 468l-224 -79l3 24z" />
    <glyph glyph-name="two.tosf" 
d="M498 0h-470l3 19c20 122 151 172 265 204c126 36 207 71 220 151c13 79 -56 133 -172 133c-81 0 -154 -20 -228 -63l4 26c74 43 148 60 226 60c130 0 210 -62 194 -160c-14 -93 -106 -131 -235 -168c-110 -32 -230 -80 -246 -178h443z" />
    <glyph glyph-name="three.tosf" 
d="M528 349c-11 -69 -63 -138 -161 -156c85 -15 154 -71 137 -176c-19 -121 -126 -187 -270 -187c-102 0 -175 16 -227 44l3 24c56 -29 126 -45 223 -45c135 0 229 60 247 168c18 110 -71 159 -185 159h-106l4 23h103c131 0 196 74 208 148c13 84 -49 156 -174 156
c-87 0 -150 -16 -219 -45l4 25c64 28 128 43 218 43c136 0 210 -82 195 -181z" />
    <glyph glyph-name="four.tosf" 
d="M460 518h28l-78 -486h138l-3 -24h-138l-27 -170h-25l27 170h-403l3 21zM385 32l73 451l-442 -451h369z" />
    <glyph glyph-name="five.tosf" 
d="M154 520h396l-4 -24h-372l-65 -293c56 18 115 26 168 26c139 0 252 -58 230 -201c-19 -118 -129 -198 -282 -198c-79 0 -159 17 -211 46l3 23c56 -29 131 -46 206 -46c143 0 242 71 259 179c20 124 -78 174 -211 174c-63 0 -131 -12 -192 -33z" />
    <glyph glyph-name="six.tosf" 
d="M559 630c-38 24 -87 36 -135 36c-164 0 -290 -96 -330 -350l-3 -20c78 72 174 114 265 114c113 0 214 -67 192 -210c-22 -134 -135 -210 -260 -210c-177 0 -250 129 -218 330c42 264 177 370 354 370c52 0 101 -13 139 -36zM523 203c20 128 -66 183 -171 183
c-91 0 -190 -45 -264 -120c-11 -158 55 -253 199 -253c115 0 217 67 236 190z" />
    <glyph glyph-name="seven.tosf" 
d="M98 520h497l-3 -20l-442 -660h-28l439 656h-466z" />
    <glyph glyph-name="eight.tosf" 
d="M550 159c-14 -86 -110 -169 -278 -169c-189 0 -261 94 -244 202c13 83 73 148 169 189c-60 29 -102 72 -90 148c13 81 95 161 260 161c156 0 227 -95 214 -180c-13 -84 -69 -141 -149 -185c77 -31 132 -76 118 -166zM53 190c-15 -95 48 -177 220 -177
c150 0 239 73 251 150c18 114 -92 142 -207 175c-34 10 -68 20 -98 32c-92 -35 -153 -99 -166 -180zM317 361c31 -9 63 -18 92 -26c78 40 134 95 147 176c11 73 -49 156 -189 156c-148 0 -224 -68 -235 -141c-18 -111 101 -140 185 -165z" />
    <glyph glyph-name="nine.tosf" 
d="M56 320c22 134 135 210 260 210c175 0 250 -129 218 -330c-42 -264 -177 -370 -354 -370c-53 0 -101 13 -139 36l4 24c38 -24 87 -36 135 -36c164 0 290 96 330 350l3 20c-78 -72 -174 -114 -265 -114c-115 0 -214 67 -192 210zM81 317c-20 -127 66 -183 171 -183
c91 0 190 45 264 120c11 158 -55 253 -199 253c-115 0 -217 -67 -236 -190z" />
    <glyph glyph-name="fraction" unicode="&#x2044;" horiz-adv-x="162" 
d="M-188 -11h-18l570 721h18z" />
    <glyph glyph-name="onehalf" unicode="&#xbd;" horiz-adv-x="885" 
d="M172 -11h-18l570 721h18zM597 379c43 25 87 35 128 35c72 0 127 -38 116 -103c-11 -67 -70 -103 -140 -139c-70 -37 -136 -69 -150 -151h250l-4 -21h-275l2 13c15 99 91 138 164 176c68 36 122 65 131 125c9 50 -34 79 -95 79c-45 0 -86 -12 -131 -38zM221 680h16
l-61 -387h79l-4 -21h-203l4 21h102l58 363l-99 -35l3 21z" />
    <glyph glyph-name="onequarter" unicode="&#xbc;" horiz-adv-x="937" 
d="M809 408h23l-45 -288h86l-2 -20h-87l-16 -100h-22l16 100h-239l3 19zM765 120l40 256l-251 -256h211zM177 -11h-18l570 721h18zM226 680h16l-61 -387h79l-4 -21h-203l4 21h102l58 363l-99 -35l3 21z" />
    <glyph glyph-name="threequarters" unicode="&#xbe;" horiz-adv-x="985" 
d="M250 -11h-18l570 721h18zM856 408h23l-45 -288h86l-2 -20h-87l-16 -100h-22l16 100h-239l3 19zM812 120l40 256l-251 -256h211zM371 580c-7 -40 -38 -81 -95 -93c48 -7 90 -40 80 -105c-11 -72 -76 -112 -164 -112c-54 0 -97 10 -131 26l4 22c33 -17 76 -27 126 -27
c79 0 134 32 144 96s-40 89 -105 89h-60l3 21h57c74 0 113 42 119 86c8 48 -30 86 -97 86c-49 0 -87 -9 -129 -27l4 23c38 16 78 25 128 25c77 0 125 -49 116 -110z" />
    <glyph glyph-name="oneeighth" unicode="&#x215b;" horiz-adv-x="917" 
d="M577 317c8 48 59 97 159 97c95 0 137 -56 129 -110c-7 -46 -38 -85 -85 -109c42 -19 75 -47 67 -98c-9 -52 -61 -103 -174 -103c-110 0 -153 56 -143 120c8 47 42 88 98 114c-32 16 -57 44 -51 89zM707 199c-20 6 -40 11 -58 19c-54 -22 -89 -59 -96 -105
c-9 -55 27 -98 121 -98c95 0 144 40 151 85c10 62 -54 80 -118 99zM843 304c7 43 -24 89 -108 89s-129 -37 -136 -79c-10 -63 58 -80 106 -95c18 -4 37 -11 55 -15c44 21 76 56 83 100zM171 -11h-18l570 721h18zM222 680h16l-61 -387h79l-4 -21h-203l4 21h102l58 363
l-99 -35l3 21z" />
    <glyph glyph-name="threeeighths" unicode="&#x215c;" horiz-adv-x="970" 
d="M629 317c8 48 59 97 159 97c95 0 137 -56 129 -110c-7 -46 -38 -85 -85 -109c42 -19 75 -47 67 -98c-9 -52 -61 -103 -174 -103c-110 0 -153 56 -143 120c8 47 42 88 98 114c-32 16 -57 44 -51 89zM759 199c-20 6 -40 11 -58 19c-54 -22 -89 -59 -96 -105
c-9 -55 27 -98 121 -98c95 0 144 40 151 85c10 62 -54 80 -118 99zM895 304c7 43 -24 89 -108 89s-129 -37 -136 -79c-10 -63 58 -80 106 -95c18 -4 37 -11 55 -15c44 21 76 56 83 100zM233 -11h-18l570 721h18zM367 580c-7 -40 -38 -81 -95 -93c48 -7 90 -40 80 -105
c-11 -72 -76 -112 -164 -112c-54 0 -97 10 -131 26l4 22c33 -17 76 -27 126 -27c79 0 134 32 144 96s-40 89 -105 89h-60l3 21h57c74 0 113 42 119 86c8 48 -30 86 -97 86c-49 0 -87 -9 -129 -27l4 23c38 16 78 25 128 25c77 0 125 -49 116 -110z" />
    <glyph glyph-name="fiveeighths" unicode="&#x215d;" horiz-adv-x="961" 
d="M620 317c8 48 59 97 159 97c95 0 137 -56 129 -110c-7 -46 -38 -85 -85 -109c42 -19 75 -47 67 -98c-9 -52 -61 -103 -174 -103c-110 0 -153 56 -143 120c8 47 42 88 98 114c-32 16 -57 44 -51 89zM750 199c-20 6 -40 11 -58 19c-54 -22 -89 -59 -96 -105
c-9 -55 27 -98 121 -98c95 0 144 40 151 85c10 62 -54 80 -118 99zM886 304c7 43 -24 89 -108 89s-129 -37 -136 -79c-10 -63 58 -80 106 -95c18 -4 37 -11 55 -15c44 21 76 56 83 100zM224 -11h-18l570 721h18zM140 680h234l-3 -21h-214l-36 -163c31 9 65 14 95 14
c73 0 145 -35 132 -124c-12 -72 -78 -120 -166 -120c-49 0 -95 10 -127 27l4 21c32 -17 77 -27 122 -27c78 0 135 39 145 103c11 73 -48 99 -117 99c-38 0 -79 -7 -115 -19z" />
    <glyph glyph-name="seveneighths" unicode="&#x215e;" horiz-adv-x="855" 
d="M114 -11h-18l570 721h18zM511 317c8 48 59 97 159 97c95 0 137 -56 129 -110c-7 -46 -38 -85 -85 -109c42 -19 75 -47 67 -98c-9 -52 -61 -103 -174 -103c-110 0 -153 56 -143 120c8 47 42 88 98 114c-32 16 -57 44 -51 89zM641 199c-20 6 -40 11 -58 19
c-54 -22 -89 -59 -96 -105c-9 -55 27 -98 121 -98c95 0 144 40 151 85c10 62 -54 80 -118 99zM777 304c7 43 -24 89 -108 89s-129 -37 -136 -79c-10 -63 58 -80 106 -95c18 -4 37 -11 55 -15c44 21 76 56 83 100zM133 272h-25l232 387h-244l4 21h269l-4 -19z" />
    <glyph glyph-name="zero.dnom" horiz-adv-x="431" 
d="M376 200c-19 -121 -90 -206 -207 -206c-119 0 -164 91 -144 214c19 121 90 206 208 206s163 -91 143 -214zM46 206c-17 -112 19 -191 123 -191c106 0 167 72 185 187c18 112 -18 191 -122 191c-106 0 -167 -72 -186 -187z" />
    <glyph glyph-name="one.dnom" horiz-adv-x="247" 
d="M156 408h16l-61 -387h79l-4 -21h-203l4 21h102l58 363l-99 -35l3 21z" />
    <glyph glyph-name="two.dnom" horiz-adv-x="340" 
d="M60 379c43 25 87 35 128 35c72 0 127 -38 116 -103c-11 -67 -70 -103 -140 -139c-70 -37 -136 -69 -150 -151h250l-4 -21h-275l2 13c15 99 91 138 164 176c68 36 122 65 131 125c9 50 -34 79 -95 79c-45 0 -86 -12 -131 -38z" />
    <glyph glyph-name="three.dnom" horiz-adv-x="355" 
d="M303 304c-7 -40 -38 -81 -95 -93c48 -7 90 -40 80 -105c-11 -72 -76 -112 -164 -112c-54 0 -97 10 -131 26l4 22c33 -17 76 -27 126 -27c79 0 134 32 144 96s-40 89 -105 89h-60l3 21h57c74 0 113 42 119 86c8 48 -30 86 -97 86c-49 0 -87 -9 -129 -27l4 23
c38 16 78 25 128 25c77 0 125 -49 116 -110z" />
    <glyph glyph-name="four.dnom" horiz-adv-x="388" 
d="M275 408h23l-45 -288h86l-2 -20h-87l-16 -100h-22l16 100h-239l3 19zM231 120l40 256l-251 -256h211z" />
    <glyph glyph-name="five.dnom" horiz-adv-x="350" 
d="M81 408h234l-3 -21h-214l-36 -163c31 9 65 14 95 14c73 0 145 -35 132 -124c-12 -72 -78 -120 -166 -120c-49 0 -95 10 -127 27l4 21c32 -17 77 -27 122 -27c78 0 135 39 145 103c11 73 -48 99 -117 99c-38 0 -79 -7 -115 -19z" />
    <glyph glyph-name="six.dnom" horiz-adv-x="373" 
d="M321 371c-23 15 -55 22 -83 22c-93 0 -168 -55 -192 -203c47 36 101 58 153 58c67 0 130 -42 116 -127c-13 -82 -79 -127 -157 -127c-108 0 -153 78 -134 200c26 157 110 220 214 220c33 0 62 -8 86 -22zM293 122c12 73 -38 105 -99 105c-52 0 -108 -25 -151 -63
c-8 -95 31 -149 114 -149c67 0 125 35 136 107z" />
    <glyph glyph-name="seven.dnom" horiz-adv-x="300" 
d="M67 0h-25l232 387h-244l4 21h269l-4 -19z" />
    <glyph glyph-name="eight.dnom" horiz-adv-x="395" 
d="M57 317c8 48 59 97 159 97c95 0 137 -56 129 -110c-7 -46 -38 -85 -85 -109c42 -19 75 -47 67 -98c-9 -52 -61 -103 -174 -103c-110 0 -153 56 -143 120c8 47 42 88 98 114c-32 16 -57 44 -51 89zM187 199c-20 6 -40 11 -58 19c-54 -22 -89 -59 -96 -105
c-9 -55 27 -98 121 -98c95 0 144 40 151 85c10 62 -54 80 -118 99zM323 304c7 43 -24 89 -108 89s-129 -37 -136 -79c-10 -63 58 -80 106 -95c18 -4 37 -11 55 -15c44 21 76 56 83 100z" />
    <glyph glyph-name="nine.dnom" horiz-adv-x="373" 
d="M30 287c12 82 82 127 158 127c106 0 152 -78 133 -200c-26 -157 -109 -220 -214 -220c-33 0 -63 8 -85 22l2 21c24 -15 55 -22 83 -22c94 0 168 55 192 203c-47 -35 -101 -58 -153 -58c-68 0 -130 42 -116 127zM52 286c-12 -73 39 -105 99 -105c52 0 108 25 151 64
c8 94 -31 148 -114 148c-67 0 -126 -36 -136 -107z" />
    <glyph glyph-name="zero.numr" horiz-adv-x="431" 
d="M420 476c-19 -121 -90 -206 -207 -206c-119 0 -164 91 -144 214c19 121 90 206 208 206s163 -91 143 -214zM90 482c-17 -112 19 -191 123 -191c106 0 167 72 185 187c18 112 -18 191 -122 191c-106 0 -167 -72 -186 -187z" />
    <glyph glyph-name="one.numr" horiz-adv-x="246" 
d="M199 680h16l-61 -387h79l-4 -21h-203l4 21h102l58 363l-99 -35l3 21z" />
    <glyph glyph-name="two.numr" horiz-adv-x="341" 
d="M104 655c43 25 87 35 128 35c72 0 127 -38 116 -103c-11 -67 -70 -103 -140 -139c-70 -37 -136 -69 -150 -151h250l-4 -21h-275l2 13c15 99 91 138 164 176c68 36 122 65 131 125c9 50 -34 79 -95 79c-45 0 -86 -12 -131 -38z" />
    <glyph glyph-name="three.numr" horiz-adv-x="354" 
d="M346 580c-7 -40 -38 -81 -95 -93c48 -7 90 -40 80 -105c-11 -72 -76 -112 -164 -112c-54 0 -97 10 -131 26l4 22c33 -17 76 -27 126 -27c79 0 134 32 144 96s-40 89 -105 89h-60l3 21h57c74 0 113 42 119 86c8 48 -30 86 -97 86c-49 0 -87 -9 -129 -27l4 23
c38 16 78 25 128 25c77 0 125 -49 116 -110z" />
    <glyph glyph-name="four.numr" horiz-adv-x="388" 
d="M318 680h23l-45 -288h86l-2 -20h-87l-16 -100h-22l16 100h-239l3 19zM274 392l40 256l-251 -256h211z" />
    <glyph glyph-name="five.numr" horiz-adv-x="350" 
d="M124 680h234l-3 -21h-214l-36 -163c31 9 65 14 95 14c73 0 145 -35 132 -124c-12 -72 -78 -120 -166 -120c-49 0 -95 10 -127 27l4 21c32 -17 77 -27 122 -27c78 0 135 39 145 103c11 73 -48 99 -117 99c-38 0 -79 -7 -115 -19z" />
    <glyph glyph-name="six.numr" horiz-adv-x="373" 
d="M365 647c-23 15 -55 22 -83 22c-93 0 -168 -55 -192 -203c47 36 101 58 153 58c67 0 130 -42 116 -127c-13 -82 -79 -127 -157 -127c-108 0 -153 78 -134 200c26 157 110 220 214 220c33 0 62 -8 86 -22zM337 398c12 73 -38 105 -99 105c-52 0 -108 -25 -151 -63
c-8 -95 31 -149 114 -149c67 0 125 35 136 107z" />
    <glyph glyph-name="seven.numr" horiz-adv-x="300" 
d="M110 272h-25l232 387h-244l4 21h269l-4 -19z" />
    <glyph glyph-name="eight.numr" horiz-adv-x="395" 
d="M100 593c8 48 59 97 159 97c95 0 137 -56 129 -110c-7 -46 -38 -85 -85 -109c42 -19 75 -47 67 -98c-9 -52 -61 -103 -174 -103c-110 0 -153 56 -143 120c8 47 42 88 98 114c-32 16 -57 44 -51 89zM230 475c-20 6 -40 11 -58 19c-54 -22 -89 -59 -96 -105
c-9 -55 27 -98 121 -98c95 0 144 40 151 85c10 62 -54 80 -118 99zM366 580c7 43 -24 89 -108 89s-129 -37 -136 -79c-10 -63 58 -80 106 -95c18 -4 37 -11 55 -15c44 21 76 56 83 100z" />
    <glyph glyph-name="nine.numr" horiz-adv-x="373" 
d="M74 563c12 82 82 127 158 127c106 0 152 -78 133 -200c-26 -157 -109 -220 -214 -220c-33 0 -63 8 -85 22l2 21c24 -15 55 -22 83 -22c94 0 168 55 192 203c-47 -35 -101 -58 -153 -58c-68 0 -130 42 -116 127zM96 562c-12 -73 39 -105 99 -105c52 0 108 25 151 64
c8 94 -31 148 -114 148c-67 0 -126 -36 -136 -107z" />
    <glyph glyph-name="asterisk" unicode="*" horiz-adv-x="423" 
d="M250 535l-105 -117l-17 13l106 115l-129 44l11 22l127 -48l20 136h23l-24 -136l143 48l4 -22l-143 -44l69 -115l-21 -13z" />
    <glyph glyph-name="backslash" unicode="\" horiz-adv-x="399" 
d="M304 -57h-20l-168 814h20z" />
    <glyph glyph-name="periodcentered" unicode="&#xb7;" horiz-adv-x="187" 
d="M108 237c-2 -12 -13 -20 -24 -20c-13 0 -23 9 -21 24c2 12 13 20 24 20c14 0 23 -9 21 -24z" />
    <glyph glyph-name="bullet" unicode="&#x2022;" horiz-adv-x="283" 
d="M110 352c3 23 23 38 44 38c23 0 40 -16 36 -42c-4 -23 -24 -38 -45 -38c-23 0 -39 16 -35 42z" />
    <glyph glyph-name="colon" unicode=":" horiz-adv-x="189" 
d="M136 404c-2 -12 -13 -20 -24 -20c-13 0 -23 9 -21 24c2 12 13 20 24 20c14 0 23 -9 21 -24zM73 15c-2 -12 -13 -21 -24 -21c-13 0 -23 10 -20 24c1 12 13 20 24 20c14 0 22 -9 20 -23z" />
    <glyph glyph-name="comma" unicode="," horiz-adv-x="167" 
d="M-11 -142h-21l84 214h25z" />
    <glyph glyph-name="ellipsis" unicode="&#x2026;" horiz-adv-x="433" 
d="M334 15c-2 -12 -13 -21 -24 -21c-13 0 -23 10 -20 24c1 12 13 20 24 20c14 0 22 -9 20 -23zM68 15c-2 -12 -13 -21 -24 -21c-13 0 -23 10 -20 24c1 12 13 20 24 20c14 0 22 -9 20 -23zM201 15c-2 -12 -13 -21 -24 -21c-13 0 -23 10 -20 24c1 12 13 20 24 20
c14 0 22 -9 20 -23z" />
    <glyph glyph-name="exclam" unicode="!" horiz-adv-x="195" 
d="M90 169h-22l83 531h25zM77 14c-3 -12 -13 -20 -25 -20c-13 0 -22 10 -19 24c1 12 13 20 23 20c14 0 23 -10 21 -24z" />
    <glyph glyph-name="exclamdown" unicode="&#xa1;" horiz-adv-x="180" 
d="M21 -216h-25l86 532h22zM138 467c-2 -12 -12 -21 -24 -21c-13 0 -22 10 -19 24c2 12 13 20 23 20c14 0 23 -9 20 -23z" />
    <glyph glyph-name="numbersign" unicode="#" horiz-adv-x="647" 
d="M67 0h-24l75 190h-93l4 22h97l102 257h-108l3 22h113l75 190h25l-75 -190h259l75 190h25l-75 -190h91l-3 -22h-96l-102 -257h107l-3 -22h-113l-75 -190h-25l75 190h-258zM253 469l-101 -257h258l101 257h-258z" />
    <glyph glyph-name="period" unicode="." horiz-adv-x="167" 
d="M68 15c-2 -12 -13 -21 -24 -21c-13 0 -23 10 -20 24c1 12 13 20 24 20c14 0 22 -9 20 -23z" />
    <glyph glyph-name="question" unicode="?" horiz-adv-x="490" 
d="M229 187h-24c21 139 235 224 257 363c14 86 -52 136 -169 136c-73 0 -142 -24 -200 -57l4 26c54 31 126 55 200 55c125 0 206 -60 189 -162c-23 -144 -237 -234 -257 -361zM212 15c-2 -12 -13 -21 -24 -21c-13 0 -23 10 -20 24c1 12 13 20 24 20c14 0 22 -9 20 -23z" />
    <glyph glyph-name="questiondown" unicode="&#xbf;" horiz-adv-x="479" 
d="M371 -170c-55 -32 -126 -56 -200 -56c-126 0 -206 60 -190 162c23 144 238 235 258 361h24c-21 -137 -235 -226 -257 -363c-14 -86 52 -136 168 -136c74 0 142 24 201 57zM301 466c-2 -11 -14 -20 -24 -20c-14 0 -23 10 -20 24c2 12 12 20 24 20c13 0 22 -9 20 -24z" />
    <glyph glyph-name="quotedbl" unicode="&#x22;" horiz-adv-x="249" 
d="M219 568h-18l21 132h25zM129 568h-18l21 132h25z" />
    <glyph glyph-name="quotesingle" unicode="'" horiz-adv-x="159" 
d="M129 568h-18l21 132h25z" />
    <glyph glyph-name="semicolon" unicode=";" horiz-adv-x="263" 
d="M23 -142h-21l84 214h25zM170 447c-2 -12 -13 -20 -24 -20c-13 0 -23 10 -21 24c2 12 14 20 25 20c14 0 22 -9 20 -24z" />
    <glyph glyph-name="slash" unicode="/" horiz-adv-x="406" 
d="M9 -57h-20l426 814h21z" />
    <glyph glyph-name="underscore" unicode="_" horiz-adv-x="427" 
d="M361 -127h-427l4 24h427z" />
    <glyph glyph-name="braceleft" unicode="{" horiz-adv-x="257" 
d="M159 -88l-3 -22c-76 -12 -97 24 -86 92l41 258c11 69 -31 99 -76 99l3 22c45 0 97 31 108 101l41 258c11 69 44 104 114 90l-3 -22c-57 11 -78 -18 -88 -77l-40 -254c-10 -62 -48 -97 -90 -108c35 -10 66 -43 56 -107l-40 -255c-9 -57 2 -85 63 -75z" />
    <glyph glyph-name="braceright" unicode="}" horiz-adv-x="257" 
d="M89 -20c-11 -68 -43 -104 -114 -90l3 23c56 -11 78 17 87 73l41 259c10 63 50 97 93 106c-37 10 -69 44 -59 108l41 255c9 56 -1 85 -64 75l3 21c74 13 97 -24 86 -92l-41 -258c-10 -70 33 -99 76 -99l-3 -22c-44 0 -97 -31 -108 -101z" />
    <glyph glyph-name="bracketleft" unicode="[" horiz-adv-x="235" 
d="M153 -110h-138l145 920h138l-3 -24h-113l-139 -872h113z" />
    <glyph glyph-name="bracketright" unicode="]" horiz-adv-x="235" 
d="M94 -110h-138l3 24h114l138 872h-113l3 24h138z" />
    <glyph glyph-name="parenleft" unicode="(" horiz-adv-x="247" 
d="M280 808h26c-110 -126 -195 -298 -220 -460c-25 -159 4 -330 75 -456h-25c-70 127 -102 298 -76 460c25 160 110 330 220 456z" />
    <glyph glyph-name="parenright" unicode=")" horiz-adv-x="248" 
d="M105 808h25c69 -127 102 -298 76 -460c-25 -159 -111 -330 -220 -456h-27c111 126 195 298 221 460c25 159 -5 330 -75 456z" />
    <glyph glyph-name="emdash" unicode="&#x2014;" horiz-adv-x="751" 
d="M670 231h-607l3 23h607z" />
    <glyph glyph-name="endash" unicode="&#x2013;" horiz-adv-x="569" 
d="M488 231h-425l3 23h425z" />
    <glyph glyph-name="hyphen" unicode="-" horiz-adv-x="487" 
d="M66 254h344l-4 -23h-343z" />
    <glyph glyph-name="emdash.case" horiz-adv-x="761" 
d="M690 338h-607l3 24h607z" />
    <glyph glyph-name="endash.case" horiz-adv-x="579" 
d="M508 338h-425l3 24h425z" />
    <glyph glyph-name="hyphen.case" horiz-adv-x="497" 
d="M86 362h344l-4 -24h-343z" />
    <glyph glyph-name="guillemotleft" unicode="&#xab;" horiz-adv-x="415" 
d="M311 69h-25l-93 167l1 9l144 166h28l-149 -172zM162 69h-25l-93 167l1 9l144 166h28l-149 -172z" />
    <glyph glyph-name="guillemotright" unicode="&#xbb;" horiz-adv-x="415" 
d="M210 69h-28l149 172l-94 170h26l92 -167l-1 -9zM61 69h-28l149 172l-94 170h26l92 -167l-1 -9z" />
    <glyph glyph-name="guilsinglleft" unicode="&#x2039;" horiz-adv-x="266" 
d="M162 69h-25l-93 167l1 9l144 166h28l-149 -172z" />
    <glyph glyph-name="guilsinglright" unicode="&#x203a;" horiz-adv-x="266" 
d="M61 69h-28l149 172l-94 170h26l92 -167l-1 -9z" />
    <glyph glyph-name="quotedblbase" unicode="&#x201e;" horiz-adv-x="291" 
d="M113 -142h-21l84 214h25zM-11 -142h-21l84 214h25z" />
    <glyph glyph-name="quotedblleft" unicode="&#x201c;" horiz-adv-x="308" 
d="M239 486h-25l88 214h21zM115 486h-25l88 214h21z" />
    <glyph glyph-name="quotedblright" unicode="&#x201d;" horiz-adv-x="307" 
d="M235 486h-21l84 214h25zM111 486h-21l84 214h25z" />
    <glyph glyph-name="quoteleft" unicode="&#x2018;" horiz-adv-x="184" 
d="M115 486h-25l88 214h21z" />
    <glyph glyph-name="quoteright" unicode="&#x2019;" horiz-adv-x="183" 
d="M111 486h-21l84 214h25z" />
    <glyph glyph-name="quotesinglbase" unicode="&#x201a;" horiz-adv-x="167" 
d="M-11 -142h-21l84 214h25z" />
    <glyph glyph-name="guillemotleft.case" horiz-adv-x="433" 
d="M337 179h-25l-93 167l1 9l144 166h28l-149 -172zM188 179h-25l-93 167l1 9l144 166h28l-149 -172z" />
    <glyph glyph-name="guillemotright.case" horiz-adv-x="434" 
d="M237 179h-28l149 172l-94 170h26l92 -167l-1 -9zM88 179h-28l149 172l-94 170h26l92 -167l-1 -9z" />
    <glyph glyph-name="guilsinglleft.case" horiz-adv-x="284" 
d="M188 179h-25l-93 167l1 9l144 166h28l-149 -172z" />
    <glyph glyph-name="guilsinglright.case" horiz-adv-x="285" 
d="M88 179h-28l149 172l-94 170h26l92 -167l-1 -9z" />
    <glyph glyph-name="space" unicode=" " horiz-adv-x="271" 
 />
    <glyph glyph-name="cent" unicode="&#xa2;" horiz-adv-x="512" 
d="M478 450l-4 -23c-35 29 -86 41 -131 41l-72 -456c50 2 104 16 148 40l-3 -25c-46 -24 -98 -36 -149 -37l-17 -110h-22l17 110c-121 5 -225 86 -200 252c26 168 164 241 280 248l17 110h22l-17 -110c47 -1 94 -12 131 -40zM321 467c-107 -8 -227 -76 -252 -228
c-24 -147 67 -222 180 -227z" />
    <glyph glyph-name="currency" unicode="&#xa4;" horiz-adv-x="572" 
d="M150 206l-76 -65l-14 17l75 65c-26 31 -40 75 -31 129c8 51 35 96 71 127l-54 63l20 17l54 -65c38 28 84 42 129 42c47 0 88 -16 119 -42l75 65l14 -17l-75 -65c27 -31 40 -75 31 -129c-7 -51 -34 -95 -70 -127l53 -63l-19 -17l-54 65c-39 -28 -85 -42 -130 -42
c-47 0 -88 16 -118 42zM128 348c-15 -98 53 -161 141 -161c91 0 180 64 196 165c15 97 -52 161 -141 161c-92 0 -179 -63 -196 -165z" />
    <glyph glyph-name="dollar" unicode="$" horiz-adv-x="564" 
d="M232 -130h-22l18 120c-78 4 -157 24 -212 58l3 25c63 -38 148 -59 226 -59c107 0 216 37 232 144c33 217 -423 136 -384 371c18 110 141 160 247 161l18 120h22l-18 -120c62 -3 126 -20 173 -48l-4 -24c-51 30 -123 48 -190 48c-93 0 -207 -41 -223 -140
c-36 -211 421 -131 384 -370c-18 -120 -138 -166 -252 -166z" />
    <glyph glyph-name="Euro" unicode="&#x20ac;" horiz-adv-x="736" 
d="M712 617c-48 31 -106 49 -183 49c-132 0 -294 -74 -354 -242h403l-4 -22h-406c-5 -16 -8 -32 -11 -49c-4 -26 -6 -51 -5 -75h403l-4 -22h-397c15 -155 137 -242 278 -242c78 0 149 17 202 49l-4 -25c-51 -31 -121 -48 -200 -48c-154 0 -286 96 -302 266h-87l4 22h82
c-1 24 1 50 5 77c3 16 6 32 10 47h-78l4 22h81c61 183 239 266 379 266c80 0 138 -17 188 -49z" />
    <glyph glyph-name="sterling" unicode="&#xa3;" horiz-adv-x="606" 
d="M515 0h-521l4 24h31c52 0 87 34 98 98l32 205h-81l4 24h81l18 114c26 169 143 225 251 225c50 0 100 -15 135 -39l-4 -24c-35 25 -84 39 -131 39c-97 0 -203 -49 -227 -202l-17 -113h256l-4 -24h-256l-33 -206c-8 -55 -30 -85 -62 -97h430z" />
    <glyph glyph-name="yen" unicode="&#xa5;" horiz-adv-x="627" 
d="M621 680h27l-310 -376h178l-4 -22h-189l-16 -98h190l-4 -22h-190l-26 -162h-24l25 162h-189l4 22h189l16 98h-190l4 22h177l-191 376h27l188 -374z" />
    <glyph glyph-name="cent.tf" 
d="M529 450l-4 -23c-35 29 -87 41 -132 41l-72 -456c50 2 105 15 149 40l-3 -25c-46 -25 -99 -36 -150 -37l-17 -110h-22l17 110c-121 6 -224 86 -199 252c26 167 163 241 279 247l17 111h22l-17 -110c47 -1 95 -12 132 -40zM371 467c-107 -8 -226 -77 -251 -228
c-24 -146 67 -221 179 -227z" />
    <glyph glyph-name="currency.tf" 
d="M171 206l-76 -65l-14 17l75 65c-26 31 -40 75 -31 129c8 51 35 96 71 127l-54 63l20 17l54 -65c38 28 84 42 129 42c47 0 88 -16 119 -42l75 65l14 -17l-75 -65c27 -31 40 -75 31 -129c-7 -51 -34 -95 -70 -127l53 -63l-19 -17l-54 65c-39 -28 -85 -42 -130 -42
c-47 0 -88 16 -118 42zM149 348c-15 -98 53 -161 141 -161c91 0 180 64 196 165c15 97 -52 161 -141 161c-92 0 -179 -63 -196 -165z" />
    <glyph glyph-name="dollar.tf" 
d="M258 -130h-22l18 120c-79 4 -158 24 -213 58l3 25c63 -38 148 -59 226 -59c107 0 216 37 232 144c33 217 -423 136 -384 371c18 110 143 160 247 161l18 120h22l-18 -120c63 -3 125 -20 173 -48l-4 -24c-51 30 -123 48 -190 48c-93 0 -207 -41 -223 -140
c-36 -211 421 -131 384 -370c-18 -120 -138 -166 -251 -166z" />
    <glyph glyph-name="Euro.tf" 
d="M635 646c-35 13 -80 20 -128 20c-144 0 -304 -76 -366 -242h369l-4 -22h-372c-6 -18 -10 -36 -13 -56c-4 -24 -5 -47 -5 -68h370l-4 -22h-365c14 -156 140 -242 286 -242c51 0 97 7 138 22l-4 -25c-40 -14 -87 -21 -136 -21c-156 0 -295 94 -309 266h-88l4 22h83
c-1 23 1 47 5 72c3 18 7 35 11 52h-79l4 22h82c64 182 239 266 393 266c47 0 92 -7 132 -21z" />
    <glyph glyph-name="sterling.tf" 
d="M519 0h-521l4 24h31c52 0 87 34 98 98l32 205h-81l4 24h81l18 114c26 169 143 225 251 225c50 0 100 -15 135 -39l-4 -24c-35 25 -84 39 -131 39c-97 0 -203 -49 -227 -202l-17 -113h256l-4 -24h-256l-33 -206c-8 -55 -30 -85 -62 -97h430z" />
    <glyph glyph-name="yen.tf" 
d="M614 680h27l-310 -376h178l-4 -22h-189l-16 -98h190l-4 -22h-190l-26 -162h-24l25 162h-189l4 22h189l16 98h-190l4 22h177l-191 376h27l188 -374z" />
    <glyph glyph-name="approxequal" unicode="&#x2248;" horiz-adv-x="577" 
d="M529 467c-5 -49 -41 -83 -94 -83c-75 0 -175 70 -246 70c-41 0 -67 -26 -72 -60h-23c6 49 42 83 94 83c77 0 174 -70 246 -70c41 0 67 25 72 60h23zM507 324c-6 -48 -41 -83 -94 -83c-75 0 -175 70 -246 70c-41 0 -67 -25 -72 -60h-23c6 50 42 83 94 83
c77 0 174 -70 246 -70c41 0 67 25 72 60h23z" />
    <glyph glyph-name="asciitilde" unicode="~" horiz-adv-x="573" 
d="M511 366c-5 -49 -41 -83 -94 -83c-74 0 -175 70 -246 70c-41 0 -67 -26 -72 -60h-23c6 49 42 83 94 83c77 0 174 -70 246 -70c41 0 68 25 72 60h23z" />
    <glyph glyph-name="divide" unicode="&#xf7;" horiz-adv-x="644" 
d="M570 338h-480l3 24h480zM317 123c-1 -12 -12 -20 -23 -20c-14 0 -23 10 -21 24c2 12 13 20 24 20c14 0 22 -9 20 -24zM389 570c-2 -12 -13 -20 -24 -20c-14 0 -23 10 -20 24c2 12 13 20 24 20c14 0 22 -9 20 -24z" />
    <glyph glyph-name="emptyset" unicode="&#x2205;" horiz-adv-x="823" 
d="M781 347c-28 -178 -190 -357 -416 -357c-95 0 -168 30 -219 79l-70 -69h-21l81 80c-67 70 -91 173 -75 273c28 178 190 357 416 357c95 0 168 -30 219 -79l70 69h21l-80 -80c66 -70 91 -173 74 -273zM78 349c-15 -94 7 -191 70 -258l537 529c-49 45 -117 74 -207 74
c-221 0 -374 -176 -400 -345zM158 81c49 -46 117 -75 207 -75c221 0 374 176 400 345c15 95 -8 191 -70 258z" />
    <glyph glyph-name="equal" unicode="=" horiz-adv-x="544" 
d="M486 429h-389l4 23h389zM458 248h-389l3 23h389z" />
    <glyph glyph-name="greater" unicode="&#x3e;" horiz-adv-x="483" 
d="M443 337l-382 -161l4 25l355 149l-308 149l4 25l331 -162z" />
    <glyph glyph-name="greaterequal" unicode="&#x2265;" horiz-adv-x="517" 
d="M453 342l-382 -161l4 25l355 149l-308 149l4 25l331 -162zM398 0h-356l4 23h356z" />
    <glyph glyph-name="infinity" unicode="&#x221e;" horiz-adv-x="823" 
d="M424 378c60 75 120 147 214 147c86 0 153 -63 137 -169c-17 -103 -98 -165 -184 -165c-87 0 -138 73 -173 147c-58 -75 -119 -147 -215 -147c-86 0 -151 63 -134 169c16 103 98 165 184 165c87 0 136 -73 171 -147zM408 359c-34 73 -75 143 -152 143s-149 -52 -164 -145
c-14 -90 41 -143 116 -143c86 0 143 70 200 145zM751 360c14 90 -40 142 -115 142c-87 0 -144 -70 -201 -145c33 -73 76 -143 153 -143s149 53 163 146z" />
    <glyph glyph-name="integral" unicode="&#x222b;" horiz-adv-x="396" 
d="M246 667c15 93 89 123 146 123c28 0 51 -5 66 -13l-3 -23c-17 8 -38 13 -61 13c-51 0 -111 -24 -125 -107l-122 -767c-15 -93 -84 -123 -146 -123c-27 0 -51 6 -66 13l3 23c17 -8 37 -13 60 -13c57 0 114 24 126 107z" />
    <glyph glyph-name="less" unicode="&#x3c;" horiz-adv-x="483" 
d="M389 201l-4 -25l-330 162l4 25l381 161l-3 -25l-355 -149z" />
    <glyph glyph-name="lessequal" unicode="&#x2264;" horiz-adv-x="524" 
d="M427 205l-4 -24l-330 162l4 25l381 161l-3 -26l-355 -148zM394 0h-356l4 23h356z" />
    <glyph glyph-name="logicalnot" unicode="&#xac;" horiz-adv-x="580" 
d="M501 302h-24l25 155h-401l3 23h425z" />
    <glyph glyph-name="minus" unicode="&#x2212;" horiz-adv-x="518" 
d="M447 337h-364l3 24h365z" />
    <glyph glyph-name="multiply" unicode="&#xd7;" horiz-adv-x="444" 
d="M229 335l-156 -136l-14 17l156 134l-114 135l18 15l113 -134l157 135l13 -16l-156 -135l113 -135l-17 -16z" />
    <glyph glyph-name="notequal" unicode="&#x2260;" horiz-adv-x="544" 
d="M129 146h-24l81 102h-117l3 23h132l126 158h-233l4 23h247l81 102h24l-81 -102h118l-4 -23h-132l-126 -158h233l-3 -23h-248z" />
    <glyph glyph-name="partialdiff" unicode="&#x2202;" horiz-adv-x="594" 
d="M532 264c-27 -167 -141 -274 -288 -274c-139 0 -229 91 -206 236c21 132 142 223 266 223c103 0 203 -61 204 -189c2 8 4 17 4 26c34 261 -133 393 -351 391l4 23c231 0 413 -145 367 -436zM61 222c-20 -128 57 -209 183 -209c118 0 208 74 248 189
c21 152 -78 224 -186 224c-116 0 -226 -82 -245 -204z" />
    <glyph glyph-name="percent" unicode="%" horiz-adv-x="873" 
d="M189 -60h-26l539 820h26zM375 563c-14 -94 -92 -139 -167 -139c-73 0 -142 51 -127 147c15 94 93 139 168 139c74 0 142 -51 126 -147zM103 569c-12 -77 40 -123 105 -123c67 0 132 40 145 119c12 77 -41 123 -104 123c-69 0 -133 -40 -146 -119zM811 129
c-15 -94 -93 -139 -167 -139s-143 51 -128 147c15 94 92 139 168 139c73 0 142 -51 127 -147zM540 135c-13 -77 39 -123 104 -123c67 0 132 40 145 119c12 77 -41 123 -104 123c-69 0 -133 -40 -145 -119z" />
    <glyph glyph-name="perthousand" unicode="&#x2030;" horiz-adv-x="1239" 
d="M189 -60h-26l539 820h26zM375 563c-14 -94 -92 -139 -167 -139c-73 0 -142 51 -127 147c15 94 93 139 168 139c74 0 142 -51 126 -147zM103 569c-12 -77 40 -123 105 -123c67 0 132 40 145 119c12 77 -41 123 -104 123c-69 0 -133 -40 -146 -119zM811 129
c-15 -94 -93 -139 -167 -139s-143 51 -128 147c15 94 92 139 168 139c73 0 142 -51 127 -147zM540 135c-13 -77 39 -123 104 -123c67 0 132 40 145 119c12 77 -41 123 -104 123c-69 0 -133 -40 -145 -119zM1178 129c-15 -94 -93 -139 -167 -139s-143 51 -128 147
c15 94 92 139 168 139c73 0 142 -51 127 -147zM906 135c-13 -77 39 -123 104 -123c67 0 132 40 145 119c12 77 -41 123 -104 123c-69 0 -133 -40 -145 -119z" />
    <glyph glyph-name="plus" unicode="+" horiz-adv-x="536" 
d="M291 362h201l-3 -24h-201l-32 -201h-23l32 201h-201l3 24h201l32 201h24z" />
    <glyph glyph-name="plusminus" unicode="&#xb1;" horiz-adv-x="584" 
d="M354 569l-33 -201h201l-3 -23h-201l-32 -201h-23l32 201h-201l3 23h201l32 201h24zM464 0h-425l4 23h425z" />
    <glyph glyph-name="product" unicode="&#x220f;" horiz-adv-x="724" 
d="M85 -220h-25l142 896h-103l4 24h648l-4 -24h-103l-142 -896h-25l142 896h-392z" />
    <glyph glyph-name="radical" unicode="&#x221a;" horiz-adv-x="718" 
d="M295 0h-24l-120 456h-94l3 24h108l119 -451l471 751h28z" />
    <glyph glyph-name="summation" unicode="&#x2211;" horiz-adv-x="562" 
d="M462 0h-467l2 16l345 335l-238 333l2 16h462l-4 -24h-424l229 -322l-1 -10l-328 -320h426z" />
    <glyph glyph-name="lozenge" unicode="&#x25ca;" horiz-adv-x="541" 
d="M238 0h-27l-161 350l271 350h28l161 -350zM77 348l150 -325l256 329l-150 324z" />
    <glyph glyph-name="bar" unicode="|" horiz-adv-x="181" 
d="M41 -100h-25l144 910h25z" />
    <glyph glyph-name="brokenbar" unicode="&#xa6;" horiz-adv-x="199" 
d="M140 467h-25l54 343h24zM50 -100h-25l55 343h24z" />
    <glyph glyph-name="at" unicode="@" horiz-adv-x="1059" 
d="M45 248c38 240 247 462 558 462c299 0 427 -243 397 -437c-29 -179 -118 -263 -217 -263c-81 0 -127 45 -117 132c-42 -64 -113 -109 -192 -109c-109 0 -183 81 -164 207c20 123 116 203 225 203c81 0 138 -48 159 -111l16 102h23l-46 -287c-10 -72 22 -115 96 -115
c89 0 167 81 192 245c29 182 -91 409 -373 409c-296 0 -495 -210 -532 -442c-46 -285 157 -450 407 -450c81 0 156 10 231 36l-5 -25c-76 -26 -147 -35 -226 -35c-264 0 -480 173 -432 478zM687 296c-11 69 -67 124 -150 124c-98 0 -186 -69 -203 -183
c-18 -112 46 -181 141 -181c86 0 160 56 194 125z" />
    <glyph glyph-name="ampersand" unicode="&#x26;" horiz-adv-x="676" 
d="M513 111l107 -111h-30l-92 96c-65 -63 -155 -106 -265 -106c-142 0 -213 77 -198 174s108 159 198 208c-41 47 -84 109 -73 177c14 84 98 161 221 161c97 0 164 -56 151 -138c-15 -93 -151 -149 -263 -207l22 -23l206 -214c50 54 81 120 91 185h24
c-10 -70 -44 -143 -99 -202zM381 687c-115 0 -186 -68 -197 -143c-9 -59 30 -117 69 -161h1c109 55 241 109 254 192c10 67 -44 112 -127 112zM59 161c-12 -82 50 -148 176 -148c102 0 186 40 247 99l-211 219l-22 23c-89 -47 -175 -105 -190 -193z" />
    <glyph glyph-name="paragraph" unicode="&#xb6;" horiz-adv-x="590" 
d="M194 -220h-24l82 516c-133 0 -203 75 -183 204c20 126 113 200 246 200h253l-146 -920h-25l142 896h-203z" />
    <glyph glyph-name="copyright" unicode="&#xa9;" horiz-adv-x="855" 
d="M808 344c-37 -238 -252 -354 -425 -354c-175 0 -355 125 -317 366c37 238 251 354 425 354s355 -125 317 -366zM555 183c-42 -21 -88 -33 -135 -33c-96 0 -188 64 -167 198c23 145 144 202 238 202c47 0 87 -13 116 -35l-2 -19c-30 22 -70 34 -111 34
c-89 0 -198 -51 -219 -185c-19 -119 60 -175 148 -175c45 0 95 13 135 34zM80 354c-36 -228 133 -350 300 -350c170 0 377 111 414 342c35 228 -133 350 -301 350c-170 0 -377 -111 -413 -342z" />
    <glyph glyph-name="registered" unicode="&#xae;" horiz-adv-x="855" 
d="M808 344c-37 -238 -252 -354 -425 -354c-175 0 -355 125 -317 366c37 238 251 354 425 354s355 -125 317 -366zM80 354c-36 -228 133 -350 300 -350c170 0 377 111 414 342c35 228 -133 350 -301 350c-170 0 -377 -111 -413 -342zM297 149h-20l62 395h150
c51 0 142 -21 126 -123c-12 -72 -63 -98 -110 -107l90 -165h-22l-88 162c-13 -2 -25 -2 -34 -2h-129zM356 524l-31 -195h129c47 0 127 7 141 95c14 87 -63 100 -109 100h-130z" />
    <glyph glyph-name="section" unicode="&#xa7;" horiz-adv-x="484" 
d="M386 82c-12 -75 -98 -116 -190 -116c-64 0 -124 18 -163 44l3 24c41 -28 99 -46 159 -46c84 0 158 36 167 98c12 76 -59 98 -137 120c-81 23 -169 46 -155 140c11 67 75 110 126 131c-50 21 -87 52 -77 115c13 77 96 118 181 118c66 0 113 -18 150 -39l-3 -23
c-38 24 -84 40 -146 40c-78 0 -148 -36 -158 -99c-12 -78 69 -98 151 -119c79 -22 157 -51 143 -138c-12 -70 -78 -107 -134 -129c53 -20 94 -55 83 -121zM233 227c15 -5 30 -8 44 -13c50 15 125 49 136 119c11 73 -53 95 -126 115c-23 7 -44 12 -65 19
c-46 -14 -117 -54 -128 -122c-12 -77 62 -96 139 -118z" />
    <glyph glyph-name="trademark" unicode="&#x2122;" horiz-adv-x="650" 
d="M342 449h-18l40 251h20l87 -159l139 159h20l-40 -251h-17l36 225l-135 -152h-11l-85 152zM177 449h-18l37 234h-93l3 17h204l-3 -17h-93z" />
    <glyph glyph-name="degree" unicode="&#xb0;" horiz-adv-x="389" 
d="M382 574c-14 -88 -91 -138 -164 -138c-74 0 -138 54 -124 145c15 87 92 137 164 137c74 0 138 -55 124 -144zM114 578c-12 -75 40 -123 104 -123c66 0 132 44 144 121c12 75 -40 123 -102 123c-66 0 -134 -44 -146 -121z" />
    <glyph glyph-name="asciicircum" unicode="^" horiz-adv-x="483" 
d="M105 404h-28l221 296h22l127 -296h-26l-115 270z" />
    <glyph glyph-name="dagger" unicode="&#x2020;" horiz-adv-x="483" 
d="M173 -220h-25l108 676h-193l3 24h193l35 220h25l-35 -220h192l-3 -24h-193z" />
    <glyph glyph-name="daggerdbl" unicode="&#x2021;" horiz-adv-x="512" 
d="M187 -220h-25l54 339h-192l3 24h193l50 313h-192l3 24h192l35 220h25l-35 -220h192l-3 -24h-192l-50 -313h192l-3 -24h-193z" />
    <glyph glyph-name="acute" unicode="&#xb4;" horiz-adv-x="165" 
d="M158 778h-27l108 133h30z" />
    <glyph glyph-name="breve" unicode="&#x2d8;" horiz-adv-x="316" 
d="M392 824c-41 -30 -80 -41 -127 -41c-48 0 -90 11 -121 41l4 26c34 -33 71 -44 117 -44c45 0 87 11 131 44z" />
    <glyph glyph-name="caron" unicode="&#x2c7;" horiz-adv-x="258" 
d="M387 893l-147 -125h-20l-107 125h27l92 -106l124 106h31z" />
    <glyph glyph-name="cedilla" unicode="&#xb8;" horiz-adv-x="210" 
d="M68 0h22l-38 -95c57 14 121 -6 113 -62c-6 -43 -46 -73 -119 -73c-45 0 -77 10 -101 22l4 21c26 -14 57 -22 95 -22c66 0 96 24 99 55c7 45 -58 58 -120 39z" />
    <glyph glyph-name="circumflex" unicode="&#x2c6;" horiz-adv-x="258" 
d="M239 903h21l107 -125h-27l-91 106l-125 -106h-30z" />
    <glyph glyph-name="dieresis" unicode="&#xa8;" horiz-adv-x="276" 
d="M373 834c-2 -12 -13 -22 -25 -22c-14 0 -23 12 -20 25c1 11 13 21 24 21c15 0 23 -11 21 -24zM173 834c-2 -12 -13 -22 -25 -22c-14 0 -23 12 -20 25c1 11 13 21 24 21c15 0 23 -11 21 -24z" />
    <glyph glyph-name="dotaccent" unicode="&#x2d9;" horiz-adv-x="86" 
d="M180 816c-3 -16 -17 -26 -31 -26c-16 0 -28 11 -25 29c3 15 16 26 30 26c17 0 29 -12 26 -29z" />
    <glyph glyph-name="grave" unicode="`" horiz-adv-x="165" 
d="M242 778h-26l-70 133h28z" />
    <glyph glyph-name="hungarumlaut" unicode="&#x2dd;" horiz-adv-x="299" 
d="M303 778h-27l98 142h28zM151 778h-27l98 142h28z" />
    <glyph glyph-name="macron" unicode="&#xaf;" horiz-adv-x="296" 
d="M133 834h252l-3 -23h-252z" />
    <glyph glyph-name="ogonek" unicode="&#x2db;" horiz-adv-x="203" 
d="M118 7l24 -7c-70 -44 -137 -97 -145 -150c-6 -36 14 -60 56 -60c27 0 52 7 78 20l-3 -22c-24 -12 -51 -19 -78 -19c-56 0 -84 32 -76 80c7 51 60 105 144 158z" />
    <glyph glyph-name="ring" unicode="&#x2da;" horiz-adv-x="200" 
d="M296 838c-8 -49 -52 -80 -95 -80c-45 0 -82 33 -73 84c7 48 52 80 95 80c45 0 82 -33 73 -84zM147 839c-6 -38 22 -62 53 -62c35 0 70 23 77 63c6 38 -21 63 -53 63c-34 0 -70 -24 -77 -64z" />
    <glyph glyph-name="tilde" unicode="&#x2dc;" horiz-adv-x="308" 
d="M412 861c-1 -43 -27 -72 -67 -72c-55 0 -112 56 -159 56c-29 0 -48 -20 -48 -51h-22c0 43 30 73 67 73c54 0 113 -56 160 -56c31 0 46 19 47 50h22z" />
    <glyph glyph-name="uni0326" unicode="&#x326;" horiz-adv-x="85" 
d="M-12 -214h-22l47 166h24z" />
    <glyph glyph-name="A" unicode="A" horiz-adv-x="707" 
d="M644 0h-26l-65 215h-420l-134 -215h-28l433 700h30zM406 659l-260 -420h401l-127 421c-2 4 -4 10 -5 17c-2 -6 -5 -11 -9 -18z" />
    </font>
</defs>
</svg>
