<?xml version="1.0" standalone="no"?>
<!DOCTYPE svg PUBLIC "-//W3C//DTD SVG 20010904//EN"
 "http://www.w3.org/TR/2001/REC-SVG-20010904/DTD/svg10.dtd">
<svg version="1.0" xmlns="http://www.w3.org/2000/svg"
 width="700.000000pt" height="700.000000pt" viewBox="0 0 700.000000 700.000000"
 preserveAspectRatio="xMidYMid meet">
<metadata>
Created by potrace 1.11, written by Peter Selinger 2001-2013
</metadata>
<g transform="translate(0.000000,700.000000) scale(0.100000,-0.100000)"
fill="#000000" stroke="none">
<path d="M2812 6863 c-4 -1 -19 -4 -34 -7 -42 -9 -97 -62 -103 -99 -3 -18 -7
-45 -10 -62 -3 -16 -9 -59 -15 -95 -11 -79 -20 -136 -26 -163 -2 -12 -6 -39
-9 -62 -3 -22 -10 -65 -15 -95 -5 -30 -12 -73 -15 -95 -3 -22 -13 -85 -21
-140 -8 -55 -17 -117 -20 -138 -3 -21 -7 -46 -8 -55 -2 -9 -23 -29 -47 -43
-24 -15 -104 -62 -177 -105 -72 -44 -151 -90 -175 -104 -23 -15 -71 -42 -107
-62 l-65 -36 -118 47 c-64 27 -120 51 -124 54 -3 4 -12 7 -20 7 -7 0 -35 9
-61 21 -26 12 -56 25 -67 30 -11 5 -110 45 -219 89 -179 73 -205 80 -245 75
-91 -12 -96 -19 -356 -461 -131 -225 -288 -492 -348 -594 -60 -102 -113 -195
-118 -207 -14 -38 19 -122 67 -168 23 -22 188 -157 367 -300 l326 -260 0 -330
0 -330 -51 -40 c-28 -22 -81 -65 -118 -95 -37 -30 -84 -68 -105 -85 -22 -16
-55 -43 -75 -60 -20 -16 -53 -43 -74 -60 -21 -16 -66 -52 -100 -80 -34 -27
-82 -66 -107 -85 -84 -66 -127 -116 -134 -157 -8 -49 0 -69 82 -206 36 -62 76
-130 89 -152 12 -22 115 -200 229 -395 115 -195 234 -400 266 -455 62 -108 95
-138 145 -132 26 4 222 79 319 123 17 7 55 22 85 34 30 11 64 25 75 30 49 23
367 150 376 150 5 0 53 -29 107 -64 53 -35 180 -108 281 -162 l185 -99 12 -55
c7 -30 14 -68 17 -85 3 -16 22 -106 42 -200 20 -93 39 -179 41 -190 12 -64 57
-275 64 -305 5 -19 12 -55 15 -80 8 -61 33 -93 83 -105 25 -6 297 -10 729 -9
685 0 688 0 723 22 44 26 66 63 74 122 3 25 8 56 10 70 20 114 26 150 32 185
5 38 90 543 99 594 2 13 8 28 12 32 4 4 67 37 138 74 152 79 219 117 335 194
47 31 92 54 100 52 8 -1 33 -11 55 -21 22 -10 76 -32 120 -50 44 -17 94 -38
110 -45 17 -7 80 -33 140 -58 61 -24 157 -64 215 -88 116 -48 112 -47 157 -55
48 -9 129 21 157 59 19 25 335 561 426 722 63 111 264 452 271 460 5 5 9 25 9
45 0 68 -42 114 -281 305 -123 99 -226 182 -229 185 -3 3 -60 49 -128 103 -68
54 -125 104 -127 110 -2 7 -6 129 -8 272 -4 254 -7 287 -27 340 -15 39 -15 38
53 91 189 148 635 511 655 533 40 43 54 80 47 117 -3 19 -74 150 -157 291 -83
142 -162 278 -175 303 -14 25 -38 65 -53 90 -15 25 -78 133 -140 240 -161 278
-201 343 -219 357 -40 31 -73 26 -216 -32 -77 -31 -153 -63 -169 -71 -16 -8
-33 -14 -39 -14 -5 0 -24 -7 -43 -15 -69 -30 -101 -44 -214 -89 -63 -26 -128
-53 -145 -60 -98 -44 -95 -45 -186 16 -117 76 -184 115 -334 192 -71 37 -135
73 -142 79 -6 7 -14 39 -18 72 -3 32 -8 62 -10 65 -1 3 -6 28 -9 55 -4 28 -13
93 -21 145 -8 52 -17 113 -20 135 -3 22 -10 65 -15 95 -6 30 -12 75 -15 100
-3 25 -12 86 -20 135 -8 50 -17 110 -21 135 -8 56 -27 85 -64 100 -22 9 -203
13 -715 14 -377 0 -688 0 -693 -1z m960 -1887 c111 -20 280 -77 383 -128 192
-96 405 -270 529 -433 116 -154 217 -361 261 -535 14 -58 21 -92 31 -157 3
-26 8 -57 10 -68 6 -27 5 -274 0 -305 -2 -14 -10 -59 -16 -100 -23 -147 -76
-306 -145 -436 -38 -73 -65 -121 -77 -139 -205 -286 -437 -472 -725 -580 -73
-28 -207 -64 -263 -72 -19 -3 -55 -9 -80 -13 -49 -9 -351 -6 -415 5 -184 30
-431 122 -558 209 -21 14 -40 26 -43 26 -15 0 -153 117 -234 200 -195 198
-317 413 -385 680 -34 133 -39 183 -40 365 0 154 6 230 25 305 5 19 11 47 14
61 7 44 66 209 99 278 148 312 402 566 717 717 116 56 258 103 365 120 22 3
60 10 85 14 73 13 366 4 462 -14z"/>
</g>
</svg>
